<svg width="56" height="56" viewBox="0 0 56 56" fill="none" xmlns="http://www.w3.org/2000/svg">
<g clip-path="url(#clip0_3518_106)">
<path fill-rule="evenodd" clip-rule="evenodd" d="M49.42 10.57C46.5263 7.27676 42.9225 4.68356 38.8806 2.98595C34.8387 1.28834 30.4641 0.530643 26.0866 0.770003C21.7561 1.02509 17.5451 2.28876 13.7896 4.46021C10.0342 6.63166 6.83816 9.65077 4.45665 13.2767C2.1951 16.5326 0.754179 20.287 0.256645 24.22C-0.255579 28.1192 -0.00997116 32.0806 0.979979 35.8867C1.59651 38.6027 2.66107 41.1971 4.12998 43.5633C5.18712 45.1358 6.55247 46.4774 8.14331 47.5067C8.29802 47.6119 8.48819 47.6513 8.67197 47.6163C8.85576 47.5813 9.01811 47.4747 9.12331 47.32C9.22851 47.1653 9.26795 46.9751 9.23294 46.7913C9.19794 46.6076 9.09135 46.4452 8.93664 46.34C7.17976 45.154 5.74465 43.5505 4.75998 41.6733C3.7896 39.7156 3.06092 37.647 2.58998 35.5133C1.74734 31.9028 1.60476 28.1642 2.16998 24.5C2.69924 20.8999 4.09225 17.4814 6.22998 14.5367C8.48194 11.2518 11.4674 8.53606 14.9503 6.60431C18.4331 4.67256 22.3176 3.57781 26.2966 3.40667C30.2386 3.22729 34.1707 3.93263 37.8045 5.47094C41.4383 7.00926 44.6817 9.34153 47.2966 12.2967C50.3664 15.7922 52.3974 20.0766 53.1602 24.6658C53.923 29.255 53.3872 33.966 51.6133 38.2667C48.3 46.0133 40.7633 52.1033 29.61 53.3167C27.5525 53.4903 25.4841 53.4903 23.4266 53.3167C21.3743 53.1892 19.345 52.8132 17.3833 52.1967C17.2837 52.1645 17.1788 52.1523 17.0745 52.1606C16.9701 52.169 16.8685 52.1979 16.7753 52.2455C16.6822 52.2932 16.5993 52.3588 16.5315 52.4384C16.4636 52.5181 16.4122 52.6104 16.38 52.71C16.3478 52.8096 16.3356 52.9145 16.3439 53.0189C16.3523 53.1232 16.3812 53.2248 16.4288 53.318C16.4765 53.4112 16.5421 53.494 16.6218 53.5619C16.7015 53.6297 16.7937 53.6812 16.8933 53.7133C18.9668 54.3943 21.1122 54.8328 23.2866 55.02C25.4526 55.2064 27.6306 55.2064 29.7966 55.02C41.86 53.9233 50.05 47.4133 53.7366 39.1067C55.7416 34.4191 56.3998 29.2653 55.6372 24.2244C54.8747 19.1834 52.7216 14.4548 49.42 10.57Z" fill="#302D2D"/>
<path fill-rule="evenodd" clip-rule="evenodd" d="M19.8333 34.6034H20.2766V36.26C20.3163 38.2114 20.6466 40.146 21.2566 42C21.4617 42.5688 21.8176 43.0711 22.2861 43.4534C22.7546 43.8356 23.3182 44.0833 23.9166 44.17L28.1633 44.3334C28.7059 44.3956 29.2539 44.3956 29.7966 44.3334C30.2661 44.2713 30.7055 44.0678 31.0566 43.75C31.4948 43.2719 31.8286 42.7077 32.0366 42.0934C32.3682 41.0315 32.5795 39.9357 32.6666 38.8267V34.7667H33.6933C34.7433 34.7667 35.9099 34.7667 37.0299 34.6267C37.8131 34.5858 38.5926 34.4922 39.3633 34.3467C40.0656 34.2842 40.7562 34.1272 41.4166 33.88C41.956 33.634 42.3814 33.1918 42.6066 32.6434C42.7567 32.2069 42.8431 31.7511 42.8633 31.29C42.8824 30.5097 42.8355 29.7291 42.7233 28.9567V25.8767C42.6734 25.2627 42.5154 24.6624 42.2566 24.1034C42.0165 23.6729 41.6384 23.3359 41.1833 23.1467C40.6502 22.935 40.0942 22.7862 39.5266 22.7034C38.6639 22.5498 37.7895 22.4717 36.9133 22.47C35.64 22.4837 34.3692 22.5851 33.1099 22.7734H32.0366C32.0366 22.0734 31.7799 21.07 31.7799 20.8367L31.5699 16.7534C31.5713 15.9657 31.4693 15.1812 31.2666 14.42C31.089 13.9222 30.7633 13.4907 30.3333 13.1834C30.0797 12.9767 29.7856 12.8257 29.4699 12.74C28.927 12.5885 28.3731 12.4793 27.8133 12.4134L25.6666 12.3667C24.733 12.4834 23.8213 12.7349 22.9599 13.1134C22.3015 13.3739 21.7111 13.7808 21.2333 14.3034C21.0464 14.5398 20.9256 14.8216 20.8833 15.12C20.8482 15.5783 20.8482 16.0385 20.8833 16.4967L20.9999 20.86C20.9999 21.0457 21.0737 21.2237 21.2049 21.355C21.3362 21.4863 21.5143 21.56 21.6999 21.56C21.8856 21.56 22.0636 21.4863 22.1949 21.355C22.3262 21.2237 22.3999 21.0457 22.3999 20.86V16.5667V15.3534C22.8246 14.9826 23.3269 14.7115 23.8699 14.56C25.4487 14.1118 27.1211 14.1118 28.6999 14.56C28.8596 14.6014 29.0101 14.6727 29.1433 14.77C29.2967 14.9007 29.3965 15.0836 29.4233 15.2834C29.4698 15.8424 29.4698 16.4043 29.4233 16.9634V20.9067C29.4233 21.2567 29.2133 22.6567 29.2366 23.52C29.2248 24.0125 29.3904 24.4928 29.7033 24.8734C30.0232 25.1676 30.4358 25.3408 30.8699 25.3634C31.6528 25.3718 32.4345 25.3015 33.2033 25.1534C34.2533 25.1534 35.1866 24.99 36.1199 24.99C37.0593 24.9871 37.9968 25.073 38.9199 25.2467L39.8999 25.55C39.9131 25.752 39.9131 25.9547 39.8999 26.1567C39.8999 27.2067 39.7599 28.49 39.8999 29.3067C39.9759 29.9026 40.0149 30.5026 40.0166 31.1034C40.0166 32.3867 39.8066 31.7334 38.6633 31.9434C37.9994 32.0597 37.3294 32.1376 36.6566 32.1767H33.5299C33.0399 32.1767 32.2466 32.0134 31.6399 32.0367C31.3537 32.0314 31.069 32.0789 30.7999 32.1767C30.5395 32.2605 30.3065 32.4132 30.1258 32.6185C29.9451 32.8239 29.8232 33.0744 29.7733 33.3434C29.7098 33.7844 29.7098 34.2323 29.7733 34.6734V38.64C29.7701 39.3463 29.6919 40.0503 29.5399 40.74C29.2366 41.79 28.8633 41.9067 28.2566 41.86H24.0799C23.4966 41.86 23.2866 41.2067 23.0999 40.6C22.7539 39.1534 22.5507 37.6763 22.4933 36.19V34.3467C22.3927 33.8066 22.0823 33.3284 21.6299 33.0167C21.2813 32.796 20.8929 32.6454 20.4866 32.5734C19.7935 32.4387 19.0917 32.353 18.3866 32.3167C17.5933 32.3167 16.7766 32.1534 16.0533 32.0134C15.3299 31.8734 14.3966 31.71 13.7199 31.5234C12.5299 31.2434 12.0633 31.5234 12.2499 28.9334C12.2029 28.1563 12.2029 27.3771 12.2499 26.6C12.2582 26.2624 12.3725 25.9358 12.5766 25.6667C12.695 25.5383 12.8496 25.4488 13.0199 25.41C13.4669 25.3156 13.9187 25.2454 14.3733 25.2C15.336 25.0289 16.312 24.943 17.2899 24.9434C18.2741 24.9533 19.2565 25.0312 20.2299 25.1767C20.4372 25.2104 20.6494 25.1606 20.8199 25.0381C20.9905 24.9156 21.1056 24.7305 21.1399 24.5234C21.1599 24.4204 21.1587 24.3144 21.1363 24.2119C21.1138 24.1095 21.0707 24.0127 21.0095 23.9274C20.9484 23.8422 20.8704 23.7704 20.7805 23.7164C20.6906 23.6624 20.5906 23.6273 20.4866 23.6134C19.4387 23.4298 18.3771 23.3361 17.3133 23.3334C16.2107 23.2421 15.1025 23.2421 13.9999 23.3334C13.3674 23.3721 12.7413 23.4817 12.1333 23.66C11.7801 23.7773 11.4601 23.9773 11.1999 24.2434C10.7994 24.6409 10.5167 25.1417 10.3833 25.69C10.1771 26.6952 10.091 27.7212 10.1266 28.7467C10.0322 29.599 9.98549 30.4559 9.98659 31.3134C10.0048 31.751 10.1691 32.17 10.4533 32.5034C10.6726 32.7081 10.936 32.8598 11.2233 32.9467C11.7833 33.1334 12.6466 33.25 13.0199 33.3434C14.7164 33.7729 16.4389 34.0925 18.1766 34.3C18.7339 34.3708 19.287 34.472 19.8333 34.6034Z" fill="#302D2D"/>
</g>
<defs>
<clipPath id="clip0_3518_106">
<rect width="56" height="56" fill="white"/>
</clipPath>
</defs>
</svg>
