<svg width="56" height="56" viewBox="0 0 56 56" fill="none" xmlns="http://www.w3.org/2000/svg">
<g clip-path="url(#clip0_3518_144)">
<path fill-rule="evenodd" clip-rule="evenodd" d="M38.7334 17.3834C39.0299 17.1338 39.2892 16.8431 39.5034 16.52C39.6096 16.3228 39.6652 16.1023 39.6652 15.8784C39.6652 15.6544 39.6096 15.4339 39.5034 15.2367C39.3408 14.9887 39.128 14.7776 38.8789 14.6168C38.6297 14.4561 38.3496 14.3493 38.0567 14.3033C36.6647 14.112 35.2618 14.0107 33.8567 14H32.97C32.7504 13.8158 32.575 13.5845 32.4567 13.3233C31.6167 12.0167 30.38 9.87002 29.6567 8.89002C29.3658 8.44718 28.9523 8.09857 28.4667 7.88668C28.2431 7.82186 28.0062 7.81797 27.7806 7.8754C27.555 7.93283 27.3488 8.04951 27.1834 8.21335C26.951 8.45329 26.7474 8.71954 26.5767 9.00668C26.04 9.89335 25.13 11.62 24.2434 12.9267C24.0279 13.3396 23.7614 13.7237 23.45 14.07C21.7805 14.5528 20.0813 14.927 18.3634 15.19C17.5234 15.47 17.1734 15.9833 17.1267 16.2867C17.1459 16.5503 17.2203 16.807 17.3448 17.0401C17.4694 17.2732 17.6415 17.4776 17.85 17.64C18.7834 18.48 21.1634 20.3 21.4667 21.2333C21.4182 22.0973 21.2614 22.9518 21 23.7767C20.5567 25.4567 19.9734 27.3467 19.6934 28.3034C19.6553 28.4743 19.6827 28.6533 19.7702 28.8051C19.8576 28.9569 19.9988 29.0703 20.1658 29.1231C20.3329 29.1758 20.5136 29.164 20.6724 29.09C20.8311 29.016 20.9564 28.8852 21.0234 28.7234C21.1423 28.7979 21.2797 28.8374 21.42 28.8374C21.5604 28.8374 21.6978 28.7979 21.8167 28.7234C23.6739 27.4712 25.6151 26.3485 27.6267 25.3633H27.9067C29.68 26.18 33.0167 28.77 34.65 29.5634C34.9523 29.7352 35.294 29.8255 35.6417 29.8255C35.9894 29.8255 36.3311 29.7352 36.6334 29.5634C36.7886 29.4468 36.9184 29.2998 37.0147 29.1312C37.111 28.9627 37.1718 28.7763 37.1934 28.5834C37.2671 27.9934 37.2032 27.3944 37.0067 26.8334C36.5167 24.85 35 21.8633 35 21C35.146 20.7161 35.3349 20.4564 35.56 20.23C36.5689 19.228 37.6281 18.2779 38.7334 17.3834ZM33.5767 18.48C33.2182 18.821 32.9306 19.2295 32.7304 19.682C32.5301 20.1344 32.4213 20.622 32.41 21.1167C32.41 21.84 34.1134 24.99 34.7434 27.02C32.6658 25.6743 30.5159 24.4435 28.3034 23.3334C27.5408 23.296 26.7869 23.5091 26.1567 23.94C24.8267 24.6634 22.9367 25.9 21.7 26.74C22.1667 25.41 22.68 23.8234 22.9834 22.6334C23.1909 21.986 23.2702 21.3044 23.2167 20.6267C22.3904 19.2367 21.3421 17.9913 20.1134 16.94C21.6965 16.8007 23.2606 16.4957 24.78 16.03C26.1237 14.621 27.2911 13.054 28.2567 11.3634C28.8634 12.3667 29.6334 13.6967 30.2167 14.6533C30.5416 15.2444 30.9681 15.7736 31.4767 16.2167C32.0167 16.4756 32.6048 16.6186 33.2034 16.6367C33.8567 16.6367 34.7434 16.6367 35.5367 16.7767C34.852 17.3073 34.1976 17.876 33.5767 18.48Z" fill="#302D2D"/>
<path fill-rule="evenodd" clip-rule="evenodd" d="M39.6667 52.7333C37.1701 51.1233 32.8301 48.2067 30.7067 46.9C30.1001 46.5267 29.6567 46.2933 29.4467 46.1767C29.1091 46.0452 28.7344 46.0452 28.3967 46.1767C26.5792 46.8635 24.873 47.8148 23.3334 49C21.6534 50.2133 19.9734 51.5667 18.6667 52.57C18.5267 48.7433 18.2467 42.4433 18.1534 38.57C18.1534 36.9367 16.7534 36.8667 16.6367 37.8233C16.6367 37.9633 16.4267 49.49 16.4034 53.13V54.7867C16.3846 55.0219 16.4348 55.2575 16.5479 55.4646C16.6609 55.6718 16.8319 55.8414 17.0399 55.9529C17.2479 56.0643 17.4839 56.1126 17.719 56.092C17.954 56.0714 18.178 55.9826 18.3634 55.8367C18.5501 55.72 18.9234 55.4633 19.4134 55.09C22.2522 52.7229 25.3247 50.6511 28.5834 48.9067L29.2367 49.28C32.1534 51.0067 39.2001 55.5333 40.2267 56.0467C40.2267 56.0467 42.0234 56.1867 41.9767 54.7633C41.9767 54.46 41.9767 53.8067 41.8601 52.92C41.6034 48.5333 41.0434 39.69 40.8801 36.5867C40.8801 34.9067 39.1301 35.63 39.2467 37.4033C39.3634 41.1833 39.6667 48.6733 39.6667 52.7333Z" fill="#302D2D"/>
<path fill-rule="evenodd" clip-rule="evenodd" d="M46.2934 26.1567C47.1006 23.6759 47.5331 21.0885 47.5767 18.48C47.7393 15.7982 47.3091 13.1135 46.3167 10.6167C45.0273 8.16168 43.1618 6.05596 40.8801 4.48002C39.3946 3.33409 37.7623 2.39237 36.0267 1.68002C35.2691 1.41745 34.4876 1.22988 33.6934 1.12002C33.5709 1.08075 33.4417 1.0666 33.3136 1.0784C33.1855 1.0902 33.0611 1.12772 32.9478 1.18871C32.8345 1.24971 32.7347 1.33292 32.6544 1.43337C32.574 1.53383 32.5147 1.64946 32.4801 1.77336C32.4405 1.89742 32.4261 2.02812 32.4376 2.15783C32.4492 2.28753 32.4864 2.41363 32.5473 2.52877C32.6081 2.6439 32.6912 2.74576 32.7919 2.82839C32.8925 2.91102 33.0086 2.97277 33.1334 3.01002C33.6234 3.24336 34.0901 3.57002 34.6501 3.85002C36.718 4.86793 38.6666 6.11221 40.4601 7.56002C41.8597 8.6927 43.0248 10.0877 43.8901 11.6667C44.7064 13.7919 45.0565 16.0677 44.9167 18.34C44.8937 20.6726 44.5402 22.99 43.8667 25.2234C43.0711 27.945 41.6303 30.4344 39.6667 32.48C37.668 34.4512 35.1382 35.7971 32.3867 36.3534C29.0035 37.0398 25.5008 36.847 22.2134 35.7934C18.8915 34.8015 15.999 32.7225 14.0001 29.89C12.2471 27.2984 11.1507 24.3195 10.8052 21.2098C10.4596 18.1002 10.8754 14.9532 12.0167 12.04C13.0017 9.77279 14.5426 7.79057 16.4967 6.27669C18.408 4.67324 20.6104 3.45321 22.9834 2.68336C24.6222 2.26195 26.3079 2.05025 28.0001 2.05336C29.1208 1.96279 30.2483 2.00194 31.3601 2.17002C31.5488 2.22846 31.753 2.2097 31.928 2.11786C32.1029 2.02601 32.2343 1.86857 32.2934 1.68002C32.3518 1.49128 32.3331 1.28706 32.2412 1.11212C32.1494 0.937178 31.9919 0.805772 31.8034 0.746691C30.2903 0.281269 28.7195 0.0299418 27.1367 2.43485e-05C25.5662 -0.0465927 23.9966 0.118218 22.4701 0.490024C19.7245 1.2769 17.1627 2.60143 14.9334 4.38669C12.6925 6.17542 10.9423 8.50367 9.84672 11.1534C8.57408 14.4325 8.13318 17.9757 8.56339 21.4667C8.96313 24.9479 10.2044 28.2794 12.1801 31.1734C14.4806 34.3657 17.7562 36.7241 21.5134 37.8934C25.1207 39.0321 28.9572 39.2408 32.6667 38.5C35.8534 37.8943 38.8113 36.4217 41.2154 34.2441C43.6194 32.0664 45.3765 29.2681 46.2934 26.1567Z" fill="#302D2D"/>
</g>
<defs>
<clipPath id="clip0_3518_144">
<rect width="56" height="56" fill="white"/>
</clipPath>
</defs>
</svg>
