<svg width="56" height="56" viewBox="0 0 56 56" fill="none" xmlns="http://www.w3.org/2000/svg">
<g clip-path="url(#clip0_3603_342)">
<path d="M56 34.09C56.2272 27.2825 55.8759 20.4681 54.95 13.72C54.9866 13.2385 54.9866 12.7549 54.95 12.2733C54.6233 10.71 49.9333 9.94002 47.95 9.75335C47.7678 9.73352 47.5851 9.78596 47.4411 9.8994C47.2971 10.0128 47.2034 10.1782 47.18 10.36C47.0633 11.9 49.5133 10.36 53.27 12.6933C53.2235 14.3517 53.3565 16.0103 53.6667 17.64C54.2267 22.8667 53.9233 26.4833 53.6667 40.3667C50.8941 39.7633 48.0541 39.5279 45.22 39.6667C39.9356 39.63 34.7746 41.2632 30.4733 44.3333C32.06 38.1733 35.9333 36.5167 41.3933 34.5567C42.0119 34.3628 42.6589 34.276 43.3067 34.3C43.4332 34.5863 43.6566 34.8188 43.9376 34.9566C44.2186 35.0945 44.5392 35.1288 44.843 35.0535C45.1468 34.9783 45.4144 34.7983 45.5985 34.5452C45.7827 34.2922 45.8718 33.9822 45.85 33.67C44.9633 10.08 45.85 6.76668 45.4767 4.57335C45.1033 2.38002 43.5167 2.12335 41.3 1.79668C38.5772 1.51115 35.8275 1.96001 33.3368 3.09662C30.8461 4.23323 28.7052 6.01612 27.1367 8.26002C26.95 8.65668 25.8533 11.0833 25.76 11.34C24.1676 10.1235 22.3277 9.27126 20.37 8.84335C15.3438 7.72816 10.0818 8.56209 5.64668 11.1767C4.7823 11.7382 4.04228 12.471 3.47238 13.3299C2.90248 14.1887 2.51481 15.1554 2.33334 16.17C0.28001 24.4767 -0.956657 26.9267 0.956677 44.59C0.956677 45.3133 0.956677 46.4333 1.65668 47.11C1.81356 47.241 1.99722 47.336 2.19473 47.3884C2.39225 47.4408 2.59885 47.4493 2.80001 47.4133V49.21C3.10334 53.41 8.68001 50.8433 14.8167 50.33C19.9033 49.9333 20.4633 51.03 24.9667 53.6433C26.8205 54.3404 28.8294 54.5179 30.7767 54.1567C32.3726 53.917 33.8862 53.2924 35.1867 52.3367C50.5633 41.02 50.0267 54.25 53.62 44.7533C53.7863 44.3194 53.8885 43.8635 53.9233 43.4C54.1044 43.519 54.3135 43.5883 54.5297 43.601C54.7459 43.6137 54.9617 43.5694 55.1555 43.4726C55.3492 43.3757 55.5141 43.2296 55.6336 43.049C55.7532 42.8684 55.8232 42.6595 55.8367 42.4433C56.0511 39.6643 56.1056 36.8753 56 34.09ZM27.72 12.5767C34.72 -0.583317 43.4 5.20335 43.7733 5.57668C43.96 6.27668 42.91 22.0967 42.8633 23.5433L43.0733 31.5933C40.4849 31.871 37.9832 32.6871 35.7289 33.989C33.4745 35.291 31.5174 37.0501 29.9833 39.1533C28.8167 41.16 29.2133 41.37 29.0033 40.04C28.9567 39.8067 27.6267 12.7633 27.72 12.5767ZM2.52001 22.7033C3.19668 20.1133 4.03668 13.5333 6.27668 12.7867C12.81 10.5933 19.3433 10.0567 25.41 13.37C26.1299 15.3731 26.4548 17.4967 26.3667 19.6233C26.3667 24.4067 26.5067 38.85 27.0667 43.19C23.3523 41.4963 19.2925 40.6971 15.2133 40.8567C11.9867 41.1434 8.83145 41.9716 5.88001 43.3067C5.60001 43.3067 4.29334 44.6367 3.36001 45.15C3.36001 44.8233 3.10334 44.45 3.08001 44.2633C2.33334 37.9167 1.23668 29.5633 2.52001 22.7033ZM50.4933 45.64C43.7733 42.9567 38.43 46.76 33.67 50.1667C32.6528 50.8474 31.5068 51.3124 30.3029 51.5331C29.099 51.7539 27.8626 51.7256 26.67 51.45C17.64 45.0567 14.14 48.1133 5.97334 49.35C5.55334 49.35 5.22668 49.56 5.01668 49.35C4.80668 49.14 4.57334 47.7867 4.03668 47.0167C5.04001 46.5033 6.37001 45.6867 6.69668 45.5933C10.1267 44.52 14 42 22.4 44.3333C28.6067 45.9433 28.28 48.65 30.38 47.5067C33.5067 45.8267 38.01 40.7867 52.1033 42.49C51.962 42.66 51.8873 42.8757 51.8933 43.0967C50.5167 45.57 50.5867 45.4067 50.4933 45.64Z" fill="#302D2D"/>
<path d="M8.51664 21C10.85 20.6734 10.6633 19.53 13.7433 19.53C15.4604 19.6546 17.1543 19.9997 18.7833 20.5567C19.2266 20.3934 19.5533 20.2067 19.5533 19.7634C19.5533 18.76 18.1533 17.7334 16.03 17.43C9.8933 16.2867 9.30997 19.2267 8.1433 19.7634C8.03671 19.8512 7.95847 19.9685 7.91841 20.1006C7.87835 20.2328 7.87827 20.3738 7.91818 20.506C7.95808 20.6382 8.03619 20.7557 8.14268 20.8436C8.24917 20.9315 8.37928 20.9859 8.51664 21Z" fill="#302D2D"/>
<path d="M8.51671 29.2367C10.85 28.91 10.6634 27.7667 13.7434 27.7667C15.4605 27.8913 17.1544 28.2363 18.7834 28.7933C19.2267 28.6533 19.5534 28.4433 19.5534 28C19.5534 26.9967 18.1534 25.9933 16.03 25.6667C9.89337 24.5233 9.31004 27.44 8.14337 28C8.02868 27.9882 7.91285 28.0049 7.80617 28.0486C7.69949 28.0924 7.60527 28.1618 7.53187 28.2507C7.45847 28.3396 7.40817 28.4453 7.38544 28.5583C7.36271 28.6714 7.36825 28.7883 7.40157 28.8986C7.4349 29.009 7.49497 29.1094 7.57645 29.191C7.65793 29.2726 7.75829 29.3328 7.86863 29.3662C7.97897 29.3997 8.09586 29.4053 8.20892 29.3827C8.32198 29.3601 8.42771 29.31 8.51671 29.2367Z" fill="#302D2D"/>
<path d="M8.51666 37.5667C10.85 37.24 10.6633 36.0967 13.7433 36.0967C15.4586 36.2343 17.1509 36.579 18.7833 37.1233C19.2267 36.9833 19.5533 36.7733 19.5533 36.3533C19.5533 35.3267 18.1533 34.3233 16.03 34.02C9.89333 32.8767 9.30999 35.8167 8.14333 36.3533C8.02679 36.3373 7.90809 36.3509 7.79819 36.3929C7.6883 36.4348 7.59075 36.5038 7.51456 36.5934C7.43837 36.6831 7.38599 36.7905 7.36228 36.9057C7.33856 37.0209 7.34426 37.1402 7.37886 37.2527C7.41345 37.3651 7.47582 37.467 7.56021 37.549C7.6446 37.6309 7.74828 37.6903 7.86168 37.7216C7.97508 37.7529 8.09453 37.7551 8.20901 37.728C8.32349 37.7009 8.4293 37.6455 8.51666 37.5667Z" fill="#302D2D"/>
</g>
<defs>
<clipPath id="clip0_3603_342">
<rect width="56" height="56" fill="white"/>
</clipPath>
</defs>
</svg>
