<svg width="56" height="56" viewBox="0 0 56 56" fill="none" xmlns="http://www.w3.org/2000/svg">
<g clip-path="url(#clip0_3518_118)">
<path d="M26.81 26.46C25.9 25.69 25.9 25.13 23.3566 25.1533C22.4107 25.2932 21.528 25.7121 20.8214 26.3563C20.1148 27.0006 19.6164 27.8409 19.39 28.77C19.179 29.4684 19.1842 30.2143 19.4049 30.9098C19.6256 31.6052 20.0515 32.2177 20.6266 32.6666C21.4313 33.1218 22.3501 33.3353 23.273 33.2815C24.1959 33.2277 25.0837 32.9089 25.83 32.3633C26.6242 31.9116 27.2427 31.2052 27.5857 30.3583C27.9287 29.5115 27.976 28.5737 27.72 27.6966C27.5224 27.2161 27.21 26.7915 26.81 26.46ZM24.4766 30.45C24.1212 30.7151 23.6976 30.8734 23.2555 30.9065C22.8133 30.9396 22.3709 30.8459 21.98 30.6366C21.3966 30.2633 21.49 29.47 21.7233 28.77C21.9566 28.07 22.5866 26.95 23.38 26.81C23.7498 26.7652 24.1249 26.8096 24.474 26.9395C24.8231 27.0694 25.136 27.281 25.3866 27.5566C25.6189 27.7582 25.7821 28.0275 25.8533 28.3266C26.18 29.2366 25.41 29.9833 24.57 30.45H24.4766Z" fill="#302D2D"/>
<path d="M12.9966 38.6866C12.0866 37.9166 12.0866 37.3566 9.51997 37.38C8.57826 37.5242 7.70064 37.9449 6.99854 38.5889C6.29643 39.2328 5.80152 40.0709 5.57664 40.9966C5.34477 41.7079 5.3392 42.4736 5.56068 43.1882C5.78217 43.9028 6.21981 44.5312 6.8133 44.9866C7.61794 45.4418 8.53677 45.6553 9.45965 45.6015C10.3825 45.5477 11.2703 45.2289 12.0166 44.6833C12.8108 44.2316 13.4294 43.5252 13.7724 42.6783C14.1153 41.8315 14.1626 40.8937 13.9066 40.0166C13.7228 39.5024 13.4094 39.0443 12.9966 38.6866ZM10.6633 42.6766C10.3079 42.9418 9.8843 43.1001 9.44213 43.1332C8.99996 43.1662 8.55752 43.0726 8.16664 42.8633C7.5833 42.49 7.67664 41.6966 7.90997 40.9966C8.1433 40.2966 8.74997 39.1766 9.56664 39.0366C9.9327 38.9957 10.3032 39.042 10.648 39.1718C10.9927 39.3016 11.3018 39.5111 11.55 39.7833C11.7885 39.9836 11.9596 40.2524 12.04 40.5533C12.3666 41.4633 11.6666 42.21 10.7566 42.6766H10.6633Z" fill="#302D2D"/>
<path d="M39.13 26.1567C38.1734 25.34 38.1734 24.8267 35.6534 24.8267C34.7086 24.9725 33.8288 25.3967 33.1264 26.0451C32.424 26.6935 31.9309 27.5366 31.71 28.4667C31.48 29.1745 31.4754 29.9363 31.6969 30.6469C31.9184 31.3574 32.3551 31.9816 32.9467 32.4333C33.7458 32.9061 34.6677 33.1298 35.5946 33.0758C36.5216 33.0218 37.4113 32.6924 38.15 32.13C38.9442 31.6783 39.5628 30.9719 39.9058 30.125C40.2487 29.2782 40.296 28.3404 40.04 27.4633C39.8565 26.9555 39.5426 26.5049 39.13 26.1567ZM36.7967 30.1467C36.4413 30.4118 36.0177 30.5701 35.5755 30.6032C35.1333 30.6363 34.6909 30.5426 34.3 30.3333C33.7167 29.96 33.81 29.1433 34.0434 28.4433C34.2767 27.7433 34.8834 26.6233 35.7 26.5067C36.2347 26.4189 36.7832 26.5199 37.2516 26.7923C37.7199 27.0648 38.0788 27.4918 38.2667 28C38.5 28.9333 37.73 29.6567 36.89 30.1467H36.7967Z" fill="#302D2D"/>
<path d="M25.3167 38.3833C24.4067 37.6133 24.4067 37.0533 21.84 37.0533C20.888 37.1805 19.9985 37.5984 19.2928 38.2498C18.587 38.9013 18.0995 39.7546 17.8967 40.6933C17.6631 41.4009 17.6567 42.1638 17.8785 42.8751C18.1002 43.5865 18.539 44.2106 19.1333 44.66C19.9347 45.1295 20.8579 45.3493 21.7849 45.2911C22.7118 45.2329 23.6003 44.8994 24.3367 44.3333C25.1308 43.8816 25.7494 43.1752 26.0924 42.3284C26.4354 41.4815 26.4827 40.5437 26.2267 39.6667C26.0395 39.1673 25.726 38.7251 25.3167 38.3833ZM22.9833 42.3733C22.6279 42.6385 22.2043 42.7968 21.7621 42.8299C21.32 42.8629 20.8775 42.7693 20.4867 42.56C19.88 42.1867 19.9967 41.37 20.23 40.67C20.4633 39.97 21.07 38.85 21.8867 38.7333C22.2508 38.6895 22.6202 38.7322 22.9648 38.8579C23.3094 38.9836 23.6195 39.1887 23.87 39.4567C24.1085 39.6569 24.2796 39.9258 24.36 40.2267C24.6633 41.16 23.9167 42 23.0767 42.3733H22.9833Z" fill="#302D2D"/>
<path d="M49.7 26.39C48.79 25.5967 48.7666 25.06 46.2233 25.06C45.2713 25.1872 44.3818 25.605 43.6761 26.2565C42.9703 26.9079 42.4828 27.7612 42.28 28.7C42.0464 29.4075 42.04 30.1704 42.2618 30.8818C42.4835 31.5931 42.9223 32.2172 43.5166 32.6667C44.3157 33.1395 45.2377 33.3632 46.1646 33.3091C47.0915 33.2551 47.9812 32.9258 48.72 32.3633C49.5141 31.9116 50.1327 31.2052 50.4757 30.3583C50.8187 29.5115 50.866 28.5737 50.61 27.6967C50.4264 27.1889 50.1126 26.7383 49.7 26.39ZM47.3666 30.38C47.0112 30.6451 46.5876 30.8035 46.1454 30.8365C45.7033 30.8696 45.2608 30.776 44.87 30.5667C44.2633 30.1933 44.38 29.3767 44.6133 28.6767C44.8466 27.9767 45.4533 26.8567 46.27 26.74C46.79 26.675 47.3169 26.7869 47.7656 27.0578C48.2142 27.3287 48.5587 27.7428 48.7433 28.2333C49 29.1667 48.3 29.89 47.46 30.3333L47.3666 30.38Z" fill="#302D2D"/>
<path d="M33.95 37.3333C33.0083 37.4775 32.1307 37.8983 31.4286 38.5422C30.7265 39.1861 30.2316 40.0242 30.0067 40.95C29.7748 41.6613 29.7693 42.4269 29.9907 43.1415C30.2122 43.8561 30.6499 44.4845 31.2434 44.94C32.0497 45.3895 32.9676 45.5998 33.8892 45.5461C34.8108 45.4923 35.698 45.1768 36.4467 44.6366C37.2409 44.1849 37.8595 43.4785 38.2024 42.6316C38.5454 41.7848 38.5927 40.847 38.3367 39.97C37.9734 39.1267 37.3547 38.4186 36.5677 37.9456C35.7808 37.4725 34.8652 37.2584 33.95 37.3333ZM35.1867 42.63C34.8313 42.8951 34.4077 43.0534 33.9655 43.0865C33.5233 43.1196 33.0809 43.0259 32.69 42.8166C32.1067 42.4433 32.2 41.65 32.4334 40.9266C32.6667 40.2033 33.2967 39.13 34.09 38.99C34.4542 38.9461 34.8236 38.9888 35.1682 39.1145C35.5128 39.2402 35.8229 39.4453 36.0734 39.7133C36.3075 39.9173 36.4777 40.1847 36.5634 40.4833C36.7967 41.3466 36.0267 42 35.1867 42.56V42.63Z" fill="#302D2D"/>
<path d="M36.7733 9.02998C36.5098 10.7991 36.7025 12.6062 37.3333 14.28C37.755 15.1006 38.4623 15.7387 39.3219 16.0739C40.1815 16.4091 41.134 16.4184 42 16.1C42.589 15.9573 43.1328 15.6688 43.5813 15.2611C44.0298 14.8534 44.3686 14.3395 44.5666 13.7666C44.9482 12.4573 45.0905 11.0898 44.9866 9.72998V8.93665V6.32331C45.0215 5.80668 44.9435 5.28865 44.7582 4.80516C44.5729 4.32166 44.2846 3.88426 43.9133 3.52331C42.6694 2.67947 41.1522 2.33768 39.6666 2.56665C39.5666 2.56352 39.467 2.58052 39.3737 2.61664C39.2804 2.65277 39.1953 2.70727 39.1235 2.77692C39.0517 2.84657 38.9946 2.92994 38.9556 3.02208C38.9166 3.11423 38.8966 3.21327 38.8966 3.31331C38.8394 3.16943 38.7329 3.05057 38.5961 2.97792C38.4594 2.90526 38.3012 2.88355 38.15 2.91665C37.9974 2.95936 37.8579 3.03928 37.7438 3.14924C37.6298 3.2592 37.5449 3.39575 37.4966 3.54665C37.3576 4.36332 37.3028 5.19212 37.3333 6.01998L37.0066 7.44331C36.885 7.96482 36.807 8.49554 36.7733 9.02998ZM38.71 8.07331C38.71 8.07331 39.0833 3.73331 39.0833 3.56998C39.1421 3.70728 39.2396 3.82451 39.3639 3.90737C39.4882 3.99022 39.6339 4.03514 39.7833 4.03665C41.8833 4.03665 42.77 4.43331 43.0033 5.24998C43.0791 6.73456 42.9772 8.22289 42.7 9.68331C42.7063 10.5867 42.6045 11.4875 42.3966 12.3666C42.2333 12.9266 42.0233 13.4866 41.44 13.6266C41.2123 13.7298 40.9645 13.7808 40.7146 13.776C40.4647 13.7712 40.219 13.7107 39.9955 13.599C39.7719 13.4872 39.5761 13.3269 39.4224 13.1299C39.2686 12.9329 39.1607 12.704 39.1066 12.46C38.7357 11.0292 38.6018 9.54739 38.71 8.07331Z" fill="#302D2D"/>
<path d="M19.95 8.30667C19.95 8.54 20.1133 8.77334 21.0233 8.86667C22.33 8.86667 22.89 9.28667 24.6866 9.38001H27.6266H30.5433C32.1533 9.38001 33.1333 9.24001 34.7666 9.12334C35.5366 9.12334 36.1433 7.63 35.1166 7.37334C33.3433 7.30334 32.13 7.00001 30.3333 7.00001H25.6666C24.2238 6.99524 22.7821 7.08096 21.35 7.25667C20.37 7.32667 19.9266 7.95667 19.95 8.30667Z" fill="#302D2D"/>
<path d="M53.6666 9.49663C52.8792 8.64002 51.8427 8.05236 50.7033 7.81663C49.6235 7.53103 48.5048 7.42073 47.39 7.48996C45.7333 7.72329 46.1766 8.86663 47.04 8.86663C47.8218 8.85879 48.6027 8.92126 49.3733 9.05329C50.5372 9.1364 51.6278 9.65254 52.43 10.5C52.9737 11.5905 53.2837 12.7827 53.34 14C53.5733 15.82 53.76 18.1766 53.8766 20.7666C50.4466 20.7666 43.5633 20.4866 35.84 20.3466H27.93H20.02C11.6666 20.4166 4.40998 20.6966 2.12331 20.79C2.1085 17.2696 2.4683 13.7576 3.19664 10.3133C3.42618 9.89191 3.76272 9.53848 4.17236 9.2886C4.582 9.03872 5.05027 8.90122 5.52998 8.88996C6.49907 8.65415 7.4972 8.55984 8.49331 8.60996C8.62521 8.58726 8.74644 8.52315 8.83946 8.42692C8.93247 8.33069 8.99242 8.20734 9.01062 8.07475C9.02881 7.94216 9.00432 7.80722 8.94067 7.68949C8.87703 7.57176 8.77754 7.47735 8.65664 7.41996C7.21118 7.10684 5.71544 7.10684 4.26998 7.41996C3.69743 7.55771 3.16411 7.82497 2.71105 8.20116C2.258 8.57736 1.89727 9.05248 1.65664 9.58996C0.746644 11.7366 -0.186689 23.59 0.0233106 34.09C0.186644 41.72 1.09664 48.5566 2.77664 50.61C4.01331 52.1033 7.23331 52.9433 11.2933 53.27C17.6166 53.69 26.0166 52.99 30.3566 52.99C35.807 53.1625 41.2627 52.9833 46.69 52.4533C49.1366 52.2408 51.5163 51.5427 53.69 50.4C54.3231 49.8632 54.7449 49.1189 54.88 48.3C55.7108 43.5084 56.0858 38.6489 56 33.7866C56 23.3333 55.1366 11.2233 53.6666 9.49663ZM53.0833 45.57C52.9533 46.5939 52.6945 47.5974 52.3133 48.5566C49.7022 49.6496 46.9069 50.2355 44.0766 50.2833C38.6166 50.7266 32.5966 50.5166 30.3566 50.5166C26.0633 50.5166 17.7333 51.24 11.4566 50.8666C8.23664 50.68 5.57664 50.3533 4.59664 49.1866C3.00998 47.3433 2.33331 41.0666 2.12331 34.1366C1.96819 30.1484 1.95262 26.1559 2.07664 22.1666C4.40998 22.1666 11.5266 22.54 20.02 22.7033H27.93H35.84C43.61 22.5633 50.5166 22.3533 53.9233 22.26C53.9233 24.5933 54.04 27.23 53.9233 29.7966C53.9701 35.0667 53.6895 40.3346 53.0833 45.57Z" fill="#302D2D"/>
<path d="M10.4534 8.95996C10.2738 10.8284 10.456 12.7139 10.99 14.5133C11.4117 15.3339 12.119 15.972 12.9786 16.3072C13.8382 16.6425 14.7907 16.6517 15.6567 16.3333C16.2509 16.1961 16.8005 15.9099 17.2536 15.5017C17.7067 15.0935 18.0485 14.5767 18.2467 14C18.6436 12.6776 18.7861 11.292 18.6667 9.91662V7.44329V6.50996C18.6984 5.99363 18.6191 5.4765 18.4339 4.99347C18.2487 4.51045 17.9621 4.07276 17.5934 3.70996C16.3537 2.85578 14.8353 2.5054 13.3467 2.72996C13.1425 2.72996 12.9466 2.81108 12.8022 2.95548C12.6578 3.09989 12.5767 3.29574 12.5767 3.49996C12.5194 3.35607 12.4129 3.23721 12.2762 3.16456C12.1394 3.09191 11.9813 3.07019 11.83 3.10329C11.6775 3.146 11.5379 3.22592 11.4239 3.33588C11.3099 3.44584 11.2249 3.5824 11.1767 3.73329C11.0015 4.49963 10.8999 5.28096 10.8734 6.06662L10.6167 7.30329V7.90996L10.4534 8.95996ZM12.3667 8.28329C12.3667 8.28329 12.74 3.96662 12.74 3.77996C12.7926 3.92344 12.8878 4.04736 13.013 4.13498C13.1382 4.22261 13.2872 4.26972 13.44 4.26996C15.54 4.26996 16.4267 4.66662 16.66 5.48329C16.7281 6.9688 16.6185 8.45713 16.3334 9.91662C16.3354 10.8197 16.2336 11.7201 16.03 12.6C15.89 13.1366 15.68 13.6966 15.0967 13.8366C14.869 13.9397 14.6212 13.9908 14.3713 13.986C14.1214 13.9812 13.8758 13.9207 13.6522 13.8089C13.4287 13.6972 13.2329 13.5369 13.0791 13.3399C12.9253 13.1428 12.8175 12.914 12.7634 12.67C12.3883 11.2399 12.2542 9.75739 12.3667 8.28329Z" fill="#302D2D"/>
</g>
<defs>
<clipPath id="clip0_3518_118">
<rect width="56" height="56" fill="white"/>
</clipPath>
</defs>
</svg>
