<svg width="56" height="56" viewBox="0 0 56 56" fill="none" xmlns="http://www.w3.org/2000/svg">
<g clip-path="url(#clip0_3603_330)">
<path fill-rule="evenodd" clip-rule="evenodd" d="M53.13 2.98667C52.9791 2.60031 52.7369 2.25626 52.424 1.984C52.1111 1.71173 51.7368 1.51935 51.3333 1.42333C44.3333 -0.863334 10.36 -0.14 7.58333 1.86667C7.41006 1.98734 7.29182 2.1719 7.25462 2.37976C7.21743 2.58761 7.26433 2.80172 7.385 2.975C7.50567 3.14827 7.69024 3.26651 7.89809 3.30371C8.10594 3.3409 8.32006 3.29401 8.49333 3.17333C11.0367 1.4 42 1.56333 49.77 3.43C50.2367 3.57 50.6567 3.94333 50.89 3.94333C52.1733 10.1733 52.36 10.7567 50.7267 27.09C26.8567 26.4133 21.7 26.2733 8.19 26.6933C5.50667 26.5533 5.48333 26.25 5.08667 26.6933C4.92333 25.13 4.71333 18.2233 4.85333 13.65C5.08667 5.6 6.06667 4.85333 4.85333 4.66667C4.66846 4.64641 4.4829 4.69814 4.33516 4.81111C4.18743 4.92408 4.08889 5.08961 4.06 5.27333C3.15827 12.1642 2.8538 19.1201 3.15 26.0633C3.1808 28.8526 3.80103 31.6039 4.97 34.1367C7.09333 37.0533 43.33 36.47 48.6267 36.12C49.9333 36.0033 51.5667 35.9567 51.9633 34.79C52.9058 31.3239 53.4538 27.7624 53.5967 24.1733C54.46 12.95 55.2067 12.0633 53.13 2.98667ZM49.6067 33.46C43.4933 33.9267 12.5533 34.3933 6.53333 32.7833C5.85366 31.1504 5.40598 29.4304 5.20333 27.6733C5.50667 27.93 5.78667 28 8.05 28.2567C22.187 29.3644 36.3829 29.5126 50.54 28.7C50.3573 30.3092 50.0452 31.901 49.6067 33.46Z" fill="#302D2D"/>
<path fill-rule="evenodd" clip-rule="evenodd" d="M46.1067 39.6667C44.5434 38.8967 15.5167 39.2467 13.72 39.27C13.5096 39.27 13.3078 39.3536 13.1591 39.5024C13.0103 39.6512 12.9267 39.8529 12.9267 40.0634C12.9267 40.2738 13.0103 40.4755 13.1591 40.6243C13.3078 40.7731 13.5096 40.8567 13.72 40.8567C16.6834 40.8567 42.1167 41.3 44.7534 41.6967C44.87 42 45.4067 42.7 45.7567 43.4934C47.1098 46.5594 48.195 49.7368 49 52.99C44.9634 53.4567 13.4634 53.5734 5.34337 52.99C4.4567 52.99 3.66337 52.5467 3.2667 52.5467C3.5467 49.8167 9.2867 41.4867 9.80003 41.2067C9.95559 41.1155 10.07 40.9678 10.1193 40.7944C10.1687 40.621 10.1492 40.4352 10.065 40.2758C9.98079 40.1164 9.83829 39.9956 9.66722 39.9386C9.49614 39.8817 9.30969 39.8929 9.1467 39.97C6.74336 42.6727 4.63168 45.6212 2.8467 48.7667C1.87707 50.2053 1.4549 51.9436 1.6567 53.6667C1.96003 54.4367 3.17337 54.5767 4.22337 54.74C13.3234 56.0234 48.5567 56.56 50.89 55.3467C51.1109 55.2306 51.3017 55.0648 51.4475 54.8623C51.5933 54.6599 51.69 54.4263 51.73 54.18C52.1734 51.7767 47.5767 40.25 46.1067 39.6667Z" fill="#302D2D"/>
<path fill-rule="evenodd" clip-rule="evenodd" d="M17.4534 50.8667C29.1201 52.15 30.3334 50.8667 35.5834 51.1C35.7938 51.1186 36.003 51.0528 36.1649 50.9171C36.3268 50.7815 36.4282 50.5871 36.4468 50.3767C36.4653 50.1663 36.3995 49.9571 36.2639 49.7952C36.1282 49.6333 35.9338 49.5319 35.7234 49.5133C29.6824 48.6119 23.5411 48.6119 17.5001 49.5133C17.3492 49.5474 17.2138 49.6306 17.1152 49.7497C17.0165 49.8689 16.9601 50.0174 16.9548 50.172C16.9494 50.3266 16.9955 50.4786 17.0857 50.6043C17.1759 50.73 17.3052 50.8223 17.4534 50.8667Z" fill="#302D2D"/>
<path fill-rule="evenodd" clip-rule="evenodd" d="M42.2101 49C41.3934 49 39.1768 49.6767 39.1768 50.3533C39.1768 51.7067 42.7701 51.6367 44.5434 51.1467C44.7538 51.1467 44.9556 51.0631 45.1044 50.9143C45.2532 50.7655 45.3368 50.5637 45.3368 50.3533C45.3368 49.42 42.8401 49 42.2101 49Z" fill="#302D2D"/>
<path fill-rule="evenodd" clip-rule="evenodd" d="M11.1766 49C10.3366 49 8.14331 49.6767 8.14331 50.3533C8.14331 51.7067 11.7366 51.6367 13.51 51.1467C13.7185 51.1408 13.9169 51.0553 14.0644 50.9078C14.212 50.7603 14.2974 50.5619 14.3033 50.3533C14.3033 49.42 11.8066 49 11.1766 49Z" fill="#302D2D"/>
<path fill-rule="evenodd" clip-rule="evenodd" d="M40.5534 43.9133C39.7367 43.9133 37.52 44.59 37.52 45.2667C37.52 46.62 41.1134 46.55 42.8867 46.0367C43.0971 46.0367 43.2989 45.9531 43.4477 45.8043C43.5964 45.6555 43.68 45.4537 43.68 45.2433C43.68 44.3333 41.1834 43.9133 40.5534 43.9133Z" fill="#302D2D"/>
<path fill-rule="evenodd" clip-rule="evenodd" d="M31.7101 43.9133C30.8934 43.9133 28.6768 44.59 28.6768 45.2667C28.6768 46.62 32.2701 46.55 34.0434 46.0367C34.2538 46.0367 34.4556 45.9531 34.6044 45.8043C34.7532 45.6555 34.8368 45.4537 34.8368 45.2433C34.8368 44.3333 32.3401 43.9133 31.7101 43.9133Z" fill="#302D2D"/>
<path fill-rule="evenodd" clip-rule="evenodd" d="M22.8667 43.9133C22.05 43.9133 19.8334 44.59 19.8334 45.2667C19.8334 46.62 23.4267 46.55 25.2 46.0367C25.4104 46.0367 25.6122 45.9531 25.761 45.8043C25.9098 45.6555 25.9934 45.4537 25.9934 45.2433C25.9934 44.3333 23.4967 43.9133 22.8667 43.9133Z" fill="#302D2D"/>
<path fill-rule="evenodd" clip-rule="evenodd" d="M14 43.9133C13.1833 43.9133 10.9667 44.59 10.9667 45.2667C10.9667 46.62 14.56 46.55 16.3333 46.0367C16.5437 46.0367 16.7455 45.9531 16.8943 45.8043C17.0431 45.6555 17.1267 45.4537 17.1267 45.2433C17.15 44.3333 14.6533 43.9133 14 43.9133Z" fill="#302D2D"/>
</g>
<defs>
<clipPath id="clip0_3603_330">
<rect width="56" height="56" fill="white"/>
</clipPath>
</defs>
</svg>
