<svg width="56" height="56" viewBox="0 0 56 56" fill="none" xmlns="http://www.w3.org/2000/svg">
<g clip-path="url(#clip0_3603_387)">
<path d="M29.4233 22.4233C27.6342 23.2135 25.7401 23.7401 23.7999 23.9866C23.0254 24.0771 22.2464 24.1238 21.4666 24.1266C20.6859 24.128 19.9061 24.0734 19.1333 23.9633C17.2293 23.7579 15.3996 23.1108 13.7899 22.0733C13.7311 22.0119 13.6605 21.963 13.5823 21.9296C13.5041 21.8962 13.4199 21.879 13.3349 21.879C13.2499 21.879 13.1657 21.8962 13.0876 21.9296C13.0094 21.963 12.9387 22.0119 12.8799 22.0733C12.7616 22.1952 12.6954 22.3584 12.6954 22.5283C12.6954 22.6982 12.7616 22.8614 12.8799 22.9833C14.4734 24.5911 16.4734 25.7362 18.6666 26.2966C19.5894 26.5265 20.5394 26.6286 21.4899 26.5999C22.4402 26.5963 23.3872 26.4867 24.3133 26.2733C26.4136 25.7625 28.4105 24.8943 30.2166 23.7066C30.3615 23.5918 30.4552 23.4243 30.477 23.2407C30.4989 23.0571 30.4472 22.8723 30.3333 22.7266C30.2487 22.5697 30.1075 22.4509 29.9384 22.3946C29.7693 22.3382 29.585 22.3485 29.4233 22.4233Z" fill="#302D2D"/>
<path d="M41.79 28.7466C41.44 28.49 41.0666 28.28 41.02 27.93C41.02 26.8566 41.7666 25.4566 41.8366 23.9166C41.8856 23.163 41.7743 22.4075 41.51 21.7C41.3742 21.3782 41.1736 21.0878 40.9207 20.8469C40.6678 20.6061 40.368 20.4199 40.04 20.3C38.9349 19.9778 37.7819 19.8515 36.6333 19.9266H35.7233C35.6066 19.9266 35.3733 19.67 35.3966 19.53C35.4048 19.1927 35.4439 18.8568 35.5133 18.5266C35.8862 17.2384 36.0594 15.9007 36.0266 14.56C35.9669 14.2344 35.8023 13.9373 35.558 13.714C35.3136 13.4907 35.0029 13.3535 34.6733 13.3233C32.3439 13.0657 29.9876 13.4196 27.8366 14.35C25.9882 15.0678 24.2578 16.0589 22.7033 17.29C21.2734 16.3818 19.7665 15.601 18.2 14.9566C16.893 14.4619 15.5134 14.186 14.1166 14.14C12.1999 14.1835 10.317 14.6543 8.60547 15.5182C6.89389 16.3821 5.39675 17.6171 4.22329 19.1333C1.76064 21.9653 0.279238 25.5174 -4.3096e-05 29.26C-0.232907 33.9783 0.840962 38.6694 3.10329 42.8166C5.3523 46.8778 8.40018 50.4416 12.0633 53.2933C12.2506 53.4757 12.5018 53.5778 12.7633 53.5778C13.0248 53.5778 13.276 53.4757 13.4633 53.2933C15.5866 50.96 16.45 44.8466 18.8766 41.3933C19.2662 40.7152 19.8374 40.1593 20.5258 39.7883C21.2143 39.4173 21.9927 39.2458 22.7733 39.2933C23.8865 39.3871 24.9684 39.709 25.9519 40.2388C26.9354 40.7687 27.7993 41.4953 28.49 42.3733C30.4969 45.3316 31.9953 48.6044 32.9233 52.0566C32.9989 52.1888 33.1183 52.2903 33.2609 52.3438C33.4034 52.3972 33.5601 52.3993 33.704 52.3494C33.8479 52.2996 33.9698 52.2012 34.0488 52.071C34.1278 51.9409 34.1589 51.7872 34.1366 51.6366C33.2213 48.012 31.7072 44.5658 29.6566 41.44C28.8706 40.3647 27.8692 39.465 26.7162 38.7981C25.5632 38.1312 24.284 37.7118 22.96 37.5666C21.8806 37.4562 20.792 37.6514 19.8183 38.13C18.8447 38.6086 18.0251 39.3513 17.4533 40.2733C15.26 43.26 14.3033 48.37 12.5766 51.03C9.55812 48.3942 7.04392 45.2317 5.15662 41.6966C3.17134 37.8889 2.24464 33.6181 2.47329 29.33C2.72906 26.1362 4.00523 23.1094 6.11329 20.6966C7.05426 19.4897 8.24769 18.503 9.61002 17.8057C10.9723 17.1085 12.4706 16.7174 14 16.66C15.1242 16.6841 16.2363 16.8971 17.29 17.29C18.9954 17.9704 20.6421 18.7898 22.2133 19.74C22.4337 19.874 22.6916 19.9329 22.9483 19.9076C23.205 19.8824 23.4466 19.7744 23.6366 19.6C25.1105 18.2219 26.8169 17.1159 28.6766 16.3333C30.2894 15.6113 32.0436 15.2604 33.81 15.3066C33.8337 15.516 33.8337 15.7273 33.81 15.9366C33.5632 17.0144 33.3762 18.1049 33.25 19.2033C33.2097 19.574 33.2493 19.9491 33.366 20.3032C33.4827 20.6574 33.6739 20.9825 33.9266 21.2566C34.2303 21.5234 34.6017 21.701 35 21.77C35.8633 21.9566 37.3333 21.77 38.5466 21.91C39.0133 21.91 39.5033 21.91 39.6433 22.3533C39.8314 22.7865 39.9115 23.259 39.8766 23.73C39.8766 25.3633 39.0133 26.88 39.13 28.0233C39.2099 28.5404 39.446 29.0208 39.8066 29.4C40.3279 29.8832 40.89 30.3204 41.4866 30.7066C41.8133 30.94 42.21 31.0566 42.1866 31.4066C42.0288 33.6307 41.6218 35.83 40.9733 37.9633C40.313 40.1278 39.5341 42.2544 38.64 44.3333C38.2151 45.3081 37.7077 46.2449 37.1233 47.1333C36.5572 48.0341 35.9255 48.892 35.2333 49.7C35.1656 49.7672 35.1118 49.8472 35.0751 49.9353C35.0384 50.0234 35.0196 50.1179 35.0196 50.2133C35.0196 50.3087 35.0384 50.4032 35.0751 50.4913C35.1118 50.5794 35.1656 50.6594 35.2333 50.7266C35.2988 50.7973 35.3782 50.8537 35.4666 50.8923C35.5549 50.9308 35.6502 50.9507 35.7466 50.9507C35.843 50.9507 35.9383 50.9308 36.0267 50.8923C36.115 50.8537 36.1944 50.7973 36.26 50.7266C37.0098 49.8619 37.7034 48.9501 38.3366 47.9966C38.9769 47.0444 39.5313 46.0371 39.9933 44.9866C41.1525 42.4494 42.1197 39.8287 42.8866 37.1466C43.4056 35.3247 43.7494 33.4573 43.9133 31.57C43.9293 31.2887 43.8879 31.0071 43.7916 30.7424C43.6953 30.4776 43.5462 30.2353 43.3533 30.03C42.8766 29.5507 42.3529 29.1208 41.79 28.7466Z" fill="#302D2D"/>
<path d="M35.4433 11.1066C35.5261 11.1198 35.6108 11.1164 35.6922 11.0964C35.7737 11.0764 35.8504 11.0404 35.9178 10.9904C35.9852 10.9404 36.0419 10.8775 36.0846 10.8053C36.1273 10.7331 36.1552 10.6531 36.1666 10.57C36.4933 9.72996 36.8666 8.98329 37.1233 8.23662C37.2348 7.83255 37.3052 7.41821 37.3333 6.99996C37.3679 6.62743 37.3679 6.25249 37.3333 5.87996C37.4006 4.99457 37.4006 4.10535 37.3333 3.21996C37.3397 3.02576 37.2702 2.8367 37.1395 2.69293C37.0088 2.54916 36.8272 2.46199 36.6333 2.44996C36.4406 2.44916 36.2547 2.52061 36.1121 2.6502C35.9696 2.77979 35.8808 2.95811 35.8633 3.14996C35.6766 4.01329 35.3733 4.80662 35.1633 5.64662C35.0096 6.20489 34.9003 6.77445 34.8366 7.34996C34.7664 8.35206 34.7664 9.35785 34.8366 10.36C34.8196 10.45 34.8225 10.5426 34.8449 10.6313C34.8674 10.7201 34.909 10.8029 34.9667 10.874C35.0245 10.9451 35.097 11.0027 35.1793 11.0429C35.2616 11.0831 35.3517 11.1048 35.4433 11.1066Z" fill="#302D2D"/>
<path d="M48.1832 15.0732C48.4866 14.7466 48.7666 14.3966 49.0466 14.0466C49.6766 13.1832 50.2132 12.2966 50.7966 11.4099C50.8643 11.3427 50.9181 11.2627 50.9547 11.1746C50.9914 11.0865 51.0103 10.992 51.0103 10.8966C51.0103 10.8011 50.9914 10.7067 50.9547 10.6186C50.9181 10.5304 50.8643 10.4505 50.7966 10.3832C50.654 10.2504 50.4664 10.1765 50.2716 10.1765C50.0767 10.1765 49.8891 10.2504 49.7466 10.3832C48.9766 11.0599 48.1599 11.6899 47.4132 12.3899C47.0866 12.6932 46.7599 12.9966 46.4799 13.2999C46.1734 13.6096 45.8852 13.9368 45.6166 14.2799C44.9632 15.0966 44.4266 15.9132 43.7499 16.6132C43.6316 16.7352 43.5654 16.8984 43.5654 17.0682C43.5654 17.2381 43.6316 17.4013 43.7499 17.5232C43.8087 17.5846 43.8793 17.6335 43.9575 17.6669C44.0357 17.7003 44.1199 17.7175 44.2049 17.7175C44.2899 17.7175 44.3741 17.7003 44.4523 17.6669C44.5305 17.6335 44.6011 17.5846 44.6599 17.5232C45.6152 17.0173 46.5213 16.4237 47.3666 15.7499C47.6543 15.5437 47.9272 15.3176 48.1832 15.0732Z" fill="#302D2D"/>
<path d="M55.51 25.4567C54.5183 24.9728 53.4388 24.695 52.3367 24.64C51.8867 24.5938 51.4333 24.5938 50.9833 24.64C50.5474 24.6781 50.117 24.7642 49.7 24.8967C48.7398 25.2175 47.804 25.6074 46.9 26.0633C46.7461 26.118 46.6182 26.2284 46.5416 26.3727C46.465 26.517 46.4452 26.6848 46.4862 26.8429C46.5272 27.0011 46.626 27.1381 46.7631 27.2271C46.9001 27.316 47.0655 27.3503 47.2267 27.3233C48.2067 27.3233 49.3267 27.3233 50.5167 27.1833L52.0567 26.9967C52.5489 26.8867 53.0477 26.8087 53.55 26.7633C54.0375 26.6928 54.5325 26.6928 55.02 26.7633C55.2057 26.8228 55.4073 26.8073 55.5817 26.7201C55.7561 26.6329 55.8895 26.4809 55.9533 26.2967C55.9884 26.1269 55.9633 25.9503 55.8825 25.7971C55.8016 25.6438 55.6699 25.5235 55.51 25.4567Z" fill="#302D2D"/>
</g>
<defs>
<clipPath id="clip0_3603_387">
<rect width="56" height="56" fill="white"/>
</clipPath>
</defs>
</svg>
