<svg width="56" height="56" viewBox="0 0 56 56" fill="none" xmlns="http://www.w3.org/2000/svg">
<g clip-path="url(#clip0_3603_373)">
<path fill-rule="evenodd" clip-rule="evenodd" d="M13.4866 27.1834C14.3733 25.9234 17.5 21.5134 20.3466 17.64C22.4233 14.8167 24.3133 12.2734 25.0133 11.4334C26.5066 9.70669 28.0233 7.63003 29.82 5.90336C30.8838 4.82266 32.1532 3.96583 33.5533 3.38336C35.2841 2.62324 37.1685 2.27803 39.0563 2.37526C40.9441 2.47248 42.7831 3.00946 44.4266 3.94336C46.0239 4.94287 47.3866 6.27544 48.4215 7.85C49.4565 9.42456 50.1393 11.204 50.4233 13.0667C50.7504 14.8369 50.6137 16.6616 50.0266 18.3634C48.9138 21.0731 47.4718 23.6357 45.7333 25.9934C44.2894 28.2113 42.7318 30.353 41.0666 32.41C38.5813 35.5152 35.9817 38.5273 33.2733 41.44C31.0743 43.9776 28.7375 46.3924 26.2733 48.6734C24.6513 50.1331 22.8844 51.4231 21 52.5234C18.8373 53.625 16.3422 53.8828 14 53.2467C11.5119 52.6566 9.22517 51.4166 7.3733 49.6534C6.45873 48.8694 5.73834 47.884 5.26871 46.7747C4.79908 45.6654 4.593 44.4624 4.66664 43.26C5.32602 39.455 6.93068 35.8766 9.3333 32.8534L13.4866 27.23V27.1834ZM12.1566 26.2734L7.90997 31.8267C5.24788 35.087 3.44315 38.9611 2.65997 43.0967C2.49594 44.6106 2.68442 46.1419 3.21065 47.5708C3.73688 48.9997 4.58659 50.2875 5.6933 51.3334C7.82582 53.3762 10.4566 54.8243 13.3233 55.5334C16.2906 56.3999 19.4762 56.108 22.2366 54.7167C24.2931 53.5665 26.2245 52.2058 28 50.6567C30.5987 48.3527 33.068 45.9067 35.3966 43.33C38.01 40.5067 40.81 37.4034 43.3766 34.1834C45.0501 32.0438 46.6079 29.8161 48.0433 27.51C49.8957 24.9555 51.4241 22.1809 52.5933 19.25C53.317 17.093 53.4619 14.7839 53.0133 12.5534C52.6378 10.3385 51.7942 8.22924 50.5388 6.36629C49.2834 4.50334 47.6452 2.92958 45.7333 1.75003C43.74 0.664381 41.5209 0.0589852 39.2524 -0.0179797C36.984 -0.0949446 34.7289 0.358646 32.6666 1.30669C31.0297 2.04686 29.5489 3.09217 28.3033 4.38669C26.6278 6.24252 25.0469 8.18165 23.5666 10.1967C22.9833 10.8967 21.63 12.7634 20.0666 15.0267C17.0566 19.2734 13.23 24.8734 12.25 26.3434L12.1566 26.2734Z" fill="#302D2D"/>
<path fill-rule="evenodd" clip-rule="evenodd" d="M28.28 13.3934C28.2528 13.4847 28.2528 13.582 28.28 13.6734C27.9767 14.7467 29.3067 14.98 29.7267 14.42V14.28C30.17 13.7434 31.4067 12.3667 31.5467 12.25L33.0634 11.1067C34.0211 10.3627 35.0442 9.70665 36.12 9.1467C36.7445 8.7918 37.4221 8.53969 38.1267 8.40004C38.6867 8.40004 40.32 9.0767 40.6934 8.56337C40.7521 8.74146 40.8757 8.89093 41.0396 8.98205C41.2035 9.07317 41.3957 9.09928 41.578 9.05518C41.7603 9.01108 41.9193 8.9 42.0234 8.74404C42.1276 8.58807 42.1692 8.39862 42.14 8.21337C42.14 7.72337 41.65 7.23337 40.88 6.86004C39.9821 6.46548 39.0306 6.206 38.0567 6.09004C37.019 5.98934 35.9721 6.13319 35 6.51004C33.711 7.11182 32.5162 7.89781 31.4534 8.84337L29.8434 10.6167L28.35 13.09L28.28 13.3934Z" fill="#302D2D"/>
<path fill-rule="evenodd" clip-rule="evenodd" d="M37.9167 37.0067C37.9815 37.1303 38.0685 37.241 38.1733 37.3333C38.5 37.6367 40.0633 37.1933 39.2933 35.98C38.8153 35.209 38.2686 34.4827 37.66 33.81C36.6333 32.8533 35.8633 31.6167 34.8833 30.5433C34.4074 30.0286 33.8839 29.5598 33.32 29.1433C31.64 27.9767 29.9833 26.81 28.2567 25.76C26.53 24.71 24.7333 23.7767 23.0067 22.75L19.5533 21.28C19.2033 21.1167 18.2467 20.79 17.9667 21C17.8015 20.9026 17.6051 20.8725 17.4183 20.916C17.2315 20.9594 17.0686 21.073 16.9633 21.2333C16.8151 21.382 16.7319 21.5834 16.7319 21.7933C16.7319 22.0033 16.8151 22.2046 16.9633 22.3533C17.174 22.5306 17.4354 22.6368 17.71 22.6567C18.0336 22.6619 18.3551 22.709 18.6667 22.7967L21.6767 24.5933C22.9833 25.5733 24.2667 26.5767 25.62 27.4867C27.6267 28.8167 29.7267 30.03 31.7567 31.3367C32.2128 31.6156 32.6424 31.9358 33.04 32.2934C34.1833 33.2967 35.14 34.44 36.2833 35.3267C36.8473 35.8138 37.3559 36.3615 37.8 36.96L37.9167 37.0067Z" fill="#302D2D"/>
</g>
<defs>
<clipPath id="clip0_3603_373">
<rect width="56" height="56" fill="white"/>
</clipPath>
</defs>
</svg>
