<svg width="56" height="56" viewBox="0 0 56 56" fill="none" xmlns="http://www.w3.org/2000/svg">
<g clip-path="url(#clip0_3603_379)">
<path fill-rule="evenodd" clip-rule="evenodd" d="M14 28.2567C15.3739 28.4823 16.7615 28.6149 18.1533 28.6534C19.5443 28.7352 20.939 28.7352 22.33 28.6534C25.5352 28.3537 28.7016 27.7283 31.78 26.7867C31.9919 26.7315 32.174 26.5958 32.2873 26.4084C32.4006 26.2209 32.4363 25.9967 32.3866 25.7834C32.3622 25.6798 32.3172 25.5822 32.2542 25.4964C32.1913 25.4106 32.1117 25.3383 32.0203 25.2839C31.9289 25.2295 31.8274 25.194 31.722 25.1796C31.6166 25.1652 31.5093 25.1721 31.4066 25.2C28.3644 25.7482 25.2811 26.037 22.19 26.0634H18.2466C16.94 26.0634 15.6333 25.9234 14.35 25.8067C11.8903 25.6782 9.4506 25.2951 7.06997 24.6634C5.83331 24.43 5.92664 25.69 6.85997 26.2967C9.14646 27.2524 11.546 27.9111 14 28.2567Z" fill="#302D2D"/>
<path fill-rule="evenodd" clip-rule="evenodd" d="M12.0167 37.5433C13.0948 37.7826 14.1853 37.9618 15.2833 38.08C16.8933 38.2667 18.5033 38.29 20.16 38.36C22.2638 38.3654 24.3665 38.2642 26.46 38.0567C27.8732 37.9226 29.2762 37.6966 30.66 37.38C30.7659 37.3604 30.8668 37.32 30.957 37.2613C31.0472 37.2025 31.1249 37.1265 31.1857 37.0376C31.2464 36.9487 31.2889 36.8486 31.3108 36.7432C31.3327 36.6378 31.3336 36.5291 31.3133 36.4233C31.2968 36.316 31.2583 36.2132 31.2004 36.1213C31.1425 36.0295 31.0664 35.9504 30.9767 35.8892C30.887 35.8279 30.7857 35.7858 30.679 35.7653C30.5724 35.7448 30.4627 35.7464 30.3567 35.77C29.0249 35.9291 27.6846 36.007 26.3433 36.0033C24.3367 36.0033 22.33 35.84 20.2767 35.6533C18.6667 35.6533 17.1033 35.4433 15.61 35.35C14.1167 35.2567 12.4833 35.1167 10.9433 34.9067C9.47708 34.7396 8.02604 34.4587 6.60333 34.0667C5.50667 33.81 5.41333 34.93 6.18333 35.63C8.06225 36.4525 10.0156 37.0932 12.0167 37.5433Z" fill="#302D2D"/>
<path fill-rule="evenodd" clip-rule="evenodd" d="M37.0066 22.7267C36.564 21.1946 35.7766 19.7841 34.7049 18.6032C33.6331 17.4222 32.3054 16.5022 30.8233 15.9134C30.3439 15.7262 29.8529 15.5703 29.3533 15.4467C28.8472 15.3311 28.3319 15.2608 27.8133 15.2367C27.6249 15.2169 27.4363 15.2718 27.2879 15.3897C27.1396 15.5075 27.0434 15.6787 27.02 15.8667C27.0069 15.9624 27.0138 16.0596 27.0402 16.1525C27.0666 16.2453 27.1119 16.3317 27.1732 16.4062C27.2346 16.4807 27.3107 16.5417 27.3967 16.5854C27.4828 16.6291 27.5769 16.6545 27.6733 16.6601C28.07 16.6601 28.49 16.8467 28.91 16.9867C29.3135 17.132 29.7038 17.3115 30.0766 17.5234C31.1805 18.1537 32.1367 19.0128 32.8812 20.043C33.6258 21.0733 34.1413 22.2508 34.3933 23.4967C34.8504 25.4478 35.0929 27.443 35.1166 29.4467V35.7934C35.1166 41.5567 35.4666 43.9601 27.4633 45.2667C25.0158 45.6355 22.541 45.7917 20.0666 45.7334C17.5961 45.7661 15.1279 45.5708 12.6933 45.1501C10.7963 44.9275 8.96763 44.3074 7.32663 43.3301C5.57663 42.0934 4.9933 40.9967 5.36663 29.3301C5.44031 27.3299 5.68227 25.3396 6.08997 23.3801C6.35714 22.1552 6.8797 21.0004 7.62353 19.9912C8.36735 18.982 9.3157 18.1411 10.4066 17.5234C10.8094 17.3065 11.2312 17.1269 11.6666 16.9867C12.0866 16.8467 12.5066 16.7534 12.9033 16.6601C12.9974 16.6543 13.0894 16.6295 13.1738 16.5873C13.2581 16.545 13.333 16.4862 13.394 16.4143C13.4551 16.3423 13.5009 16.2588 13.5289 16.1688C13.5568 16.0787 13.5662 15.9839 13.5566 15.8901C13.9867 15.2193 14.2654 14.4628 14.3733 13.6734C14.406 13.5353 14.406 13.3915 14.3733 13.2534C14.2689 13.0199 14.1357 12.8004 13.9766 12.6001C14.6922 12.8489 15.47 13.0823 16.31 13.3001C17.0802 13.4735 17.859 13.6059 18.6433 13.6967C19.828 13.76 21.0161 13.7053 22.19 13.5334C23.1124 13.3921 24.0245 13.1894 24.92 12.9267C24.9067 13.0508 24.9067 13.176 24.92 13.3001C24.8853 13.4458 24.8853 13.5976 24.92 13.7434C24.92 13.7434 25.7133 16.0767 26.3666 16.0767C27.02 16.0767 27.65 14.0001 27.65 13.9767C27.6616 13.7902 27.6616 13.6032 27.65 13.4167C27.6203 13.2312 27.5654 13.0506 27.4866 12.8801C27.3559 12.674 27.1991 12.4858 27.02 12.3201C27.3933 12.1567 27.79 12.0634 28.1633 11.9001C28.3706 11.8289 28.5412 11.6783 28.6374 11.4814C28.7337 11.2845 28.7478 11.0574 28.6766 10.8501C28.6055 10.6427 28.4549 10.4722 28.2579 10.3759C28.061 10.2797 27.8339 10.2656 27.6266 10.3367C26.1528 10.6717 24.6548 10.8902 23.1466 10.9901H19.7866C18.6343 11.0137 17.4815 10.9747 16.3333 10.8734C15.427 10.8731 14.5221 10.8029 13.6266 10.6634C13.0716 10.5564 12.5312 10.3841 12.0166 10.1501C12.0788 10.081 12.1255 9.99953 12.1537 9.91101C12.1818 9.82249 12.1908 9.72898 12.18 9.63672C12.18 8.93672 12.4366 8.30672 12.53 7.60672V6.81339L12.95 7.00006L14.98 7.44339C16.8186 7.62993 18.6714 7.62993 20.51 7.44339C22.3469 7.27511 24.1612 6.91538 25.9233 6.37006L26.9966 5.97339C26.974 6.25293 26.974 6.53385 26.9966 6.81339C27.16 7.49006 27.37 8.07339 27.51 8.75006C27.5069 8.85731 27.5249 8.96413 27.5631 9.06441C27.6013 9.16468 27.6589 9.25644 27.7326 9.33446C27.8062 9.41247 27.8946 9.47519 27.9925 9.51905C28.0904 9.56291 28.196 9.58704 28.3033 9.59006C28.5222 9.59647 28.735 9.51713 28.8963 9.36893C29.0575 9.22074 29.1546 9.01541 29.1666 8.79672C29.3613 8.09955 29.5094 7.39021 29.61 6.67339C29.6333 6.3705 29.6333 6.06627 29.61 5.76339C29.5975 5.4711 29.5505 5.18131 29.47 4.90006C29.2478 4.22606 28.9908 3.56405 28.7 2.91672C28.6898 2.78652 28.6395 2.6627 28.5559 2.56237C28.4722 2.46205 28.3595 2.39019 28.2333 2.35672L27.86 1.96006L26.8566 1.42339L24.85 0.980056C24.6365 0.946431 24.4185 0.998763 24.2435 1.12559C24.0686 1.25242 23.951 1.44341 23.9166 1.65672C23.8966 1.76414 23.8983 1.87448 23.9217 1.98121C23.9451 2.08795 23.9896 2.18891 24.0527 2.27812C24.1158 2.36733 24.1962 2.44296 24.289 2.50055C24.3819 2.55814 24.4853 2.59651 24.5933 2.61339L26.1566 3.08006L26.7633 3.45339L26.9966 3.71006L26.6233 3.87339C26.2427 4.00403 25.8527 4.10543 25.4566 4.17672C23.8037 4.51158 22.1256 4.70671 20.44 4.76006C18.7452 4.8864 17.0423 4.85515 15.3533 4.66672L13.6966 4.34006L12.88 4.08339L12.6233 3.89672C13.09 3.59339 14.0933 3.22006 14.3733 3.05672C15.4781 2.45857 16.678 2.05597 17.92 1.86672C19.2004 1.66299 20.5002 1.60818 21.7933 1.70339C21.8884 1.71647 21.9852 1.71048 22.0779 1.68578C22.1707 1.66108 22.2576 1.61816 22.3336 1.55952C22.4097 1.50088 22.4732 1.4277 22.5207 1.34424C22.5681 1.26077 22.5985 1.1687 22.61 1.07339C22.623 0.97651 22.6162 0.878003 22.59 0.783817C22.5639 0.689631 22.5189 0.60172 22.4579 0.525393C22.3968 0.449066 22.3209 0.385907 22.2348 0.33973C22.1486 0.293552 22.054 0.265315 21.9566 0.256723C20.5536 0.025846 19.1306 -0.0601618 17.71 5.62053e-05C16.23 0.0751998 14.7721 0.390422 13.3933 0.93339C12.1851 1.35134 11.0963 2.0559 10.22 2.98672C9.99776 3.29613 9.87823 3.66746 9.87823 4.04839C9.87823 4.42932 9.99776 4.80065 10.22 5.11006C10.1024 5.35726 10.0087 5.61509 9.93996 5.88006C9.90529 6.1902 9.90529 6.50324 9.93996 6.81339C9.91718 7.1163 9.91718 7.42048 9.93996 7.72339C10.1113 8.41912 10.3216 9.10465 10.57 9.77672C10.5843 9.91075 10.6325 10.0389 10.71 10.1491C10.7876 10.2594 10.892 10.348 11.0133 10.4067C10.925 10.5724 10.9024 10.7653 10.95 10.9469C10.9976 11.1285 11.1118 11.2856 11.27 11.3867C11.5784 11.5971 11.9066 11.7768 12.25 11.9234C12.1741 12.0262 12.1259 12.1467 12.11 12.2734C11.9149 12.618 11.7658 12.9867 11.6666 13.3701C11.6437 13.5326 11.6437 13.6975 11.6666 13.8601C11.6806 14.0236 11.7283 14.1825 11.8066 14.3267C11.9564 14.6732 12.1442 15.0018 12.3666 15.3067C12.0062 15.3304 11.6477 15.3772 11.2933 15.4467C10.7937 15.5703 10.3027 15.7262 9.8233 15.9134C8.31085 16.4814 6.95064 17.3922 5.84945 18.5744C4.74826 19.7565 3.93607 21.1778 3.47663 22.7267C2.85278 24.9093 2.59263 27.1796 2.70663 29.4467C2.70663 31.7801 3.1033 33.9267 3.33663 35.9101C3.56997 37.8934 3.49996 42.4434 6.20663 44.7767C7.97285 46.0906 9.99008 47.0277 12.1333 47.5301C17.3183 48.7891 22.7235 48.837 27.93 47.6701C34.93 46.0367 36.54 43.8434 37.1466 36.0034C37.38 34.0201 37.73 31.8034 37.7766 29.5401C37.901 27.2419 37.6408 24.9391 37.0066 22.7267Z" fill="#302D2D"/>
<path fill-rule="evenodd" clip-rule="evenodd" d="M53.1766 39.4334C53.0164 38.9532 52.8214 38.4853 52.5933 38.0334C52.6687 37.6803 52.6548 37.3141 52.553 36.9678C52.4511 36.6215 52.2645 36.306 52.0099 36.05C51.8246 35.8599 51.6214 35.688 51.4033 35.5367C51.1085 35.3567 50.7957 35.2082 50.4699 35.0934C50.2917 35.0153 50.0911 35.0055 49.9061 35.0657C49.7211 35.1259 49.5647 35.252 49.4666 35.42C49.3746 35.275 49.234 35.1675 49.0699 35.1167C47.5783 34.5554 45.9969 34.2708 44.4033 34.2767C43.2961 34.2772 42.1979 34.4748 41.1599 34.86C40.5517 35.0862 40.0027 35.4472 39.5541 35.916C39.1055 36.3848 38.769 36.9492 38.5699 37.5667C38.479 37.9345 38.479 38.3189 38.5699 38.6867C38.4345 38.9183 38.3175 39.1601 38.2199 39.41C38.1355 39.6898 38.0961 39.9812 38.1033 40.2734C38.0676 40.56 38.0676 40.85 38.1033 41.1367C38.3002 42.6258 39.017 43.9974 40.127 45.0092C41.2371 46.0211 42.669 46.6081 44.1699 46.6667C45.0363 46.7948 45.9169 46.7948 46.7833 46.6667C47.6391 46.5486 48.4826 46.3534 49.3033 46.0834L51.4499 45.1734C51.5513 45.1369 51.6444 45.0807 51.7239 45.0081C51.8035 44.9355 51.8679 44.8479 51.9134 44.7503C51.9589 44.6527 51.9847 44.5471 51.9893 44.4395C51.9938 44.3319 51.9771 44.2245 51.9399 44.1234C51.8824 44.0149 51.8029 43.9195 51.7066 43.8434C51.8207 43.9343 51.9582 43.9909 52.1033 44.0067C52.3179 43.9948 52.5197 43.901 52.6673 43.7448C52.8149 43.5885 52.8969 43.3816 52.8966 43.1667C53.0366 42.4434 53.1999 41.79 53.2933 41.0667V40.18C53.279 39.9279 53.2399 39.6778 53.1766 39.4334ZM41.5099 37.66C41.7199 37.4141 41.9729 37.2085 42.2566 37.0534C43.1838 36.5501 44.2128 36.263 45.2666 36.2134C46.3941 36.1529 47.5246 36.2471 48.6266 36.4934C48.7657 36.5359 48.9146 36.534 49.0526 36.488C49.1906 36.442 49.3108 36.3542 49.3966 36.2367C49.4928 36.3946 49.6298 36.5236 49.7933 36.61L50.6333 37.2167C50.7128 37.316 50.7561 37.4395 50.7561 37.5667C50.7561 37.6939 50.7128 37.8174 50.6333 37.9167C50.3544 38.264 49.969 38.51 49.5366 38.6167C48.3258 38.9267 47.074 39.0448 45.8266 38.9667C44.5654 38.9436 43.3148 38.7312 42.1166 38.3367L41.5799 38.1034H41.3699C41.3699 38.1034 41.4399 37.7767 41.5333 37.66H41.5099ZM50.8433 43.75L48.8366 44.1234C47.8037 44.2037 46.7661 44.2037 45.7333 44.1234H43.9366H42.7699C41.9358 44.052 41.1332 43.7711 40.4366 43.3067C40.4366 43.3067 40.4366 43.3067 40.4366 43.0967C40.4366 42.49 40.6933 41.9534 40.8099 41.3234C40.7984 41.2382 40.7984 41.1519 40.8099 41.0667L41.0666 41.2067C42.5414 41.6494 44.0773 41.8542 45.6166 41.8134C47.1603 41.7844 48.6861 41.4761 50.1199 40.9034L50.3533 40.74C50.3533 41.02 50.3533 41.3 50.4933 41.58C50.6333 42.2567 50.8899 42.8634 51.0533 43.5634C51.0842 43.7197 51.1568 43.8648 51.2633 43.9834C51.1598 43.8762 51.0316 43.7961 50.8899 43.75H50.8433Z" fill="#302D2D"/>
<path fill-rule="evenodd" clip-rule="evenodd" d="M42.2332 48.72C40.9364 48.1433 39.5441 47.8111 38.1266 47.74C36.7041 47.6578 35.2777 47.8075 33.9032 48.1834C33.1194 48.3976 32.3976 48.7949 31.7973 49.3425C31.1969 49.8901 30.7351 50.5725 30.4499 51.3334C30.2887 52.0745 30.3615 52.8473 30.6582 53.5453C30.955 54.2433 31.461 54.8319 32.1066 55.23L32.7832 55.5567C33.9258 55.9664 35.1468 56.11 36.3532 55.9767C43.3532 55.3934 44.3799 53.2234 44.2632 51.31C44.1965 50.7332 43.9716 50.186 43.6133 49.7289C43.2551 49.2718 42.7775 48.9227 42.2332 48.72ZM33.2966 52.9434C33.1523 52.8135 33.0589 52.6366 33.0333 52.4442C33.0076 52.2517 33.0513 52.0565 33.1566 51.8934C33.5457 51.3841 34.0841 51.0089 34.6966 50.82C35.1283 50.7332 35.5645 50.6709 36.0032 50.6334C35.8342 51.1321 35.7245 51.649 35.6766 52.1734C35.6416 52.3976 35.6416 52.6258 35.6766 52.85C35.714 53.077 35.7848 53.2971 35.8866 53.5034C35.8866 53.69 36.1432 53.7834 36.2366 53.9467C35.3614 53.9175 34.5025 53.7028 33.7166 53.3167L33.2966 52.9434ZM38.3599 53.8534C38.3855 53.5194 38.3855 53.184 38.3599 52.85C38.3839 52.672 38.3839 52.4915 38.3599 52.3134C38.1732 51.6834 37.7766 51.1934 37.6132 50.5634V50.3767H38.0566C39.1856 50.3408 40.3128 50.4905 41.3932 50.82C42.0232 51.0534 42.3732 51.4267 42.3032 51.8934C41.9999 53.8067 39.9932 53.6667 38.3599 53.8534Z" fill="#302D2D"/>
</g>
<defs>
<clipPath id="clip0_3603_379">
<rect width="56" height="56" fill="white"/>
</clipPath>
</defs>
</svg>
