<svg width="56" height="56" viewBox="0 0 56 56" fill="none" xmlns="http://www.w3.org/2000/svg">
<g clip-path="url(#clip0_3603_355)">
<path d="M30.4967 16.0067C29.7689 16.3283 29.0864 16.7441 28.4667 17.2433C27.1833 18.27 26.1333 19.5767 24.8733 20.6733C22.066 22.9109 19.5981 25.5439 17.5467 28.49C14 35 21.9567 38.85 24.8967 38.1967C27.8367 37.5433 30.7067 34.1367 32.7833 32.5033C33.3433 32.06 35.28 30.4033 36.96 28.7933C37.9765 27.9076 38.885 26.9051 39.6667 25.8067C40.4653 24.3357 40.837 22.6709 40.74 21C40.6886 19.748 40.2205 18.549 39.41 17.5933C38.3181 16.3097 36.7878 15.478 35.1167 15.26C33.5375 15.0871 31.941 15.3452 30.4967 16.0067ZM24.5 36.5167C21.3967 37.3333 16.3333 33.6233 18.97 29.3067C20.4259 27.2354 22.2251 25.4282 24.29 23.9633C24.7356 24.9637 25.2664 25.9239 25.8767 26.8333C26.2484 27.3494 26.6537 27.8405 27.09 28.3033C27.5303 28.7747 28.0062 29.2115 28.5134 29.61C29.3133 30.2209 30.1554 30.7745 31.0333 31.2667C29.26 32.9467 27.16 35.84 24.5 36.5167ZM38.2433 21.7C38.2152 22.7186 37.9516 23.7169 37.4733 24.6167C36.8422 25.5322 36.1232 26.384 35.3267 27.16C34.3 28.21 33.1567 29.3067 32.3634 30.03C32.0134 29.7267 31.64 29.4467 31.3133 29.12C30.9867 28.7933 30.2634 28 29.7267 27.4167L28.14 25.6667C27.2767 24.7567 26.39 23.8467 25.55 22.8667L26.32 22.2367C27.3233 21.3733 28.3267 20.3467 29.4234 19.46C30.0404 18.9328 30.7324 18.5003 31.4767 18.1767C32.5213 17.734 33.6638 17.5731 34.79 17.71C35.8447 17.8306 36.8173 18.3377 37.52 19.1333C37.8047 19.4918 38.0152 19.9034 38.1394 20.344C38.2636 20.7847 38.2989 21.2456 38.2433 21.7Z" fill="#302D2D"/>
<path d="M51.4967 13.3C49.0834 9.76604 45.8099 6.90487 41.9848 4.98619C38.1597 3.06751 33.909 2.15453 29.6334 2.33332C29.5343 2.33311 29.4363 2.35325 29.3454 2.39248C29.2544 2.43172 29.1725 2.48921 29.1047 2.5614C29.0369 2.63359 28.9846 2.71894 28.9511 2.81216C28.9176 2.90538 28.9037 3.00448 28.9101 3.10332C28.9131 3.20139 28.9354 3.2979 28.9757 3.38734C29.0161 3.47678 29.0736 3.55739 29.1451 3.62457C29.2167 3.69174 29.3007 3.74417 29.3925 3.77884C29.4843 3.81352 29.582 3.82976 29.6801 3.82665C33.6713 3.71944 37.6242 4.62903 41.1672 6.46991C44.7102 8.31078 47.7268 11.0225 49.9334 14.35C52.1625 17.6278 53.5021 21.4284 53.8212 25.3795C54.1402 29.3307 53.4277 33.2969 51.7534 36.89C49.4809 41.6159 45.9019 45.5917 41.4401 48.3467C37.0548 51.1883 31.9422 52.7035 26.7167 52.71C20.3083 52.9099 14.0572 50.7041 9.19339 46.5267C6.9214 44.314 5.12784 41.6585 3.92377 38.7246C2.71969 35.7906 2.13074 32.6408 2.19339 29.47C2.17416 22.7355 4.67057 16.2365 9.19339 11.2467C13.6469 6.1483 19.8318 2.88127 26.5534 2.07665C26.7246 2.05335 26.8804 1.96544 26.9888 1.83095C27.0973 1.69645 27.1502 1.52557 27.1367 1.35332C27.1309 1.26529 27.1074 1.17934 27.0675 1.10066C27.0276 1.02197 26.9722 0.952181 26.9046 0.895492C26.837 0.838802 26.7587 0.796388 26.6742 0.770807C26.5898 0.745227 26.5011 0.737009 26.4134 0.74665C19.299 1.46943 12.7018 4.79297 7.88672 10.08C2.92848 15.3409 0.115548 22.265 5.57061e-05 29.4933C-0.116696 32.9828 0.492957 36.4585 1.79035 39.7C3.08774 42.9415 5.04457 45.878 7.53672 48.3233C12.802 52.9886 19.6372 55.4893 26.6701 55.3233C32.3908 55.3037 37.9832 53.626 42.7701 50.4933C47.5807 47.438 51.4116 43.0644 53.8067 37.8933C55.59 33.9463 56.3149 29.6029 55.9098 25.2906C55.5048 20.9784 53.9838 16.8459 51.4967 13.3Z" fill="#302D2D"/>
<path d="M42.3967 9.77663C41.93 10.1033 41.4867 10.36 41.0434 10.71C40.8536 10.8609 40.6743 11.0246 40.5067 11.2C40.356 11.3728 40.2231 11.5604 40.11 11.76C39.8508 12.2818 39.6248 12.8196 39.4334 13.37C39.3135 13.4958 39.2467 13.6629 39.2467 13.8366C39.2467 14.0104 39.3135 14.1775 39.4334 14.3033C39.5592 14.4231 39.7263 14.49 39.9 14.49C40.0738 14.49 40.2409 14.4231 40.3667 14.3033C40.88 14 41.3467 13.79 41.8367 13.44C42.0115 13.2885 42.1753 13.1248 42.3267 12.95C42.4747 12.7667 42.6074 12.5716 42.7234 12.3666C43.0051 11.8618 43.2544 11.3397 43.47 10.8033C43.5938 10.6486 43.651 10.451 43.6292 10.2541C43.6073 10.0572 43.5081 9.87707 43.3534 9.7533C43.1987 9.62953 43.0011 9.57229 42.8042 9.59417C42.6073 9.61605 42.4271 9.71526 42.3034 9.86997L42.3967 9.77663Z" fill="#302D2D"/>
<path d="M41.3234 37.8233C41.1774 37.6505 41.0131 37.494 40.8334 37.3566C40.3624 37.0305 39.8715 36.7344 39.3634 36.4699C39.3082 36.4025 39.2403 36.3466 39.1636 36.3055C39.0868 36.2643 39.0027 36.2386 38.916 36.23C38.8294 36.2213 38.7418 36.2298 38.6584 36.255C38.5751 36.2801 38.4974 36.3215 38.43 36.3766C38.3626 36.4318 38.3067 36.4997 38.2656 36.5764C38.2244 36.6532 38.1987 36.7373 38.1901 36.8239C38.1814 36.9106 38.1899 36.9981 38.215 37.0815C38.2402 37.1649 38.2815 37.2425 38.3367 37.3099C38.5281 37.8603 38.7541 38.3981 39.0134 38.9199C39.1238 39.1283 39.2568 39.3239 39.41 39.5033L39.9234 39.9699C40.39 40.3199 40.8334 40.5766 41.3 40.9266C41.4269 41.0813 41.61 41.1793 41.8091 41.199C42.0082 41.2187 42.207 41.1585 42.3617 41.0316C42.5164 40.9047 42.6144 40.7216 42.6341 40.5225C42.6538 40.3234 42.5936 40.1247 42.4667 39.9699C42.251 39.4412 42.0016 38.9268 41.72 38.4299C41.6099 38.2141 41.4769 38.0107 41.3234 37.8233Z" fill="#302D2D"/>
<path d="M16.0767 14.7C16.1965 14.5742 16.2633 14.4071 16.2633 14.2333C16.2633 14.0596 16.1965 13.8925 16.0767 13.7667C15.9076 13.204 15.689 12.6574 15.4233 12.1333C15.3324 11.9659 15.2229 11.8094 15.0967 11.6667C14.9498 11.4864 14.7768 11.3291 14.5833 11.2C14.14 10.8267 13.6967 10.57 13.23 10.2433C13.0863 10.1037 12.8938 10.0255 12.6933 10.0255C12.4929 10.0255 12.3004 10.1037 12.1567 10.2433C12.0238 10.3859 11.95 10.5735 11.95 10.7683C11.95 10.9632 12.0238 11.1508 12.1567 11.2933C12.3643 11.8293 12.6059 12.3515 12.88 12.8567C12.9987 13.06 13.1312 13.2549 13.2767 13.44C13.4301 13.6209 13.6022 13.7851 13.79 13.93C14.2567 14.28 14.7467 14.49 15.2367 14.8167C15.369 14.8959 15.5245 14.9275 15.6772 14.9063C15.83 14.885 15.9709 14.8123 16.0767 14.7Z" fill="#302D2D"/>
<path d="M12.0167 42.28C12.4834 41.9533 12.9267 41.6967 13.3701 41.3467C13.5984 41.2084 13.8098 41.044 14.0001 40.8567C14.1654 40.6905 14.3068 40.502 14.4201 40.2967C14.6857 39.7726 14.9043 39.226 15.0734 38.6633C15.1379 38.6064 15.1897 38.5364 15.2251 38.4579C15.2605 38.3795 15.2788 38.2944 15.2788 38.2083C15.2788 38.1223 15.2605 38.0372 15.2251 37.9587C15.1897 37.8803 15.1379 37.8103 15.0734 37.7533C15.0146 37.6919 14.944 37.6431 14.8658 37.6097C14.7876 37.5763 14.7034 37.5591 14.6184 37.5591C14.5334 37.5591 14.4492 37.5763 14.371 37.6097C14.2928 37.6431 14.2222 37.6919 14.1634 37.7533C13.6501 38.08 13.1834 38.29 12.6934 38.64C12.513 38.7854 12.3488 38.9496 12.2034 39.13C12.0503 39.3147 11.91 39.5096 11.7834 39.7133C11.5034 40.2267 11.2934 40.74 11.0601 41.2767C10.9363 41.4314 10.8791 41.6289 10.9009 41.8258C10.9228 42.0227 11.022 42.2029 11.1767 42.3267C11.3314 42.4504 11.529 42.5077 11.7259 42.4858C11.9228 42.4639 12.103 42.3647 12.2267 42.21L12.0167 42.28Z" fill="#302D2D"/>
<path d="M42.8868 26.32C42.8836 26.4077 42.8982 26.4952 42.9296 26.5772C42.9611 26.6592 43.0087 26.734 43.0697 26.7971C43.1307 26.8603 43.2037 26.9105 43.2846 26.9448C43.3654 26.9791 43.4523 26.9967 43.5401 26.9967C44.1234 27.1833 44.5901 27.44 45.1734 27.6033H45.8968C46.1444 27.6388 46.3958 27.6388 46.6434 27.6033C47.2376 27.5024 47.8228 27.3541 48.3934 27.16C48.5936 27.148 48.7811 27.0583 48.9162 26.9102C49.0512 26.762 49.1232 26.5671 49.1168 26.3667C49.1108 26.2686 49.0856 26.1726 49.0425 26.0842C48.9993 25.9959 48.9392 25.917 48.8655 25.8519C48.7918 25.7869 48.7059 25.737 48.6129 25.7052C48.5199 25.6735 48.4215 25.6603 48.3234 25.6667C47.7634 25.6667 47.2734 25.3633 46.7134 25.2467C46.4844 25.1852 46.25 25.1461 46.0134 25.13H45.2901C44.705 25.2577 44.1284 25.4214 43.5634 25.62C43.4726 25.62 43.3826 25.6382 43.299 25.6737C43.2153 25.7091 43.1397 25.761 43.0765 25.8264C43.0134 25.8917 42.964 25.9691 42.9314 26.0539C42.8988 26.1387 42.8836 26.2292 42.8868 26.32Z" fill="#302D2D"/>
<path d="M12.2267 26.32C12.2283 26.1617 12.1724 26.0083 12.0694 25.8881C11.9664 25.7679 11.8233 25.6892 11.6667 25.6666C11.1096 25.468 10.5408 25.3044 9.96333 25.1766H9.12333C8.88678 25.1928 8.65234 25.2319 8.42333 25.2933C7.86333 25.41 7.37333 25.5966 6.79 25.7133C6.59197 25.7133 6.40206 25.792 6.26203 25.932C6.122 26.072 6.04333 26.2619 6.04333 26.46C6.04333 26.658 6.122 26.8479 6.26203 26.9879C6.40206 27.128 6.59197 27.2066 6.79 27.2066C7.36139 27.3981 7.94638 27.5463 8.54 27.65C8.78767 27.6848 9.039 27.6848 9.28667 27.65C9.52723 27.6729 9.76944 27.6729 10.01 27.65C10.6167 27.4866 11.0833 27.23 11.6433 27.0433C11.7293 27.0346 11.8127 27.0089 11.8887 26.9677C11.9647 26.9266 12.0318 26.8707 12.086 26.8034C12.1403 26.7362 12.1806 26.6588 12.2048 26.5758C12.2289 26.4928 12.2364 26.4059 12.2267 26.32Z" fill="#302D2D"/>
<path d="M27.0434 42.49C26.8678 42.4835 26.6965 42.5456 26.5658 42.6632C26.4352 42.7808 26.3554 42.9446 26.3434 43.12C26.1064 43.7519 25.9115 44.3989 25.7601 45.0566C25.7257 45.3356 25.7257 45.6177 25.7601 45.8966C25.7095 46.1506 25.6783 46.408 25.6667 46.6666C25.6667 47.3433 25.9234 47.95 26.0634 48.6033C26.0603 48.7014 26.0765 48.7991 26.1112 48.8909C26.1459 48.9826 26.1983 49.0667 26.2655 49.1382C26.3327 49.2097 26.4133 49.2673 26.5027 49.3076C26.5922 49.348 26.6887 49.3703 26.7867 49.3733C26.8856 49.3797 26.9847 49.3657 27.0779 49.3322C27.1711 49.2987 27.2565 49.2465 27.3287 49.1787C27.4009 49.1109 27.4583 49.0289 27.4976 48.938C27.5368 48.847 27.557 48.749 27.5567 48.65C27.7201 47.9966 27.9301 47.39 28.0467 46.7133V45.8733C28.0706 45.6016 28.0706 45.3283 28.0467 45.0566C27.9301 44.3566 27.7201 43.7733 27.5567 43.0966C27.5461 42.9543 27.4907 42.819 27.3985 42.71C27.3063 42.601 27.182 42.524 27.0434 42.49Z" fill="#302D2D"/>
<path d="M26.74 7.25665C26.4995 7.88956 26.2969 8.53627 26.1334 9.19332C26.1103 9.47285 26.1103 9.7538 26.1334 10.0333C26.1103 10.3051 26.1103 10.5783 26.1334 10.85C26.1334 11.5267 26.39 12.1333 26.53 12.81C26.53 12.908 26.5494 13.0051 26.5869 13.0957C26.6244 13.1863 26.6794 13.2686 26.7487 13.338C26.8181 13.4073 26.9004 13.4623 26.991 13.4998C27.0816 13.5373 27.1787 13.5567 27.2767 13.5567C27.3748 13.5567 27.4719 13.5373 27.5624 13.4998C27.653 13.4623 27.7354 13.4073 27.8047 13.338C27.874 13.2686 27.929 13.1863 27.9665 13.0957C28.0041 13.0051 28.0234 12.908 28.0234 12.81C28.1867 12.1567 28.3734 11.55 28.49 10.8733C28.5127 10.6016 28.5127 10.3284 28.49 10.0567C28.5133 9.77714 28.5133 9.49617 28.49 9.21665C28.3734 8.53999 28.1634 7.95666 28 7.27999C28.0184 7.18224 28.0151 7.08164 27.9901 6.98535C27.9652 6.88906 27.9194 6.79945 27.8559 6.72289C27.7924 6.64634 27.7128 6.58472 27.6228 6.54243C27.5327 6.50014 27.4345 6.47821 27.335 6.47821C27.2356 6.47821 27.1373 6.50014 27.0473 6.54243C26.9573 6.58472 26.8777 6.64634 26.8142 6.72289C26.7507 6.79945 26.7049 6.88906 26.68 6.98535C26.655 7.08164 26.6517 7.18224 26.67 7.27999L26.74 7.25665Z" fill="#302D2D"/>
</g>
<defs>
<clipPath id="clip0_3603_355">
<rect width="56" height="56" fill="white"/>
</clipPath>
</defs>
</svg>
