<svg width="56" height="56" viewBox="0 0 56 56" fill="none" xmlns="http://www.w3.org/2000/svg">
<g clip-path="url(#clip0_3603_349)">
<path fill-rule="evenodd" clip-rule="evenodd" d="M10.43 41.02C10.4571 41.3652 10.5607 41.6999 10.7333 42C10.9435 42.3344 11.2662 42.5826 11.6433 42.7C12.096 42.7929 12.5581 42.8321 13.02 42.8167C13.7666 42.8167 14.1633 42.9567 14.5366 42.9567H16.17C16.814 42.9356 17.4511 42.8176 18.06 42.6067C18.4769 42.4233 18.8099 42.0903 18.9933 41.6734C19.1249 41.3295 19.2036 40.9676 19.2266 40.6V39.0834V38.15H20.7666C21.349 38.198 21.9343 38.198 22.5166 38.15C22.8457 38.1162 23.1639 38.0128 23.45 37.8467C23.8055 37.6067 24.0688 37.2529 24.1966 36.8434C24.24 36.3855 24.24 35.9246 24.1966 35.4667V33.88V32.2234C24.1815 31.5842 24.0552 30.9525 23.8233 30.3567C23.6268 29.9683 23.3067 29.6564 22.9133 29.47C22.5761 29.3466 22.222 29.2758 21.8633 29.26H20.3466H18.9466V27.5567C18.9818 26.9973 18.9818 26.4362 18.9466 25.8767C18.9047 25.6041 18.8096 25.3425 18.6666 25.1067C18.4785 24.8255 18.1978 24.6191 17.8733 24.5234C17.4396 24.4664 17.0003 24.4664 16.5666 24.5234H15.05C14.5296 24.4843 14.007 24.4843 13.4866 24.5234C12.9042 24.5518 12.3297 24.6698 11.7833 24.8734C11.4849 25.0041 11.2501 25.2472 11.13 25.55C11.0274 25.8357 10.9646 26.134 10.9433 26.4367V27.9534V29.5867H8.91329C8.35395 29.5482 7.79262 29.5482 7.23329 29.5867C6.96934 29.6038 6.71331 29.6838 6.48662 29.82C6.22134 29.9989 6.02406 30.262 5.92662 30.5667C5.87316 30.985 5.87316 31.4084 5.92662 31.8267C5.92662 32.5967 5.78662 32.9934 5.78662 33.39V35.0234C5.77744 35.6262 5.87216 36.2261 6.06662 36.7967C6.30567 37.0789 6.6358 37.2687 6.99995 37.3334C7.3916 37.4671 7.79997 37.5456 8.21329 37.5667H10.1733H10.6633V39.1767C10.5402 39.7846 10.4623 40.4007 10.43 41.02ZM10.1266 35.3734H7.90995V34.72V33.2967V31.8034V31.5C8.28329 31.5 8.81995 31.3134 9.05329 31.3134C13.37 31.3134 12.53 31.4767 12.6933 27.9534V26.5067C12.9266 26.5067 13.4166 26.32 13.5566 26.32H14.9566L16.4033 26.4834H16.6133C16.5843 26.8639 16.5843 27.2461 16.6133 27.6267V30.4967C16.6132 30.8145 16.7379 31.1196 16.9604 31.3465C17.1829 31.5734 17.4856 31.7039 17.8033 31.71L20.2766 31.8267H21.3266C21.3266 32.0134 21.49 32.2234 21.49 32.3167V35.0934C21.249 35.107 21.0075 35.107 20.7666 35.0934H17.8733C17.6855 35.0871 17.4985 35.1187 17.3232 35.1862C17.1479 35.2538 16.988 35.3559 16.853 35.4866C16.718 35.6172 16.6107 35.7736 16.5375 35.9466C16.4642 36.1196 16.4265 36.3055 16.4266 36.4934V38.8267V39.8534C16.2932 39.9179 16.152 39.9649 16.0066 39.9934H13.1833C13.1833 39.7134 13.0433 39.3867 13.0433 39.2234V36.5167C13.0464 36.3585 13.0179 36.2012 12.9595 36.0541C12.9011 35.9071 12.8139 35.7731 12.7031 35.6601C12.5923 35.5471 12.4601 35.4574 12.3141 35.3961C12.1682 35.3349 12.0115 35.3033 11.8533 35.3034L10.1266 35.3734Z" fill="#302D2D"/>
<path fill-rule="evenodd" clip-rule="evenodd" d="M55.7667 35.7234C55.5813 34.8499 55.1619 34.0434 54.5534 33.39C53.8449 32.6974 52.9249 32.262 51.94 32.1534C51.4967 32.1534 47.11 31.8967 47.11 33.25V34.4867C47.11 34.4867 47.11 34.3234 46.9467 34.2534C46.5726 33.7398 46.1591 33.2561 45.71 32.8067C44.9289 32.0538 44.0204 31.4455 43.0267 31.01C42.0292 30.6127 40.9726 30.384 39.9 30.3334C38.9919 30.2517 38.0782 30.2517 37.17 30.3334C35.1729 30.6031 33.1937 30.9927 31.2434 31.5C31.1375 31.5002 31.0329 31.523 30.9365 31.5667C30.84 31.6104 30.754 31.6741 30.6841 31.7536C30.6142 31.8332 30.562 31.9266 30.531 32.0278C30.4999 32.1291 30.4908 32.2357 30.5041 32.3408C30.5175 32.4458 30.553 32.5468 30.6083 32.637C30.6637 32.7273 30.7376 32.8047 30.8251 32.8642C30.9127 32.9237 31.0119 32.964 31.1162 32.9822C31.2205 33.0004 31.3275 32.9963 31.43 32.97H37.2167C38.01 32.97 38.78 32.97 39.55 33.18C40.3421 33.2896 41.123 33.4692 41.8834 33.7167C43.1578 34.0811 44.3105 34.7824 45.22 35.7467C45.7554 36.279 46.2617 36.8398 46.7367 37.4267V37.94L46.5267 40.95C46.5267 41.9067 46.27 43.2834 46.2467 44.59V45.8734C45.9878 46.2902 45.6993 46.6879 45.3834 47.0634C44.9867 47.5727 44.5325 48.0347 44.03 48.44C43.4118 48.9311 42.7076 49.303 41.9534 49.5367C41.1944 49.7793 40.4125 49.9435 39.62 50.0267C38.85 50.0267 38.0567 50.1667 37.2867 50.19C35.21 50.19 33.1334 50.19 31.36 50.05C31.2632 50.0335 31.164 50.0369 31.0685 50.06C30.973 50.0832 30.8832 50.1255 30.8046 50.1844C30.726 50.2434 30.6602 50.3177 30.6113 50.4029C30.5624 50.4881 30.5313 50.5824 30.52 50.68C30.5035 50.7769 30.5069 50.8761 30.5301 50.9716C30.5532 51.0671 30.5955 51.1569 30.6544 51.2355C30.7134 51.3141 30.7877 51.3799 30.8729 51.4288C30.9581 51.4777 31.0524 51.5087 31.15 51.52C33.1229 52.0673 35.125 52.5036 37.1467 52.8267C38.0705 52.9081 38.9996 52.9081 39.9234 52.8267C41.0064 52.7471 42.0698 52.4951 43.0734 52.08C44.1049 51.6164 45.0271 50.9406 45.78 50.0967C46.1943 49.617 46.5762 49.1103 46.9234 48.58C46.9234 48.58 46.9234 48.7434 46.9234 48.79C47.2002 49.4746 47.6739 50.0616 48.2844 50.477C48.895 50.8923 49.615 51.1172 50.3534 51.1234H51.87C51.9808 51.1091 52.0876 51.0728 52.1842 51.0168C52.2808 50.9607 52.3652 50.886 52.4325 50.7969C52.4999 50.7078 52.5488 50.6062 52.5764 50.498C52.604 50.3898 52.6098 50.2772 52.5934 50.1667C52.5791 50.0559 52.5428 49.9491 52.4868 49.8526C52.4307 49.756 52.356 49.6715 52.2669 49.6042C52.1778 49.5368 52.0762 49.4879 51.968 49.4603C51.8598 49.4327 51.7472 49.4269 51.6367 49.4434H50.54C49.3967 49.2334 49.07 48.37 48.9534 47.3667C48.8748 46.3563 48.8904 45.3408 49 44.3334C49.1167 43.12 49.2334 42 49.2334 41.1134L49 37.87L48.58 33.9267C49.363 33.9148 50.1451 33.9851 50.9134 34.1367C51.549 34.2478 52.1218 34.5882 52.5234 35.0934C52.8205 35.5687 52.9745 36.1195 52.9667 36.68C53.0131 37.4026 53.0131 38.1274 52.9667 38.85V49C52.9504 49.111 52.9571 49.2241 52.9863 49.3323C53.0156 49.4406 53.0669 49.5416 53.1369 49.6292C53.207 49.7167 53.2943 49.7889 53.3935 49.8413C53.4927 49.8936 53.6016 49.9249 53.7134 49.9334C53.8238 49.9463 53.9357 49.9372 54.0426 49.9066C54.1495 49.876 54.2492 49.8245 54.336 49.755C54.4228 49.6856 54.495 49.5996 54.5483 49.502C54.6017 49.4044 54.6351 49.2973 54.6467 49.1867C54.9967 47.18 55.3234 45.15 55.5567 43.0967C55.6967 41.7434 55.7667 40.3667 55.86 39.0134C55.965 37.917 55.9337 36.812 55.7667 35.7234Z" fill="#302D2D"/>
<path fill-rule="evenodd" clip-rule="evenodd" d="M29.54 21.8167C29.3498 20.3258 28.8232 18.8976 28 17.64C27.3988 16.7974 26.6662 16.0568 25.83 15.4467C24.797 14.708 23.7219 14.0302 22.61 13.4167H22.8667C23.5346 13.3671 24.1977 13.2657 24.85 13.1134C25.1548 13.0118 25.4336 12.8445 25.6667 12.6234C25.9029 12.3965 26.0655 12.1038 26.1333 11.7834C26.1863 11.3104 26.1863 10.833 26.1333 10.36V6.23002C26.1399 5.76727 26.093 5.30531 25.9933 4.85336C25.9117 4.58487 25.7486 4.34841 25.5267 4.17669C25.4397 4.10682 25.3397 4.05496 25.2325 4.02415C25.1253 3.99333 25.0131 3.98417 24.9023 3.9972C24.7915 4.01023 24.6845 4.0452 24.5873 4.10005C24.4902 4.1549 24.405 4.22855 24.3367 4.31669C23.8467 4.97002 24.5 3.15002 24.1033 10.22L23.94 10.64C23.4912 10.683 23.0466 10.761 22.61 10.8734L17.1033 11.1767C15.3067 11.1767 13.4167 11.34 11.5267 11.34C10.3505 11.3617 9.17406 11.315 8.00333 11.2C7.49593 11.1684 6.99437 11.0744 6.50999 10.92C6.16429 10.8578 5.85543 10.6658 5.64666 10.3834C5.42279 9.90201 5.31871 9.37364 5.34333 8.84336C5.34333 7.72336 5.48333 6.51002 5.48333 5.78669H5.62333C6.52717 5.46225 7.46762 5.25065 8.42333 5.15669C9.56592 5.09838 10.7107 5.09838 11.8533 5.15669H15.4933L22.68 4.52669C22.7903 4.52669 22.8995 4.50496 23.0014 4.46275C23.1034 4.42053 23.196 4.35866 23.274 4.28066C23.352 4.20266 23.4138 4.11006 23.4561 4.00814C23.4983 3.90623 23.52 3.797 23.52 3.68669C23.52 3.57638 23.4983 3.46715 23.4561 3.36524C23.4138 3.26332 23.352 3.17072 23.274 3.09272C23.196 3.01472 23.1034 2.95284 23.0014 2.91063C22.8995 2.86842 22.7903 2.84669 22.68 2.84669C21.7 2.70669 20.72 2.61336 19.7167 2.56669C18.2467 2.56669 16.8 2.45002 15.3533 2.35669H12.25C11.1593 2.42251 10.0751 2.57071 9.00666 2.80002C7.52833 3.09201 6.11892 3.66211 4.85333 4.48002C4.78045 4.55217 4.72557 4.64045 4.69314 4.73774C4.66071 4.83503 4.65164 4.93858 4.66666 5.04002C4.50537 5.06144 4.35658 5.13838 4.24586 5.25761C4.13515 5.37685 4.06942 5.53092 4.05999 5.69336C4.05999 6.53336 3.61666 8.02669 3.56999 9.33336C3.53079 10.0029 3.64243 10.6727 3.89666 11.2934C4.19734 11.9318 4.6967 12.4557 5.31999 12.7867C6.0515 13.1815 6.83799 13.4647 7.65333 13.6267H7.90999C6.67333 14.7 5.31999 15.96 4.10666 17.1034C3.01253 18.1988 2.08489 19.4488 1.35333 20.8134C0.586877 22.4254 0.127914 24.1663 -6.92904e-06 25.9467C-0.0833112 28.4298 -0.0131777 30.9156 0.209993 33.39C0.53666 37.2634 0.373326 41.3234 0.723326 45.2667C1.44666 52.8734 1.30666 50.05 5.38999 51.94C6.88871 52.568 8.45449 53.0221 10.0567 53.2934C11.5186 53.4998 12.9909 53.6244 14.4667 53.6667C15.4331 53.6788 16.3993 53.6321 17.36 53.5267C19.7734 53.2433 22.1319 52.6065 24.36 51.6367C24.5465 51.5405 24.6915 51.3797 24.7681 51.1844C24.8446 50.9891 24.8474 50.7726 24.776 50.5753C24.7045 50.378 24.5636 50.2136 24.3797 50.1126C24.1958 50.0116 23.9814 49.9811 23.7767 50.0267C22.1125 50.5112 20.3977 50.8009 18.6667 50.89C17.3298 50.96 15.9902 50.96 14.6533 50.89C13.3467 50.89 11.9933 50.7734 10.5933 50.6334C9.14711 50.655 7.70414 50.4903 6.29999 50.1434C5.36404 49.9321 4.47705 49.544 3.68666 49C3.5448 48.8973 3.37136 48.8478 3.19666 48.86C3.00964 47.6467 2.89278 46.4235 2.84666 45.1967C2.84666 41.23 3.17333 37.1934 3.10333 33.2967C2.98666 30.9634 2.75333 28.63 2.84666 26.1567C2.85367 24.6919 3.11419 23.2393 3.61666 21.8634C4.09624 20.6548 4.77448 19.5349 5.62333 18.55C6.99999 16.8234 8.58666 15.2834 9.89333 14C10.4533 14 10.9667 14.1867 11.55 14.21H17.29C18.06 14.21 18.83 14.21 19.6233 14.0234H20.2767C21.4433 14.91 22.7733 15.75 24.01 16.73C24.8756 17.3622 25.6122 18.1543 26.18 19.0634C26.6743 20.0761 26.9524 21.1806 26.9967 22.3067C27.1367 24.2667 26.9967 26.3434 26.9967 28.07C26.9967 30.4034 27.2533 32.7367 27.4167 34.8834C27.58 37.03 27.7667 39.3634 27.7433 41.58C27.743 44.5233 27.3346 47.4522 26.53 50.2834C26.4628 50.4969 26.4812 50.7283 26.5814 50.9285C26.6815 51.1288 26.8555 51.2823 27.0667 51.3567C27.2802 51.4239 27.5116 51.4055 27.7118 51.3053C27.9121 51.2052 28.0656 51.0312 28.14 50.82C29.1998 47.8749 29.8438 44.7964 30.0533 41.6734C30.2194 39.3439 30.2662 37.0075 30.1933 34.6734C30.1933 32.34 29.9367 30.1467 29.8433 27.8834C29.7033 25.97 29.82 23.8234 29.54 21.8167Z" fill="#302D2D"/>
</g>
<defs>
<clipPath id="clip0_3603_349">
<rect width="56" height="56" fill="white"/>
</clipPath>
</defs>
</svg>
