<svg width="56" height="56" viewBox="0 0 56 56" fill="none" xmlns="http://www.w3.org/2000/svg">
<g clip-path="url(#clip0_3603_299)">
<path d="M55.02 11.8767C54.8126 10.6242 54.2357 9.46231 53.3633 8.54002C52.1677 8.02981 50.8832 7.76023 49.5833 7.74669C40.3406 7.24524 31.0761 7.29978 21.84 7.91002C12.46 8.51669 3.96663 9.75336 1.28329 11.6667C0.833337 12.0834 0.54425 12.645 0.466628 13.2534C0.078588 16.2859 -0.0774206 19.3437 -3.85568e-05 22.4C-0.037077 30.2631 0.352384 38.1224 1.16663 45.9434C1.18156 46.0386 1.21538 46.1298 1.26608 46.2118C1.31678 46.2938 1.38336 46.3648 1.46189 46.4206C1.54042 46.4765 1.62932 46.5161 1.72338 46.5372C1.81743 46.5582 1.91474 46.5602 2.00959 46.5431C2.10444 46.526 2.19491 46.4901 2.2757 46.4376C2.35648 46.385 2.42595 46.3168 2.48001 46.237C2.53408 46.1573 2.57166 46.0675 2.59054 45.973C2.60942 45.8785 2.60922 45.7811 2.58996 45.6867C2.23996 43.47 1.91329 36.3534 1.86663 29.0967C1.76248 24.3395 1.91827 19.5802 2.33329 14.84C6.15996 17.4067 13.72 22.4234 19.9033 25.7834L23.31 27.4634C25.1403 28.4657 27.1429 29.1148 29.2133 29.3767C30.155 29.2252 31.0584 28.8923 31.8733 28.3967C32.5079 28.0576 33.1233 27.6837 33.7166 27.2767L37.0766 24.9434C37.87 24.36 38.64 23.8 39.41 23.1467C43.9429 19.6763 48.1807 15.8365 52.08 11.6667C52.08 11.9234 52.2433 12.2267 52.3133 12.5534C52.9935 16.2077 53.3139 19.9199 53.27 23.6367C53.3904 30.0025 53.1098 36.3695 52.43 42.7C52.43 43.2134 52.2666 43.75 52.1966 44.0534H50.5866C46.41 44.4734 37.52 45.1267 28.4666 45.6867C18.2233 46.3167 7.79329 46.8534 3.82663 46.9467C3.61003 46.9467 3.40231 47.0327 3.24916 47.1859C3.096 47.339 3.00996 47.5468 3.00996 47.7634C3.01604 47.9821 3.10721 48.1898 3.26409 48.3423C3.42097 48.4948 3.63116 48.5801 3.84996 48.58C9.14663 48.58 25.9 47.9034 38.4533 47.2267C44.4266 46.9234 49.4433 46.5967 51.8233 46.3634C52.5118 46.3252 53.1895 46.1754 53.83 45.92C54.0883 45.7544 54.2851 45.5084 54.39 45.22C54.6454 44.5113 54.8177 43.7752 54.9033 43.0267C55.6803 36.5698 56.0466 30.07 56 23.5667C56.0517 19.6475 55.7235 15.7326 55.02 11.8767ZM40.25 19.53C37.38 21.6767 34.4633 23.6834 32.2233 25.0367C31.2662 25.7412 30.1918 26.2705 29.05 26.6C28.0144 26.4682 27.0108 26.1521 26.0866 25.6667C23.9866 24.8034 21.28 23.4734 18.41 21.9567C12.46 18.9 5.87996 15.1434 2.63663 13.2534C5.38996 11.6434 13.3 10.92 21.98 10.4534C31.1041 9.94731 40.2492 9.94731 49.3733 10.4534H50.82C47.5346 13.7455 44.0008 16.78 40.25 19.53Z" fill="#302D2D"/>
<path d="M41.2532 33.6234C42.0466 34.3934 42.8632 35.14 43.5866 35.84C45.9199 38.01 48.2532 39.9 49.3266 40.95C49.4832 41.1012 49.6923 41.1856 49.9099 41.1856C50.1275 41.1856 50.3367 41.1012 50.4932 40.95C50.5709 40.874 50.6325 40.7832 50.6746 40.6831C50.7167 40.5829 50.7384 40.4753 50.7384 40.3667C50.7384 40.258 50.7167 40.1505 50.6746 40.0503C50.6325 39.9502 50.5709 39.8594 50.4932 39.7834C49.4899 38.5934 47.6232 36.3767 45.4066 33.9734C44.6599 33.18 43.8821 32.4023 43.0732 31.64C42.2799 30.87 41.4632 30.1 40.7399 29.3067C40.0166 28.5134 38.8499 27.72 37.9632 26.9734C36.3532 25.8767 35.1632 26.9734 36.3066 28.35C37.0999 29.2134 37.9632 30.17 38.9199 31.15C39.8766 32.13 40.4599 32.8534 41.2532 33.6234Z" fill="#302D2D"/>
<path d="M10.71 35.8167C8.28622 38.217 5.99611 40.7486 3.84995 43.4C3.77947 43.4813 3.72568 43.5755 3.69164 43.6775C3.65761 43.7795 3.64399 43.8872 3.65158 43.9945C3.66689 44.2111 3.76762 44.4127 3.93162 44.555C4.09561 44.6974 4.30943 44.7687 4.52603 44.7534C4.74264 44.7381 4.94428 44.6374 5.08662 44.4734C6.46328 43.0734 9.02995 40.95 11.83 38.4534C13.3 37.1234 14.84 35.7234 16.2633 34.2767C17.6866 32.83 19.5766 30.73 20.93 29.12C22.2833 27.51 20.6033 26.7867 19.0166 28.21C17.8033 29.2834 16.4966 30.4034 15.12 31.64C13.7433 32.8767 12.1333 34.4167 10.71 35.8167Z" fill="#302D2D"/>
</g>
<defs>
<clipPath id="clip0_3603_299">
<rect width="56" height="56" fill="white"/>
</clipPath>
</defs>
</svg>
