<svg width="56" height="56" viewBox="0 0 56 56" fill="none" xmlns="http://www.w3.org/2000/svg">
<g clip-path="url(#clip0_3603_426)">
<path fill-rule="evenodd" clip-rule="evenodd" d="M25.6666 25.27C25.7474 25.2065 25.8146 25.1274 25.8644 25.0374C25.9141 24.9475 25.9453 24.8485 25.9562 24.7463C25.9671 24.6441 25.9574 24.5407 25.9277 24.4423C25.898 24.3439 25.8489 24.2525 25.7833 24.1733C25.4187 23.5317 24.9072 22.9856 24.2906 22.58C23.6741 22.1744 22.9702 21.9208 22.2366 21.84C21.1383 21.8347 20.082 22.2622 19.2966 23.03C18.971 23.4082 18.7036 23.8329 18.5033 24.29C18.2434 24.8879 18.0554 25.5145 17.9433 26.1567C17.9068 26.319 17.9294 26.489 18.0069 26.6362C18.0844 26.7834 18.2118 26.8982 18.3663 26.9599C18.5208 27.0217 18.6922 27.0265 18.8498 26.9734C19.0075 26.9202 19.141 26.8127 19.2266 26.67C19.4505 26.2696 19.7165 25.8941 20.0199 25.55C20.2967 25.2416 20.6292 24.9883 20.9999 24.8033C21.2933 24.5957 21.6273 24.4525 21.9799 24.3833C22.3317 24.2904 22.7015 24.2904 23.0533 24.3833C23.6569 24.5162 24.2182 24.7968 24.6866 25.2C24.8111 25.3329 24.9812 25.414 25.1629 25.4269C25.3446 25.4399 25.5244 25.3839 25.6666 25.27Z" fill="#302D2D"/>
<path fill-rule="evenodd" clip-rule="evenodd" d="M31.99 25.4566C32.5211 24.8932 33.1879 24.4754 33.9266 24.2433C34.2829 24.0988 34.6623 24.0197 35.0466 24.0099C35.4032 23.9881 35.7593 24.0607 36.0789 24.2204C36.3984 24.3802 36.6702 24.6215 36.8666 24.9199C36.957 25.1019 37.1156 25.2408 37.3079 25.3064C37.5002 25.372 37.7106 25.3589 37.8933 25.2699C37.9856 25.2277 38.0683 25.1671 38.1364 25.0918C38.2045 25.0164 38.2565 24.928 38.2893 24.8319C38.322 24.7359 38.3348 24.6341 38.3269 24.5329C38.319 24.4317 38.2906 24.3331 38.2433 24.2433C38.0674 23.5452 37.6945 22.9123 37.1691 22.42C36.6438 21.9278 35.988 21.5968 35.28 21.4666C34.9099 21.3965 34.53 21.3965 34.16 21.4666C33.6244 21.5453 33.1137 21.7448 32.6666 22.0499C31.7512 22.7351 31.087 23.7028 30.7766 24.8033C30.7366 24.8829 30.7127 24.9697 30.7062 25.0586C30.6998 25.1475 30.711 25.2368 30.7392 25.3213C30.7674 25.4059 30.812 25.484 30.8705 25.5513C30.929 25.6186 31.0001 25.6736 31.08 25.7133C31.156 25.7583 31.2405 25.7874 31.3281 25.7988C31.4158 25.8102 31.5048 25.8037 31.5899 25.7797C31.675 25.7557 31.7543 25.7147 31.8231 25.6592C31.8918 25.6037 31.9486 25.5347 31.99 25.4566Z" fill="#302D2D"/>
<path fill-rule="evenodd" clip-rule="evenodd" d="M26.5767 33.18C27.2953 33.5617 28.0963 33.7619 28.91 33.7633C29.7231 33.7573 30.5231 33.5573 31.2434 33.18C31.6429 32.9474 32.0113 32.6651 32.34 32.34C32.7603 31.9087 33.1502 31.4487 33.5067 30.9633C33.6139 30.8071 33.6616 30.6176 33.6411 30.4292C33.6207 30.2408 33.5336 30.066 33.3954 29.9363C33.2573 29.8066 33.0772 29.7306 32.8879 29.7221C32.6986 29.7136 32.5126 29.7732 32.3634 29.89C32.0367 30.1467 31.6867 30.4267 31.3367 30.66C31.0323 30.8471 30.7021 30.9886 30.3567 31.08C29.8408 31.1843 29.3092 31.1843 28.7934 31.08C27.4019 30.9099 26.1139 30.2577 25.1534 29.2367C25.0574 29.082 24.904 28.9717 24.7268 28.9301C24.5495 28.8886 24.3631 28.9191 24.2084 29.015C24.0536 29.1109 23.9434 29.2644 23.9018 29.4416C23.8602 29.6188 23.8908 29.8053 23.9867 29.96C24.4713 31.2896 25.3819 32.4216 26.5767 33.18Z" fill="#302D2D"/>
<path fill-rule="evenodd" clip-rule="evenodd" d="M21.9334 49C20.9534 48.8366 20.02 48.65 19.04 48.5333V48.3233C18.83 47.2033 18.5034 46.1533 18.2 45.08C18.1973 44.9899 18.176 44.9014 18.1375 44.82C18.099 44.7386 18.044 44.666 17.9761 44.6068C17.9081 44.5477 17.8287 44.5032 17.7428 44.4762C17.6568 44.4492 17.5662 44.4403 17.4767 44.45C17.3878 44.4559 17.3009 44.4793 17.221 44.5189C17.1412 44.5585 17.0699 44.6135 17.0114 44.6807C16.9528 44.7479 16.9082 44.826 16.8799 44.9106C16.8516 44.9951 16.8403 45.0844 16.8467 45.1733C16.8467 46.2933 16.59 47.3666 16.5434 48.4866C15.5634 48.6033 14.63 48.86 13.65 49.0233C13.549 49.0046 13.4452 49.0084 13.3458 49.0344C13.2464 49.0603 13.154 49.1078 13.075 49.1735C12.9961 49.2392 12.9326 49.3215 12.889 49.4145C12.8454 49.5075 12.8228 49.6089 12.8228 49.7116C12.8228 49.8143 12.8454 49.9158 12.889 50.0088C12.9326 50.1018 12.9961 50.184 13.075 50.2497C13.154 50.3154 13.2464 50.3629 13.3458 50.3889C13.4452 50.4149 13.549 50.4186 13.65 50.4C14.63 50.61 15.5634 50.8666 16.5667 50.9833H16.7534V51.2866C16.9167 52.3833 17.15 53.4333 17.3134 54.53C17.2936 54.6439 17.299 54.7608 17.3292 54.8725C17.3593 54.9841 17.4135 55.0878 17.488 55.1763C17.5625 55.2648 17.6554 55.336 17.7603 55.3848C17.8651 55.4336 17.9794 55.4588 18.095 55.4588C18.2107 55.4588 18.3249 55.4336 18.4298 55.3848C18.5346 55.336 18.6276 55.2648 18.702 55.1763C18.7765 55.0878 18.8307 54.9841 18.8609 54.8725C18.8911 54.7608 18.8965 54.6439 18.8767 54.53C18.9934 53.41 19.1334 52.3133 19.2034 51.17V50.96C20.1367 50.8433 21.0234 50.68 21.9567 50.54C22.1609 50.54 22.3568 50.4588 22.5012 50.3144C22.6456 50.17 22.7267 49.9742 22.7267 49.77C22.7267 49.5657 22.6456 49.3699 22.5012 49.2255C22.3568 49.0811 22.1609 49 21.9567 49H21.9334Z" fill="#302D2D"/>
<path fill-rule="evenodd" clip-rule="evenodd" d="M52.43 49.9799C51.8612 48.488 51.0749 47.0885 50.0967 45.8266C49.2469 44.7195 48.319 43.6746 47.32 42.6999C46.6054 42.0232 45.8235 41.4212 44.9867 40.9033C42.4688 39.3385 39.6973 38.2252 36.7967 37.6133C37.17 37.3799 37.5667 37.1933 37.9167 36.9366C39.538 35.6428 40.9066 34.0607 41.9533 32.2699C44.2707 28.1807 45.0955 23.4134 44.2867 18.7833C43.4984 14.579 41.2303 10.7961 37.8933 8.11994C36.12 7.93328 35.7 8.37661 37.17 9.61328C39.5857 11.8279 41.2703 14.7251 42 17.9199C42 17.9199 41.8133 17.7333 41.6967 17.7099C40.5192 17.4398 39.3273 17.2373 38.1267 17.1033C36.3533 16.9166 34.58 16.8233 32.8067 16.7066H28.6533C26.5771 16.7724 24.5055 16.9437 22.4467 17.2199C19.5453 17.6572 16.6708 18.257 13.8367 19.0166C14 18.6666 14 18.6666 14 18.4099C14.7437 15.3833 16.273 12.6064 18.4333 10.3599C19.7633 8.74994 19.2033 8.44661 17.7333 8.86661C15.0566 11.2959 13.1094 14.4228 12.11 17.8966C11.2511 20.4028 11.0147 23.0802 11.4212 25.6981C11.8277 28.3159 12.8649 30.7956 14.4433 32.9233C16.303 35.1199 18.698 36.7996 21.3967 37.7999C18.8546 38.3748 16.3766 39.2034 14 40.2733C10.3401 41.9007 7.16457 44.4492 4.78333 47.6699C3.15276 49.8931 2.44236 52.6595 2.8 55.3933C2.82336 55.5751 2.9171 55.7405 3.06107 55.8539C3.20505 55.9673 3.38778 56.0198 3.57 55.9999C3.65921 55.9885 3.74525 55.9594 3.82308 55.9143C3.90091 55.8692 3.96897 55.8091 4.02328 55.7374C4.0776 55.6657 4.11707 55.5839 4.1394 55.4968C4.16173 55.4096 4.16647 55.3189 4.15333 55.2299C3.94951 52.8562 4.67757 50.4963 6.18333 48.6499C8.51721 45.846 11.5293 43.6853 14.9333 42.3733C19.1424 40.6301 23.633 39.6655 28.1867 39.5266C27.9453 40.9093 27.774 42.3033 27.6733 43.7033V46.0366C27.6733 46.7599 27.6733 47.6466 27.8133 48.3699C27.9767 50.2366 28.2333 52.0333 28.4433 53.8766C28.4554 54.0829 28.5475 54.2764 28.7 54.4158C28.8525 54.5553 29.0534 54.6297 29.26 54.6233C29.3611 54.6203 29.4607 54.5973 29.5529 54.5558C29.6452 54.5143 29.7284 54.455 29.7977 54.3814C29.8671 54.3077 29.9212 54.2211 29.9571 54.1264C29.9929 54.0318 30.0098 53.9311 30.0067 53.8299C30.0067 51.9866 30.1933 50.1433 30.2633 48.2766V45.9433V43.6099C30.2633 42.1866 30.03 40.7633 29.9367 39.3633C34.7672 39.2061 39.5521 40.3419 43.7967 42.6533C44.5108 43.0784 45.1827 43.5706 45.8033 44.1233C46.776 44.9942 47.6809 45.938 48.51 46.9466C49.4632 48.0209 50.2498 49.2322 50.8433 50.5399C51.4074 51.8336 51.6784 53.236 51.6367 54.6466C51.6303 54.7478 51.6441 54.8492 51.677 54.945C51.71 55.0409 51.7616 55.1293 51.8288 55.2051C51.896 55.281 51.9775 55.3429 52.0686 55.3872C52.1598 55.4315 52.2588 55.4573 52.36 55.4633C52.4618 55.4729 52.5646 55.4615 52.6618 55.4298C52.7591 55.3981 52.8488 55.3467 52.9253 55.2789C53.0019 55.2111 53.0637 55.1282 53.107 55.0355C53.1502 54.9428 53.1739 54.8422 53.1767 54.7399C53.2791 53.1178 53.0242 51.4929 52.43 49.9799ZM24.1967 35.9799C21.2017 35.2442 18.5004 33.617 16.45 31.3133C15.2342 29.8132 14.3482 28.0737 13.8497 26.2083C13.3511 24.3428 13.2513 22.3932 13.5567 20.4866C15.89 20.1833 18.2233 19.9499 20.6967 19.7399L26.7167 19.3199C28.7467 19.3199 30.7533 19.0633 32.76 19.0633C34.7667 19.0633 36.2367 18.9233 37.9867 19.0633C39.1264 19.0794 40.2641 19.1651 41.3933 19.3199C43.7267 19.8099 42.1167 27.8133 39.9 31.1966C39.1317 32.4306 38.1707 33.5335 37.0533 34.4633C36.0265 35.3656 34.7918 35.999 33.46 36.3066C30.3916 36.9254 27.222 36.8296 24.1967 36.0266V35.9799Z" fill="#302D2D"/>
<path fill-rule="evenodd" clip-rule="evenodd" d="M23.7767 13.7666C24.8363 14.3656 26.0219 14.7072 27.2378 14.7639C28.4536 14.8207 29.6659 14.5909 30.7767 14.0933C32.0827 13.4111 33.185 12.3956 33.9718 11.1499C34.7586 9.90409 35.2019 8.47237 35.2567 6.99996C35.2977 6.14398 35.1637 5.28862 34.8628 4.48622C34.5619 3.68381 34.1004 2.95124 33.5067 2.3333C32.4436 1.15569 31.0121 0.3741 29.4467 0.116631C27.2767 -0.210036 24.3367 -0.163369 21.3733 4.4333C20.8564 5.18609 20.5068 6.04087 20.348 6.94012C20.1891 7.83936 20.2247 8.7622 20.4525 9.64652C20.6802 10.5308 21.0947 11.3561 21.6681 12.0668C22.2415 12.7775 22.9605 13.3571 23.7767 13.7666ZM23.3333 4.66663C25.2233 1.7733 26.95 1.44663 29.12 1.88996C30.2353 2.11674 31.2396 2.7177 31.9667 3.5933C32.4586 4.22148 32.7812 4.9653 32.9038 5.7537C33.0263 6.54211 32.9447 7.34877 32.6667 8.09663C32.4287 8.87264 32.032 9.5907 31.5018 10.2053C30.9716 10.8198 30.3194 11.3175 29.5867 11.6666C28.8503 12.0031 28.0463 12.1655 27.237 12.1412C26.4277 12.1169 25.6349 11.9066 24.92 11.5266C24.1757 11.207 23.5325 10.6905 23.0598 10.0327C22.587 9.37491 22.3024 8.6007 22.2367 7.7933C22.2785 6.66431 22.6608 5.57437 23.3333 4.66663Z" fill="#302D2D"/>
</g>
<defs>
<clipPath id="clip0_3603_426">
<rect width="56" height="56" fill="white"/>
</clipPath>
</defs>
</svg>
