<svg width="56" height="56" viewBox="0 0 56 56" fill="none" xmlns="http://www.w3.org/2000/svg">
<g clip-path="url(#clip0_3603_404)">
<path fill-rule="evenodd" clip-rule="evenodd" d="M44.8467 45.78C43.96 43.96 42.5134 42.5367 41.51 40.6467C40.9034 39.5734 40.6934 38.3134 40.2034 37.3334C39.9207 36.7359 39.5598 36.1788 39.13 35.6767C38.4061 34.8232 37.5172 34.1248 36.5167 33.6234C36.0649 33.4052 35.5738 33.2804 35.0726 33.2564C34.5715 33.2323 34.0707 33.3095 33.6 33.4834C32.6177 33.8692 31.7952 34.5765 31.2667 35.49C30.6714 36.3473 30.3463 37.3631 30.3334 38.4067C30.3547 39.3176 30.5612 40.2147 30.94 41.0434C31.3834 42.0934 32.0367 43.0734 32.55 44.0767L32.8534 46.1534C33.1276 47.1898 33.6121 48.1588 34.2767 49C34.8772 49.8689 35.6774 50.581 36.61 51.0767C36.6988 51.1261 36.7965 51.1574 36.8974 51.1689C36.9984 51.1804 37.1006 51.1718 37.1982 51.1436C37.2958 51.1154 37.3868 51.0682 37.4661 51.0046C37.5454 50.9411 37.6113 50.8625 37.66 50.7734C37.7081 50.6849 37.7378 50.5877 37.7473 50.4875C37.7569 50.3874 37.746 50.2863 37.7155 50.1904C37.685 50.0945 37.6354 50.0058 37.5698 49.9295C37.5041 49.8533 37.4237 49.7911 37.3334 49.7467C36.6469 49.3169 36.0777 48.7236 35.6767 48.02C35.2277 47.3118 34.9335 46.5166 34.8134 45.6867C34.7782 45.174 34.7782 44.6594 34.8134 44.1467C34.7835 43.7854 34.6968 43.431 34.5567 43.0967C34.16 42.0934 33.6467 41.1134 33.2967 40.0867C33.082 39.546 32.9942 38.9633 33.04 38.3834C33.074 37.8846 33.2347 37.4028 33.5067 36.9834C33.7701 36.615 34.1349 36.3313 34.5567 36.1667C34.86 36.1667 35.1634 36.1667 35.4667 36.4C35.985 36.7222 36.4496 37.1238 36.8434 37.59C37.111 37.8805 37.3315 38.2112 37.4967 38.57C38.08 39.69 38.43 40.9034 39.1067 42C40.1334 43.54 41.44 44.73 42.3034 46.13C42.9423 46.9833 43.3954 47.961 43.6334 49C43.7947 49.7669 43.8652 50.55 43.8434 51.3334C43.7941 52.1213 43.6691 52.9027 43.47 53.6667C43.4446 53.8754 43.4941 54.0865 43.6099 54.2621C43.7256 54.4376 43.9 54.5664 44.1019 54.6253C44.3038 54.6841 44.5201 54.6694 44.7121 54.5835C44.9041 54.4977 45.0593 54.3464 45.15 54.1567C45.4467 53.2384 45.6499 52.2925 45.7567 51.3334C45.8731 50.3958 45.8731 49.4475 45.7567 48.51C45.6024 47.5569 45.2951 46.635 44.8467 45.78Z" fill="#302D2D"/>
<path fill-rule="evenodd" clip-rule="evenodd" d="M22.5166 30.94C22.7119 31.4345 23.0338 31.8691 23.45 32.2C23.628 32.3342 23.8364 32.4224 24.0566 32.4567C24.4219 32.4776 24.788 32.4776 25.1533 32.4567C26.04 32.4567 29.1433 32.6433 30.45 32.5967C30.8044 32.5986 31.1546 32.5197 31.474 32.3661C31.7934 32.2125 32.0736 31.9881 32.2933 31.71C32.3904 31.3919 32.4453 31.0624 32.4566 30.73C32.4946 30.2018 32.4946 29.6715 32.4566 29.1433L32.1066 26.0633L33.4133 26.2733L34.79 26.4833H35.8166C36.1737 26.5159 36.5329 26.5159 36.89 26.4833C37.2018 26.4018 37.5004 26.276 37.7766 26.11C37.9469 25.978 38.0885 25.8126 38.1928 25.6241C38.2971 25.4356 38.3619 25.2277 38.3833 25.0133V24.2433L38.5233 21.91C38.5652 21.2418 38.5652 20.5716 38.5233 19.9033C38.5286 19.3684 38.383 18.8427 38.1033 18.3867C37.9783 18.1842 37.803 18.0176 37.5944 17.9031C37.3859 17.7886 37.1512 17.7301 36.9133 17.7333C36.54 17.7333 35.56 17.9433 35.49 17.9433L32.1766 18.6667L32.4566 15.0967C32.5054 14.5767 32.5054 14.0533 32.4566 13.5333C32.4169 13.3384 32.3387 13.1533 32.2265 12.9891C32.1143 12.8248 31.9704 12.6846 31.8033 12.5767C31.6338 12.4848 31.4535 12.4142 31.2666 12.3667C30.9253 12.3316 30.5813 12.3316 30.24 12.3667H25.3866C24.9701 12.4081 24.5568 12.4782 24.15 12.5767C23.9463 12.642 23.7594 12.7511 23.6022 12.8962C23.445 13.0412 23.3214 13.2189 23.24 13.4167C23.1195 13.8251 23.0721 14.2517 23.1 14.6767C23.1 15.4 23.31 16.1933 23.3566 16.7067V18.0133H22.75L20.5566 17.8733H19.4366C19.0601 17.9043 18.6982 18.0329 18.3866 18.2467C17.8146 18.649 17.3953 19.2328 17.1966 19.9033C16.9807 20.6135 16.886 21.355 16.9166 22.0967L17.1733 24.6633V25.3867C17.2174 25.6113 17.3046 25.8252 17.43 26.0167C17.6418 26.3272 17.9315 26.5766 18.27 26.74C18.6891 26.9063 19.1285 27.0162 19.5766 27.0667C20.1579 27.1366 20.7454 27.1366 21.3266 27.0667C21.6533 27.0667 21.98 26.95 22.33 26.9033L22.0966 28.77C22.1208 29.511 22.2626 30.2435 22.5166 30.94ZM21.4666 24.6633C21.0545 24.6329 20.6473 24.5546 20.2533 24.43V24.01V21.8633C20.44 19.8333 19.25 20.1133 23.1466 19.7167C23.4568 19.6818 23.7698 19.6818 24.08 19.7167C24.2345 19.853 24.4339 19.9277 24.64 19.9267C24.7421 19.9269 24.8431 19.9061 24.9369 19.8657C25.0307 19.8253 25.1152 19.7661 25.1851 19.6917C25.2551 19.6174 25.3091 19.5295 25.3438 19.4334C25.3784 19.3374 25.393 19.2352 25.3866 19.1333L25.6666 16.8C25.6666 16.38 25.6666 15.7733 25.8066 15.19H28.84H30.31L30.3333 19.3667C30.3125 19.4746 30.3125 19.5854 30.3333 19.6933C30.373 19.8962 30.4903 20.0756 30.6603 20.1932C30.8302 20.3109 31.0394 20.3576 31.2433 20.3233L35.77 20.58H35.9566C35.84 21.0467 35.63 21.5833 35.6066 21.84V24.0567H34.86H31.4533H31.29H31.1733C31.0733 24.0535 30.9737 24.0705 30.8804 24.1067C30.7871 24.1428 30.702 24.1973 30.6302 24.2669C30.5583 24.3366 30.5013 24.42 30.4623 24.5121C30.4233 24.6042 30.4032 24.7033 30.4033 24.8033L30.0766 29.05V29.6333H25.41H24.9433V29.4233C24.8806 29.1148 24.8339 28.8033 24.8033 28.49V25.8533C24.8978 25.7163 24.9467 25.5531 24.9433 25.3867C24.902 25.1559 24.7775 24.9483 24.5933 24.8033C24.5226 24.6808 24.4204 24.5794 24.2973 24.5097C24.1742 24.4399 24.0347 24.4044 23.8933 24.4067C23.6907 24.4108 23.4978 24.4946 23.3566 24.64L21.4666 24.6633Z" fill="#302D2D"/>
<path fill-rule="evenodd" clip-rule="evenodd" d="M25.34 49.5367C25.8659 50.4844 26.5087 51.3624 27.2534 52.15C28.3094 53.1382 29.2418 54.2508 30.03 55.4633C30.1198 55.6768 30.2906 55.8459 30.5051 55.9335C30.7195 56.021 30.9599 56.0197 31.1734 55.93C31.3869 55.8403 31.556 55.6694 31.6435 55.455C31.731 55.2406 31.7298 55.0002 31.64 54.7867C30.9287 52.7797 29.905 50.8977 28.6067 49.21C28.2567 48.6967 27.9067 48.2067 27.58 47.6933C27.2416 47.2391 26.9595 46.7455 26.74 46.2233C26.6289 45.8121 26.5662 45.3892 26.5534 44.9633C26.6698 44.9747 26.787 44.9747 26.9034 44.9633C27.0992 44.8957 27.2811 44.7929 27.44 44.66C27.6734 44.45 29.05 43.05 28.49 42.3267C28.21 42 28 42 27.3934 42C26.9303 41.9185 26.4565 41.9185 25.9934 42C25.8897 42.0224 25.7934 42.0705 25.7134 42.14C22.7967 44.0767 25.2934 49.4433 25.34 49.5367Z" fill="#302D2D"/>
<path fill-rule="evenodd" clip-rule="evenodd" d="M54.2034 12.4133C54.0732 10.2354 53.4167 8.12165 52.29 6.25331C50.8125 4.01978 48.6993 2.28047 46.2234 1.25997C43.8301 0.248656 41.2318 -0.183064 38.64 -2.52612e-05C36.4476 0.0776626 34.3134 0.725354 32.4476 1.8792C30.5818 3.03305 29.0489 4.65321 28 6.57997C26.9371 4.68114 25.4006 3.08994 23.5401 1.96135C21.6796 0.832768 19.5584 0.205269 17.3834 0.139975C14.7802 -0.0874163 12.1623 0.357456 9.78036 1.43197C7.39844 2.50649 5.33235 4.17465 3.78002 6.27664C2.65854 8.14203 1.98744 10.2432 1.82002 12.4133C1.5501 15.5216 1.89095 18.6526 2.82335 21.63C4.72152 26.8879 7.74794 31.6665 11.69 35.63C14.7923 38.9612 18.5079 41.6627 22.6334 43.5866C23.87 44.1233 24.29 42.7233 23.4967 42C19.6433 39.9905 16.2193 37.2481 13.4167 33.9266C9.89287 30.1369 7.22683 25.6325 5.60002 20.72C4.93153 18.5443 4.61642 16.2755 4.66669 14C4.6236 11.8298 5.13775 9.6848 6.16002 7.76997C7.39951 5.9918 9.07219 4.55926 11.0198 3.60791C12.9674 2.65657 15.1256 2.21786 17.29 2.33331C26.4367 2.51997 26.8567 9.33331 27.51 9.58998C27.5912 9.62463 27.6785 9.6425 27.7667 9.6425C27.8549 9.6425 27.9422 9.62463 28.0234 9.58998C28.1005 9.62405 28.184 9.64165 28.2684 9.64165C28.3527 9.64165 28.4362 9.62405 28.5134 9.58998C29.19 9.37998 29.6334 2.58997 38.7567 2.42664C40.942 2.42053 43.1015 2.89865 45.08 3.82664C46.9837 4.68518 48.6028 6.06944 49.7467 7.81664C50.7966 9.70777 51.343 11.837 51.3334 14C51.4104 16.2672 51.1429 18.533 50.54 20.72C49.5588 24.508 48.2632 28.2075 46.6667 31.78C45.9971 33.1654 44.9548 34.337 43.6567 35.1633C43.4567 35.2848 43.3112 35.4786 43.2503 35.7045C43.1895 35.9305 43.218 36.1712 43.33 36.3766C43.4509 36.571 43.6422 36.7111 43.864 36.7677C44.0858 36.8242 44.3209 36.7928 44.52 36.68C46.1887 35.7436 47.5565 34.3516 48.4634 32.6666C50.3305 29.079 51.8916 25.3402 53.13 21.49C54.0755 18.5632 54.4401 15.4799 54.2034 12.4133Z" fill="#302D2D"/>
</g>
<defs>
<clipPath id="clip0_3603_404">
<rect width="56" height="56" fill="white"/>
</clipPath>
</defs>
</svg>
