<svg width="56" height="56" viewBox="0 0 56 56" fill="none" xmlns="http://www.w3.org/2000/svg">
<path fill-rule="evenodd" clip-rule="evenodd" d="M56.0001 45.3134C55.3934 43.75 54.9967 42.8634 54.7401 41.93C54.4605 40.8002 54.3195 39.6406 54.3201 38.4767C54.2878 35.1926 54.0696 31.9129 53.6667 28.6534C53.4474 27.104 52.924 25.6132 52.1267 24.2667C51.925 23.9315 51.653 23.644 51.3295 23.4241C51.0059 23.2042 50.6386 23.057 50.2527 22.9926C49.8668 22.9283 49.4715 22.9484 49.0942 23.0516C48.7168 23.1547 48.3663 23.3384 48.0667 23.59C47.3293 24.0931 46.7638 24.8102 46.4467 25.6447C46.1296 26.4792 46.0761 27.3908 46.2934 28.2567C46.5028 29.0915 46.5028 29.9652 46.2934 30.8C46.1001 31.7431 45.7946 32.6596 45.3834 33.53C44.8344 34.629 44.7098 35.8917 45.0334 37.0767C45.3744 38.1704 46.0126 39.1479 46.8767 39.9C47.0129 40.0393 47.1988 40.1187 47.3935 40.1209C47.5882 40.1231 47.7758 40.0478 47.9151 39.9117C48.0543 39.7756 48.1337 39.5897 48.1359 39.3949C48.1381 39.2002 48.0629 39.0126 47.9267 38.8734C47.3298 38.2666 46.9102 37.5081 46.7134 36.68C46.556 35.8742 46.7148 35.0387 47.1567 34.3467C47.8598 33.1726 48.3792 31.8979 48.6967 30.5667C48.8953 29.581 48.8953 28.5657 48.6967 27.58C48.6643 27.2598 48.7208 26.9369 48.8601 26.6467C48.932 26.5061 49.018 26.3732 49.1167 26.25L49.3734 25.9934L49.6534 25.8067C50.243 26.8466 50.6384 27.9852 50.8201 29.1667C51.4034 32.0134 51.5901 35.4434 51.9401 38.64C52.0391 39.9575 52.2977 41.2581 52.7101 42.5134C53.0601 43.47 53.5267 44.3567 54.2734 45.99C54.3631 46.1943 54.5303 46.3545 54.7382 46.4354C54.946 46.5164 55.1775 46.5114 55.3817 46.4217C55.5859 46.332 55.7461 46.1648 55.8271 45.9569C55.9081 45.7491 55.9031 45.5176 55.8134 45.3134H56.0001Z" fill="#302D2D"/>
<path fill-rule="evenodd" clip-rule="evenodd" d="M47.9967 12.6C47.1333 6.04334 47.6233 8.14334 42.3967 7.58334C40.0633 7.32668 37.73 6.90668 35.3967 6.76668C33.0633 6.62668 30.3333 6.51001 27.6267 6.51001C23.7533 6.51001 19.8567 6.74334 15.96 6.88334C13.16 7.00001 10.0333 7.00001 7 7.51334C4.95017 7.76354 2.94196 8.28128 1.02667 9.05334C0.922557 9.08962 0.82687 9.1466 0.745374 9.22085C0.663878 9.2951 0.598259 9.38509 0.552473 9.48538C0.506688 9.58567 0.481683 9.6942 0.478967 9.80441C0.47625 9.91463 0.495878 10.0243 0.536667 10.1267C0.607359 10.2874 0.73085 10.4191 0.886667 10.5C0.372113 14.2206 0.0760504 17.9681 0 21.7233C0 23.4267 0 25.1533 0.14 26.8567C0.28 28.56 0.396667 30.24 0.606667 31.9433C1.07333 35.8867 1.77333 39.7833 2.52 43.61C2.55448 43.8295 2.6745 44.0264 2.85379 44.1576C3.03309 44.2887 3.25705 44.3436 3.47667 44.31C3.52903 44.3285 3.58455 44.3364 3.64 44.3333C7.86333 44.5667 12.04 45.0567 16.24 45.3833C19.0633 45.6167 21.8633 45.78 24.6867 45.85C29.3533 45.99 34.1367 45.85 38.85 45.5933H39.06C39.13 45.5933 39.4567 46.0133 39.6667 46.2C40.033 46.514 40.4319 46.7878 40.8567 47.0167C41.3467 47.2733 41.9067 47.4133 42.4433 47.74C42.7723 47.8815 43.0788 48.0701 43.3533 48.3C43.6799 48.5876 43.9841 48.8996 44.2633 49.2333C44.3908 49.4138 44.5811 49.5402 44.797 49.5876C45.0128 49.6351 45.2385 49.6003 45.43 49.49C45.5239 49.4307 45.6052 49.3533 45.669 49.2624C45.7328 49.1715 45.778 49.0688 45.8019 48.9603C45.8257 48.8518 45.8279 48.7396 45.8081 48.6303C45.7883 48.5209 45.747 48.4166 45.6867 48.3233C45.4624 47.7446 45.1811 47.1896 44.8467 46.6667C44.582 46.264 44.2685 45.8956 43.9133 45.57C43.588 45.3058 43.245 45.0641 42.8867 44.8467C42.4879 44.6382 42.0746 44.4589 41.65 44.31C40.8063 44.1433 40.0096 43.7927 39.3167 43.2833C39.2238 43.1224 39.0709 43.005 38.8915 42.9569C38.7121 42.9087 38.5209 42.9339 38.36 43.0267C38.1991 43.1195 38.0817 43.2724 38.0335 43.4519C37.9854 43.6313 38.0105 43.8224 38.1033 43.9833C34.16 43.8667 30.24 43.5633 26.4367 43.3067C23.6367 43.12 20.8133 42.91 18.0133 42.8167C13.3467 42.6533 8.86667 42.8167 4.29333 42.9333C3.82667 38.4533 3.52333 33.9733 3.26667 29.47C3.26667 27.6033 3.05667 25.7367 2.96333 23.87C2.96333 22.61 2.82333 21.3733 2.75333 20.1133C2.45 16.8233 2.33333 13.6267 2.47333 10.4067C3.99729 9.96856 5.56017 9.67943 7.14 9.54334C10.1267 9.33334 13.1833 9.54334 15.9833 9.54334C18.7833 9.54334 21.14 9.54334 23.73 9.42668L29.61 9.33334L35.3733 9.14668C38.0333 9.14668 40.6467 9.38001 43.2833 9.40334H45.3367L45.5933 9.28668C45.5933 10.4767 45.36 11.62 45.29 12.8567V14.7C45.29 15.3067 45.29 15.9367 45.43 16.5433C45.57 18.0133 45.8033 19.4133 45.9667 20.8833C45.9632 20.9935 45.9828 21.1032 46.0241 21.2054C46.0654 21.3076 46.1276 21.4001 46.2066 21.4769C46.2856 21.5537 46.3798 21.6133 46.4831 21.6517C46.5864 21.6901 46.6966 21.7065 46.8067 21.7C47.0294 21.7 47.2431 21.6115 47.4006 21.454C47.5582 21.2964 47.6467 21.0828 47.6467 20.86C47.7867 19.39 47.9733 17.9667 48.0667 16.4967V14.6067C48.0667 13.9767 48.0667 13.23 47.9967 12.6Z" fill="#302D2D"/>
<path fill-rule="evenodd" clip-rule="evenodd" d="M12.25 27.58C12.8311 27.6532 13.419 27.6532 14 27.58C14.5117 27.4296 14.9564 27.1084 15.26 26.67C15.6334 26.1567 15.9834 25.5967 16.31 25.0367C16.6367 24.4767 16.8934 24.01 17.1734 23.4967C17.1893 23.5658 17.1893 23.6376 17.1734 23.7067L18.9934 30.0534L19.7867 32.6667L19.9967 33.53C20.0735 33.8665 20.1829 34.1947 20.3234 34.51C20.469 34.6882 20.6557 34.8284 20.8674 34.9187C21.0791 35.0089 21.3095 35.0464 21.5389 35.0281C21.7683 35.0097 21.9899 34.936 22.1846 34.8133C22.3792 34.6906 22.5412 34.5224 22.6567 34.3234C23.2548 33.2119 23.7695 32.0576 24.1967 30.87C25.1067 28.2334 25.7134 25.41 26.53 22.8434L27.37 20.3C27.37 20.65 27.5567 21 27.6267 21.35C27.86 22.4467 28.0467 23.5434 28.28 24.64C28.28 24.9434 28.28 25.7834 28.5367 26.32C28.5958 26.6221 28.7325 26.9035 28.9334 27.1367C29.3428 27.5209 29.8679 27.7588 30.4267 27.8134C31.2653 27.881 32.1081 27.881 32.9467 27.8134L35.8167 27.6034C35.9347 27.6014 36.051 27.5746 36.158 27.5247C36.265 27.4747 36.3603 27.4028 36.4376 27.3136C36.5149 27.2244 36.5726 27.1199 36.6068 27.0069C36.641 26.8939 36.651 26.775 36.6362 26.6578C36.6213 26.5407 36.5819 26.428 36.5206 26.3271C36.4593 26.2263 36.3774 26.1394 36.2803 26.0723C36.1831 26.0052 36.0729 25.9594 35.9569 25.9377C35.8408 25.9161 35.7215 25.9191 35.6067 25.9467H33.0167H31.3134C31.0575 25.9752 30.7992 25.9752 30.5434 25.9467C30.8467 25.69 30.3567 24.57 30.31 24.29C30.1234 23.1934 30.0067 21.9567 29.7967 20.9534C29.6876 20.1632 29.5159 19.383 29.2834 18.62C29.133 18.0608 28.9379 17.5146 28.7 16.9867C28.5409 16.6062 28.3022 16.2641 28 15.9834C27.6675 15.8468 27.2972 15.8329 26.9553 15.944C26.6134 16.0551 26.3221 16.2841 26.1334 16.59L25.6667 17.6867L24.08 21.91C23.2867 24.2434 22.6567 26.88 21.7467 29.33C21.3578 28.0545 20.9378 26.7711 20.4867 25.48C20.1834 24.6167 19.88 23.7767 19.53 22.9134C19.2767 22.2985 18.9884 21.6987 18.6667 21.1167C18.4577 20.7074 18.1437 20.3612 17.7567 20.1134C17.5152 20.0002 17.2422 19.9732 16.9832 20.0369C16.7242 20.1006 16.4949 20.2511 16.3334 20.4634C16.1617 20.8401 16.0213 21.2303 15.9134 21.63C15.5167 22.4234 15.1434 23.2634 14.7467 24.08C14.4945 24.5854 14.2141 25.0762 13.9067 25.55C13.7667 25.76 13.6734 25.8534 13.51 25.8767C13.3467 25.9 12.81 25.8767 12.3434 25.8767L10.6167 26.0167C9.80003 26.6934 9.68336 27.2534 10.6167 27.6034L12.25 27.58Z" fill="#302D2D"/>
<path fill-rule="evenodd" clip-rule="evenodd" d="M37.6367 12.25C36.33 12.25 35.0001 12.0633 33.6934 12.0166L27.8134 11.8766H22.7034C21.0001 11.8766 19.2734 11.8766 17.5701 12.0633C3.82672 12.9033 6.30005 10.4066 5.34339 22.1666C5.34339 23.4733 5.18005 24.78 5.18005 26.0633C5.18005 27.3466 5.18005 28.6766 5.32005 29.9833C5.53228 33.0258 5.9927 36.0458 6.69672 39.0133C6.7136 39.1213 6.75197 39.2247 6.80956 39.3176C6.86715 39.4105 6.94278 39.4908 7.03199 39.5539C7.1212 39.617 7.22216 39.6616 7.3289 39.6849C7.43563 39.7083 7.54597 39.71 7.65339 39.69C7.81815 39.7993 8.01866 39.8411 8.21339 39.8066C9.35696 39.6451 10.5138 39.5982 11.6667 39.6666C13.4167 39.6666 15.1667 39.9233 16.8701 39.9933H20.0201H24.6867C28.6534 39.8533 32.5967 39.5966 36.5634 39.4333C36.7862 39.4333 36.9998 39.3448 37.1574 39.1873C37.3149 39.0298 37.4034 38.8161 37.4034 38.5933C37.4034 38.3705 37.3149 38.1569 37.1574 37.9993C36.9998 37.8418 36.7862 37.7533 36.5634 37.7533C32.5734 37.5433 28.6301 37.2866 24.6401 37.2166H19.9734L16.7534 37.3333C15.0267 37.4733 13.2767 37.4966 11.5267 37.66C10.4405 37.7627 9.36387 37.9499 8.30672 38.22C8.12005 36.7033 8.00339 35.1866 7.95672 33.5533C7.84005 30.1 7.95672 32.34 7.95672 23.45V14.4433C11.8301 14.4433 15.7501 14.5833 19.6234 14.5833C22.3767 14.5833 25.1067 14.42 27.8134 14.3266C30.1467 14.1866 32.3401 13.9766 34.6267 13.8833H37.5201C37.63 13.8931 37.7407 13.8798 37.8452 13.8443C37.9497 13.8088 38.0456 13.7519 38.1268 13.6772C38.2081 13.6026 38.2729 13.5118 38.3171 13.4107C38.3612 13.3095 38.3838 13.2003 38.3834 13.09C38.3901 12.881 38.3164 12.6774 38.1775 12.5211C38.0386 12.3648 37.845 12.2678 37.6367 12.25Z" fill="#302D2D"/>
<path fill-rule="evenodd" clip-rule="evenodd" d="M39.34 23.87C39.34 25.2467 39.48 26.6467 39.62 28.0233C39.9233 31.1967 40.39 34.3467 40.5533 37.5667C40.5533 37.7855 40.6385 37.9957 40.7911 38.1525C40.9436 38.3094 41.1513 38.4006 41.37 38.4067C41.595 38.4068 41.8111 38.319 41.9724 38.1621C42.1336 38.0052 42.2273 37.7916 42.2333 37.5667C42.3733 35.2333 42.4433 32.9 42.3967 30.5667C42.35 28.2333 42.21 25.9 42.1633 23.6833C42.1167 21.4667 41.8367 19.25 41.6033 17.01C41.444 15.4969 41.2025 13.9936 40.88 12.5067C40.8458 12.3118 40.7357 12.1385 40.5739 12.0247C40.412 11.911 40.2116 11.8661 40.0167 11.9C39.8265 11.9343 39.6571 12.041 39.5439 12.1977C39.4308 12.3543 39.3828 12.5487 39.41 12.74C39.5071 13.826 39.5461 14.9165 39.5267 16.0067C39.5267 17.8267 39.3633 19.6233 39.3167 21.4433C39.2933 22.2833 39.3167 23.0767 39.34 23.87Z" fill="#302D2D"/>
</svg>
