<svg width="56" height="56" viewBox="0 0 56 56" fill="none" xmlns="http://www.w3.org/2000/svg">
<path fill-rule="evenodd" clip-rule="evenodd" d="M41.5799 30.3334C41.5446 29.8299 41.4345 29.3345 41.2533 28.8634C41.1112 28.4347 40.8622 28.0493 40.5299 27.7434C40.2378 27.473 39.8727 27.2945 39.4799 27.23C38.9603 27.1741 38.4362 27.1741 37.9166 27.23L34.0199 27.5101V25.7367L34.1366 23.4034C34.1613 22.8295 34.0058 22.2622 33.692 21.781C33.3782 21.2998 32.9218 20.9289 32.3866 20.72C30.5681 20.2017 28.6659 20.0432 26.7866 20.2534C25.6776 20.2382 24.5692 20.3162 23.4733 20.4867C22.8037 20.6037 22.1854 20.921 21.6999 21.3967C21.5081 21.6058 21.3788 21.8645 21.3266 22.1434C21.2901 22.6327 21.2901 23.1241 21.3266 23.6134L21.5133 27.5334H21.3966H19.4133C18.7838 27.5683 18.1528 27.5683 17.5233 27.5334C16.976 27.4293 16.4139 27.4293 15.8666 27.5334C15.4683 27.6581 15.1232 27.9128 14.8866 28.2567C14.623 28.6328 14.4476 29.0635 14.3733 29.5167C14.257 30.2888 14.2101 31.0697 14.2333 31.8501V34.4867C14.281 35.6883 14.4372 36.8832 14.6999 38.0567C14.8286 38.5787 15.1336 39.0403 15.5633 39.3634C16.1703 39.7255 16.8631 39.9188 17.5699 39.9234C18.6994 39.6904 19.8472 39.5577 20.9999 39.5267C21.1219 39.5617 21.2513 39.5617 21.3733 39.5267V40.7167C21.2441 41.5433 21.1662 42.3771 21.1399 43.2134C21.1492 43.739 21.2939 44.2533 21.5599 44.7067C21.7837 45.0244 22.0904 45.2746 22.4466 45.43C22.9356 45.6296 23.4438 45.7782 23.9633 45.8734L25.2933 46.0601H27.1133C27.8051 46.095 28.4982 46.095 29.1899 46.0601C29.9034 46.0307 30.6134 45.9449 31.3133 45.8034C31.7099 45.7577 32.1008 45.6717 32.4799 45.5467C32.7683 45.4287 33.0301 45.2542 33.2499 45.0334C33.8021 44.366 34.1576 43.558 34.2766 42.7001C34.427 41.1014 34.427 39.4921 34.2766 37.8934C34.2797 37.7953 34.2635 37.6976 34.2288 37.6058C34.1941 37.514 34.1417 37.43 34.0745 37.3585C34.0073 37.287 33.9267 37.2294 33.8373 37.1891C33.7479 37.1487 33.6513 37.1264 33.5533 37.1234C33.4563 37.1203 33.3598 37.1367 33.2693 37.1716C33.1788 37.2065 33.0963 37.2593 33.0267 37.3268C32.957 37.3943 32.9016 37.4751 32.8638 37.5644C32.826 37.6537 32.8066 37.7497 32.8066 37.8467C32.8066 38.9434 32.8066 40.39 32.4566 41.6967C32.1066 43.0034 31.7333 43.3767 30.9166 43.4701C30.0999 43.5634 29.9366 43.4701 29.4466 43.4701H27.1133H25.3399H24.2433C22.8666 43.3534 23.0533 43.12 22.9833 42.6767C22.9133 42.2334 22.9833 41.1134 22.9833 40.67C22.9833 40.2267 22.9833 39.5967 22.8666 39.0367C22.8666 37.4967 22.4933 38.01 17.6633 37.87C16.1933 37.87 16.7066 36.7734 16.7066 35.7467C16.7339 35.226 16.7339 34.7041 16.7066 34.1834V31.8501V30.1001C16.7066 29.0034 16.7066 29.4001 17.5466 29.3767C18.3866 29.3534 18.6666 29.3767 19.2266 29.1901C19.7866 29.0034 20.8366 28.9334 21.5599 28.7701C21.9229 28.7348 22.2592 28.5638 22.5015 28.2913C22.7438 28.0187 22.8742 27.6647 22.8666 27.3L23.1933 23.5434C23.1933 23.3567 23.4966 22.7967 23.3799 22.5867C23.6665 22.5498 23.9567 22.5498 24.2433 22.5867H26.8566C28.2297 22.4463 29.6135 22.4463 30.9866 22.5867C31.5466 22.5867 32.0366 22.8201 32.1066 23.4034L32.2233 25.7367C32.2233 26.3434 32.3866 26.9034 32.4333 27.4867C32.4565 27.8208 32.4565 28.156 32.4333 28.4901C32.4333 29.5867 33.2733 28.8167 37.8699 29.1434C39.2233 29.2834 38.8499 28.6767 39.1999 30.5901L39.3399 35.8634V37.73C39.0724 37.8008 38.7991 37.8477 38.5233 37.87H35.8166C35.7197 37.8637 35.6225 37.877 35.5309 37.9091C35.4392 37.9411 35.3549 37.9913 35.283 38.0566C35.2112 38.122 35.1532 38.2011 35.1126 38.2893C35.072 38.3775 35.0495 38.473 35.0466 38.57C35.0402 38.7642 35.1097 38.9533 35.2404 39.0971C35.3711 39.2409 35.5527 39.328 35.7466 39.34C36.8888 39.5282 38.0427 39.6374 39.1999 39.6667C39.7852 39.6257 40.3601 39.4918 40.9033 39.2701C41.6966 38.92 41.4633 38.22 41.6266 35.8167V32.62C41.6582 31.8576 41.6426 31.0939 41.5799 30.3334Z" fill="#302D2D"/>
<path fill-rule="evenodd" clip-rule="evenodd" d="M55.86 16.4734C55.7986 15.7892 55.5869 15.127 55.24 14.5341C54.8931 13.9412 54.4196 13.4322 53.8533 13.0434C52.6485 12.3161 51.3057 11.8473 49.91 11.6667H36.26C36.26 11.3867 36.26 11.1067 36.3767 10.8034V8.47005V5.83338C36.3511 5.13137 36.1149 4.45328 35.6988 3.88733C35.2826 3.32138 34.7058 2.89374 34.0433 2.66005C33.163 2.28198 32.2232 2.06087 31.2667 2.00671C29.82 2.00671 28.3033 2.12338 27.1133 2.14671C25.8508 2.1352 24.5886 2.19753 23.3333 2.33338C22.3346 2.44611 21.3801 2.80709 20.5567 3.38338C20.2893 3.5856 20.0867 3.86125 19.9733 4.17671C19.8864 4.70127 19.8396 5.2317 19.8333 5.76338C19.7246 6.75498 19.6856 7.75299 19.7167 8.75005C19.7141 9.72462 19.7687 10.6985 19.88 11.6667C19.8833 11.7852 19.9242 11.8996 19.9967 11.9934C19.9967 11.9934 20.4633 11.9934 10.9433 12.5767C8.35333 12.74 5.90333 11.83 2.8 14.1634C1.37667 15.2367 0.373333 17.5934 0 26.7634C0 31.71 0.116667 36.7034 0.373333 41.5334C0.364339 43.8462 0.646558 46.151 1.21333 48.3934C1.7299 50.0933 2.85025 51.5456 4.36333 52.4767C5.51084 53.1109 6.77104 53.5151 8.07333 53.6667C9.83256 53.853 11.601 53.9387 13.37 53.9234H20.65C24.29 53.9234 27.93 53.7834 31.5467 53.69C35.98 53.55 40.7633 53.8767 45.3367 53.5734C47.3524 53.5019 49.3584 53.2599 51.3333 52.85C51.5245 52.8055 51.6904 52.6875 51.7952 52.5216C51.9 52.3556 51.9353 52.1551 51.8933 51.9634C51.877 51.8681 51.8411 51.7772 51.7879 51.6965C51.7348 51.6157 51.6654 51.5469 51.5843 51.4943C51.5032 51.4417 51.4121 51.4064 51.3167 51.3908C51.2213 51.3751 51.1237 51.3794 51.03 51.4034C49.1364 51.7614 47.2167 51.9643 45.29 52.01C40.6233 52.15 35.9567 51.6834 31.5467 51.6834L13.4633 51.4734C11.782 51.5288 10.0989 51.4821 8.42333 51.3334C7.44415 51.2236 6.49433 50.9307 5.62333 50.47C4.60709 49.8434 3.85897 48.8625 3.52333 47.7167C2.94732 45.6891 2.64135 43.5944 2.61333 41.4867C2.17 36.82 1.72667 31.8034 1.70333 26.9034C1.70333 26.04 1.42333 16.1467 4.48 15.0034C6.61549 14.4764 8.8165 14.2641 11.0133 14.3734L14 14.1634C17.57 14 21.1867 14 24.8033 14H41.1367C43.19 14 45.92 13.72 48.4633 14C49.9161 14.0449 51.3383 14.4284 52.6167 15.12C52.9792 15.4569 53.2617 15.8706 53.4434 16.3309C53.6251 16.7912 53.7014 17.2864 53.6667 17.78C53.6675 19.7778 53.535 21.7733 53.27 23.7534C52.92 28.9334 53.13 34.1134 53.0133 39.2934C53.0133 40.5767 53.0133 41.86 52.8267 43.12V48.6034C52.7934 49.3361 52.6839 50.0633 52.5 50.7734C52.4679 50.8652 52.4553 50.9626 52.4629 51.0596C52.4706 51.1565 52.4983 51.2508 52.5444 51.3364C52.5905 51.422 52.6539 51.4971 52.7307 51.5568C52.8074 51.6166 52.8957 51.6597 52.99 51.6834C53.0819 51.712 53.1786 51.722 53.2744 51.7128C53.3702 51.7035 53.4632 51.6753 53.548 51.6296C53.6327 51.584 53.7075 51.5219 53.768 51.447C53.8284 51.3721 53.8733 51.2859 53.9 51.1934C54.1427 50.3957 54.2991 49.5744 54.3667 48.7434C54.53 46.9 54.3667 44.94 54.6 43.26C54.74 41.9767 54.81 40.67 54.9033 39.3634C55.16 34.2067 55.09 29.05 55.5567 23.9167C55.9755 21.4588 56.0775 18.9573 55.86 16.4734ZM34.7667 11.6667H27.4867C25.06 11.6667 23.3333 11.8534 21 11.97C21.0447 11.8496 21.0447 11.7171 21 11.5967C20.9531 10.664 20.9531 9.72946 21 8.79671C21.0538 7.89242 21.1865 6.99455 21.3967 6.11338C21.7 4.83005 21.8167 4.83005 23.3333 4.66671C24.85 4.50338 25.8767 4.66671 26.9267 4.66671C28.7926 4.44352 30.6753 4.39665 32.55 4.52671C33.46 4.66671 34.2533 4.97005 34.37 5.97338L34.4867 8.30671V10.64V11.55L34.7667 11.6667Z" fill="#302D2D"/>
<path fill-rule="evenodd" clip-rule="evenodd" d="M40.6 10.6634C40.7633 9.56673 40.6 9.6134 41.65 9.24006C42.1058 9.10341 42.5753 9.01734 43.05 8.9834C43.9249 8.86463 44.8118 8.86463 45.6867 8.9834C46.2233 8.9834 46.6667 8.44673 47.1567 9.87006C47.2717 10.2218 47.3653 10.5803 47.4367 10.9434C47.4367 11.5501 48.93 11.4567 48.8833 10.5934C48.883 10.1001 48.8361 9.6079 48.7433 9.1234C48.6414 8.65639 48.4682 8.20782 48.23 7.7934C48.0213 7.4968 47.7288 7.26929 47.39 7.14006C46.9935 6.99737 46.5882 6.88046 46.1767 6.79007C44.8553 6.42437 43.4712 6.34482 42.1167 6.55673C41.0841 6.7255 40.1343 7.22499 39.41 7.98007C39.0495 8.49143 38.8615 9.10449 38.8733 9.73006C38.8508 10.1186 38.8508 10.5082 38.8733 10.8967C38.8733 11.5501 40.39 11.6201 40.5067 10.8967C40.5479 10.8234 40.5793 10.7449 40.6 10.6634Z" fill="#302D2D"/>
<path fill-rule="evenodd" clip-rule="evenodd" d="M7.00003 11.3167C7.01339 10.7975 7.116 10.2845 7.30337 9.80006C7.30337 9.80006 7.51337 9.66006 7.6767 9.59006C8.12919 9.43991 8.60038 9.35352 9.0767 9.3334L10.8734 9.14673L13.44 8.72673C13.7774 8.94423 14.0257 9.27532 14.14 9.66006C14.28 10.1501 14.3734 10.6634 14.4667 11.1534C14.4667 12.1567 16.2167 11.9934 16.1234 11.1534C16.1335 10.3681 16.0473 9.58443 15.8667 8.82006C15.6939 8.0993 15.2828 7.45799 14.7 7.00006C14.2145 6.68459 13.6456 6.52202 13.0667 6.5334C12.2375 6.54827 11.4107 6.62627 10.5934 6.76673L8.61003 7.00006C7.59133 7.16589 6.66051 7.67661 5.97337 8.44673C5.4768 9.31602 5.31891 10.3381 5.53004 11.3167V11.9701C5.53004 12.5767 6.95337 12.5301 6.95337 11.9701L7.00003 11.3167Z" fill="#302D2D"/>
</svg>
