<svg width="56" height="56" viewBox="0 0 56 56" fill="none" xmlns="http://www.w3.org/2000/svg">
<g clip-path="url(#clip0_3603_395)">
<path fill-rule="evenodd" clip-rule="evenodd" d="M11.0134 12.7867C11.1283 13.0767 11.3079 13.3367 11.5383 13.5469C11.7688 13.7571 12.0441 13.9121 12.3434 14C13.5581 14.1765 14.792 14.1765 16.0067 14C15.9504 14.9559 15.9504 15.9142 16.0067 16.87C16.1037 17.548 16.4143 18.1773 16.8934 18.6667C17.0985 18.8642 17.359 18.9944 17.64 19.04C18.1444 19.0895 18.6524 19.0895 19.1567 19.04C20.2534 19.04 21.3034 19.18 22.3534 19.04C23.1616 18.9984 23.954 18.8003 24.6867 18.4567C24.8545 18.3916 25.0027 18.2844 25.1171 18.1454C25.2315 18.0065 25.3083 17.8405 25.3401 17.6634C25.3081 17.2933 25.2457 16.9265 25.1534 16.5667V14.9334V13.58C25.8301 13.58 26.7867 13.93 27.6034 14C28.1584 14.0646 28.7199 13.9588 29.2134 13.6967C29.4325 13.5472 29.59 13.3234 29.6567 13.0667C29.8059 12.6104 29.9152 12.1419 29.9834 11.6667C29.9834 10.8967 30.2167 9.68338 30.2401 8.56338C30.2562 7.7714 30.1379 6.98242 29.89 6.23004C29.7333 5.80925 29.4367 5.45505 29.05 5.22671C28.4586 5.02171 27.8291 4.95 27.2067 5.01671H25.5267C25.5649 4.18775 25.5022 3.35722 25.3401 2.54338C25.21 1.905 24.9477 1.30093 24.5701 0.770043C24.4251 0.566267 24.2412 0.39328 24.0289 0.261105C23.8166 0.12893 23.5802 0.0401958 23.3334 4.32283e-05C22.5569 -0.0638165 21.7765 -0.0638165 21.0001 4.3232e-05H19.6001L18.2701 0.39671C17.868 0.452829 17.4916 0.626857 17.1884 0.896807C16.8853 1.16676 16.6689 1.52051 16.5667 1.91338C16.4691 2.68809 16.4691 3.47199 16.5667 4.24671V5.69338H14.8401H13.4401C12.677 5.61602 11.9141 5.84236 11.3167 6.32338C10.9017 6.93485 10.6895 7.66133 10.7101 8.40004L10.5934 9.96338V11.55C10.696 11.974 10.8366 12.3879 11.0134 12.7867ZM13.6734 7.42004H14.9801H16.9634H17.22C17.3277 7.44341 17.4391 7.44341 17.5467 7.42004C17.6322 7.4089 17.7145 7.38035 17.7884 7.33614C17.8624 7.29193 17.9266 7.23301 17.9769 7.16302C18.0272 7.09303 18.0626 7.01346 18.0809 6.92924C18.0992 6.84502 18.1001 6.75794 18.0834 6.67338V4.38671V2.63671C18.0834 2.12338 18.3867 2.33338 18.6667 2.33338H19.6701H21.0001C23.6134 2.59004 22.7967 1.63338 23.0534 3.36004C23.0858 3.88065 23.0858 4.40277 23.0534 4.92338C23.0534 5.22671 22.9134 5.62338 23.0534 5.95004C23.0181 6.15072 23.0181 6.35603 23.0534 6.55671C23.1171 6.76971 23.2341 6.96294 23.3934 7.11809C23.5526 7.27325 23.7488 7.38521 23.9634 7.44338C24.3715 7.52134 24.7849 7.56814 25.2001 7.58338H27.23C27.4533 7.55374 27.6725 7.49894 27.8834 7.42004C28.0264 7.86632 28.1127 8.32886 28.14 8.79671V11.6667C28.14 12.39 24.9434 11.6667 24.8734 11.6667C24.7875 11.657 24.7005 11.6644 24.6176 11.6886C24.5346 11.7127 24.4572 11.7531 24.3899 11.8074C24.3226 11.8616 24.2668 11.9287 24.2256 12.0047C24.1845 12.0807 24.1588 12.1641 24.1501 12.25C24.0334 12.95 23.8467 13.9067 23.7301 14.84C23.6298 15.4422 23.5675 16.0501 23.5434 16.66C23.5434 16.66 23.5434 16.8467 23.5434 16.9867C23.1636 17.0318 22.7798 17.0318 22.4001 16.9867C21.3734 16.9867 20.3934 16.7534 19.3667 16.66C19.1302 16.6894 18.8963 16.7362 18.6667 16.8C18.6039 16.4921 18.6039 16.1746 18.6667 15.8667V13.8134V12.9267C18.6429 12.6893 18.5715 12.4592 18.4567 12.25C18.328 12.0837 18.1662 11.946 17.9814 11.8455C17.7966 11.7451 17.593 11.6842 17.3834 11.6667C16.9493 11.6168 16.5108 11.6168 16.0767 11.6667C15.61 11.6667 14.9101 11.83 14.2101 11.9467C13.8609 12.0551 13.501 12.1255 13.1367 12.1567C13.0487 11.9569 12.9936 11.7441 12.9734 11.5267C12.9503 11.0681 12.9503 10.6086 12.9734 10.15V8.75004C12.9604 8.52467 12.9604 8.29875 12.9734 8.07338C12.8567 7.39671 12.5767 7.53671 13.6734 7.42004Z" fill="#302D2D"/>
<path fill-rule="evenodd" clip-rule="evenodd" d="M55.23 34.7434C55.3232 32.9758 55.2607 31.2034 55.0433 29.4467C54.8829 28.472 54.4172 27.5733 53.7133 26.8801C53.2678 26.5171 52.7228 26.2974 52.15 26.2501C51.2803 26.1796 50.4064 26.1796 49.5367 26.2501L40.2033 26.7167H39.9933V22.0501V16.4734V12.6934C39.9767 11.9107 39.8987 11.1305 39.76 10.3601C39.679 9.92707 39.5124 9.51458 39.27 9.14673C39.0877 8.89811 38.8474 8.69785 38.57 8.5634C38.1757 8.39531 37.7592 8.28527 37.3333 8.23673L33.9967 7.88673C33.9124 7.86598 33.8248 7.86224 33.739 7.87573C33.6533 7.88921 33.5711 7.91966 33.4972 7.96528C33.4233 8.0109 33.3593 8.07078 33.3089 8.14143C33.2584 8.21207 33.2225 8.29207 33.2033 8.37673C33.1677 8.54658 33.1987 8.72362 33.2899 8.87127C33.3811 9.01892 33.5255 9.12589 33.6933 9.17007L37.1233 9.73007L38.01 9.9634C38.1604 10.2433 38.2405 10.5556 38.2433 10.8734C38.2901 11.5103 38.2901 12.1498 38.2433 12.7867L37.7067 22.0034C37.7067 24.7567 37.5433 27.5334 37.5667 30.3101C37.5667 34.4401 37.73 38.5701 37.7533 42.7001C37.7533 44.8467 37.5667 47.1101 37.52 49.3267V53.3634H33.32H29.5867L29.7267 47.6467C29.7465 46.9638 29.6759 46.2812 29.5167 45.6167C29.4101 45.2346 29.17 44.9035 28.84 44.6834C28.5786 44.5369 28.2948 44.4344 28 44.3801C27.6033 44.3801 27.1367 44.3801 26.81 44.2401C25.9912 44.1182 25.1646 44.0558 24.3367 44.0534C23.1467 44.0534 22.0033 44.0534 20.79 44.1934H15.6567C15.1416 44.1476 14.6227 44.2136 14.1354 44.3867C13.6482 44.5599 13.204 44.8362 12.8333 45.1967C12.1794 46.3498 11.9484 47.6949 12.18 49.0001V50.9834L12.4133 53.7834L10.08 53.9001L3.94334 54.1567C4.04064 54.0797 4.11719 53.9796 4.16608 53.8655C4.21496 53.7515 4.23465 53.627 4.22334 53.5034C3.73334 46.6667 4.17668 39.6667 3.96668 32.6667C3.96668 30.9167 3.78001 29.1434 3.61668 27.3934C3.36001 25.0601 3.08001 22.7267 2.89334 20.3934C2.77668 18.8767 2.68334 17.3367 2.70668 15.7267C2.66255 14.9496 2.66255 14.1706 2.70668 13.3934C2.70915 12.9935 2.83102 12.6035 3.05668 12.2734C3.33542 11.9555 3.71385 11.7416 4.13001 11.6667C4.99334 11.4567 5.99668 11.4567 6.62668 11.3167C6.71215 11.3056 6.79442 11.277 6.86841 11.2328C6.9424 11.1886 7.00653 11.1297 7.05683 11.0597C7.10713 10.9897 7.14254 10.9102 7.16086 10.8259C7.17918 10.7417 7.18003 10.6546 7.16334 10.5701C7.15221 10.4846 7.12365 10.4023 7.07944 10.3283C7.03523 10.2544 6.97631 10.1902 6.90632 10.1399C6.83633 10.0896 6.75676 10.0542 6.67254 10.0359C6.58832 10.0176 6.50124 10.0167 6.41668 10.0334C5.40029 10.0561 4.38672 10.1497 3.38334 10.3134C2.8213 10.4333 2.30403 10.7081 1.89001 11.1067C1.53191 11.5388 1.28373 12.0512 1.16668 12.6001C0.951179 13.5968 0.841682 14.6136 0.840012 15.6334C0.700693 17.2394 0.653949 18.852 0.700012 20.4634C0.700012 22.7967 0.956678 25.1301 1.14334 27.6034C1.33001 30.0767 1.44668 32.4101 1.56334 34.8367C1.72668 38.5001 1.86668 42.1401 2.07668 45.8034C2.26334 48.4401 2.47334 51.0534 2.84668 53.6667C2.86136 53.8312 2.93186 53.9857 3.04646 54.1045C3.16106 54.2234 3.31287 54.2994 3.47668 54.3201C3.34167 54.4397 3.25808 54.6069 3.24334 54.7867C3.23687 54.9624 3.29901 55.1337 3.41659 55.2643C3.53417 55.395 3.69798 55.4747 3.87334 55.4867L10.1967 55.7901L17.99 56.0001L24.7567 55.6967L33.2033 55.2067L38.1967 54.8334C38.294 54.8248 38.3887 54.7966 38.4748 54.7504C38.561 54.7042 38.6369 54.6411 38.6979 54.5647C38.759 54.4884 38.8039 54.4005 38.8301 54.3063C38.8562 54.2121 38.863 54.1136 38.85 54.0167C40.6076 54.4385 42.4092 54.65 44.2167 54.6467C45.4533 54.6467 46.7133 54.4134 47.9733 54.2967C53.27 53.8767 53.83 53.9467 53.9933 53.2001C54.198 52.0611 54.2684 50.9021 54.2033 49.7467C54.344 48.051 54.6013 46.3671 54.9733 44.7067C55.1507 43.3754 55.2598 42.0359 55.3 40.6934C55.3467 38.6867 55.2767 36.7267 55.23 34.7434ZM17.8967 53.4101L14 53.6667V50.9601V49.0001C13.9586 48.2103 14.0613 47.4196 14.3033 46.6667C14.4667 46.3167 14.8867 46.3634 15.5867 46.4101L17.5467 46.5501H19.4833C19.2105 47.4947 19.0308 48.4638 18.9467 49.4434C18.9344 50.1306 18.9813 50.8176 19.0867 51.4967C19.0867 52.1267 19.2967 52.7334 19.4367 53.3401L17.8967 53.4101ZM24.6633 53.1534L21.28 53.2701C21.28 52.6867 21.42 52.1034 21.4433 51.4967C21.4667 50.8901 21.4433 50.6567 21.4433 50.2367V49.0001C21.3267 48.1601 21.14 47.3901 21.0467 46.6667C22.0967 46.6667 23.1933 46.5034 24.2667 46.4567H26.46H27.2767C27.3499 46.8902 27.4753 47.3133 27.65 47.7167L28 53.2934L24.6633 53.1534ZM47.11 51.8234C45.8733 51.8234 44.66 52.0101 43.4467 52.1034C41.9517 52.2774 40.4484 52.3708 38.9433 52.3834C38.9546 52.2748 38.9546 52.1653 38.9433 52.0567C38.8853 51.1399 38.8853 50.2203 38.9433 49.3034C39.1067 46.9701 39.4567 44.8001 39.55 42.6301C39.55 39.8767 39.76 37.1234 39.7833 34.3467V27.9067H39.9467L49.28 28.2101H50.96C51.2762 28.2018 51.5894 28.2741 51.87 28.4201C52.2689 28.9855 52.4736 29.6651 52.4533 30.3567C52.5933 31.8734 52.4533 33.6001 52.4533 34.6501C52.4533 36.5867 52.6633 38.5234 52.7333 40.4834V44.2867C52.6167 46.2701 52.3133 48.2534 52.2433 50.2367V51.7067C50.7033 51.8467 49 51.8234 47.1333 51.9167L47.11 51.8234Z" fill="#302D2D"/>
<path fill-rule="evenodd" clip-rule="evenodd" d="M49 33.3434C48.44 33.2034 47.9266 33.0401 47.3433 32.9234H46.5966C46.349 32.8877 46.0976 32.8877 45.85 32.9234C45.2465 33.0916 44.6665 33.3346 44.1233 33.6467C43.9516 33.6808 43.7998 33.78 43.6998 33.9236C43.5997 34.0672 43.5592 34.2439 43.5866 34.4167C43.5952 34.505 43.6216 34.5905 43.6642 34.6682C43.7069 34.7459 43.7649 34.8142 43.8347 34.8687C43.9046 34.9233 43.9848 34.9631 44.0705 34.9857C44.1562 35.0083 44.2456 35.0132 44.3333 35.0001C44.9166 35.0001 45.3833 35.2801 45.9666 35.3734H46.6666H47.3666C47.9733 35.2567 48.4866 35.0701 49.0466 34.9067C49.1447 34.9037 49.2412 34.8814 49.3307 34.8411C49.4201 34.8007 49.5007 34.7432 49.5679 34.6717C49.6351 34.6001 49.6875 34.5161 49.7222 34.4243C49.7568 34.3325 49.7731 34.2348 49.77 34.1367C49.7804 34.032 49.7679 33.9262 49.7332 33.8268C49.6985 33.7274 49.6426 33.6368 49.5693 33.5612C49.4959 33.4857 49.407 33.427 49.3087 33.3894C49.2104 33.3518 49.105 33.3361 49 33.3434Z" fill="#302D2D"/>
<path fill-rule="evenodd" clip-rule="evenodd" d="M48.0901 41.5101C47.5767 41.3701 47.1101 41.2067 46.5734 41.0901C46.364 41.0672 46.1528 41.0672 45.9434 41.0901C45.7263 41.066 45.5072 41.066 45.2901 41.0901C44.7781 41.2459 44.2788 41.4409 43.7967 41.6734C43.7088 41.6763 43.6224 41.697 43.5427 41.7341C43.463 41.7712 43.3916 41.824 43.3328 41.8893C43.2739 41.9547 43.2289 42.0313 43.2004 42.1144C43.1718 42.1976 43.1604 42.2857 43.1667 42.3734C43.1786 42.5447 43.2551 42.705 43.3807 42.822C43.5063 42.939 43.6717 43.0038 43.8434 43.0034C44.3801 43.1667 44.8001 43.3767 45.3367 43.4934C45.5461 43.5165 45.7574 43.5165 45.9667 43.4934C46.1761 43.516 46.3873 43.516 46.5967 43.4934C47.1044 43.3811 47.6034 43.233 48.0901 43.0501C48.2881 43.0501 48.478 42.9714 48.618 42.8314C48.7581 42.6914 48.8367 42.5014 48.8367 42.3034C48.8431 42.2015 48.8285 42.0994 48.7939 42.0033C48.7592 41.9073 48.7052 41.8194 48.6352 41.745C48.5653 41.6707 48.4808 41.6114 48.387 41.571C48.2932 41.5306 48.1922 41.5099 48.0901 41.5101Z" fill="#302D2D"/>
<path fill-rule="evenodd" clip-rule="evenodd" d="M24.7333 24.5934C23.0066 24.7334 21.28 24.7334 19.5533 24.8967C16.9166 25.1301 14.35 25.5267 11.7366 25.8767C11.6507 25.8827 11.5669 25.9055 11.4899 25.9439C11.4128 25.9823 11.3442 26.0356 11.2878 26.1006C11.2314 26.1657 11.1884 26.2412 11.1614 26.3229C11.1343 26.4047 11.1236 26.4909 11.13 26.5767C11.1326 26.6637 11.1533 26.7492 11.1907 26.8278C11.228 26.9064 11.2813 26.9764 11.3471 27.0334C11.4128 27.0904 11.4897 27.1332 11.5728 27.159C11.6559 27.1848 11.7435 27.1931 11.83 27.1834C14.4433 27.1834 17.0566 27.4401 19.6933 27.3701C21.4433 27.3701 23.1933 27.0901 24.9433 26.8801C26.6933 26.6701 27.86 26.2501 29.33 26.0634C29.9249 25.9783 30.5256 25.9393 31.1266 25.9467C31.2248 25.9564 31.3238 25.9465 31.4181 25.9176C31.5124 25.8888 31.6 25.8415 31.676 25.7786C31.7519 25.7157 31.8146 25.6384 31.8605 25.5511C31.9064 25.4638 31.9345 25.3683 31.9433 25.2701C31.9566 25.0732 31.8939 24.8786 31.768 24.7267C31.642 24.5747 31.4626 24.4769 31.2666 24.4534C30.5856 24.3687 29.8996 24.3297 29.2133 24.3367C27.72 24.3367 26.2033 24.5234 24.7333 24.5934Z" fill="#302D2D"/>
<path fill-rule="evenodd" clip-rule="evenodd" d="M10.15 36.6801C11.3291 36.956 12.5329 37.1124 13.7433 37.1467C15.5097 37.202 17.2778 37.163 19.04 37.0301C20.3933 36.8667 21.77 36.7501 23.17 36.5401C24.57 36.3301 25.9 36.1201 27.2767 35.9567C28.6533 35.7934 29.61 35.6767 30.7767 35.6067C30.9747 35.6067 31.1646 35.5281 31.3047 35.388C31.4447 35.248 31.5233 35.0581 31.5233 34.8601C31.5233 34.662 31.4447 34.4721 31.3047 34.3321C31.1646 34.1921 30.9747 34.1134 30.7767 34.1134H24.7333C23.7067 34.1134 22.7267 34.1134 21.7233 34.2767C20.72 34.4401 19.74 34.4867 18.76 34.6034C17.1267 34.8834 15.4233 35.2101 13.6967 35.3734C12.5947 35.4781 11.4853 35.4781 10.3833 35.3734C10.2974 35.3566 10.209 35.3573 10.1233 35.3754C10.0377 35.3935 9.95651 35.4286 9.88468 35.4787C9.81286 35.5287 9.75182 35.5927 9.70521 35.6668C9.6586 35.7409 9.62736 35.8236 9.61335 35.9101C9.59154 36.0821 9.63436 36.2561 9.73351 36.3983C9.83266 36.5406 9.98108 36.641 10.15 36.6801Z" fill="#302D2D"/>
</g>
<defs>
<clipPath id="clip0_3603_395">
<rect width="56" height="56" fill="white"/>
</clipPath>
</defs>
</svg>
