<svg width="56" height="56" viewBox="0 0 56 56" fill="none" xmlns="http://www.w3.org/2000/svg">
<g clip-path="url(#clip0_3603_368)">
<path fill-rule="evenodd" clip-rule="evenodd" d="M55.37 15.4C55.4584 12.9438 55.3335 10.4846 54.9967 8.05003C54.694 6.23573 53.8288 4.56244 52.5233 3.26669C51.1998 2.11482 49.5857 1.3481 47.8567 1.05003C45.4311 0.700732 42.9778 0.583534 40.53 0.700026C34.4167 0.700026 28 0.350026 21.5133 0.490026C18.7762 0.51792 16.0425 0.689266 13.3233 1.00336L6.58 1.98336C5.79285 2.03977 5.01212 2.16469 4.24667 2.35669C3.85921 2.46876 3.49546 2.65063 3.17333 2.89336C2.84776 3.16541 2.57829 3.49827 2.38 3.87336C2.15269 4.32875 1.95017 4.7961 1.77333 5.27336C1.73786 5.37588 1.72444 5.48474 1.73397 5.59281C1.7435 5.70088 1.77576 5.80571 1.82863 5.90044C1.88151 5.99517 1.9538 6.07766 2.04078 6.1425C2.12775 6.20734 2.22745 6.25307 2.33333 6.27669C2.42371 6.31512 2.52078 6.33534 2.61898 6.33619C2.71719 6.33705 2.81459 6.31852 2.90563 6.28167C2.99666 6.24483 3.07953 6.19038 3.14949 6.12146C3.21945 6.05254 3.27513 5.9705 3.31333 5.88003C3.5 5.48336 3.64 5.01669 3.87333 4.59669C3.97095 4.40144 4.10568 4.22707 4.27 4.08336C4.52611 3.92091 4.81143 3.80996 5.11 3.75669C5.69333 3.64003 6.34667 3.61669 6.86 3.54669L13.58 2.63669C16.1233 2.33336 18.83 2.33336 21.56 2.33336C27.8833 2.33336 34.4167 2.73003 40.5067 2.80003C42.7937 2.72315 45.0829 2.86378 47.3433 3.22003C48.7128 3.44367 49.9909 4.05039 51.03 4.97003C51.9924 5.95228 52.607 7.22245 52.78 8.58669C53.0847 10.9068 53.1707 13.2505 53.0367 15.5867C53.0367 20.8367 53.48 26.18 53.5033 31.5C53.5702 34.9663 53.3438 38.4319 52.8267 41.86C52.5351 44.0478 51.9626 46.1888 51.1233 48.23C50.6211 49.4717 49.8195 50.5699 48.79 51.4267C48.1405 51.8779 47.3996 52.1806 46.62 52.3134C45.2842 52.5951 43.9249 52.7513 42.56 52.78L26.7867 52.9667C23.4733 53.1534 20.2767 53.48 17.08 53.41C14.9799 53.3833 12.8898 53.1171 10.85 52.6167C9.67375 52.2827 8.52663 51.8535 7.42 51.3334C6.74468 51.0567 6.11528 50.679 5.55333 50.2134C4.45067 49.1864 3.67896 47.8541 3.33667 46.3867C2.82138 43.9648 2.48601 41.5081 2.33333 39.0367C2.1 36.26 1.91333 33.4834 1.77333 30.66C1.58667 26.4367 1.54 22.19 1.49333 18.0134V13.7434C1.61 11.41 1.77333 9.19336 1.89 7.28003C1.90698 7.121 1.86708 6.96109 1.77738 6.82868C1.68768 6.69627 1.55398 6.59991 1.4 6.55669C1.31229 6.55036 1.22421 6.5618 1.14103 6.59033C1.05785 6.61886 0.981281 6.66389 0.915918 6.72271C0.850555 6.78154 0.797741 6.85295 0.760639 6.93268C0.723538 7.01241 0.702913 7.0988 0.7 7.18669C0.536667 9.12336 0.35 11.41 0.21 13.65C0.116667 15.19 0 16.6834 0 18.0134V30.73C0 33.5767 0.21 36.4234 0.49 39.2234C0.57121 41.809 0.859916 44.3839 1.35333 46.9234C1.78038 48.7954 2.77446 50.4903 4.2 51.7767C4.89761 52.396 5.68413 52.9073 6.53333 53.2934C7.74467 53.7995 8.9927 54.2129 10.2667 54.53C12.4593 55.1248 14.7155 55.4538 16.9867 55.51C20.2533 55.65 23.4967 55.3467 26.88 55.2067H42.6533C44.1747 55.1742 45.6899 55.0023 47.18 54.6934C48.3045 54.4631 49.3691 54.0023 50.3067 53.34C51.7108 52.1868 52.7954 50.6924 53.4567 49C54.3752 46.756 55.0025 44.4035 55.3233 42C55.8469 38.4629 56.0732 34.8882 56 31.3134C56 25.9934 55.4633 20.65 55.37 15.4Z" fill="#302D2D"/>
<path fill-rule="evenodd" clip-rule="evenodd" d="M15.1667 20.6033C14.5615 20.5449 13.952 20.5449 13.3467 20.6033C12.9341 20.671 12.5473 20.8483 12.2267 21.1167C11.8406 21.4647 11.5512 21.9069 11.3867 22.4C11.1992 22.9739 11.0893 23.5703 11.0601 24.1734C11.0249 24.8651 11.0249 25.5582 11.0601 26.25C11.0601 27.7434 11.3634 29.2367 11.3867 30.73C11.3867 30.87 11.3867 32.8767 11.5267 33.6467C11.5486 33.9141 11.6456 34.17 11.8066 34.3847C11.9677 34.5993 12.1861 34.7641 12.4367 34.86C13.2437 35.0143 14.0674 35.0614 14.8867 35C16.4967 35 18.2701 34.65 19.7167 34.4867L19.5767 38.8267C19.5307 39.5337 19.5307 40.243 19.5767 40.95C19.6259 41.4131 19.7948 41.8553 20.0667 42.2334C20.6744 43.0127 21.5455 43.5437 22.5167 43.7267C23.6986 43.9234 24.9048 43.9234 26.0867 43.7267C27.0667 43.5867 28.0701 43.5167 29.0501 43.3533C29.7535 43.2212 30.4473 43.0419 31.1267 42.8167C31.6288 42.6922 32.1204 42.5284 32.5967 42.3267C32.8515 42.1683 33.0733 41.9624 33.2501 41.72C33.5322 41.2151 33.7144 40.6605 33.7867 40.0867C33.8567 39.3806 33.8567 38.6694 33.7867 37.9634V35.5133V34.2767C33.9062 34.3708 34.0547 34.4203 34.2067 34.4167C36.0068 34.7665 37.8334 34.9616 39.6667 35C40.6712 34.9384 41.6288 34.5537 42.3967 33.9033C42.632 33.6791 42.7876 33.3841 42.8401 33.0633C42.8682 32.6594 42.8682 32.254 42.8401 31.85L43.0967 28L43.2134 25.0134C43.2432 24.1483 43.2042 23.2822 43.0967 22.4234C43.0018 21.7358 42.7633 21.076 42.3967 20.4867C42.1121 20.1455 41.755 19.8721 41.3513 19.6864C40.9477 19.5007 40.5077 19.4074 40.0634 19.4134C38.679 19.406 37.2968 19.5232 35.9334 19.7634H34.5801V17.2434V14.2334C34.5902 13.3904 34.5356 12.5479 34.4167 11.7134C34.3661 11.4341 34.2483 11.1714 34.0735 10.9478C33.8987 10.7243 33.6721 10.5465 33.4134 10.43C32.6558 10.2048 31.8704 10.0869 31.0801 10.08C29.9601 10.08 28.7467 10.08 27.9301 10.22L24.8501 10.43L22.7267 10.57C20.6034 10.85 19.7401 11.4567 19.3434 12.3434C19.0337 13.4593 18.9621 14.6279 19.1334 15.7734V17.29V20.44C18.3867 20.44 17.6401 20.5567 16.8001 20.58C16.2563 20.6153 15.7112 20.6231 15.1667 20.6033ZM21.0001 15.7967C20.9585 15.0086 21.0532 14.2192 21.2801 13.4634C21.2801 13.3234 21.5367 13.4634 21.7467 13.3C22.1284 13.2058 22.5202 13.1588 22.9134 13.16H24.9201L28.0001 12.88C28.9801 12.88 30.3334 12.6 31.5701 12.6C31.9191 12.5628 32.271 12.5628 32.6201 12.6C32.6624 13.2059 32.6624 13.8141 32.6201 14.42C32.7367 15.6334 32.8067 16.4967 32.8767 17.3367C32.9467 18.1767 32.8767 19.04 32.8767 20.2534C32.8767 20.8834 33.1334 21.21 35.8167 21.2334H38.6634C40.2734 21.2334 40.4834 21.1167 40.6 22.6567C40.6628 23.4332 40.6628 24.2135 40.6 24.99L40.5534 28V31.7334C40.5534 31.85 40.3901 32.3867 40.5534 32.5967C39.9991 32.9202 39.3745 33.1043 38.7334 33.1334C37.1467 33.2967 35.3967 33.1334 34.0667 33.1334C31.85 33.1334 32.0834 33.9967 32.0834 34.02V35.7233L31.9434 38.0567C31.9394 38.6602 31.8769 39.2619 31.7567 39.8533C31.5234 41.0667 30.9867 40.5767 30.4501 40.7167C29.8656 40.8536 29.2734 40.9549 28.6767 41.02L25.7834 41.3234C25.0079 41.4083 24.2255 41.4083 23.4501 41.3234C22.8699 41.3405 22.3042 41.1409 21.8634 40.7633C21.7598 40.6189 21.6955 40.4501 21.6767 40.2734C21.6767 39.7134 21.6767 39.0833 21.5134 38.6167C21.3967 37.73 21.3267 37.0534 21.2567 36.4C21.2567 35.3267 21.2567 34.3934 21.0701 32.97C20.8834 31.5467 20.2301 33.11 15.5634 32.97C14.8409 32.9592 14.1214 32.8732 13.4167 32.7134C13.4874 31.9878 13.6201 31.2696 13.8134 30.5667L13.4867 24.2667C13.4524 23.9253 13.4524 23.5814 13.4867 23.24C13.4884 23.0455 13.554 22.8569 13.6734 22.7034C13.7874 22.6157 13.9263 22.5667 14.0701 22.5634H15.1667C20.3467 21.7234 20.6267 22.75 20.6034 21.6534L21.0001 17.3367V15.7967Z" fill="#302D2D"/>
</g>
<defs>
<clipPath id="clip0_3603_368">
<rect width="56" height="56" fill="white"/>
</clipPath>
</defs>
</svg>
