<svg width="56" height="56" viewBox="0 0 56 56" fill="none" xmlns="http://www.w3.org/2000/svg">
<g clip-path="url(#clip0_3603_419)">
<path fill-rule="evenodd" clip-rule="evenodd" d="M42.3967 52.92C42.0961 52.4753 41.7348 52.0748 41.3234 51.73C40.5009 51.1192 39.6173 50.5952 38.6867 50.1667L37.4967 49.63C37.1489 49.4927 36.8197 49.3124 36.5167 49.0934C36.441 49.0294 36.3707 48.9591 36.3067 48.8834C37.8755 48.3601 39.3608 47.6135 40.7167 46.6667C40.8833 46.5611 41.0014 46.3938 41.0451 46.2015C41.0888 46.0091 41.0547 45.8073 40.95 45.64C40.837 45.4819 40.6684 45.3724 40.4779 45.3334C40.2875 45.2945 40.0894 45.329 39.9234 45.43C37.8111 46.4317 35.5623 47.1158 33.25 47.46C31.8311 47.5969 30.4053 47.6514 28.98 47.6234C26.7867 47.6234 24.57 47.6234 22.4467 47.4367H13.5334C11.5734 47.4367 9.63671 47.2967 7.65338 47.11H7.42004C7.00004 43.89 6.86004 40.6234 6.76671 37.3334C6.67338 34.0434 6.76671 31.1967 6.76671 28.14V15.4934C6.76671 14.91 6.76671 14.3267 6.93004 13.7667C6.9873 13.2167 7.08084 12.671 7.21004 12.1334C7.33087 11.422 7.615 10.7484 8.04011 10.1654C8.46521 9.58238 9.01971 9.1059 9.66004 8.77336C11.9668 7.92275 14.4694 7.75268 16.87 8.28336C16.9944 8.30473 17.1222 8.28967 17.2381 8.23998C17.3541 8.1903 17.4531 8.10812 17.5234 8.00336C17.6574 7.98366 17.7824 7.92421 17.8822 7.83269C17.982 7.74118 18.0521 7.62181 18.0834 7.49003C18.6175 5.97128 19.6992 4.70654 21.1167 3.94336C21.8096 3.53819 22.5557 3.23189 23.3334 3.03336C24.0128 2.82626 24.7264 2.75491 25.4334 2.82336C26.729 2.98693 27.947 3.53097 28.9334 4.38669C30.0376 5.24913 30.9114 6.37136 31.4767 7.65336C31.5376 7.80055 31.6414 7.92601 31.7745 8.01341C31.9077 8.1008 32.0641 8.14608 32.2234 8.14336C32.3156 8.16359 32.4111 8.16359 32.5034 8.14336C33.0784 8.10853 33.655 8.10853 34.23 8.14336C35.14 8.14336 36.0034 8.28336 36.89 8.35336C38.0551 8.37776 39.2136 8.53431 40.3434 8.82003C40.9237 8.98906 41.4476 9.3115 41.86 9.75336C42.1582 10.1509 42.3217 10.6332 42.3267 11.13C42.3741 11.9071 42.3741 12.6863 42.3267 13.4634V19.53C42.3267 21.56 42.3267 23.6367 42.21 25.6667C42.1971 25.8858 42.2705 26.1012 42.4144 26.2669C42.5583 26.4326 42.7613 26.5355 42.98 26.5534C43.2016 26.5666 43.4198 26.494 43.5893 26.3506C43.7587 26.2072 43.8664 26.0041 43.89 25.7834C44.3334 23.3334 44.5667 21 44.8234 18.4334C44.9634 16.7767 45.08 15.12 45.1267 13.44C45.1646 12.3865 45.1021 11.3317 44.94 10.29C44.7758 9.40419 44.3443 8.58989 43.7034 7.95669C42.9079 7.24084 41.9314 6.75664 40.88 6.55669C39.5395 6.39308 38.184 6.39308 36.8434 6.55669L32.83 6.88336C32.3698 5.37766 31.5718 3.99698 30.4967 2.84669C29.2337 1.40427 27.5404 0.406255 25.6667 2.59951e-05C24.5695 -0.113585 23.4608 0.0220091 22.4234 0.396693C21.4316 0.755348 20.5141 1.29316 19.7167 1.98336C18.2025 3.18451 17.1546 4.87606 16.7534 6.76669C14.139 6.10211 11.3908 6.18294 8.82004 7.00003C7.86129 7.41445 7.00743 8.03818 6.32106 8.82549C5.6347 9.61279 5.13321 10.5437 4.85338 11.55C4.71338 12.04 4.59671 12.5534 4.45671 13.0667C4.31671 13.58 4.20004 14.56 4.13004 15.4C4.06004 16.24 3.96671 17.22 3.92004 18.13V22.12C3.92004 26.39 4.06004 30.7067 4.31671 35.0234C4.58229 39.3393 5.07296 43.6385 5.78671 47.9034C5.82669 48.1201 5.94805 48.3134 6.12592 48.4435C6.30379 48.5737 6.5247 48.6308 6.74338 48.6034C6.74338 48.6034 6.74338 48.6034 6.88338 48.6034C7.01736 48.7688 7.20918 48.8773 7.42004 48.9067C9.40338 49.28 11.3867 49.5367 13.3934 49.77C16.3567 50.0734 19.3434 50.26 22.33 50.4934C24.5234 50.4934 26.81 50.7034 29.0734 50.4934C30.6041 50.4013 32.1253 50.1907 33.6234 49.8634L34.3234 49.63C34.584 50.3415 34.9983 50.9868 35.5367 51.52C36.2254 52.1449 37.0142 52.6497 37.87 53.0134C38.5467 53.34 39.3167 53.55 39.9934 53.9C40.3442 54.0767 40.6666 54.3048 40.95 54.5767C41.2767 54.95 41.58 55.3467 41.8834 55.7434C42.0112 55.9013 42.1919 56.0076 42.3921 56.0425C42.5923 56.0774 42.7983 56.0386 42.972 55.9332C43.1457 55.8278 43.2754 55.663 43.3369 55.4694C43.3985 55.2757 43.3877 55.0664 43.3067 54.88C43.041 54.2099 42.7372 53.5555 42.3967 52.92Z" fill="#302D2D"/>
<path fill-rule="evenodd" clip-rule="evenodd" d="M52.01 49.6767C51.5433 48.5333 51.0067 47.3433 50.6333 46.13C50.3763 45.3723 50.1965 44.5905 50.0967 43.7967C50.0498 43.3624 50.0498 42.9243 50.0967 42.49C50.0967 41.7433 50.2367 40.9733 50.26 40.1567L50.4 34.72C50.4051 33.1305 50.1368 31.5519 49.6067 30.0533C49.1823 28.8866 48.3547 27.91 47.2733 27.3C46.7329 26.948 46.0904 26.7867 45.4478 26.8417C44.8053 26.8967 44.1995 27.1647 43.7267 27.6033C42.8356 28.5588 42.1804 29.7094 41.8133 30.9633C41.3147 32.3075 40.9551 33.6992 40.74 35.1167C40.5303 36.5635 40.5303 38.0331 40.74 39.48C40.8411 40.2886 41.0694 41.0761 41.4167 41.8133C41.6537 42.3631 41.9944 42.8622 42.42 43.2833C42.5598 43.4215 42.7484 43.4991 42.945 43.4991C43.1416 43.4991 43.3302 43.4215 43.47 43.2833C43.598 43.1384 43.6686 42.9517 43.6686 42.7583C43.6686 42.565 43.598 42.3783 43.47 42.2333C43.1263 41.845 42.8786 41.3815 42.7467 40.88C42.5833 40.3347 42.4969 39.7692 42.49 39.2C42.455 37.9267 42.5964 36.6546 42.91 35.42C43.2146 34.1667 43.6446 32.9472 44.1933 31.78C44.4706 31.0642 44.8562 30.3953 45.3367 29.7967C45.5 29.5867 45.71 29.4467 45.99 29.6333C46.3359 29.8354 46.6352 30.1082 46.8684 30.4339C47.1016 30.7596 47.2634 31.1308 47.3433 31.5233C47.6127 32.5533 47.7692 33.6095 47.81 34.6733L48.02 39.8533V42.56C48.0438 42.9822 48.0905 43.4028 48.16 43.82C48.3569 44.733 48.6221 45.63 48.9533 46.5033C49.4667 47.74 50.0967 48.9533 50.6567 50.0967C50.7041 50.1963 50.7708 50.2855 50.8528 50.3594C50.9348 50.4332 51.0305 50.4902 51.1345 50.527C51.2385 50.5639 51.3488 50.5798 51.4589 50.5741C51.5691 50.5683 51.6771 50.5408 51.7767 50.4933C51.889 50.3933 51.9705 50.2634 52.0118 50.1188C52.0531 49.9743 52.0525 49.8209 52.01 49.6767Z" fill="#302D2D"/>
<path fill-rule="evenodd" clip-rule="evenodd" d="M35.3967 16.9867C35.7966 18.3856 36.0315 19.8265 36.0967 21.28L36.3534 29.7033L36.5167 40.95C36.5104 41.0592 36.5261 41.1685 36.5629 41.2715C36.5996 41.3745 36.6567 41.469 36.7307 41.5495C36.8047 41.6301 36.8941 41.6949 36.9936 41.7402C37.0931 41.7855 37.2007 41.8104 37.31 41.8133C37.5288 41.8134 37.739 41.7281 37.8959 41.5756C38.0528 41.4231 38.144 41.2154 38.15 40.9967L38.64 29.68C38.64 27.6967 38.8034 25.7133 38.8267 23.73V21.1167C38.7755 19.4471 38.5407 17.7882 38.1267 16.17C37.7889 14.9711 37.2004 13.8577 36.4 12.9033C35.6209 12.0576 34.6175 11.4507 33.5067 11.1533C32.1168 10.7886 30.6944 10.562 29.26 10.4767C27.451 10.3248 25.6324 10.3248 23.8234 10.4767C19.7634 10.8267 15.7734 11.76 11.6667 12.2967C11.5715 12.3054 11.4791 12.3329 11.3946 12.3777C11.3101 12.4224 11.2354 12.4834 11.1746 12.5571C11.1139 12.6309 11.0684 12.716 11.0407 12.8074C11.013 12.8989 11.0037 12.9949 11.0134 13.09C11.0509 13.1802 11.0979 13.2662 11.1534 13.3467C11.0213 13.4566 10.924 13.6025 10.8734 13.7667C10.6167 15.2367 10.4067 16.7533 10.2434 18.2467C10.0334 20.58 9.94003 22.75 9.82336 24.9667V28.4667C9.82336 31.1267 10.1034 33.7867 10.1034 36.4233C10.1034 37.24 9.87003 38.7567 9.96336 39.9C10.013 40.6231 10.2458 41.3217 10.64 41.93C11.3024 42.8688 12.2792 43.5393 13.3934 43.82C14.7366 44.1442 16.1225 44.2544 17.5 44.1467L34.0667 42.84C34.176 42.8371 34.2836 42.8122 34.3831 42.7669C34.4827 42.7216 34.5721 42.6567 34.646 42.5762C34.72 42.4957 34.7771 42.4011 34.8139 42.2981C34.8506 42.1952 34.8663 42.0858 34.86 41.9767C34.848 41.758 34.7509 41.5526 34.5897 41.4045C34.4284 41.2563 34.2156 41.1769 33.9967 41.1833L17.43 41.5567C16.4988 41.5786 15.5679 41.5004 14.6534 41.3233C14.3152 41.2816 13.9887 41.1735 13.6924 41.0053C13.3961 40.8372 13.1359 40.6122 12.9267 40.3433C12.7802 40.0058 12.7239 39.6359 12.7634 39.27C12.7634 38.22 12.9034 36.9367 12.9034 36.4L12.0867 24.99V18.3633C12.0867 16.8933 12.25 15.4467 12.4367 14C12.4473 13.907 12.4473 13.813 12.4367 13.72C15.7967 13.4867 19.0867 13.02 22.4 12.8333C24.649 12.6704 26.9089 12.7408 29.1434 13.0433C30.3822 13.1716 31.6078 13.4057 32.8067 13.7433C33.4256 13.9136 33.9888 14.2435 34.44 14.7C34.9278 15.38 35.2549 16.1619 35.3967 16.9867Z" fill="#302D2D"/>
<path fill-rule="evenodd" clip-rule="evenodd" d="M29.7734 30.6133H30.6134C30.9157 30.6478 31.221 30.6478 31.5234 30.6133C31.798 30.5655 32.06 30.4623 32.2934 30.31C32.4534 30.1856 32.5873 30.0309 32.6874 29.8548C32.7875 29.6786 32.8518 29.4844 32.8767 29.2833V28.6533L32.9934 26.88C33.0552 26.2281 33.0552 25.5718 32.9934 24.92C32.9628 24.5687 32.8423 24.2312 32.6434 23.94C32.5206 23.7532 32.3548 23.5985 32.1599 23.4889C31.9651 23.3793 31.7468 23.3179 31.5234 23.31C31.131 23.3592 30.7416 23.4293 30.3567 23.52L27.79 23.9866L28.0467 21.28C28.072 20.8448 28.072 20.4085 28.0467 19.9733C28.0086 19.7961 27.9352 19.6284 27.831 19.4801C27.7268 19.3318 27.5938 19.2059 27.44 19.11C27.2705 19.0181 27.0903 18.9475 26.9034 18.9C26.6239 18.8766 26.3429 18.8766 26.0634 18.9H22.2834C21.9272 18.9206 21.5748 18.9833 21.2334 19.0866C20.72 19.32 20.44 19.6233 20.3934 19.88C20.2781 20.2415 20.2307 20.6212 20.2534 21C20.2534 21.5833 20.4634 22.2133 20.51 22.6333V23.52C20.3938 23.5067 20.2763 23.5067 20.16 23.52C19.5767 23.52 18.9934 23.52 18.41 23.3566H17.5C17.1645 23.3761 16.8411 23.4893 16.5667 23.6833C16.1724 23.9364 15.8635 24.3022 15.68 24.7333C15.3973 25.4216 15.2545 26.1593 15.26 26.9033L15.4934 29.0033L15.82 30.17C15.9999 30.4503 16.2602 30.6698 16.5667 30.8C16.926 30.9425 17.3026 31.0367 17.6867 31.08C18.1594 31.1383 18.6374 31.1383 19.11 31.08H19.74L19.5534 32.41C19.4887 33.0939 19.5601 33.7838 19.7634 34.44C19.9073 34.873 20.175 35.2542 20.5334 35.5366C20.7094 35.6543 20.9081 35.7338 21.1167 35.77C21.4192 35.8028 21.7243 35.8028 22.0267 35.77C22.7267 35.77 25.2234 35.9333 26.2734 35.8866C26.5915 35.8933 26.9064 35.8224 27.191 35.6801C27.4755 35.5379 27.7212 35.3284 27.9067 35.07C28.011 34.7929 28.0739 34.502 28.0934 34.2066C28.1041 33.6916 28.0729 33.1766 28 32.6666L27.6967 30.3333L28.5834 30.4966L29.7734 30.6133ZM25.8767 32.6666V32.9233H22.12H21.8867C21.8307 32.6932 21.7917 32.4592 21.77 32.2233L21.6534 30.0533C21.6878 29.9392 21.6878 29.8174 21.6534 29.7033C21.5134 28.42 20.1367 29.0266 19.32 28.98C18.9395 28.956 18.5634 28.8855 18.2 28.77C18.1939 28.7001 18.1939 28.6298 18.2 28.56V26.88C18.2 25.5033 17.22 25.6666 20.2767 25.2933C20.5329 25.2701 20.7906 25.2701 21.0467 25.2933C21.1059 25.3488 21.1757 25.3919 21.2518 25.4199C21.328 25.448 21.409 25.4605 21.49 25.4566C21.587 25.4567 21.683 25.4372 21.7723 25.3994C21.8617 25.3616 21.9425 25.3063 22.0099 25.2366C22.0774 25.1669 22.1302 25.0844 22.1652 24.994C22.2001 24.9035 22.2165 24.8069 22.2134 24.71L22.47 22.8433C22.47 22.5633 22.47 22.19 22.5867 21.77H24.92H25.9467L26.25 24.8733C26.2365 24.9505 26.2365 25.0295 26.25 25.1066C26.2844 25.303 26.3936 25.4783 26.5546 25.5958C26.7156 25.7133 26.9159 25.7638 27.1134 25.7366L30.6367 25.9933C30.5201 26.2629 30.4341 26.5446 30.38 26.8333V28.4666H30.0067H28.9567H27.3234H27.16C27.0322 28.4779 26.9104 28.5266 26.81 28.6066C26.7087 28.6623 26.6234 28.743 26.5621 28.841C26.5008 28.9391 26.4657 29.0512 26.46 29.1666L25.8767 32.6666Z" fill="#302D2D"/>
</g>
<defs>
<clipPath id="clip0_3603_419">
<rect width="56" height="56" fill="white"/>
</clipPath>
</defs>
</svg>
