<svg width="56" height="56" viewBox="0 0 56 56" fill="none" xmlns="http://www.w3.org/2000/svg">
<g clip-path="url(#clip0_3603_411)">
<path fill-rule="evenodd" clip-rule="evenodd" d="M26.67 19.6699C27.3467 20.2999 28.0933 20.8599 28.8167 21.4199C29.9133 22.2833 31.15 23.0299 32.1067 23.9866C32.1855 24.0828 32.2828 24.1623 32.3927 24.2204C32.5027 24.2785 32.6232 24.314 32.7471 24.3249C32.871 24.3358 32.9959 24.3218 33.1143 24.2837C33.2327 24.2457 33.3423 24.1843 33.4367 24.1033C33.5353 24.024 33.6173 23.926 33.6778 23.8149C33.7383 23.7037 33.7762 23.5817 33.7892 23.4558C33.8022 23.33 33.7901 23.2028 33.7537 23.0816C33.7172 22.9604 33.657 22.8477 33.5767 22.7499C32.8066 21.5111 31.9323 20.3402 30.9633 19.2499C30.5412 18.7853 30.0892 18.3488 29.61 17.9433C29.1504 17.5317 28.6589 17.1572 28.14 16.8233C27.4867 16.4266 26.81 16.1233 26.1333 15.7966C24.5933 15.1666 23.8 16.4966 24.4767 17.4299C24.4767 17.4299 25.8767 18.9466 26.67 19.6699Z" fill="#302D2D"/>
<path fill-rule="evenodd" clip-rule="evenodd" d="M54.1567 30.5432C51.8078 27.681 49.3111 24.9121 46.6667 22.2366C45.6633 21.2099 44.6133 20.2766 43.5867 19.2966C43.9833 19.0166 44.38 18.7832 44.73 18.4799C45.08 18.1766 45.29 18.0132 45.5467 17.7566C45.8033 17.4999 46.0133 17.2199 46.2233 16.9399C46.4333 16.6599 46.9933 15.6799 47.39 15.0266L49.2333 16.6132C49.4156 16.7873 49.658 16.8844 49.91 16.8844C50.162 16.8844 50.4044 16.7873 50.5867 16.6132C50.6657 16.514 50.7243 16.4001 50.7589 16.2781C50.7935 16.156 50.8035 16.0283 50.7883 15.9024C50.7731 15.7764 50.733 15.6548 50.6704 15.5445C50.6077 15.4342 50.5237 15.3375 50.4233 15.2599L47.2033 11.0132C46.1616 9.84727 45.0472 8.74841 43.8667 7.72324C42.0226 6.30356 40.1067 4.97959 38.1267 3.75657C38.0424 3.68457 37.9448 3.62986 37.8394 3.59558C37.734 3.5613 37.6228 3.54812 37.5123 3.55678C37.4018 3.56545 37.2941 3.5958 37.1954 3.64609C37.0966 3.69639 37.0087 3.76564 36.9367 3.84991C36.7912 4.02009 36.7194 4.24107 36.7369 4.46424C36.7544 4.68741 36.8598 4.89448 37.03 5.03991C37.6833 5.73991 38.3367 6.41657 38.9667 7.11657C38.4586 7.38099 37.9676 7.67713 37.4967 8.00324C37.1933 8.24181 36.9049 8.49897 36.6333 8.77324C36.38 9.06062 36.1461 9.36463 35.9333 9.68324C35.5452 10.2474 35.1869 10.8315 34.86 11.4332C33.5067 10.2899 32.1767 9.09991 30.7533 8.04991C28.9057 6.64352 26.9382 5.40209 24.8733 4.33991C24.7781 4.27218 24.6699 4.22506 24.5554 4.20156C24.441 4.17805 24.3229 4.17868 24.2087 4.2034C24.0945 4.22812 23.9867 4.27639 23.8922 4.34513C23.7978 4.41386 23.7187 4.50155 23.66 4.60259C23.6013 4.70363 23.5644 4.81579 23.5515 4.93192C23.5387 5.04804 23.5502 5.16557 23.5853 5.277C23.6204 5.38842 23.6784 5.4913 23.7556 5.57904C23.8327 5.66678 23.9273 5.73747 24.0333 5.78657C25.5894 6.86745 27.0706 8.05238 28.4667 9.33324C28.2698 9.34325 28.0814 9.41695 27.93 9.54324C22.8486 13.9205 18.0771 18.6452 13.65 23.6832C10.6485 27.2606 8.48057 31.461 7.30334 35.9799C7.01463 37.6901 7.0724 39.4409 7.47322 41.1283C7.87404 42.8158 8.60974 44.4055 9.63668 45.8032C8.77334 46.4332 7.91001 47.0399 7.09334 47.7632C6.27668 48.4866 6.13668 48.6732 5.67001 49.1399C5.20334 49.6066 4.83001 50.1432 4.43334 50.6566C3.47668 51.8932 2.66001 53.1999 1.79668 54.5066C1.70364 54.6011 1.63129 54.714 1.58422 54.838C1.53715 54.9621 1.51639 55.0945 1.52325 55.227C1.53012 55.3595 1.56446 55.4891 1.62409 55.6076C1.68373 55.7261 1.76735 55.8309 1.86966 55.9153C1.97196 55.9997 2.09071 56.062 2.21837 56.0981C2.34602 56.1342 2.47978 56.1433 2.61115 56.1249C2.74253 56.1066 2.86865 56.0611 2.9815 55.9913C3.09435 55.9216 3.19146 55.8292 3.26668 55.7199C4.38668 54.6932 5.60001 53.7366 6.65001 52.6866C7.14497 52.2657 7.61258 51.8137 8.05001 51.3332C8.51068 50.8482 8.93936 50.3338 9.33334 49.7932C9.98668 48.9999 10.5233 48.1599 11.1067 47.3199C12.1425 48.4147 13.4143 49.2591 14.8253 49.7887C16.2364 50.3184 17.7496 50.5194 19.25 50.3766C21.5447 50.048 23.7369 49.2109 25.6667 47.9266C28.358 46.1427 30.8393 44.0606 33.0633 41.7199C34.4789 40.3355 35.8789 38.9355 37.2633 37.5199C40.46 34.2066 43.5633 30.8232 46.7367 27.5099C46.8249 27.4231 46.8949 27.3195 46.9427 27.2054C46.9905 27.0912 47.0151 26.9687 47.0151 26.8449C47.0151 26.7211 46.9905 26.5986 46.9427 26.4844C46.8949 26.3703 46.8249 26.2668 46.7367 26.1799C46.6474 26.0875 46.5405 26.0139 46.4222 25.9637C46.304 25.9135 46.1768 25.8876 46.0483 25.8876C45.9199 25.8876 45.7927 25.9135 45.6744 25.9637C45.5562 26.0139 45.4492 26.0875 45.36 26.1799C42.56 28.9332 39.7833 31.7332 36.96 34.4632C35.1167 36.2832 33.2033 38.0566 31.29 39.8299C29.0938 41.9197 26.7029 43.7949 24.15 45.4299C22.5505 46.4096 20.7609 47.0379 18.9 47.2732C17.6239 47.346 16.3511 47.0826 15.2087 46.5094C14.0663 45.9361 13.0944 45.0731 12.39 44.0066C11.5635 42.9746 10.9604 41.7822 10.6189 40.5049C10.2775 39.2276 10.2052 37.8933 10.4067 36.5866C10.9518 32.3345 12.8024 28.3561 15.7033 25.1999C19.8642 20.0833 24.3454 15.2358 29.12 10.6866C29.2121 10.5835 29.2773 10.4593 29.3098 10.325C29.3424 10.1906 29.3413 10.0504 29.3067 9.91657C31.78 12.2499 34.1367 14.5832 36.4933 16.9166C37.9867 18.2932 39.5033 19.6932 41.16 21.0699C43.4933 23.1232 45.8267 25.1066 48.16 27.2066C49.77 28.6766 51.3567 30.2166 52.8267 31.8732C52.9155 31.9621 53.021 32.0327 53.1371 32.0808C53.2532 32.1289 53.3777 32.1536 53.5033 32.1536C53.629 32.1536 53.7535 32.1289 53.8696 32.0808C53.9857 32.0327 54.0912 31.9621 54.18 31.8732C54.2667 31.7849 54.3349 31.6801 54.3807 31.5651C54.4265 31.4501 54.449 31.3271 54.4468 31.2034C54.4447 31.0796 54.4179 30.9575 54.3681 30.8441C54.3183 30.7308 54.2464 30.6285 54.1567 30.5432ZM42.49 16.3332C42.2567 16.7299 42.0233 17.1266 41.8133 17.5232L38.6633 14.4899C37.9867 13.9299 37.2633 13.3699 36.5867 12.7866C37.1 12.4366 37.6133 12.0866 38.1267 11.6899C38.4276 11.4742 38.7087 11.2322 38.9667 10.9666C39.2275 10.7191 39.462 10.4455 39.6667 10.1499C39.9709 9.70695 40.2364 9.23854 40.46 8.74991C40.88 9.19324 41.2767 9.68324 41.72 10.1032C42.8167 11.1532 44.0533 12.0866 45.1267 13.0899L45.92 13.7666C45.2552 14.0309 44.6214 14.3673 44.03 14.7699C43.7177 14.989 43.4353 15.2478 43.19 15.5399C42.9353 15.7847 42.7012 16.05 42.49 16.3332Z" fill="#302D2D"/>
<path fill-rule="evenodd" clip-rule="evenodd" d="M19.2967 25.0366C19.5913 25.3126 19.9031 25.5698 20.23 25.8066L21.2567 26.4366C22.0967 26.9033 22.9367 27.2766 23.8234 27.7899C23.9163 27.8741 24.0255 27.9381 24.1444 27.9781C24.2632 28.018 24.389 28.033 24.5138 28.022C24.6387 28.0111 24.76 27.9744 24.87 27.9144C24.9801 27.8544 25.0765 27.7723 25.1534 27.6733C25.2451 27.5861 25.3182 27.4811 25.3682 27.3648C25.4181 27.2485 25.4439 27.1232 25.4439 26.9966C25.4439 26.87 25.4181 26.7447 25.3682 26.6284C25.3182 26.5121 25.2451 26.4071 25.1534 26.3199C24.5544 25.5047 23.9077 24.7255 23.2167 23.9866C22.9119 23.682 22.5843 23.4012 22.2367 23.1466C21.8542 22.8767 21.4386 22.6571 21 22.4933C20.5547 22.2879 20.0945 22.1163 19.6234 21.9799C18.6667 21.4433 17.5 22.9833 18.0834 23.7999C18.4632 24.2356 18.8684 24.6485 19.2967 25.0366Z" fill="#302D2D"/>
<path fill-rule="evenodd" clip-rule="evenodd" d="M14.98 32.4799C15.6567 33.0166 16.38 33.5066 17.08 33.9966C18.1534 34.7666 19.25 35.4433 20.2767 36.3299C20.364 36.4234 20.4689 36.4987 20.5854 36.5516C20.7018 36.6046 20.8275 36.634 20.9554 36.6384C21.0832 36.6427 21.2106 36.6218 21.3304 36.5769C21.4502 36.532 21.5599 36.4639 21.6534 36.3766C21.7468 36.2893 21.8222 36.1844 21.8751 36.0679C21.928 35.9515 21.9575 35.8258 21.9618 35.6979C21.9661 35.5701 21.9453 35.4426 21.9003 35.3229C21.8554 35.2031 21.7874 35.0934 21.7 34.9999C20.9492 33.8327 20.0898 32.7389 19.1334 31.7333C18.7103 31.3057 18.2581 30.9081 17.78 30.5433C17.3261 30.1836 16.8421 29.8635 16.3334 29.5866C15.7066 29.2784 15.0595 29.0133 14.3967 28.7933C14.1278 28.7114 13.839 28.7235 13.578 28.8278C13.3169 28.932 13.0991 29.122 12.9605 29.3666C12.822 29.6112 12.7708 29.8956 12.8156 30.1731C12.8603 30.4507 12.9983 30.7046 13.2067 30.8933C13.7434 31.4299 14.35 31.9666 14.98 32.4799Z" fill="#302D2D"/>
<path fill-rule="evenodd" clip-rule="evenodd" d="M38.8267 3.49995C39.4149 3.07344 40.0946 2.79017 40.8116 2.67269C41.5286 2.55521 42.2631 2.60678 42.9567 2.82328C44.0117 3.17801 44.9924 3.72376 45.85 4.43328C46.8015 5.08978 47.6575 5.87503 48.3933 6.76662C49.0801 7.52807 49.597 8.42683 49.91 9.40329C50.101 9.92295 50.101 10.4936 49.91 11.0133C49.7677 11.2237 49.7147 11.482 49.7629 11.7314C49.811 11.9809 49.9563 12.201 50.1667 12.3433C50.3771 12.4856 50.6354 12.5385 50.8848 12.4904C51.1342 12.4423 51.3543 12.297 51.4967 12.0866C52.1241 11.2081 52.3913 10.1227 52.2433 9.05328C52.0727 7.66257 51.6031 6.32528 50.8667 5.13328C50.3601 4.27608 49.74 3.49121 49.0233 2.79995C47.9194 1.73521 46.5865 0.937075 45.1267 0.466618C43.8461 -0.0364125 42.4405 -0.126918 41.106 0.207743C39.7716 0.542404 38.5749 1.28552 37.6833 2.33328C37.5307 2.49377 37.4456 2.70679 37.4456 2.92828C37.4456 3.14978 37.5307 3.3628 37.6833 3.52328C37.8416 3.66447 38.0475 3.74054 38.2596 3.73622C38.4717 3.73189 38.6743 3.64748 38.8267 3.49995Z" fill="#302D2D"/>
</g>
<defs>
<clipPath id="clip0_3603_411">
<rect width="56" height="56" fill="white"/>
</clipPath>
</defs>
</svg>
