<svg width="56" height="56" viewBox="0 0 56 56" fill="none" xmlns="http://www.w3.org/2000/svg">
<g clip-path="url(#clip0_3518_132)">
<path fill-rule="evenodd" clip-rule="evenodd" d="M54.7866 29.61C55.5087 28.1604 55.8842 26.5628 55.8833 24.9433C55.9348 22.9647 55.2534 21.0368 53.97 19.53C52.4493 17.9239 50.5588 16.7143 48.4633 16.0066L47.9033 15.75C47.8801 15.6031 47.8801 15.4535 47.9033 15.3066C48.311 13.5376 48.3586 11.7045 48.0433 9.91664C47.7007 8.31336 46.7679 6.89747 45.43 5.94998C44.0774 4.96454 42.4361 4.45574 40.7633 4.50331C38.902 4.59007 37.0702 5.00066 35.35 5.71664C35.2028 5.78778 35.0453 5.83504 34.8833 5.85664V5.66998C34.2814 4.23265 33.3644 2.94884 32.2 1.91331C30.6909 0.633769 28.7646 -0.0471001 26.7866 -2.28784e-05C24.4702 -0.0700714 22.2181 0.767166 20.51 2.33331C19.6735 3.14306 19.0456 4.14331 18.6799 5.24855C18.3142 6.35379 18.2216 7.53115 18.41 8.67998C18.4155 8.77633 18.4409 8.8705 18.4846 8.95656C18.5283 9.04262 18.5893 9.11871 18.6638 9.18007C18.7383 9.24142 18.8247 9.28671 18.9175 9.31308C19.0104 9.33945 19.1077 9.34634 19.2033 9.33331C19.2955 9.32184 19.3846 9.29211 19.4652 9.24585C19.5459 9.19959 19.6165 9.13772 19.673 9.06387C19.7295 8.99002 19.7707 8.90565 19.7942 8.8157C19.8177 8.72575 19.8231 8.63202 19.81 8.53998C19.6636 7.62073 19.7469 6.67958 20.0522 5.80026C20.3575 4.92095 20.8754 4.13075 21.56 3.49998C22.9818 2.21591 24.8488 1.53775 26.7633 1.60998C28.3408 1.59311 29.8692 2.15796 31.0566 3.19664C32.1177 4.20312 32.9184 5.45226 33.39 6.83664C33.5029 7.15933 33.6955 7.44827 33.95 7.67664C34.1819 7.77748 34.4321 7.82952 34.685 7.82952C34.9378 7.82952 35.188 7.77748 35.42 7.67664C37.1172 6.93681 38.9368 6.51753 40.7866 6.43998C42.0574 6.40435 43.3044 6.78992 44.3333 7.53664C45.2519 8.22729 45.8833 9.23261 46.1066 10.36C46.3295 12.0788 46.2025 13.8249 45.7333 15.4933C45.6256 15.9064 45.6256 16.3402 45.7333 16.7533C45.9956 17.1974 46.3977 17.542 46.8766 17.7333C48.8673 18.3913 50.6742 19.5107 52.15 21C53.0435 22.1066 53.5075 23.4986 53.4566 24.92C53.4304 26.1668 53.1107 27.3899 52.5233 28.49C51.6324 30.0519 50.4981 31.4618 49.1633 32.6666C48.8804 32.9498 48.6511 33.2818 48.4866 33.6466C48.4107 34.1617 48.5093 34.6874 48.7666 35.14C49.4559 36.4181 49.8317 37.8416 49.8633 39.2933C49.8482 40.8525 49.3329 42.3656 48.3933 43.61C47.7315 44.4997 46.8678 45.2195 45.8733 45.71C43.5213 46.725 40.9635 47.1726 38.4066 47.0166H37.59H37.3333C36.9982 47.0303 36.6786 47.1618 36.431 47.3881C36.1834 47.6143 36.0237 47.9208 35.98 48.2533C34.8794 49.8585 33.4269 51.1912 31.7333 52.15C30.5114 52.8389 29.1446 53.2306 27.7433 53.2933C26.1869 53.324 24.6713 52.794 23.4733 51.8C22.3275 50.8202 21.3569 49.6524 20.6033 48.3466C20.3639 47.8648 19.945 47.4961 19.4366 47.32C18.6902 47.2895 17.9492 47.4586 17.29 47.81C15.7236 48.6498 13.9802 49.1056 12.2033 49.14C10.8405 49.0565 9.55846 48.4654 8.60995 47.4833C7.96702 46.8932 7.46063 46.1699 7.12613 45.3639C6.79164 44.5579 6.63709 43.6886 6.67328 42.8166C6.82198 41.0819 7.33057 39.3972 8.16662 37.87C8.38301 37.4602 8.4952 37.0034 8.49328 36.54C8.41186 36.2901 8.27518 36.0617 8.09341 35.8718C7.91163 35.682 7.68942 35.5355 7.44328 35.4433C5.97572 34.9277 4.6603 34.0534 3.61662 32.9C2.61804 31.5528 2.10041 29.9096 2.14662 28.2333C2.1428 27.5245 2.30051 26.8241 2.60777 26.1853C2.91504 25.5465 3.36378 24.9861 3.91995 24.5466C5.04712 23.683 6.31925 23.0271 7.67662 22.61C7.97794 22.5175 8.2618 22.3755 8.51662 22.19C8.6684 21.9532 8.74907 21.6779 8.74907 21.3966C8.74907 21.1154 8.6684 20.8401 8.51662 20.6033C7.74061 19.3723 7.27611 17.9708 7.16328 16.52C7.10601 14.9533 7.62016 13.4191 8.60995 12.2033C9.02999 11.5438 9.57591 10.9735 10.2165 10.5251C10.8571 10.0766 11.5798 9.75889 12.3433 9.58998C14.0098 9.44341 15.689 9.61767 17.29 10.1033C17.4969 10.1455 17.7122 10.1059 17.8906 9.99281C18.069 9.87969 18.1966 9.70185 18.2466 9.49664C18.2958 9.29244 18.2621 9.07706 18.1527 8.89772C18.0434 8.71838 17.8674 8.58973 17.6633 8.53998C15.8592 7.98895 13.9657 7.7909 12.0866 7.95664C11.0982 8.12808 10.1546 8.49756 9.31253 9.04288C8.47049 9.58821 7.74737 10.2981 7.18662 11.13C5.93377 12.6695 5.2718 14.6057 5.31995 16.59C5.39404 18.1345 5.81683 19.6422 6.55662 21H6.36995C4.64766 21.5483 3.08561 22.5096 1.81995 23.8C0.691257 24.9963 0.0792935 26.589 0.116617 28.2333C0.00692339 30.3868 0.659588 32.51 1.95995 34.23C3.03692 35.5338 4.42527 36.545 5.99662 37.17L5.76328 37.6366C4.75195 39.6347 4.28516 41.864 4.40995 44.1C4.62392 46.0814 5.54317 47.9199 6.99995 49.28C8.37024 50.6427 10.1827 51.4703 12.11 51.6133C14.0257 51.6517 15.925 51.2527 17.6633 50.4466L18.6666 50.0966C19.7018 51.96 21.1555 53.5575 22.9133 54.7633C24.3884 55.6824 26.099 56.1526 27.8366 56.1166C30.5665 55.9819 33.1753 54.9482 35.2566 53.1766C36.4276 52.2299 37.45 51.1131 38.29 49.8633C39.851 49.9332 41.4151 49.8393 42.9566 49.5833C45.96 49.2281 48.702 47.702 50.5866 45.3366C51.8631 43.635 52.5437 41.5604 52.5233 39.4333C52.5233 37.6538 52.1162 35.8979 51.3333 34.3L51.5666 34.0433C52.8652 32.743 53.9517 31.2471 54.7866 29.61Z" fill="#302D2D"/>
<path fill-rule="evenodd" clip-rule="evenodd" d="M35.9567 26.5767C36.6255 25.6161 37.0621 24.5134 37.2321 23.3554C37.4022 22.1973 37.3011 21.0156 36.9367 19.9033C36.5931 18.648 35.8994 17.5163 34.9368 16.6404C33.9741 15.7645 32.7821 15.1805 31.5 14.9567C29.767 14.6489 27.9881 14.7188 26.2846 15.1618C24.5812 15.6048 22.9935 16.4103 21.63 17.5233C19.9849 18.9798 18.9307 20.9887 18.6667 23.17C18.6224 23.9601 18.8226 24.7446 19.2402 25.4168C19.6577 26.089 20.2722 26.6162 21 26.9267C21.1652 27.0027 21.353 27.0137 21.526 26.9575C21.699 26.9013 21.8444 26.782 21.9333 26.6233C21.9784 26.5423 22.007 26.4531 22.0173 26.3609C22.0276 26.2687 22.0195 26.1755 21.9934 26.0864C21.9674 25.9974 21.9239 25.9145 21.8655 25.8424C21.8071 25.7704 21.735 25.7106 21.6533 25.6667C21.2052 25.4731 20.8291 25.1438 20.578 24.7252C20.3269 24.3066 20.2133 23.8198 20.2533 23.3333C20.5958 21.6433 21.5728 20.1486 22.9833 19.1567C24.9084 17.8079 27.2436 17.1725 29.5867 17.36C30.6292 17.318 31.6575 17.6131 32.5191 18.2015C33.3807 18.7899 34.0298 19.6403 34.37 20.6267C34.6661 21.3829 34.7843 22.197 34.7155 23.0062C34.6467 23.8154 34.3928 24.5979 33.9733 25.2933C32.6181 26.9587 30.8237 28.2115 28.7933 28.91C28.0848 29.1766 27.4407 29.5901 26.9033 30.1233C26.4937 30.9041 26.3387 31.7934 26.46 32.6667C26.5317 33.8062 26.8166 34.9222 27.3 35.9567C27.3475 36.0501 27.4129 36.1333 27.4926 36.2015C27.5722 36.2696 27.6645 36.3215 27.7642 36.354C27.8639 36.3865 27.969 36.399 28.0735 36.3909C28.178 36.3828 28.2799 36.3542 28.3733 36.3067C28.4668 36.2592 28.55 36.1937 28.6182 36.1141C28.6863 36.0344 28.7381 35.9422 28.7706 35.8425C28.8031 35.7428 28.8157 35.6377 28.8076 35.5332C28.7995 35.4287 28.7708 35.3268 28.7233 35.2333C28.4429 34.5334 28.2775 33.7927 28.2333 33.04C28.1203 32.4203 28.185 31.7812 28.42 31.1967C28.42 31.1967 28.6067 31.1967 28.7467 31.0567L30.3333 30.3333C32.5248 29.637 34.4744 28.3346 35.9567 26.5767Z" fill="#302D2D"/>
<path fill-rule="evenodd" clip-rule="evenodd" d="M27.2999 39.4333C27.2021 39.456 27.1101 39.4989 27.0297 39.5592C26.9494 39.6194 26.8825 39.6957 26.8333 39.7833C26.7616 39.7265 26.6792 39.6848 26.5909 39.6607C26.5027 39.6366 26.4105 39.6307 26.3199 39.6433C25.9864 39.6511 25.662 39.754 25.385 39.9401C25.108 40.1261 24.89 40.3874 24.7566 40.6933C24.4069 41.4201 24.3323 42.249 24.5466 43.0266C24.7565 43.6078 25.0971 44.1331 25.5421 44.5619C25.9871 44.9907 26.5247 45.3117 27.1133 45.5C27.7595 45.6982 28.4511 45.6926 29.0941 45.4838C29.737 45.2751 30.3 44.8733 30.7066 44.3333C31.2328 43.7971 31.5484 43.0893 31.5955 42.3394C31.6427 41.5896 31.4182 40.8479 30.9633 40.25C30.5126 39.7509 29.918 39.4042 29.2617 39.2579C28.6054 39.1116 27.9199 39.1729 27.2999 39.4333ZM29.2133 41.5566C29.4233 41.8833 29.2133 42.2333 28.6999 42.6766C28.5953 42.8194 28.4512 42.9286 28.2854 42.9908C28.1197 43.0529 27.9393 43.0654 27.7666 43.0266C27.5214 43.0061 27.2831 42.9355 27.0664 42.8191C26.8496 42.7027 26.6591 42.543 26.5066 42.35C26.3809 42.1524 26.3011 41.9291 26.2733 41.6966C26.2733 41.4166 26.2733 41.09 26.4599 41.0433C26.6536 41.0176 26.8295 40.9171 26.9499 40.7633C27.0542 40.8611 27.1824 40.9299 27.3216 40.9627C27.4609 40.9954 27.6063 40.991 27.7433 40.95C28.0209 40.8866 28.3114 40.9109 28.5747 41.0196C28.838 41.1282 29.0611 41.3159 29.2133 41.5566Z" fill="#302D2D"/>
</g>
<defs>
<clipPath id="clip0_3518_132">
<rect width="56" height="56" fill="white"/>
</clipPath>
</defs>
</svg>
