<svg width="56" height="56" viewBox="0 0 56 56" fill="none" xmlns="http://www.w3.org/2000/svg">
<g clip-path="url(#clip0_3603_292)">
<path fill-rule="evenodd" clip-rule="evenodd" d="M53.1767 45.8967C53.0317 45.4472 52.8192 45.0224 52.5467 44.6367C52.08 43.9367 51.4267 43.2833 50.96 42.7C49.91 41.37 48.8367 40.0633 47.6934 38.8033C46.9589 37.9834 46.18 37.2045 45.36 36.47C44.7046 35.8118 43.9943 35.2108 43.2367 34.6733C42.5851 34.2301 41.829 33.9647 41.0434 33.9033C40.2507 33.9084 39.4811 34.1704 38.85 34.65C37.45 35.56 35.6534 37.4033 34.02 38.36C33.4367 38.6867 32.9 39.06 32.5034 38.5933C30.17 36.0033 28.35 33.6 26.25 31.15C25.34 30.1 24.43 29.0733 23.45 28C22.47 26.9267 20.4634 25.0367 19.0634 23.3333C18.1864 22.3427 17.5055 21.1946 17.0567 19.95C17.0567 19.53 17.1734 19.11 17.5234 18.62C18.8552 16.9833 20.2974 15.4397 21.84 14C22.6394 13.2703 23.2209 12.3335 23.52 11.2933C23.5964 10.8794 23.5306 10.4518 23.3334 10.08C23.0067 9.52 22.4 8.96 22.1434 8.56333C21.49 7.65333 20.8367 6.76667 20.16 5.90333C19.0634 4.66667 18.0134 3.33667 16.9867 2.05333C16.8677 1.90685 16.6962 1.81266 16.5088 1.79086C16.3213 1.76907 16.1328 1.82139 15.9834 1.93667C15.8551 2.06752 15.7833 2.24344 15.7833 2.42667C15.7833 2.60989 15.8551 2.78582 15.9834 2.91667C17.01 4.22333 18.0134 5.48333 18.9934 6.79C19.6467 7.65333 20.2767 8.54 20.8834 9.42667C21.0934 9.77667 21.56 10.22 21.8634 10.6867C22.1667 11.1533 22.0967 10.9433 22.05 11.0833C21.6441 12.0254 20.981 12.8341 20.1367 13.4167C18.6357 14.6284 17.2458 15.9715 15.9834 17.43C15.6366 17.8225 15.3863 18.2907 15.2527 18.7971C15.119 19.3035 15.1055 19.8341 15.2134 20.3467C15.737 21.831 16.5278 23.207 17.5467 24.4067C18.9234 26.18 20.6734 27.86 21.8867 29.26C23.1 30.66 23.73 31.36 24.57 32.41C26.6467 34.9067 28.5134 37.3567 30.6834 39.9933C31.0575 40.4693 31.5747 40.8125 32.1586 40.9721C32.7426 41.1318 33.3625 41.0995 33.9267 40.88C35.6431 40.0906 37.2193 39.0266 38.5934 37.73C39.0914 37.3183 39.6134 36.9365 40.1567 36.5867C40.39 36.4467 40.5534 36.3067 40.7167 36.33C41.0732 36.3711 41.4119 36.5082 41.6967 36.7267C42.3212 37.1912 42.9065 37.7063 43.4467 38.2667C44.2673 39.0004 45.0463 39.7794 45.78 40.6C46.8767 41.8367 47.9034 43.12 48.9067 44.4033C49.28 44.87 49.7934 45.4067 50.2134 45.9667C50.4201 46.1975 50.5787 46.4672 50.68 46.76C51.0067 47.7867 50.3767 48.6733 49.5367 49.4667C47.9788 50.85 46.1282 51.8631 44.1234 52.43C38.3835 54.0649 32.2445 53.5505 26.8567 50.9833C21.4459 48.279 16.6733 44.453 12.8567 39.76C7.91128 34.3716 5.01298 27.419 4.6667 20.1133C4.3867 11.1067 8.56337 3.78 13.09 1.44667C13.2819 1.33837 13.4228 1.1583 13.4819 0.946071C13.541 0.733843 13.5133 0.506839 13.405 0.314999C13.3514 0.22001 13.2796 0.136512 13.1937 0.0692742C13.1078 0.00203603 13.0095 -0.047626 12.9044 -0.0768765C12.6922 -0.13595 12.4652 -0.108297 12.2734 -6.48201e-07C7.3267 2.33333 2.45003 10.3367 2.61337 20.16C2.87472 27.9219 5.83736 35.3492 10.99 41.16C14.9578 46.2079 19.9627 50.3456 25.6667 53.2933C31.5987 56.1744 38.3812 56.7804 44.73 54.9967C47.1778 54.2857 49.4345 53.0338 51.3334 51.3333C52.14 50.7078 52.7449 49.8589 53.0726 48.8922C53.4004 47.9255 53.4366 46.8838 53.1767 45.8967Z" fill="#302D2D"/>
<path d="M31.5233 10.64C31.7664 9.99415 31.9614 9.33123 32.1067 8.65665C32.1797 8.3904 32.2189 8.11602 32.2233 7.83998C32.2585 7.5689 32.2585 7.2944 32.2233 7.02332C32.2233 6.34665 32.3867 4.68998 32.2233 3.89665C32.2573 3.70791 32.215 3.5134 32.1056 3.35588C31.9962 3.19836 31.8287 3.09073 31.64 3.05665C31.5449 3.03638 31.4466 3.03551 31.3512 3.05408C31.2557 3.07266 31.1649 3.1103 31.0843 3.16476C31.0037 3.21922 30.9349 3.28937 30.8821 3.37102C30.8292 3.45268 30.7934 3.54416 30.7767 3.63998C30.2635 4.67215 29.8268 5.74057 29.47 6.83665C29.4082 7.12874 29.3692 7.42519 29.3533 7.72332C29.3303 8.00284 29.3303 8.28379 29.3533 8.56332C29.3533 9.23998 29.6333 9.84665 29.75 10.5233C29.7404 10.6306 29.7522 10.7388 29.7846 10.8416C29.8169 10.9443 29.8694 11.0397 29.9388 11.1221C30.0082 11.2045 30.0932 11.2724 30.189 11.3218C30.2847 11.3712 30.3893 11.4012 30.4967 11.41C30.6161 11.4418 30.7411 11.4461 30.8624 11.4226C30.9837 11.399 31.0981 11.3483 31.1969 11.2742C31.2957 11.2 31.3765 11.1045 31.433 10.9946C31.4896 10.8847 31.5205 10.7635 31.5233 10.64Z" fill="#302D2D"/>
<path d="M42.0001 11.27C41.4401 11.6667 40.8334 11.83 40.2501 12.18C40.0022 12.3216 39.7679 12.4856 39.5501 12.67C39.3229 12.8621 39.1122 13.0729 38.9201 13.3C38.4322 13.8704 38.0023 14.4879 37.6367 15.1434C37.4851 15.3074 37.4049 15.5249 37.4136 15.748C37.4224 15.9712 37.5194 16.1817 37.6834 16.3334C37.8474 16.485 38.0649 16.5652 38.2881 16.5565C38.5112 16.5477 38.7218 16.4507 38.8734 16.2867C39.4567 15.89 40.0867 15.68 40.6701 15.3067C41.0776 15.0662 41.4537 14.7762 41.7901 14.4434C42.3882 13.7607 42.8478 12.9682 43.1434 12.11C43.1923 11.9606 43.1928 11.7995 43.1447 11.6497C43.0967 11.5 43.0026 11.3692 42.8758 11.2761C42.7491 11.183 42.5962 11.1323 42.4389 11.1312C42.2817 11.1301 42.1281 11.1787 42.0001 11.27Z" fill="#302D2D"/>
<path d="M48.3001 25.2233C47.4626 25.1301 46.6175 25.1301 45.7801 25.2233C44.7803 25.3726 43.7907 25.583 42.8167 25.8533C42.7063 25.8621 42.5987 25.8927 42.5001 25.9433C42.4015 25.9939 42.3139 26.0635 42.2423 26.1481C42.1708 26.2326 42.1166 26.3305 42.0831 26.4361C42.0495 26.5417 42.0371 26.6529 42.0467 26.7633C42.0555 26.8707 42.0855 26.9753 42.1349 27.071C42.1843 27.1668 42.2522 27.2518 42.3346 27.3212C42.417 27.3906 42.5124 27.443 42.6151 27.4754C42.7179 27.5078 42.8261 27.5196 42.9334 27.51C43.9367 27.51 44.8934 27.8133 45.8967 27.8833C46.5644 27.9409 47.2357 27.9409 47.9034 27.8833C49.0609 27.7479 50.2072 27.5295 51.3334 27.23C51.5273 27.2179 51.7089 27.1308 51.8396 26.987C51.9703 26.8432 52.0398 26.6542 52.0334 26.46C52.0275 26.3619 52.0022 26.2659 51.9591 26.1775C51.916 26.0892 51.8558 26.0103 51.7821 25.9452C51.7084 25.8802 51.6226 25.8303 51.5296 25.7986C51.4365 25.7668 51.3382 25.7537 51.2401 25.76C50.2134 25.6666 49.3034 25.34 48.3001 25.2233Z" fill="#302D2D"/>
</g>
<defs>
<clipPath id="clip0_3603_292">
<rect width="56" height="56" fill="white"/>
</clipPath>
</defs>
</svg>
