<svg width="56" height="56" viewBox="0 0 56 56" fill="none" xmlns="http://www.w3.org/2000/svg">
<g clip-path="url(#clip0_3603_283)">
<path fill-rule="evenodd" clip-rule="evenodd" d="M52.3133 4.05999C52.9052 3.72525 53.4472 3.30895 53.9233 2.82333C54.4133 2.33333 54.7399 1.72666 55.0666 1.37666C55.2148 1.22796 55.298 1.02659 55.298 0.816661C55.298 0.606731 55.2148 0.40536 55.0666 0.256661C54.9179 0.108475 54.7165 0.0252686 54.5066 0.0252686C54.2967 0.0252686 54.0953 0.108475 53.9466 0.256661C53.4108 0.646552 52.918 1.0924 52.4766 1.58666C52.0333 2.07666 51.7299 2.68333 51.4033 3.03333C51.2785 3.15283 51.2023 3.31427 51.1893 3.48657C51.1764 3.65888 51.2277 3.82988 51.3333 3.96666C51.3899 4.03941 51.4608 4.09983 51.5416 4.1442C51.6223 4.18857 51.7114 4.21597 51.8031 4.22471C51.8949 4.23345 51.9875 4.22335 52.0752 4.19502C52.1629 4.1667 52.2439 4.12075 52.3133 4.05999Z" fill="#302D2D"/>
<path fill-rule="evenodd" clip-rule="evenodd" d="M53.41 8.37663C52.7452 7.95643 51.9796 7.72272 51.1934 7.69996C51.011 7.67312 50.8253 7.71933 50.6768 7.82855C50.5283 7.93777 50.4288 8.10118 50.4 8.2833C50.3732 8.46571 50.4194 8.65134 50.5286 8.79988C50.6378 8.94842 50.8013 9.04787 50.9834 9.07663C51.1755 9.14196 51.3565 9.23639 51.52 9.35663C51.8243 9.55179 52.1129 9.77023 52.3834 10.01C52.8734 10.36 53.41 10.6633 53.83 10.99C53.9017 11.0626 53.987 11.1203 54.0812 11.1597C54.1753 11.1991 54.2763 11.2194 54.3784 11.2194C54.4804 11.2194 54.5814 11.1991 54.6756 11.1597C54.7697 11.1203 54.8551 11.0626 54.9267 10.99C55.0749 10.8413 55.1581 10.6399 55.1581 10.43C55.1581 10.22 55.0749 10.0187 54.9267 9.86997C54.5002 9.29779 53.9888 8.79419 53.41 8.37663Z" fill="#302D2D"/>
<path fill-rule="evenodd" clip-rule="evenodd" d="M43.61 10.8267C44.03 10.43 44.5433 10.1267 44.9866 9.72999C45.43 9.33332 45.78 8.88999 46.2466 8.51665C46.3255 8.47299 46.3949 8.41399 46.4507 8.34313C46.5065 8.27227 46.5475 8.19097 46.5714 8.10402C46.5954 8.01707 46.6017 7.92621 46.59 7.83679C46.5782 7.74737 46.5488 7.66119 46.5033 7.58332C46.4064 7.42687 46.2535 7.31324 46.0758 7.26555C45.8981 7.21787 45.7088 7.23972 45.5466 7.32665C44.9073 7.55284 44.3026 7.86697 43.75 8.25999C43.2542 8.70164 42.8152 9.20327 42.4433 9.75332C42.2951 9.90202 42.2119 10.1034 42.2119 10.3133C42.2119 10.5233 42.2951 10.7246 42.4433 10.8733C42.5224 10.948 42.6156 11.0061 42.7175 11.0442C42.8193 11.0823 42.9278 11.0997 43.0365 11.0954C43.1451 11.091 43.2518 11.065 43.3503 11.0189C43.4488 10.9727 43.5371 10.9074 43.61 10.8267Z" fill="#302D2D"/>
<path fill-rule="evenodd" clip-rule="evenodd" d="M44.7067 2.56669C45.0567 2.96336 45.5 3.26669 45.7334 3.54669C45.7793 3.62639 45.8405 3.69627 45.9134 3.75231C45.9864 3.80836 46.0696 3.84947 46.1585 3.87331C46.2473 3.89715 46.34 3.90324 46.4312 3.89123C46.5224 3.87923 46.6104 3.84937 46.69 3.80335C46.8471 3.70676 46.9597 3.55211 47.0033 3.37299C47.047 3.19387 47.0183 3.00474 46.9234 2.84669C46.7524 2.302 46.4922 1.78947 46.1534 1.33002C45.7751 0.882768 45.316 0.510733 44.8 0.233355C44.7166 0.171395 44.6214 0.126974 44.5203 0.10277C44.4192 0.0785658 44.3143 0.0750797 44.2118 0.0925217C44.1094 0.109964 44.0115 0.147973 43.9241 0.204258C43.8367 0.260543 43.7616 0.333938 43.7034 0.420022C43.582 0.587945 43.5311 0.796689 43.5616 1.00163C43.5922 1.20656 43.7016 1.39142 43.8667 1.51669C44.1234 1.75002 44.3334 2.19336 44.7067 2.56669Z" fill="#302D2D"/>
<path fill-rule="evenodd" clip-rule="evenodd" d="M50.1667 23.3333V18.0833V13.1133C50.1667 13.0214 50.1485 12.9304 50.1134 12.8455C50.0782 12.7605 50.0266 12.6834 49.9616 12.6184C49.8966 12.5534 49.8195 12.5018 49.7345 12.4666C49.6496 12.4314 49.5586 12.4133 49.4667 12.4133C49.3747 12.4133 49.2837 12.4314 49.1988 12.4666C49.1138 12.5018 49.0367 12.5534 48.9717 12.6184C48.9067 12.6834 48.8551 12.7605 48.8199 12.8455C48.7848 12.9304 48.7667 13.0214 48.7667 13.1133L48.6033 17.8967C48.44 20.23 48.3467 22.5633 48.2767 24.8967C48.16 28.35 48.09 31.7333 47.9733 35.4433C47.9733 38.08 47.8333 40.7867 47.6933 43.4933C47.5767 45.2667 47.4367 47.04 47.2033 48.7667C47.1616 49.2389 47.0115 49.6951 46.7646 50.0999C46.5178 50.5046 46.1808 50.8468 45.78 51.1C44.1414 51.8373 42.3458 52.1579 40.5533 52.0333L27.4167 52.2667C26.1567 52.2667 23.87 52.3833 21.8867 52.2667C20.8398 52.3274 19.7968 52.0929 18.8767 51.59C18.3765 51.1017 18.0143 50.49 17.8267 49.8167C17.5951 48.9539 17.4466 48.071 17.3833 47.18C19.335 46.2109 21.1543 44.9954 22.7967 43.5633C24.0486 42.5842 24.8825 41.1666 25.13 39.5967C25.3158 38.4054 25.0915 37.1862 24.4938 36.1391C23.896 35.092 22.9603 34.279 21.84 33.8333C20.7313 33.4841 19.542 33.4841 18.4333 33.8333V27.09C18.4333 23.6833 18.7833 20.09 18.9467 17.22C19.11 14.35 19.2033 11.62 19.2267 10.6167C19.2193 9.78747 19.2896 8.95941 19.4367 8.14333C19.5238 7.5245 19.8105 6.95101 20.2533 6.51C20.7802 6.10047 21.3829 5.79914 22.0267 5.62333C22.0267 5.62333 22.0267 5.85667 22.0267 5.99667C22.1433 6.65 22.3767 7.39667 22.4467 7.93333C22.6423 8.8202 22.9398 9.68147 23.3333 10.5C23.6685 11.3207 24.0909 12.103 24.5933 12.8333C24.8432 13.1142 25.18 13.3032 25.55 13.37C26.4949 13.5548 27.4576 13.6331 28.42 13.6033H31.15C32.6667 13.6033 34.16 13.3 35.21 13.1367C36.26 12.9733 36.9133 12.88 37.7767 12.81C38.3201 12.764 38.8665 12.764 39.41 12.81C39.5112 12.823 39.614 12.8158 39.7125 12.7887C39.8109 12.7617 39.9029 12.7153 39.9833 12.6523C40.0636 12.5894 40.1306 12.5111 40.1804 12.422C40.2302 12.3329 40.2618 12.2347 40.2733 12.1333C40.3085 12.0261 40.3203 11.9125 40.3081 11.8003C40.2959 11.6881 40.2599 11.5798 40.2025 11.4826C40.145 11.3855 40.0675 11.3017 39.9751 11.2368C39.8827 11.172 39.7776 11.1276 39.6667 11.1067C39.0481 11.0165 38.4248 10.962 37.8 10.9433H35.0933H30.8467C25.5967 10.9433 26.6233 11.5267 25.3633 9.47333C24.9682 8.87747 24.6322 8.24447 24.36 7.58333C24.22 7.04667 23.8467 6.34667 23.6367 5.67C23.6161 5.53858 23.6161 5.40476 23.6367 5.27333C25.1749 4.97953 26.7373 4.83109 28.3033 4.83L36.96 4.66667L40.8567 4.50333C41.0671 4.50333 41.2688 4.41975 41.4176 4.27097C41.5664 4.12219 41.65 3.92041 41.65 3.71C41.65 3.4996 41.5664 3.29781 41.4176 3.14903C41.2688 3.00025 41.0671 2.91667 40.8567 2.91667H36.9367L28.35 2.73C26.4236 2.61973 24.4909 2.72145 22.5867 3.03333C21.1646 3.24386 19.8174 3.80519 18.6667 4.66667C17.931 5.27706 17.388 6.08751 17.1033 7C16.7894 8.17934 16.6402 9.39643 16.66 10.6167V22.4V23.24C14.4376 23.1392 12.2228 23.5643 10.1956 24.4806C8.16843 25.3969 6.38604 26.7786 4.99332 28.5133C3.44442 30.2768 2.26251 32.3312 1.51665 34.5567C0.780516 36.812 0.518368 39.1952 0.746652 41.5567C0.987463 43.9912 1.42444 46.4024 2.05332 48.7667C2.68771 51.1066 3.56353 53.3744 4.66665 55.5333C4.70951 55.6284 4.77068 55.714 4.84666 55.7854C4.92264 55.8567 5.01194 55.9124 5.10945 55.9493C5.20696 55.9861 5.31078 56.0034 5.41497 56.0001C5.51916 55.9967 5.62167 55.9729 5.71665 55.93C5.90441 55.8392 6.04885 55.6781 6.11872 55.4816C6.18859 55.2851 6.17827 55.069 6.08999 54.88C5.20644 52.7297 4.54956 50.4932 4.12999 48.2067C3.67929 45.8982 3.414 43.5574 3.33665 41.2067C3.24454 39.2055 3.52137 37.2044 4.15332 35.3033C4.74494 33.3767 5.66885 31.5684 6.88332 29.96C8.00005 28.369 9.47036 27.0585 11.1788 26.1314C12.8873 25.2043 14.7874 24.6858 16.73 24.6167C16.73 27.9767 16.9167 31.36 17.15 34.1833V34.3233C15.7078 35.0698 14.4853 36.1797 13.6033 37.5433C13.5497 37.6184 13.5114 37.7033 13.4906 37.7932C13.4698 37.8831 13.4669 37.9762 13.482 38.0672C13.4972 38.1582 13.5301 38.2453 13.579 38.3236C13.6278 38.4018 13.6916 38.4697 13.7667 38.5233C13.8417 38.577 13.9266 38.6153 14.0165 38.6361C14.1064 38.6569 14.1995 38.6598 14.2905 38.6446C14.3815 38.6295 14.4686 38.5965 14.5469 38.5477C14.6251 38.4988 14.693 38.4351 14.7467 38.36C15.3499 37.5069 16.1463 36.8086 17.0709 36.322C17.9954 35.8354 19.0219 35.5743 20.0667 35.56C21.6767 35.56 22.7267 36.96 22.4 39.4567C22.4 40.53 21.28 41.4867 20.0667 42.4433C18.1682 43.9141 16.1725 45.2549 14.0933 46.4567C13.5542 46.9652 13.1535 47.6026 12.929 48.3088C12.7044 49.0151 12.6635 49.7669 12.81 50.4933C12.9458 52.3672 13.72 54.1379 15.0033 55.51C15.0815 55.5789 15.1724 55.6318 15.271 55.6656C15.3696 55.6994 15.4738 55.7135 15.5778 55.707C15.6818 55.7005 15.7835 55.6735 15.8771 55.6277C15.9707 55.5819 16.0544 55.5181 16.1233 55.44C16.1923 55.3619 16.2451 55.2709 16.2789 55.1723C16.3127 55.0738 16.3268 54.9695 16.3203 54.8655C16.3138 54.7615 16.2869 54.6598 16.2411 54.5662C16.1952 54.4726 16.1315 54.3889 16.0533 54.32C15.3119 53.393 14.8721 52.2611 14.7933 51.0767C14.661 50.3908 14.661 49.6859 14.7933 49C14.7933 48.6967 14.9333 48.4633 15.1433 48.3467L15.68 48.0667C15.7245 48.8536 15.8417 49.6347 16.03 50.4C16.2769 51.3752 16.7758 52.2684 17.4767 52.99C18.3738 53.6792 19.452 54.0927 20.58 54.18C22.782 54.3998 24.9937 54.5088 27.2067 54.5067C29.0733 54.5067 31.2433 54.6467 33.8333 54.6933H40.4367C42.6933 54.8305 44.9482 54.3972 46.9933 53.4333C47.7446 52.9824 48.379 52.3609 48.8452 51.619C49.3114 50.8771 49.5963 50.0358 49.6767 49.1633C49.91 47.3667 50.0733 45.5233 50.1433 43.68C50.26 40.9267 50.1433 38.1733 50.1433 35.5133C50.33 31.22 50.19 27.3 50.1667 23.3333Z" fill="#302D2D"/>
<path fill-rule="evenodd" clip-rule="evenodd" d="M40.7633 31.1966C41.5125 29.4555 41.8095 27.5533 41.6267 25.6666C41.5236 24.358 41.0546 23.1048 40.2733 22.05C39.9023 21.6359 39.4694 21.2817 38.99 21C38.2705 20.5543 37.482 20.231 36.6567 20.0433C36.1119 19.8876 35.5588 19.7629 35 19.67C34.5807 19.6352 34.1593 19.6352 33.74 19.67C32.9623 19.5049 32.1538 19.5615 31.4067 19.8333C29.8908 20.4145 28.5266 21.332 27.4167 22.5166C26.3173 23.7517 25.5893 25.2724 25.3167 26.9033C25.0048 28.5393 25.1255 30.2283 25.6667 31.8033C26.1925 33.0961 27.0846 34.2072 28.2333 35C28.9579 35.4522 29.7437 35.798 30.5667 36.0266C29.75 36.3766 28.91 36.75 28.3967 37.03C28.312 37.0678 28.2356 37.122 28.1721 37.1895C28.1085 37.2571 28.059 37.3366 28.0265 37.4234C27.9939 37.5103 27.9789 37.6027 27.9824 37.6954C27.9858 37.7881 28.0077 37.8791 28.0467 37.9633C28.1231 38.1285 28.2608 38.2574 28.4307 38.3228C28.6006 38.3881 28.7892 38.3847 28.9567 38.3133C29.4233 38.15 30.17 37.94 30.94 37.7533C31.5766 37.597 32.224 37.4878 32.8767 37.4266C33.5776 37.3052 34.2911 37.2739 35 37.3333C35.7045 37.4281 36.3993 37.5842 37.0767 37.8C38.5405 38.2374 39.9436 38.8566 41.2533 39.6433C41.8359 39.9577 42.3835 40.3331 42.8867 40.7633C43.3994 41.1515 43.8414 41.6251 44.1933 42.1633C44.2927 42.3486 44.4598 42.4884 44.6598 42.5536C44.8597 42.6188 45.0771 42.6044 45.2667 42.5133C45.4523 42.4143 45.591 42.2456 45.6523 42.0443C45.7135 41.843 45.6923 41.6256 45.5933 41.44C45.2469 40.6935 44.782 40.008 44.2167 39.41C43.6676 38.8215 43.0748 38.2755 42.4433 37.7766C41.0603 36.7153 39.5268 35.8659 37.8933 35.2566L37.1933 35.07C38.771 34.199 40.0236 32.8399 40.7633 31.1966ZM27.8367 30.7533C27.3643 29.6102 27.2033 28.3622 27.37 27.1366C27.4657 25.8841 27.9193 24.6855 28.6767 23.6833C31.01 20.86 32.5733 20.51 36.26 21.7C36.7681 21.8552 37.2543 22.0747 37.7067 22.3533C38.1139 22.6043 38.4637 22.9382 38.7333 23.3333C39.3591 24.3181 39.6307 25.4868 39.5033 26.6466C39.4482 27.8716 39.1383 29.0715 38.5933 30.17C38.0206 31.3131 37.1076 32.2506 35.98 32.8533C34.8591 33.4576 33.5847 33.7174 32.3167 33.6C31.3656 33.5177 30.4506 33.1967 29.6567 32.6666C28.8688 32.2297 28.2336 31.562 27.8367 30.7533Z" fill="#302D2D"/>
</g>
<defs>
<clipPath id="clip0_3603_283">
<rect width="56" height="56" fill="white"/>
</clipPath>
</defs>
</svg>
