<svg width="56" height="56" viewBox="0 0 56 56" fill="none" xmlns="http://www.w3.org/2000/svg">
<g clip-path="url(#clip0_3603_324)">
<path fill-rule="evenodd" clip-rule="evenodd" d="M15.7267 19.7167C15.6371 19.6574 15.5364 19.6169 15.4307 19.5977C15.325 19.5785 15.2164 19.581 15.1117 19.605C15.007 19.629 14.9082 19.674 14.8214 19.7374C14.7346 19.8007 14.6616 19.881 14.6067 19.9734C13.2534 21.8867 11.5967 24.15 10.1501 26.0867C9.28672 27.2767 8.51672 28.42 7.95672 29.0034C6.11339 27.37 2.47339 23.5667 1.23672 22.54C1.16949 22.4723 1.08951 22.4185 1.00141 22.3819C0.913309 22.3452 0.81882 22.3263 0.723387 22.3263C0.627954 22.3263 0.533464 22.3452 0.445363 22.3819C0.357261 22.4185 0.277288 22.4723 0.210053 22.54C0.139373 22.6056 0.0829869 22.685 0.0444263 22.7733C0.00586567 22.8616 -0.0140381 22.957 -0.0140381 23.0534C-0.0140381 23.1497 0.00586567 23.2451 0.0444263 23.3334C0.0829869 23.4218 0.139373 23.5012 0.210053 23.5667C1.35339 24.8267 4.62005 29.5167 6.27672 31.1734C6.64431 31.5855 7.10972 31.8984 7.63005 32.0834C7.83853 32.1451 8.0584 32.1583 8.27277 32.1219C8.48714 32.0855 8.69032 32.0005 8.86672 31.8734C9.96494 30.9374 10.9097 29.8351 11.6667 28.6067C13.1134 26.2734 14.7467 23.2867 16.0767 20.8367C16.1291 20.7406 16.1616 20.6349 16.1723 20.5259C16.1829 20.417 16.1716 20.307 16.139 20.2025C16.1063 20.0981 16.053 20.0012 15.9822 19.9178C15.9114 19.8343 15.8245 19.7659 15.7267 19.7167Z" fill="#302D2D"/>
<path fill-rule="evenodd" clip-rule="evenodd" d="M49.7234 10.57C47.1259 7.49713 43.7937 5.13073 40.0366 3.6907C36.2795 2.25068 32.2193 1.78376 28.2334 2.33333C22.7046 3.02322 17.5021 5.32825 13.2767 8.96C11.097 10.7052 9.33653 12.9172 8.12506 15.433C6.91359 17.9488 6.28197 20.7044 6.27673 23.4967C6.30759 23.6692 6.39812 23.8253 6.53249 23.9378C6.66686 24.0502 6.83651 24.1119 7.01173 24.1119C7.18696 24.1119 7.3566 24.0502 7.49097 23.9378C7.62534 23.8253 7.71588 23.6692 7.74673 23.4967C7.82793 20.955 8.47796 18.4639 9.64899 16.2066C10.82 13.9494 12.4823 11.9834 14.5134 10.4533C18.5213 7.24295 23.3958 5.30126 28.5134 4.87667C32.0634 4.43802 35.6667 4.89342 38.996 6.20148C42.3252 7.50954 45.2748 9.62879 47.5767 12.3667C49.8787 15.1325 51.5663 18.3561 52.5277 21.8237C53.4892 25.2913 53.7024 28.9237 53.1534 32.48C52.3471 37.3522 50.0859 41.8666 46.6667 45.43C43.2282 49.0158 38.6992 51.3623 33.7867 52.1033C33.5701 52.1343 33.3747 52.25 33.2434 52.425C33.1122 52.6001 33.0558 52.8201 33.0867 53.0367C33.1177 53.2533 33.2334 53.4487 33.4084 53.58C33.5835 53.7112 33.8035 53.7676 34.0201 53.7367C39.3261 52.9953 44.2433 50.5366 48.0201 46.7367C51.8424 42.9237 54.4211 38.043 55.4167 32.7367C56.0975 28.8495 55.9418 24.8618 54.9601 21.0395C53.9783 17.2172 52.1931 13.648 49.7234 10.57Z" fill="#302D2D"/>
<path fill-rule="evenodd" clip-rule="evenodd" d="M36.0268 30.1933C38.2075 30.1654 40.3833 29.9783 42.5368 29.6333C42.6445 29.6191 42.7482 29.5834 42.842 29.5286C42.9358 29.4737 43.0177 29.4006 43.0829 29.3137C43.148 29.2268 43.1952 29.1278 43.2217 29.0224C43.2481 28.917 43.2532 28.8074 43.2368 28.7C43.2254 28.5933 43.1925 28.4899 43.14 28.3963C43.0876 28.3027 43.0167 28.2206 42.9316 28.1552C42.8465 28.0898 42.749 28.0423 42.6451 28.0156C42.5411 27.9889 42.4328 27.9836 42.3268 28C40.664 28.1049 38.9962 28.1049 37.3334 28C35.0678 27.8898 32.8093 27.664 30.5668 27.3233C30.5061 27.2127 30.4591 27.0952 30.4268 26.9733C30.2329 25.6673 30.1238 24.3501 30.1001 23.03C29.9845 19.7927 30.0624 16.5513 30.3334 13.3233C30.3606 13.132 30.3126 12.9376 30.1995 12.781C30.0864 12.6243 29.9169 12.5176 29.7268 12.4833C29.5382 12.4565 29.3466 12.5052 29.1937 12.6188C29.0408 12.7324 28.9389 12.9017 28.9101 13.09C28.169 16.4054 27.7085 19.7773 27.5334 23.17C27.4859 24.0404 27.4859 24.9129 27.5334 25.7833C27.5155 26.7755 27.6735 27.763 28.0001 28.7C28.112 28.9918 28.2905 29.2535 28.5214 29.4642C28.7523 29.6748 29.0292 29.8286 29.3301 29.9133C31.5533 30.159 33.7908 30.2525 36.0268 30.1933Z" fill="#302D2D"/>
</g>
<defs>
<clipPath id="clip0_3603_324">
<rect width="56" height="56" fill="white"/>
</clipPath>
</defs>
</svg>
