<svg width="56" height="56" viewBox="0 0 56 56" fill="none" xmlns="http://www.w3.org/2000/svg">
<g clip-path="url(#clip0_3603_305)">
<path d="M47.6466 7.56001C39.8766 0.583347 28.21 -0.699987 19.7866 0.630013C15.442 1.42487 11.4122 3.43652 8.16562 6.43112C4.91907 9.42571 2.58913 13.2803 1.44663 17.5467C-1.15589 25.8969 -0.385327 34.9342 3.5933 42.7233C8.5633 52.0567 21.1866 56.8633 32.8533 55.65C61.46 52.6633 60.0833 18.6667 47.6466 7.56001ZM48.7433 46.1533C48.16 47.1333 47.39 47.46 46.2933 48.4867C42.3518 51.5024 37.6161 53.3026 32.6666 53.6667C31.9666 53.6667 19.1333 54.9267 10.1733 46.9467C9.42108 46.4234 8.77894 45.7574 8.2833 44.9867C7.40866 43.9371 6.62788 42.8128 5.94997 41.6267C2.3461 34.4461 1.67667 26.1453 4.0833 18.48C5.41916 14.022 8.00175 10.0388 11.5266 7.00001C14.0492 5.00107 17.0341 3.66906 20.2066 3.12668C23.3222 2.55121 26.5023 2.40987 29.6566 2.70668C29.6566 2.70668 41.3233 5.04001 45.2666 8.44668C48.631 11.3947 51.1312 15.2014 52.5 19.46C53.4845 22.8233 54.1179 26.2795 54.39 29.7733C54.6326 35.7489 52.6166 41.5967 48.7433 46.1533Z" fill="#302D2D"/>
<path d="M29.5633 6.30003C29.5633 6.30003 29.4233 10.3834 28.3267 10.3834C27.9767 10.3834 27.6967 10.1967 27.3933 9.80003C27.1487 9.19394 26.984 8.55861 26.9033 7.91003C26.8613 7.18265 26.9162 6.45291 27.0667 5.74003C27.3 5.06336 27.6967 4.76003 28.0467 4.76003C29.5633 4.66669 29.5167 5.81003 29.5633 6.30003Z" fill="#302D2D"/>
<path d="M10.15 27.2067C10.3789 27.2067 10.5985 27.2977 10.7604 27.4596C10.9224 27.6215 11.0133 27.8411 11.0133 28.0701C11.0076 28.3737 10.886 28.6636 10.6734 28.8805C10.4609 29.0974 10.1734 29.2249 9.86998 29.2367C9.22716 29.3208 8.57613 29.3208 7.93331 29.2367C7.25664 29.2367 6.60331 29.0267 5.90331 29.0267L4.94664 28.8167C4.71274 28.6073 4.55744 28.3242 4.50652 28.0144C4.45559 27.7046 4.51209 27.3867 4.66664 27.1134C5.31998 26.2501 9.05331 27.0201 10.15 27.2067Z" fill="#302D2D"/>
<path d="M18.9933 9.33335C19.2499 9.82335 19.4133 10.3134 19.5999 10.7334C19.6886 10.9153 19.7665 11.1023 19.8333 11.2934C19.9358 11.4953 19.984 11.7205 19.9733 11.9467C19.9733 12.0621 19.9502 12.1763 19.9054 12.2825C19.8606 12.3888 19.7949 12.4851 19.7122 12.5656C19.6296 12.646 19.5316 12.7091 19.4242 12.7511C19.3167 12.7931 19.2019 12.8131 19.0866 12.81C18.512 12.7718 17.9718 12.5225 17.5699 12.11C17.2672 11.8035 16.9865 11.4761 16.7299 11.13C16.4858 10.7924 16.2599 10.4419 16.0533 10.08C15.8838 9.76812 15.7281 9.44893 15.5866 9.12335C15.5404 9.01245 15.5166 8.8935 15.5166 8.77335C15.5166 8.65321 15.5404 8.53425 15.5866 8.42335C15.7966 7.37335 16.4266 7.04669 17.6399 7.53669C17.8966 7.77002 17.9433 7.70002 18.1766 7.98002C18.499 8.39885 18.773 8.85285 18.9933 9.33335Z" fill="#302D2D"/>
<path d="M11.6666 16.6367C12.1099 16.94 12.9733 17.7333 13.3466 18.06C13.5727 18.2084 13.751 18.4191 13.8599 18.6667C13.9157 18.767 13.9503 18.8777 13.9616 18.9919C13.973 19.1061 13.9608 19.2215 13.9258 19.3308C13.8908 19.4401 13.8338 19.5411 13.7582 19.6276C13.6827 19.714 13.5903 19.784 13.4866 19.8333C12.5021 20.0069 11.4878 19.8596 10.5933 19.4133C10.2159 19.1938 9.857 18.9441 9.51993 18.6667C9.33327 18.6667 8.9366 18.34 8.6566 18.13C8.55409 18.0651 8.46599 17.9798 8.39776 17.8795C8.32953 17.7791 8.28262 17.6659 8.25993 17.5467C7.9566 16.5433 8.25993 15.9367 9.6366 15.75C9.9866 15.75 9.9866 15.75 10.3366 15.89C10.8025 16.0964 11.2478 16.3464 11.6666 16.6367Z" fill="#302D2D"/>
<path d="M29.8433 49.8867C29.8433 49.8867 29.7033 45.78 28.6066 45.78C28.2566 45.78 27.9766 45.9667 27.6733 46.3634C27.4207 46.9668 27.2557 47.6032 27.1833 48.2534C27.1404 48.9807 27.1954 49.7106 27.3466 50.4234C27.58 51.1 27.9533 51.4034 28.3266 51.4034C29.8433 51.3334 29.7966 50.3534 29.8433 49.8867Z" fill="#302D2D"/>
<path d="M18.6667 46.8533C18.9234 46.3633 19.0867 45.8733 19.2734 45.4533C19.3815 45.2808 19.4604 45.0916 19.5067 44.8933C19.5757 44.715 19.6075 44.5244 19.6 44.3333C19.6107 44.2081 19.5938 44.082 19.5507 43.964C19.5076 43.8459 19.4392 43.7387 19.3503 43.6498C19.2614 43.5609 19.1542 43.4925 19.0361 43.4493C18.918 43.4062 18.7919 43.3894 18.6667 43.4C18.0914 43.4155 17.5459 43.6589 17.15 44.0767C16.8331 44.3765 16.5441 44.7045 16.2867 45.0567C16.0502 45.3947 15.8321 45.7452 15.6334 46.1067C15.4467 46.4333 15.3067 46.76 15.1434 47.0867C15.0972 47.1976 15.0734 47.3165 15.0734 47.4367C15.0734 47.5568 15.0972 47.6758 15.1434 47.7867C15.3767 48.8133 15.9834 49.14 17.1967 48.65C17.4534 48.4167 17.5 48.4867 17.7334 48.2067C18.0966 47.7938 18.4098 47.3395 18.6667 46.8533Z" fill="#302D2D"/>
<path d="M11.34 39.5267C11.9296 39.0883 12.4907 38.6129 13.02 38.1034C13.2067 37.9799 13.3591 37.8114 13.4633 37.6134C13.523 37.5121 13.5608 37.3994 13.5742 37.2826C13.5876 37.1658 13.5764 37.0475 13.5412 36.9354C13.506 36.8232 13.4477 36.7197 13.3699 36.6315C13.2922 36.5433 13.1969 36.4724 13.09 36.4234C12.113 36.2549 11.1078 36.4021 10.22 36.8434C9.8456 37.0055 9.4864 37.2007 9.14668 37.4267L8.26001 38.0334C8.1599 38.0985 8.07481 38.1842 8.01043 38.2848C7.94605 38.3853 7.90387 38.4985 7.88668 38.6167C7.58335 39.62 7.88668 40.2267 9.24001 40.4134C9.59001 40.4134 9.59001 40.4134 9.94001 40.2734C10.4324 40.0761 10.9018 39.8257 11.34 39.5267Z" fill="#302D2D"/>
<path d="M46.1066 27.2067C45.8777 27.2067 45.6581 27.2977 45.4962 27.4596C45.3342 27.6215 45.2433 27.8411 45.2433 28.0701C45.249 28.3737 45.3706 28.6636 45.5832 28.8805C45.7957 29.0974 46.0832 29.2249 46.3866 29.2367C47.0294 29.3208 47.6805 29.3208 48.3233 29.2367C49 29.2367 49.6533 29.0267 50.3533 29.0267L51.31 28.8167C51.5271 28.5995 51.6639 28.3148 51.6978 28.0094C51.7318 27.7041 51.6608 27.3964 51.4966 27.1367C50.9366 26.2501 47.2266 27.0201 46.1066 27.2067Z" fill="#302D2D"/>
<path d="M37.7533 9.33335C37.4967 9.82335 37.3333 10.3134 37.1467 10.7334C37.058 10.9153 36.98 11.1023 36.9133 11.2934C36.8108 11.4953 36.7626 11.7205 36.7733 11.9467C36.7733 12.0621 36.7964 12.1763 36.8412 12.2825C36.886 12.3888 36.9517 12.4851 37.0344 12.5656C37.117 12.646 37.215 12.7091 37.3224 12.7511C37.4299 12.7931 37.5447 12.8131 37.66 12.81C38.2346 12.7718 38.7748 12.5225 39.1767 12.11C39.4794 11.8035 39.7601 11.4761 40.0167 11.13C40.2608 10.7924 40.4867 10.4419 40.6933 10.08C40.8567 9.77669 41.02 9.45002 41.16 9.12335C41.2062 9.01245 41.23 8.8935 41.23 8.77335C41.23 8.65321 41.2062 8.53425 41.16 8.42335C40.95 7.37335 40.32 7.04669 39.1067 7.53669C38.85 7.77002 38.8033 7.70002 38.57 7.98002C38.2475 8.39885 37.9736 8.85285 37.7533 9.33335Z" fill="#302D2D"/>
<path d="M45.01 16.6367C44.5667 16.9401 43.7034 17.7334 43.33 18.0601C43.1424 18.1922 42.9902 18.3685 42.8867 18.5734C42.8309 18.6737 42.7963 18.7844 42.785 18.8986C42.7737 19.0129 42.7859 19.1282 42.8208 19.2375C42.8558 19.3469 42.9128 19.4478 42.9884 19.5343C43.0639 19.6207 43.1564 19.6907 43.26 19.7401C44.2446 19.9136 45.2588 19.7663 46.1534 19.3201C46.5275 19.1304 46.8864 18.912 47.2267 18.6667C47.53 18.4801 47.81 18.2701 48.09 18.0601C48.1925 17.9951 48.2806 17.9099 48.3489 17.8095C48.4171 17.7092 48.464 17.5959 48.4867 17.4767C48.79 16.4734 48.4867 15.8667 47.11 15.6801C46.76 15.6801 46.76 15.6801 46.41 15.8201C45.9171 16.0446 45.4481 16.3182 45.01 16.6367Z" fill="#302D2D"/>
<path d="M39.2933 46.0834C39.0366 45.5934 38.8733 45.1034 38.6866 44.6834C38.5879 44.5061 38.5097 44.3182 38.4533 44.1234C38.3398 43.9254 38.2909 43.6971 38.3133 43.47C38.3133 43.3566 38.3356 43.2444 38.379 43.1396C38.4224 43.0349 38.486 42.9397 38.5662 42.8596C38.6463 42.7794 38.7415 42.7158 38.8462 42.6724C38.951 42.629 39.0633 42.6067 39.1766 42.6067C39.7512 42.6449 40.2914 42.8942 40.6933 43.3067C41.0102 43.6065 41.2992 43.9345 41.5566 44.2867C41.8014 44.6192 42.0198 44.9702 42.21 45.3367C42.3966 45.64 42.5366 45.9667 42.7 46.2934C42.7462 46.4043 42.77 46.5232 42.77 46.6434C42.77 46.7635 42.7462 46.8825 42.7 46.9934C42.49 48.0434 41.86 48.37 40.6466 47.88C40.39 47.6467 40.3433 47.7167 40.11 47.4367C39.7875 47.0179 39.5136 46.5639 39.2933 46.0834Z" fill="#302D2D"/>
<path d="M46.2699 38.6634C45.8266 38.36 44.9633 37.5667 44.5899 37.24C44.2166 36.9134 44.1933 36.89 44.1466 36.7267C44.0908 36.6264 44.0562 36.5157 44.0449 36.4015C44.0335 36.2872 44.0458 36.1719 44.0807 36.0626C44.1157 35.9532 44.1727 35.8522 44.2483 35.7658C44.3238 35.6794 44.4163 35.6093 44.5199 35.56C45.5045 35.3865 46.5187 35.5337 47.4133 35.98C47.7804 36.1482 48.1386 36.3351 48.4866 36.54C48.7891 36.729 49.0777 36.9396 49.3499 37.17C49.4524 37.235 49.5405 37.3202 49.6088 37.4206C49.677 37.5209 49.7239 37.6342 49.7466 37.7534C50.0499 38.7567 49.7466 39.3634 48.3699 39.5267C48.0199 39.5267 48.0199 39.5267 47.6699 39.41C47.1843 39.1985 46.7161 38.9488 46.2699 38.6634Z" fill="#302D2D"/>
<path d="M32.2 28.8634C31.4152 27.8447 30.5739 26.871 29.68 25.9467C29.417 25.6786 29.0984 25.4715 28.7466 25.34C27.6838 25.2313 26.6127 25.2313 25.55 25.34C23.52 25.34 20.8833 25.69 18.7366 25.9467C18.6437 25.9465 18.5517 25.9654 18.4664 26.0023C18.3811 26.0392 18.3044 26.0932 18.2409 26.1611C18.1774 26.229 18.1286 26.3092 18.0974 26.3967C18.0663 26.4843 18.0536 26.5773 18.06 26.67C18.077 26.8517 18.16 27.0209 18.2933 27.1456C18.4265 27.2702 18.6009 27.3418 18.7833 27.3467C20.65 27.3467 22.75 27.51 24.57 27.6267C25.8533 27.6267 27.8366 28.0467 27.8833 28L28.3966 28.63C29.0266 29.3067 29.8433 30.2867 30.73 31.3834C32.6433 33.5534 35 36.05 36.4 37.8934C36.4622 37.9784 36.5407 38.0502 36.631 38.1045C36.7213 38.1589 36.8214 38.1947 36.9257 38.2099C37.03 38.2251 37.1362 38.2194 37.2383 38.1931C37.3403 38.1668 37.436 38.1204 37.52 38.0567C37.6042 37.9966 37.6756 37.9202 37.7296 37.8319C37.7837 37.7437 37.8194 37.6454 37.8347 37.5431C37.8499 37.4407 37.8444 37.3363 37.8184 37.2361C37.7924 37.136 37.7464 37.0421 37.6833 36.96C36.4233 34.72 34.1133 31.3134 32.2 28.8634Z" fill="#302D2D"/>
</g>
<defs>
<clipPath id="clip0_3603_305">
<rect width="56" height="56" fill="white"/>
</clipPath>
</defs>
</svg>
