<svg width="2164" height="360" viewBox="0 0 2164 360" fill="none" xmlns="http://www.w3.org/2000/svg">
<rect width="2164" height="360" fill="#F9F5F2"/>
<path d="M248.08 111.921C248.08 147.224 219.461 175.843 184.158 175.843C148.856 175.843 120.237 147.224 120.237 111.921C120.237 76.6185 148.856 48 184.158 48C219.461 48 248.08 76.6185 248.08 111.921Z" fill="#17BEBB"/>
<path d="M248.08 248.079C248.08 283.381 219.461 312 184.158 312C148.856 312 120.237 283.381 120.237 248.079C120.237 212.776 148.856 184.157 184.158 184.157C219.461 184.157 248.08 212.776 248.08 248.079Z" fill="#17BEBB"/>
<path d="M175.843 176.882C175.843 212.185 147.225 240.803 111.922 240.803C76.6195 240.803 48.001 212.185 48.001 176.882C48.001 141.579 76.6195 112.961 111.922 112.961C147.225 112.961 175.843 141.579 175.843 176.882Z" fill="#17BEBB"/>
<path d="M320.316 176.882C320.316 212.185 291.697 240.803 256.395 240.803C221.092 240.803 192.473 212.185 192.473 176.882C192.473 141.579 221.092 112.961 256.395 112.961C291.697 112.961 320.316 141.579 320.316 176.882Z" fill="#17BEBB"/>
<path d="M147.781 158.693H248.08V215.858H147.781V158.693Z" fill="#17BEBB"/>
<path d="M598.746 67.4469C598.746 56.9974 590.22 48.4708 579.801 49.2601C449.654 59.1183 345.863 163.322 336.663 293.64C335.93 304.029 344.443 312.5 354.857 312.5L579.889 312.5C590.304 312.5 598.746 304.057 598.746 293.643V67.4469Z" fill="#F19953"/>
<path d="M936.788 102.661C936.788 132.573 864.529 156.822 775.394 156.822C686.258 156.822 614 132.573 614 102.661C614 72.7486 686.258 48.5 775.394 48.5C864.529 48.5 936.788 72.7486 936.788 102.661Z" fill="#D87DA9"/>
<path d="M936.788 180.5C936.788 210.412 864.529 234.661 775.394 234.661C686.258 234.661 614 210.412 614 180.5C614 150.588 686.258 126.339 775.394 126.339C864.529 126.339 936.788 150.588 936.788 180.5Z" fill="#D87DA9"/>
<path d="M936.788 258.339C936.788 288.251 864.529 312.5 775.394 312.5C686.258 312.5 614 288.251 614 258.339C614 228.427 686.258 204.178 775.394 204.178C864.529 204.178 936.788 228.427 936.788 258.339Z" fill="#D87DA9"/>
<path d="M1236.13 312C1236.31 312 1236.46 311.852 1236.46 311.67C1236.46 233.118 1172.78 169.44 1094.23 169.44C1015.68 169.44 952 233.118 952 311.67C952 311.852 952.148 312 952.33 312H1236.13Z" fill="#FECA45"/>
<path d="M952.33 48C952.148 48 952 48.1476 952 48.33C952 126.881 1015.68 190.56 1094.23 190.56C1172.78 190.56 1236.46 126.881 1236.46 48.33C1236.46 48.1476 1236.31 48 1236.13 48L952.33 48Z" fill="#FECA45"/>
<rect x="1252" y="48" width="264" height="264" rx="132" fill="#9F84BD"/>
<path d="M1759.38 48.551H1608.03V312.342H1759.38V48.551Z" fill="#006E90"/>
<path d="M1836 179.214L1759.49 48.5503L1531.85 181.837L1608.36 312.5L1836 179.214Z" fill="#006E90"/>
<path d="M1531.07 179.028L1607.49 48.5L1836 179.214L1758.71 312.314L1531.07 179.028Z" fill="#006E90"/>
<rect x="1852" y="48" width="264" height="264" rx="18.8571" fill="#2DA131"/>
</svg>
