<?xml version="1.0" encoding="UTF-8" standalone="no"?>
<svg
   width="1440"
   height="682"
   viewBox="0 0 1440 682"
   fill="none"
   version="1.1"
   id="svg30"
   sodipodi:docname="banniere-cta-vers-catalogue-rapport.svg"
   inkscape:version="1.4.3 (0d15f75, 2025-12-25)"
   xmlns:inkscape="http://www.inkscape.org/namespaces/inkscape"
   xmlns:sodipodi="http://sodipodi.sourceforge.net/DTD/sodipodi-0.dtd"
   xmlns="http://www.w3.org/2000/svg"
   xmlns:svg="http://www.w3.org/2000/svg">
  <sodipodi:namedview
     id="namedview30"
     pagecolor="#505050"
     bordercolor="#eeeeee"
     borderopacity="1"
     inkscape:showpageshadow="0"
     inkscape:pageopacity="0"
     inkscape:pagecheckerboard="0"
     inkscape:deskcolor="#505050"
     inkscape:zoom="0.59164223"
     inkscape:cx="598.33457"
     inkscape:cy="536.64188"
     inkscape:window-width="1920"
     inkscape:window-height="1046"
     inkscape:window-x="2869"
     inkscape:window-y="-11"
     inkscape:window-maximized="1"
     inkscape:current-layer="g23" />
  <g
     clip-path="url(#clip0_3565_40219)"
     id="g23">
    <rect
       width="1440"
       height="682"
       fill="white"
       id="rect1"
       style="fill:#f9f5f2;fill-opacity:1" />
    <rect
       x="119.621"
       y="120"
       width="1200"
       height="442"
       rx="32"
       fill="white"
       id="rect19" />
    <path
       d="M350.519 266.016V253.808H338.983V251.792H350.519V239.808H352.703V251.792H364.239V253.808H352.703V266.016H350.519ZM377.009 271.784C374.807 271.784 372.791 271.504 370.961 270.944C369.169 270.347 367.676 269.6 366.481 268.704L368.217 261.256H369.953L370.625 265.008C370.924 266.763 371.633 268.069 372.753 268.928C373.873 269.787 375.292 270.216 377.009 270.216C379.025 270.216 380.705 269.451 382.049 267.92C383.393 266.389 384.065 264.131 384.065 261.144C384.065 258.829 383.524 257.019 382.441 255.712C381.396 254.368 379.772 253.696 377.569 253.696H375.945L376.281 252.128H377.905C379.399 252.128 380.799 251.811 382.105 251.176C383.412 250.504 384.476 249.477 385.297 248.096C386.119 246.715 386.529 244.96 386.529 242.832C386.529 240.517 386.044 238.837 385.073 237.792C384.14 236.709 382.964 236.168 381.545 236.168C378.932 236.168 376.953 237.531 375.609 240.256L373.537 244.456H371.913L373.201 236.224C374.396 235.701 375.74 235.309 377.233 235.048C378.727 234.749 380.22 234.6 381.713 234.6C385.26 234.6 387.967 235.328 389.833 236.784C391.737 238.24 392.689 240.293 392.689 242.944C392.689 245.221 391.812 247.293 390.057 249.16C388.303 250.989 385.745 252.165 382.385 252.688C385.372 253.099 387.556 254.051 388.937 255.544C390.319 257 391.009 258.904 391.009 261.256C391.009 263.421 390.375 265.288 389.105 266.856C387.873 268.424 386.193 269.637 384.065 270.496C381.937 271.355 379.585 271.784 377.009 271.784ZM405.736 271.672C402.563 271.672 400.043 270.645 398.176 268.592C396.309 266.501 395.376 263.477 395.376 259.52C395.376 255.973 395.824 252.707 396.72 249.72C397.616 246.696 398.829 244.064 400.36 241.824C401.928 239.584 403.72 237.848 405.736 236.616C407.752 235.347 409.88 234.712 412.12 234.712C415.293 234.712 417.795 235.739 419.624 237.792C421.491 239.845 422.424 242.925 422.424 247.032C422.424 250.653 421.957 253.976 421.024 257C420.128 259.987 418.896 262.581 417.328 264.784C415.76 266.987 413.968 268.685 411.952 269.88C409.973 271.075 407.901 271.672 405.736 271.672ZM406.072 270.104C407.304 270.104 408.499 269.395 409.656 267.976C410.813 266.557 411.859 264.653 412.792 262.264C413.725 259.875 414.472 257.243 415.032 254.368C415.592 251.493 415.872 248.6 415.872 245.688C415.872 243.224 415.685 241.32 415.312 239.976C414.939 238.595 414.453 237.643 413.856 237.12C413.259 236.597 412.587 236.336 411.84 236.336C410.645 236.336 409.469 236.989 408.312 238.296C407.155 239.603 406.091 241.395 405.12 243.672C404.187 245.912 403.421 248.469 402.824 251.344C402.264 254.219 401.984 257.205 401.984 260.304C401.984 262.917 402.152 264.933 402.488 266.352C402.861 267.733 403.347 268.704 403.944 269.264C404.579 269.824 405.288 270.104 406.072 270.104ZM446.999 271.672C443.826 271.672 441.306 270.645 439.439 268.592C437.572 266.501 436.639 263.477 436.639 259.52C436.639 255.973 437.087 252.707 437.983 249.72C438.879 246.696 440.092 244.064 441.623 241.824C443.191 239.584 444.983 237.848 446.999 236.616C449.015 235.347 451.143 234.712 453.383 234.712C456.556 234.712 459.058 235.739 460.887 237.792C462.754 239.845 463.687 242.925 463.687 247.032C463.687 250.653 463.22 253.976 462.287 257C461.391 259.987 460.159 262.581 458.591 264.784C457.023 266.987 455.231 268.685 453.215 269.88C451.236 271.075 449.164 271.672 446.999 271.672ZM447.335 270.104C448.567 270.104 449.762 269.395 450.919 267.976C452.076 266.557 453.122 264.653 454.055 262.264C454.988 259.875 455.735 257.243 456.295 254.368C456.855 251.493 457.135 248.6 457.135 245.688C457.135 243.224 456.948 241.32 456.575 239.976C456.202 238.595 455.716 237.643 455.119 237.12C454.522 236.597 453.85 236.336 453.103 236.336C451.908 236.336 450.732 236.989 449.575 238.296C448.418 239.603 447.354 241.395 446.383 243.672C445.45 245.912 444.684 248.469 444.087 251.344C443.527 254.219 443.247 257.205 443.247 260.304C443.247 262.917 443.415 264.933 443.751 266.352C444.124 267.733 444.61 268.704 445.207 269.264C445.842 269.824 446.551 270.104 447.335 270.104ZM476.408 271.672C473.234 271.672 470.714 270.645 468.848 268.592C466.981 266.501 466.048 263.477 466.048 259.52C466.048 255.973 466.496 252.707 467.392 249.72C468.288 246.696 469.501 244.064 471.032 241.824C472.6 239.584 474.392 237.848 476.408 236.616C478.424 235.347 480.552 234.712 482.792 234.712C485.965 234.712 488.466 235.739 490.296 237.792C492.162 239.845 493.096 242.925 493.096 247.032C493.096 250.653 492.629 253.976 491.696 257C490.8 259.987 489.568 262.581 488 264.784C486.432 266.987 484.64 268.685 482.624 269.88C480.645 271.075 478.573 271.672 476.408 271.672ZM476.744 270.104C477.976 270.104 479.17 269.395 480.328 267.976C481.485 266.557 482.53 264.653 483.464 262.264C484.397 259.875 485.144 257.243 485.704 254.368C486.264 251.493 486.544 248.6 486.544 245.688C486.544 243.224 486.357 241.32 485.984 239.976C485.61 238.595 485.125 237.643 484.528 237.12C483.93 236.597 483.258 236.336 482.512 236.336C481.317 236.336 480.141 236.989 478.984 238.296C477.826 239.603 476.762 241.395 475.792 243.672C474.858 245.912 474.093 248.469 473.496 251.344C472.936 254.219 472.656 257.205 472.656 260.304C472.656 262.917 472.824 264.933 473.16 266.352C473.533 267.733 474.018 268.704 474.616 269.264C475.25 269.824 475.96 270.104 476.744 270.104ZM505.816 271.672C502.643 271.672 500.123 270.645 498.256 268.592C496.39 266.501 495.456 263.477 495.456 259.52C495.456 255.973 495.904 252.707 496.8 249.72C497.696 246.696 498.91 244.064 500.44 241.824C502.008 239.584 503.8 237.848 505.816 236.616C507.832 235.347 509.96 234.712 512.2 234.712C515.374 234.712 517.875 235.739 519.704 237.792C521.571 239.845 522.504 242.925 522.504 247.032C522.504 250.653 522.038 253.976 521.104 257C520.208 259.987 518.976 262.581 517.408 264.784C515.84 266.987 514.048 268.685 512.032 269.88C510.054 271.075 507.982 271.672 505.816 271.672ZM506.152 270.104C507.384 270.104 508.579 269.395 509.736 267.976C510.894 266.557 511.939 264.653 512.872 262.264C513.806 259.875 514.552 257.243 515.112 254.368C515.672 251.493 515.952 248.6 515.952 245.688C515.952 243.224 515.766 241.32 515.392 239.976C515.019 238.595 514.534 237.643 513.936 237.12C513.339 236.597 512.667 236.336 511.92 236.336C510.726 236.336 509.55 236.989 508.392 238.296C507.235 239.603 506.171 241.395 505.2 243.672C504.267 245.912 503.502 248.469 502.904 251.344C502.344 254.219 502.064 257.205 502.064 260.304C502.064 262.917 502.232 264.933 502.568 266.352C502.942 267.733 503.427 268.704 504.024 269.264C504.659 269.824 505.368 270.104 506.152 270.104ZM546.407 271.784C545.399 271.784 544.447 271.579 543.551 271.168C543.178 272.997 542.842 274.621 542.543 276.04C542.282 277.496 542.039 278.877 541.815 280.184C541.591 281.453 542.095 282.256 543.327 282.592L544.727 282.928L544.503 283.936H531.399L531.623 282.928L532.631 282.704C533.975 282.293 534.778 281.453 535.039 280.184L541.255 250.56C541.517 249.067 540.957 248.04 539.575 247.48L538.679 247.144L538.791 246.136L548.647 243.224L549.319 243.728L548.143 249.552C549.637 247.685 551.335 246.173 553.239 245.016C555.143 243.859 556.898 243.28 558.503 243.28C560.034 243.28 561.341 243.821 562.423 244.904C563.543 245.987 564.103 247.928 564.103 250.728C564.103 252.744 563.749 254.76 563.039 256.776C562.367 258.792 561.434 260.715 560.239 262.544C559.045 264.336 557.682 265.923 556.151 267.304C554.621 268.685 553.015 269.787 551.335 270.608C549.693 271.392 548.05 271.784 546.407 271.784ZM553.911 247.592C553.053 247.592 552.082 247.947 550.999 248.656C549.917 249.328 548.815 250.28 547.695 251.512L544.559 267.024C545.903 268.293 547.285 268.928 548.703 268.928C550.981 268.928 552.885 267.715 554.415 265.288C554.975 264.392 555.479 263.291 555.927 261.984C556.413 260.64 556.786 259.203 557.047 257.672C557.346 256.141 557.495 254.667 557.495 253.248C557.495 251.419 557.197 250.019 556.599 249.048C556.002 248.077 555.106 247.592 553.911 247.592ZM566.433 271.448L565.873 270.944L570.073 250.672C570.26 249.776 570.204 249.085 569.905 248.6C569.606 248.077 569.084 247.685 568.337 247.424L567.553 247.144L567.721 246.192L577.017 243.224L577.689 243.84L576.177 252.632C576.998 250.915 577.932 249.347 578.977 247.928C580.022 246.509 581.105 245.389 582.225 244.568C583.382 243.709 584.521 243.28 585.641 243.28C586.761 243.28 587.657 243.579 588.329 244.176C589.038 244.773 589.393 245.557 589.393 246.528C589.393 247.573 589.094 248.413 588.497 249.048C587.9 249.683 587.097 250 586.089 250C584.521 250 583.065 249.216 581.721 247.648C580.377 248.731 579.22 250.075 578.249 251.68C577.278 253.248 576.364 254.947 575.505 256.776L575.057 259.072C574.684 261.051 574.292 263.029 573.881 265.008C573.508 266.987 573.134 268.984 572.761 271L566.433 271.448ZM598.836 271.784C596.932 271.784 595.196 271.411 593.628 270.664C592.06 269.917 590.809 268.779 589.876 267.248C588.943 265.68 588.476 263.72 588.476 261.368C588.476 258.979 588.868 256.701 589.652 254.536C590.473 252.371 591.593 250.448 593.012 248.768C594.468 247.051 596.148 245.707 598.052 244.736C599.993 243.765 602.065 243.28 604.268 243.28C607.217 243.28 609.663 244.139 611.604 245.856C613.545 247.536 614.516 250.149 614.516 253.696C614.516 256.048 614.105 258.307 613.284 260.472C612.5 262.637 611.399 264.579 609.98 266.296C608.561 267.976 606.9 269.32 604.996 270.328C603.092 271.299 601.039 271.784 598.836 271.784ZM599.508 270.216C600.703 270.216 601.785 269.712 602.756 268.704C603.727 267.659 604.567 266.296 605.276 264.616C605.985 262.936 606.527 261.069 606.9 259.016C607.311 256.925 607.516 254.853 607.516 252.8C607.516 249.851 607.161 247.797 606.452 246.64C605.78 245.483 604.903 244.904 603.82 244.904C602.625 244.904 601.505 245.408 600.46 246.416C599.452 247.387 598.575 248.712 597.828 250.392C597.081 252.072 596.503 253.939 596.092 255.992C595.681 258.008 595.476 260.061 595.476 262.152C595.476 265.176 595.849 267.285 596.596 268.48C597.38 269.637 598.351 270.216 599.508 270.216ZM611.48 284.496C609.987 284.496 608.643 284.16 607.448 283.488C606.216 282.816 605.6 281.845 605.6 280.576C605.6 279.643 605.917 278.896 606.552 278.336C607.149 277.813 607.859 277.552 608.68 277.552C609.539 277.552 610.323 277.776 611.032 278.224C611.741 278.672 612.395 279.419 612.992 280.464L613.384 281.36C613.683 281.808 614 282.032 614.336 282.032C614.672 282.069 614.971 281.864 615.232 281.416C615.381 281.117 615.531 280.8 615.68 280.464C615.829 280.128 615.997 279.717 616.184 279.232C616.707 278 617.173 276.488 617.584 274.696C618.032 272.904 618.443 270.869 618.816 268.592C619.376 264.933 619.917 261.219 620.44 257.448C621 253.677 621.579 249.776 622.176 245.744H617.528L617.752 244.624L620.048 244.344C620.944 244.269 621.616 243.971 622.064 243.448C622.512 242.925 622.867 242.197 623.128 241.264C624.136 238.016 625.76 235.533 628 233.816C630.24 232.099 632.984 231.24 636.232 231.24C638.061 231.24 639.536 231.632 640.656 232.416C641.776 233.163 642.336 234.152 642.336 235.384C642.336 236.317 642.019 237.083 641.384 237.68C640.787 238.24 640.059 238.52 639.2 238.52C637.557 238.52 636.101 237.4 634.832 235.16L634.608 234.544C634.272 233.872 633.88 233.536 633.432 233.536C632.984 233.499 632.611 233.741 632.312 234.264C631.603 235.085 630.987 236.28 630.464 237.848C629.941 239.416 629.456 241.507 629.008 244.12H635.84L635.504 245.912L628.728 245.8C628.168 249.645 627.589 253.509 626.992 257.392C626.432 261.275 625.816 265.008 625.144 268.592C624.621 271.392 623.931 273.819 623.072 275.872C622.213 277.925 621.075 279.661 619.656 281.08C618.499 282.237 617.211 283.096 615.792 283.656C614.411 284.216 612.973 284.496 611.48 284.496ZM644.096 271.784C641.333 271.784 639.075 270.888 637.32 269.096C635.603 267.304 634.744 264.709 634.744 261.312C634.744 258.96 635.155 256.701 635.976 254.536C636.797 252.371 637.917 250.448 639.336 248.768C640.792 247.051 642.491 245.707 644.432 244.736C646.373 243.765 648.464 243.28 650.704 243.28C653.019 243.28 654.773 243.803 655.968 244.848C657.2 245.893 657.816 247.293 657.816 249.048C657.816 251.176 656.397 253.285 653.56 255.376C650.76 257.429 646.691 259.035 641.352 260.192C641.464 262.619 642.043 264.392 643.088 265.512C644.133 266.632 645.571 267.192 647.4 267.192C649.043 267.192 650.517 266.763 651.824 265.904C653.131 265.045 654.232 264.037 655.128 262.88L655.968 263.496C655.221 264.915 654.251 266.259 653.056 267.528C651.899 268.797 650.573 269.824 649.08 270.608C647.587 271.392 645.925 271.784 644.096 271.784ZM650.144 245.184C649.285 245.184 648.371 245.557 647.4 246.304C646.429 247.013 645.496 248.003 644.6 249.272C643.741 250.504 643.013 251.941 642.416 253.584C641.819 255.189 641.464 256.907 641.352 258.736C645.533 257.504 648.464 255.973 650.144 254.144C651.861 252.315 652.72 250.373 652.72 248.32C652.72 247.237 652.477 246.453 651.992 245.968C651.507 245.445 650.891 245.184 650.144 245.184ZM666.016 271.784C663.702 271.784 661.835 271.336 660.416 270.44C658.998 269.507 658.288 268.219 658.288 266.576C658.288 265.68 658.587 264.915 659.184 264.28C659.782 263.608 660.566 263.272 661.536 263.272C663.366 263.272 664.504 264.373 664.952 266.576L665.232 267.864C665.382 268.685 665.606 269.32 665.904 269.768C666.24 270.179 666.8 270.384 667.584 270.384C668.555 270.384 669.395 270.011 670.104 269.264C670.851 268.48 671.224 267.397 671.224 266.016C671.224 265.008 670.907 264.037 670.272 263.104C669.675 262.171 668.611 261.125 667.08 259.968C665.587 258.773 664.374 257.541 663.44 256.272C662.507 255.003 662.04 253.472 662.04 251.68C662.04 250.149 662.432 248.749 663.216 247.48C664.038 246.211 665.195 245.203 666.688 244.456C668.182 243.672 669.955 243.28 672.008 243.28C674.435 243.28 676.32 243.765 677.664 244.736C679.046 245.707 679.736 246.92 679.736 248.376C679.736 249.197 679.475 249.869 678.952 250.392C678.467 250.915 677.758 251.176 676.824 251.176C675.144 251.176 673.968 250.131 673.296 248.04L672.904 246.696C672.718 245.987 672.475 245.501 672.176 245.24C671.878 244.941 671.467 244.792 670.944 244.792C670.235 244.792 669.563 245.128 668.928 245.8C668.294 246.472 667.976 247.48 667.976 248.824C667.976 250.131 668.35 251.325 669.096 252.408C669.88 253.453 671.056 254.573 672.624 255.768C674.304 257 675.518 258.195 676.264 259.352C677.011 260.472 677.384 261.853 677.384 263.496C677.384 265.773 676.395 267.733 674.416 269.376C672.438 270.981 669.638 271.784 666.016 271.784ZM688.11 271.784C685.795 271.784 683.929 271.336 682.51 270.44C681.091 269.507 680.382 268.219 680.382 266.576C680.382 265.68 680.681 264.915 681.278 264.28C681.875 263.608 682.659 263.272 683.63 263.272C685.459 263.272 686.598 264.373 687.046 266.576L687.326 267.864C687.475 268.685 687.699 269.32 687.998 269.768C688.334 270.179 688.894 270.384 689.678 270.384C690.649 270.384 691.489 270.011 692.198 269.264C692.945 268.48 693.318 267.397 693.318 266.016C693.318 265.008 693.001 264.037 692.366 263.104C691.769 262.171 690.705 261.125 689.174 259.968C687.681 258.773 686.467 257.541 685.534 256.272C684.601 255.003 684.134 253.472 684.134 251.68C684.134 250.149 684.526 248.749 685.31 247.48C686.131 246.211 687.289 245.203 688.782 244.456C690.275 243.672 692.049 243.28 694.102 243.28C696.529 243.28 698.414 243.765 699.758 244.736C701.139 245.707 701.83 246.92 701.83 248.376C701.83 249.197 701.569 249.869 701.046 250.392C700.561 250.915 699.851 251.176 698.918 251.176C697.238 251.176 696.062 250.131 695.39 248.04L694.998 246.696C694.811 245.987 694.569 245.501 694.27 245.24C693.971 244.941 693.561 244.792 693.038 244.792C692.329 244.792 691.657 245.128 691.022 245.8C690.387 246.472 690.07 247.48 690.07 248.824C690.07 250.131 690.443 251.325 691.19 252.408C691.974 253.453 693.15 254.573 694.718 255.768C696.398 257 697.611 258.195 698.358 259.352C699.105 260.472 699.478 261.853 699.478 263.496C699.478 265.773 698.489 267.733 696.51 269.376C694.531 270.981 691.731 271.784 688.11 271.784ZM713.05 239.976C712.005 239.976 711.109 239.64 710.362 238.968C709.616 238.296 709.242 237.381 709.242 236.224C709.242 234.992 709.69 233.965 710.586 233.144C711.482 232.323 712.49 231.912 713.61 231.912C714.693 231.912 715.589 232.267 716.298 232.976C717.008 233.648 717.362 234.525 717.362 235.608C717.362 236.803 716.914 237.829 716.018 238.688C715.16 239.547 714.17 239.976 713.05 239.976ZM707.898 271.784C706.778 271.784 705.845 271.504 705.098 270.944C704.389 270.347 704.034 269.488 704.034 268.368C704.034 267.733 704.109 266.968 704.258 266.072C704.408 265.176 704.576 264.261 704.762 263.328L707.394 250.672C707.73 249.104 707.152 248.04 705.658 247.48L704.874 247.144L704.986 246.136L715.066 243.224L715.626 243.784L711.37 263.776C711.221 264.411 711.109 264.971 711.034 265.456C710.96 265.904 710.922 266.333 710.922 266.744C710.922 267.565 711.296 267.976 712.042 267.976C712.938 267.976 714.114 267.267 715.57 265.848L716.298 266.576C715.365 267.957 714.189 269.171 712.77 270.216C711.389 271.261 709.765 271.784 707.898 271.784ZM729.867 271.784C727.963 271.784 726.227 271.411 724.659 270.664C723.091 269.917 721.84 268.779 720.907 267.248C719.974 265.68 719.507 263.72 719.507 261.368C719.507 258.979 719.899 256.701 720.683 254.536C721.504 252.371 722.624 250.448 724.043 248.768C725.499 247.051 727.179 245.707 729.083 244.736C731.024 243.765 733.096 243.28 735.299 243.28C738.248 243.28 740.694 244.139 742.635 245.856C744.576 247.536 745.547 250.149 745.547 253.696C745.547 256.048 745.136 258.307 744.315 260.472C743.531 262.637 742.43 264.579 741.011 266.296C739.592 267.976 737.931 269.32 736.027 270.328C734.123 271.299 732.07 271.784 729.867 271.784ZM730.539 270.216C731.734 270.216 732.816 269.712 733.787 268.704C734.758 267.659 735.598 266.296 736.307 264.616C737.016 262.936 737.558 261.069 737.931 259.016C738.342 256.925 738.547 254.853 738.547 252.8C738.547 249.851 738.192 247.797 737.483 246.64C736.811 245.483 735.934 244.904 734.851 244.904C733.656 244.904 732.536 245.408 731.491 246.416C730.483 247.387 729.606 248.712 728.859 250.392C728.112 252.072 727.534 253.939 727.123 255.992C726.712 258.008 726.507 260.061 726.507 262.152C726.507 265.176 726.88 267.285 727.627 268.48C728.411 269.637 729.382 270.216 730.539 270.216ZM748.378 271.448L747.818 270.944L752.074 250.616C752.41 249.123 751.85 248.077 750.394 247.48L749.554 247.144L749.666 246.192L759.578 243.224L760.194 243.784L758.962 250.112C760.904 248.059 762.882 246.416 764.898 245.184C766.914 243.915 768.8 243.28 770.554 243.28C771.749 243.28 772.72 243.653 773.466 244.4C774.25 245.109 774.642 246.211 774.642 247.704C774.642 248.525 774.568 249.365 774.418 250.224C774.269 251.045 774.082 251.904 773.858 252.8L771.002 264.28C770.853 264.877 770.722 265.4 770.61 265.848C770.536 266.259 770.498 266.613 770.498 266.912C770.498 267.696 770.816 268.088 771.45 268.088C772.421 268.088 773.653 267.304 775.146 265.736L775.93 266.52C774.997 267.901 773.784 269.133 772.29 270.216C770.797 271.261 769.136 271.784 767.306 271.784C766.149 271.784 765.234 271.504 764.562 270.944C763.89 270.384 763.554 269.619 763.554 268.648C763.554 267.864 763.648 267.08 763.834 266.296C764.021 265.475 764.245 264.597 764.506 263.664L766.69 254.816C766.989 253.696 767.232 252.688 767.418 251.792C767.605 250.896 767.698 250.093 767.698 249.384C767.698 248.637 767.53 248.133 767.194 247.872C766.896 247.573 766.485 247.424 765.962 247.424C765.066 247.424 763.984 247.816 762.714 248.6C761.482 249.347 760.082 250.541 758.514 252.184L757.002 259.072C756.592 261.051 756.2 263.029 755.826 265.008C755.453 266.987 755.08 268.984 754.706 271L748.378 271.448ZM778.948 271.448L778.388 270.944L782.644 250.616C782.98 249.123 782.42 248.077 780.964 247.48L780.124 247.144L780.236 246.192L790.148 243.224L790.764 243.784L789.532 250.112C791.474 248.059 793.452 246.416 795.468 245.184C797.484 243.915 799.37 243.28 801.124 243.28C802.319 243.28 803.29 243.653 804.036 244.4C804.82 245.109 805.213 246.211 805.213 247.704C805.213 248.525 805.138 249.365 804.988 250.224C804.839 251.045 804.652 251.904 804.429 252.8L801.572 264.28C801.423 264.877 801.292 265.4 801.18 265.848C801.106 266.259 801.068 266.613 801.068 266.912C801.068 267.696 801.386 268.088 802.02 268.088C802.991 268.088 804.223 267.304 805.717 265.736L806.501 266.52C805.567 267.901 804.354 269.133 802.86 270.216C801.367 271.261 799.706 271.784 797.876 271.784C796.719 271.784 795.804 271.504 795.132 270.944C794.46 270.384 794.124 269.619 794.124 268.648C794.124 267.864 794.218 267.08 794.404 266.296C794.591 265.475 794.815 264.597 795.076 263.664L797.26 254.816C797.559 253.696 797.802 252.688 797.988 251.792C798.175 250.896 798.268 250.093 798.268 249.384C798.268 248.637 798.1 248.133 797.764 247.872C797.466 247.573 797.055 247.424 796.532 247.424C795.636 247.424 794.554 247.816 793.284 248.6C792.052 249.347 790.652 250.541 789.084 252.184L787.572 259.072C787.162 261.051 786.77 263.029 786.396 265.008C786.023 266.987 785.65 268.984 785.276 271L778.948 271.448ZM819.151 271.784C816.388 271.784 814.129 270.888 812.375 269.096C810.657 267.304 809.799 264.709 809.799 261.312C809.799 258.96 810.209 256.701 811.031 254.536C811.852 252.371 812.972 250.448 814.391 248.768C815.847 247.051 817.545 245.707 819.487 244.736C821.428 243.765 823.519 243.28 825.759 243.28C828.073 243.28 829.828 243.803 831.023 244.848C832.255 245.893 832.871 247.293 832.871 249.048C832.871 251.176 831.452 253.285 828.615 255.376C825.815 257.429 821.745 259.035 816.407 260.192C816.519 262.619 817.097 264.392 818.143 265.512C819.188 266.632 820.625 267.192 822.455 267.192C824.097 267.192 825.572 266.763 826.879 265.904C828.185 265.045 829.287 264.037 830.183 262.88L831.023 263.496C830.276 264.915 829.305 266.259 828.111 267.528C826.953 268.797 825.628 269.824 824.135 270.608C822.641 271.392 820.98 271.784 819.151 271.784ZM825.199 245.184C824.34 245.184 823.425 245.557 822.455 246.304C821.484 247.013 820.551 248.003 819.655 249.272C818.796 250.504 818.068 251.941 817.471 253.584C816.873 255.189 816.519 256.907 816.407 258.736C820.588 257.504 823.519 255.973 825.199 254.144C826.916 252.315 827.775 250.373 827.775 248.32C827.775 247.237 827.532 246.453 827.047 245.968C826.561 245.445 825.945 245.184 825.199 245.184ZM838.047 271.784C836.852 271.784 835.882 271.485 835.135 270.888C834.426 270.253 834.071 269.357 834.071 268.2C834.071 267.565 834.146 266.8 834.295 265.904C834.482 264.971 834.706 263.795 834.967 262.376L838.271 246.304C838.57 244.96 838.812 243.747 838.999 242.664C839.186 241.581 839.41 240.349 839.671 238.968C839.895 237.4 839.26 236.392 837.767 235.944L836.927 235.664L837.095 234.712L847.511 231.688L848.015 232.136L841.239 264.224C841.09 264.821 840.978 265.344 840.903 265.792C840.866 266.24 840.847 266.613 840.847 266.912C840.847 267.733 841.202 268.144 841.911 268.144C842.77 268.144 844.02 267.341 845.663 265.736L846.447 266.52C845.514 267.827 844.356 269.04 842.975 270.16C841.594 271.243 839.951 271.784 838.047 271.784ZM855.946 271.784C853.631 271.784 851.765 271.336 850.346 270.44C848.927 269.507 848.218 268.219 848.218 266.576C848.218 265.68 848.517 264.915 849.114 264.28C849.711 263.608 850.495 263.272 851.466 263.272C853.295 263.272 854.434 264.373 854.882 266.576L855.162 267.864C855.311 268.685 855.535 269.32 855.834 269.768C856.17 270.179 856.73 270.384 857.514 270.384C858.485 270.384 859.325 270.011 860.034 269.264C860.781 268.48 861.154 267.397 861.154 266.016C861.154 265.008 860.837 264.037 860.202 263.104C859.605 262.171 858.541 261.125 857.01 259.968C855.517 258.773 854.303 257.541 853.37 256.272C852.437 255.003 851.97 253.472 851.97 251.68C851.97 250.149 852.362 248.749 853.146 247.48C853.967 246.211 855.125 245.203 856.618 244.456C858.111 243.672 859.885 243.28 861.938 243.28C864.365 243.28 866.25 243.765 867.594 244.736C868.975 245.707 869.666 246.92 869.666 248.376C869.666 249.197 869.405 249.869 868.882 250.392C868.397 250.915 867.687 251.176 866.754 251.176C865.074 251.176 863.898 250.131 863.226 248.04L862.834 246.696C862.647 245.987 862.405 245.501 862.106 245.24C861.807 244.941 861.397 244.792 860.874 244.792C860.165 244.792 859.493 245.128 858.858 245.8C858.223 246.472 857.906 247.48 857.906 248.824C857.906 250.131 858.279 251.325 859.026 252.408C859.81 253.453 860.986 254.573 862.554 255.768C864.234 257 865.447 258.195 866.194 259.352C866.941 260.472 867.314 261.853 867.314 263.496C867.314 265.773 866.325 267.733 864.346 269.376C862.367 270.981 859.567 271.784 855.946 271.784ZM908.932 249.44C909.044 250.952 909.044 252.016 909.044 254.424V271H905.572V254.816C905.572 253.136 905.572 251.848 905.46 250.336C905.068 246.304 902.828 243.448 897.844 243.448C892.916 243.448 888.604 247.032 888.604 256.272V271H885.132V241.376H888.604V247.088L890.172 243.896C892.58 241.488 895.212 240.592 898.516 240.592C904.788 240.592 908.372 244.008 908.932 249.44ZM928.439 240.592C937.847 240.592 942.831 247.48 942.831 256.216C942.831 264.896 937.847 271.784 928.439 271.784C919.031 271.784 914.047 264.896 914.047 256.216C914.047 247.48 919.031 240.592 928.439 240.592ZM928.439 269.04C934.599 269.04 939.023 264.28 939.023 256.216C939.023 248.152 934.599 243.392 928.439 243.392C922.279 243.392 917.855 248.152 917.855 256.216C917.855 264.28 922.279 269.04 928.439 269.04ZM971.516 241.376V271H968.044V265.288L966.42 268.592C964.068 270.888 961.38 271.784 958.132 271.784C952.084 271.784 948.5 268.368 947.828 263.664C947.66 262.152 947.604 261.088 947.604 258.68V241.376H951.076V257.896C951.076 259.296 951.132 260.808 951.3 262.32C951.748 266.24 954.324 268.984 958.916 268.984C963.844 268.984 968.044 265.4 968.044 256.104V241.376H971.516ZM987.665 240.592C994.105 240.592 997.577 244.456 998.249 249.664H994.609C993.769 245.576 991.361 243.392 987.385 243.392C983.801 243.392 981.393 245.408 981.393 248.656C981.393 252.072 984.193 253.416 988.449 254.48C995.281 256.16 998.529 258.624 998.529 263.608C998.529 268.872 994.049 271.784 987.945 271.784C982.065 271.784 977.417 268.984 976.577 262.264H980.161C981.001 267.304 984.193 269.04 988.169 269.04C991.921 269.04 995.001 267.304 995.001 263.888C995.001 260.584 992.873 258.96 987.105 257.56C982.009 256.216 977.809 254.144 977.809 249.048C977.809 243.952 981.841 240.592 987.665 240.592ZM1018.76 235.104C1018.65 236.056 1018.65 237.176 1018.65 238.016V241.6H1024.7V244.4H1018.65V271H1015.18V244.4H1011.99V241.6H1015.18V238.296C1015.18 237.288 1015.18 236.056 1015.29 234.992C1015.74 230.904 1018.48 228.776 1022.12 228.776C1023.3 228.776 1024.25 228.888 1025.26 229.056V231.968C1021.34 231.184 1019.1 232.472 1018.76 235.104ZM1041.19 240.592C1050.6 240.592 1055.59 247.48 1055.59 256.216C1055.59 264.896 1050.6 271.784 1041.19 271.784C1031.79 271.784 1026.8 264.896 1026.8 256.216C1026.8 247.48 1031.79 240.592 1041.19 240.592ZM1041.19 269.04C1047.35 269.04 1051.78 264.28 1051.78 256.216C1051.78 248.152 1047.35 243.392 1041.19 243.392C1035.03 243.392 1030.61 248.152 1030.61 256.216C1030.61 264.28 1035.03 269.04 1041.19 269.04ZM1084.61 249.44C1084.72 250.952 1084.72 252.016 1084.72 254.424V271H1081.25V254.816C1081.25 253.136 1081.25 251.848 1081.13 250.336C1080.74 246.304 1078.5 243.448 1073.52 243.448C1068.59 243.448 1064.28 247.032 1064.28 256.272V271H1060.81V241.376H1064.28V247.088L1065.85 243.896C1068.25 241.488 1070.89 240.592 1074.19 240.592C1080.46 240.592 1084.05 244.008 1084.61 249.44ZM1096.61 244.288V262.88C1096.61 264.112 1096.61 264.728 1096.66 265.512C1096.89 268.368 1098.12 269.096 1102.1 268.592V271.168C1100.92 271.392 1099.69 271.448 1098.51 271.448C1095.21 271.448 1093.47 269.992 1093.19 266.744C1093.14 265.736 1093.14 264.616 1093.14 262.936V244.288H1089.33V241.6H1093.14V235.048H1096.61V241.6H1102.26V244.288H1096.61ZM494.303 296.592C501.135 296.592 505.671 300.792 506.567 307.064H502.927C501.919 302.08 498.951 299.336 494.191 299.336C489.207 299.336 484.335 303.368 484.335 311.936C484.335 321.064 488.927 325.04 493.911 325.04C498.279 325.04 501.639 322.52 502.703 317.76H506.287C504.943 324.312 500.071 327.784 493.687 327.784C486.295 327.784 480.527 322.688 480.527 312.216C480.527 302.416 486.855 296.592 494.303 296.592ZM523.781 296.592C533.189 296.592 538.173 303.48 538.173 312.216C538.173 320.896 533.189 327.784 523.781 327.784C514.373 327.784 509.389 320.896 509.389 312.216C509.389 303.48 514.373 296.592 523.781 296.592ZM523.781 325.04C529.941 325.04 534.365 320.28 534.365 312.216C534.365 304.152 529.941 299.392 523.781 299.392C517.621 299.392 513.197 304.152 513.197 312.216C513.197 320.28 517.621 325.04 523.781 325.04ZM567.193 305.44C567.305 306.952 567.305 308.016 567.305 310.424V327H563.833V310.816C563.833 309.136 563.833 307.848 563.721 306.336C563.329 302.304 561.089 299.448 556.105 299.448C551.177 299.448 546.865 303.032 546.865 312.272V327H543.393V297.376H546.865V303.088L548.433 299.896C550.841 297.488 553.473 296.592 556.777 296.592C563.049 296.592 566.633 300.008 567.193 305.44ZM592.972 297.6V327H589.5V300.4H578.58V327H575.108V300.4H571.916V297.6H575.108V296.2C575.108 295.192 575.108 293.904 575.22 292.84C575.78 287.856 579.42 284.776 586.42 284.776C587.596 284.776 588.492 284.888 589.5 285.056V287.968C582.052 287.24 579.14 289.368 578.692 293.008C578.58 293.96 578.58 295.08 578.58 295.92V297.6H592.972ZM618.486 327L617.982 321.624L616.526 324.76C614.454 326.832 611.542 327.784 608.294 327.784C602.806 327.784 598.886 324.928 598.886 319.552C598.886 312.776 605.326 309.472 616.022 309.472H617.926V308.408C617.926 307.064 617.926 305.944 617.814 304.768C617.534 301.352 615.462 299.392 611.206 299.392C607.118 299.392 604.206 301.576 603.758 306.168H600.118C600.51 300.344 604.934 296.592 611.206 296.592C617.758 296.592 620.838 299.56 621.286 304.432C621.398 305.72 621.398 306.952 621.398 308.352V318.712C621.398 321.344 621.566 323.472 621.958 327H618.486ZM609.358 325.04C614.51 325.04 617.926 321.12 617.926 315.576V312.16C609.582 311.6 602.694 313.56 602.694 319.272C602.694 323.024 605.046 325.04 609.358 325.04ZM652.904 305.44C653.016 306.952 653.016 308.016 653.016 310.424V327H649.544V310.816C649.544 309.136 649.544 307.848 649.432 306.336C649.04 302.304 646.8 299.448 641.816 299.448C636.888 299.448 632.576 303.032 632.576 312.272V327H629.104V297.376H632.576V303.088L634.144 299.896C636.552 297.488 639.184 296.592 642.488 296.592C648.76 296.592 652.344 300.008 652.904 305.44ZM671.795 296.592C678.627 296.592 683.163 300.792 684.059 307.064H680.419C679.411 302.08 676.443 299.336 671.683 299.336C666.699 299.336 661.827 303.368 661.827 311.936C661.827 321.064 666.419 325.04 671.403 325.04C675.771 325.04 679.131 322.52 680.195 317.76H683.779C682.435 324.312 677.563 327.784 671.179 327.784C663.787 327.784 658.019 322.688 658.019 312.216C658.019 302.416 664.347 296.592 671.795 296.592ZM713.201 311.376C713.201 311.768 713.201 312.328 713.089 313.224H690.633C691.025 321.96 695.449 325.04 700.265 325.04C704.409 325.04 708.105 322.52 709.169 317.648H712.809C711.409 324.536 705.977 327.784 700.041 327.784C692.649 327.784 686.881 322.632 686.881 312.216C686.881 302.696 692.817 296.592 700.601 296.592C708.889 296.592 713.201 303.2 713.201 311.376ZM700.489 299.392C695.617 299.392 691.137 303.088 690.633 310.48H709.673C709.281 302.864 705.473 299.392 700.489 299.392ZM733.65 318.376H730.458L729.954 288.36H734.154L733.65 318.376ZM732.082 322.464C733.594 322.464 734.714 323.584 734.714 325.096C734.714 326.664 733.594 327.784 732.082 327.784C730.514 327.784 729.394 326.664 729.394 325.096C729.394 323.584 730.514 322.464 732.082 322.464ZM779.271 324.144V327H754.239V288.36H778.711V291.216H757.711V306.224H777.255V309.136H757.711V324.144H779.271ZM788.969 300.288V318.88C788.969 320.112 788.969 320.728 789.025 321.512C789.249 324.368 790.481 325.096 794.457 324.592V327.168C793.281 327.392 792.049 327.448 790.873 327.448C787.569 327.448 785.833 325.992 785.553 322.744C785.497 321.736 785.497 320.616 785.497 318.936V300.288H781.689V297.6H785.497V291.048H788.969V297.6H794.625V300.288H788.969ZM834.065 297.376L822.641 327H818.329L806.961 297.376H810.769L820.625 324.424L830.369 297.376H834.065ZM849.699 296.592C859.107 296.592 864.091 303.48 864.091 312.216C864.091 320.896 859.107 327.784 849.699 327.784C840.291 327.784 835.307 320.896 835.307 312.216C835.307 303.48 840.291 296.592 849.699 296.592ZM849.699 325.04C855.859 325.04 860.283 320.28 860.283 312.216C860.283 304.152 855.859 299.392 849.699 299.392C843.539 299.392 839.115 304.152 839.115 312.216C839.115 320.28 843.539 325.04 849.699 325.04ZM892.775 297.376V327H889.303V321.288L887.679 324.592C885.327 326.888 882.639 327.784 879.391 327.784C873.343 327.784 869.759 324.368 869.087 319.664C868.919 318.152 868.863 317.088 868.863 314.68V297.376H872.335V313.896C872.335 315.296 872.391 316.808 872.559 318.32C873.007 322.24 875.583 324.984 880.175 324.984C885.103 324.984 889.303 321.4 889.303 312.104V297.376H892.775ZM908.925 296.592C915.365 296.592 918.837 300.456 919.509 305.664H915.869C915.029 301.576 912.621 299.392 908.645 299.392C905.061 299.392 902.653 301.408 902.653 304.656C902.653 308.072 905.453 309.416 909.709 310.48C916.541 312.16 919.789 314.624 919.789 319.608C919.789 324.872 915.309 327.784 909.205 327.784C903.325 327.784 898.677 324.984 897.837 318.264H901.421C902.261 323.304 905.453 325.04 909.429 325.04C913.181 325.04 916.261 323.304 916.261 319.888C916.261 316.584 914.133 314.96 908.365 313.56C903.269 312.216 899.069 310.144 899.069 305.048C899.069 299.952 903.101 296.592 908.925 296.592ZM946.517 287.576C953.797 287.576 957.773 292.056 957.773 297.712C957.773 301.632 955.813 305.16 952.173 308.8C948.141 312.72 947.301 314.568 947.189 318.376H943.717C943.997 314.008 944.893 311.936 948.869 307.68C952.565 303.648 953.909 301.184 953.909 297.712C953.909 293.232 950.997 290.376 946.405 290.376C941.365 290.376 938.229 293.68 937.837 299.336H934.253C934.477 292.224 939.405 287.576 946.517 287.576ZM945.453 322.464C947.021 322.464 948.141 323.584 948.141 325.096C948.141 326.664 947.021 327.784 945.453 327.784C943.941 327.784 942.821 326.664 942.821 325.096C942.821 323.584 943.941 322.464 945.453 322.464Z"
       fill="#302D2D"
       id="path20" />
    <path
       d="M336.776 368H334.92L331.112 356.96H332.6L335.88 366.96L339.272 356.96H340.744L336.776 368ZM345.01 359.296C347.89 359.296 349.218 361.36 349.218 363.76C349.218 366.144 347.89 368.224 345.01 368.224C342.13 368.224 340.802 366.144 340.802 363.76C340.802 361.36 342.13 359.296 345.01 359.296ZM345.01 367.168C346.722 367.168 347.714 365.744 347.714 363.76C347.714 361.76 346.722 360.352 345.01 360.352C343.298 360.352 342.306 361.76 342.306 363.76C342.306 365.744 343.298 367.168 345.01 367.168ZM358.081 359.52V368H356.705V366.56L356.177 367.552C355.457 368.08 354.833 368.224 353.969 368.224C352.209 368.224 351.185 367.232 350.993 366.064C350.929 365.632 350.913 365.296 350.913 364.608V359.52H352.289V364.352C352.289 364.624 352.305 365.088 352.353 365.52C352.481 366.48 353.169 367.136 354.321 367.136C355.649 367.136 356.705 366.144 356.705 363.248V359.52H358.081ZM363.134 359.296C365.038 359.296 366.078 360.384 366.254 361.936H364.814C364.622 360.944 364.014 360.352 363.022 360.352C362.062 360.352 361.614 360.88 361.614 361.616C361.614 362.464 362.318 362.8 363.47 363.104C365.422 363.616 366.35 364.384 366.35 365.824C366.35 367.424 364.99 368.224 363.198 368.224C361.454 368.224 360.126 367.424 359.87 365.504H361.31C361.534 366.736 362.318 367.168 363.294 367.168C364.206 367.168 364.942 366.752 364.942 365.936C364.942 365.12 364.366 364.688 362.942 364.304C361.422 363.888 360.206 363.264 360.206 361.776C360.206 360.224 361.39 359.296 363.134 359.296ZM378.923 361.776C378.955 362.208 378.955 362.544 378.955 363.232V368H377.579V363.328C377.579 362.896 377.579 362.544 377.547 362.112C377.467 361.12 376.923 360.384 375.611 360.384C374.283 360.384 373.163 361.376 373.163 364.272V368H371.787V359.52H373.163V360.976L373.691 360C374.411 359.44 375.035 359.296 375.899 359.296C377.755 359.296 378.795 360.288 378.923 361.776ZM382.215 360.24H381.095L380.935 356.24H382.375L382.215 360.24ZM387.124 358.72H386.116L387.188 356.96H388.132L389.204 358.72H388.18L387.652 357.712L387.124 358.72ZM391.364 363.52C391.364 363.648 391.364 363.872 391.332 364.176H385.188C385.316 366.416 386.372 367.168 387.62 367.168C388.724 367.168 389.62 366.48 389.812 365.264H391.252C390.916 367.312 389.3 368.224 387.556 368.224C385.348 368.224 383.7 366.784 383.7 363.792C383.7 361.04 385.412 359.296 387.732 359.296C390.068 359.296 391.364 361.04 391.364 363.52ZM387.7 360.352C386.356 360.352 385.364 361.312 385.204 363.12H389.972C389.844 361.36 389.092 360.352 387.7 360.352ZM394.993 360.64V365.52C394.993 365.808 394.993 365.952 395.009 366.176C395.073 366.992 395.409 367.168 396.481 367.04V368.048C396.081 368.112 395.697 368.128 395.313 368.128C394.257 368.128 393.713 367.696 393.633 366.64C393.617 366.416 393.617 366.064 393.617 365.584V360.64H392.481V359.584H393.617V357.616H394.993V359.584H396.577V360.64H394.993ZM405.278 363.52C405.278 363.648 405.278 363.872 405.246 364.176H399.102C399.23 366.416 400.286 367.168 401.534 367.168C402.638 367.168 403.534 366.48 403.726 365.264H405.166C404.83 367.312 403.214 368.224 401.47 368.224C399.262 368.224 397.614 366.784 397.614 363.792C397.614 361.04 399.326 359.296 401.646 359.296C403.982 359.296 405.278 361.04 405.278 363.52ZM401.614 360.352C400.27 360.352 399.278 361.312 399.118 363.12H403.886C403.758 361.36 403.006 360.352 401.614 360.352ZM409.723 359.296C411.627 359.296 412.667 360.384 412.843 361.936H411.403C411.211 360.944 410.603 360.352 409.611 360.352C408.651 360.352 408.203 360.88 408.203 361.616C408.203 362.464 408.907 362.8 410.059 363.104C412.011 363.616 412.939 364.384 412.939 365.824C412.939 367.424 411.579 368.224 409.787 368.224C408.043 368.224 406.715 367.424 406.459 365.504H407.899C408.123 366.736 408.907 367.168 409.883 367.168C410.795 367.168 411.531 366.752 411.531 365.936C411.531 365.12 410.955 364.688 409.531 364.304C408.011 363.888 406.795 363.264 406.795 361.776C406.795 360.224 407.979 359.296 409.723 359.296ZM422.632 359.296C425.112 359.296 426.488 361.152 426.488 363.632C426.488 366.768 424.536 368.224 422.344 368.224C421.64 368.224 420.744 368.016 420.312 367.664L419.752 366.832V371.136H418.376V359.52H419.752V360.88L420.392 359.968C420.872 359.568 421.768 359.296 422.632 359.296ZM422.344 367.168C423.832 367.168 424.984 366.016 424.984 363.792C424.984 361.872 424.12 360.352 422.424 360.352C421.016 360.352 419.752 361.248 419.752 363.68V364.144C419.752 366.336 421.128 367.168 422.344 367.168ZM433.181 368L433.037 366.784L432.573 367.696C431.997 368.096 431.261 368.224 430.445 368.224C428.909 368.224 427.709 367.376 427.709 365.808C427.709 363.888 429.149 362.896 432.477 362.896H433.021V362.672C433.021 362.304 433.021 361.968 432.989 361.648C432.925 360.864 432.477 360.352 431.341 360.352C430.189 360.352 429.613 360.976 429.517 362.144H428.077C428.205 360.336 429.469 359.296 431.341 359.296C433.357 359.296 434.205 360.144 434.349 361.536C434.381 361.872 434.397 362.288 434.397 362.656V365.84C434.397 366.48 434.429 367.056 434.557 368H433.181ZM430.909 367.168C432.189 367.168 433.021 366.32 433.021 364.784V363.92C430.685 363.744 429.213 364.24 429.213 365.696C429.213 366.72 429.869 367.168 430.909 367.168ZM439.441 359.296C441.345 359.296 442.385 360.384 442.561 361.936H441.121C440.929 360.944 440.321 360.352 439.329 360.352C438.369 360.352 437.921 360.88 437.921 361.616C437.921 362.464 438.625 362.8 439.777 363.104C441.729 363.616 442.657 364.384 442.657 365.824C442.657 367.424 441.297 368.224 439.505 368.224C437.761 368.224 436.433 367.424 436.177 365.504H437.617C437.841 366.736 438.625 367.168 439.601 367.168C440.513 367.168 441.249 366.752 441.249 365.936C441.249 365.12 440.673 364.688 439.249 364.304C437.729 363.888 436.513 363.264 436.513 361.776C436.513 360.224 437.697 359.296 439.441 359.296ZM450.558 359.296C452.462 359.296 453.502 360.384 453.678 361.936H452.238C452.046 360.944 451.438 360.352 450.446 360.352C449.486 360.352 449.038 360.88 449.038 361.616C449.038 362.464 449.742 362.8 450.894 363.104C452.846 363.616 453.774 364.384 453.774 365.824C453.774 367.424 452.414 368.224 450.622 368.224C448.878 368.224 447.55 367.424 447.294 365.504H448.734C448.958 366.736 449.742 367.168 450.718 367.168C451.63 367.168 452.366 366.752 452.366 365.936C452.366 365.12 451.79 364.688 450.366 364.304C448.846 363.888 447.63 363.264 447.63 361.776C447.63 360.224 448.814 359.296 450.558 359.296ZM462.558 363.52C462.558 363.648 462.558 363.872 462.526 364.176H456.382C456.51 366.416 457.566 367.168 458.814 367.168C459.918 367.168 460.814 366.48 461.006 365.264H462.446C462.11 367.312 460.494 368.224 458.75 368.224C456.542 368.224 454.894 366.784 454.894 363.792C454.894 361.04 456.606 359.296 458.926 359.296C461.262 359.296 462.558 361.04 462.558 363.52ZM458.894 360.352C457.55 360.352 456.558 361.312 456.398 363.12H461.166C461.038 361.36 460.286 360.352 458.894 360.352ZM471.579 359.52V368H470.203V366.56L469.675 367.552C468.955 368.08 468.331 368.224 467.467 368.224C465.707 368.224 464.683 367.232 464.491 366.064C464.427 365.632 464.411 365.296 464.411 364.608V359.52H465.787V364.352C465.787 364.624 465.803 365.088 465.851 365.52C465.979 366.48 466.667 367.136 467.819 367.136C469.147 367.136 470.203 366.144 470.203 363.248V359.52H471.579ZM475.48 356.24V365.568C475.48 365.824 475.48 366.096 475.496 366.368C475.528 366.912 475.784 367.088 476.536 367.008V368C476.232 368.048 475.88 368.064 475.56 368.064C474.76 368.064 474.168 367.808 474.12 366.736C474.104 366.448 474.104 366.08 474.104 365.616V356.24H475.48ZM483.27 365.12H482.022L481.83 356.96H483.462L483.27 365.12ZM482.646 366.176C483.238 366.176 483.67 366.608 483.67 367.2C483.67 367.792 483.238 368.224 482.646 368.224C482.054 368.224 481.622 367.792 481.622 367.2C481.622 366.608 482.054 366.176 482.646 366.176ZM497.222 365.104C497.35 366.544 497.51 367.408 497.958 368H496.438C496.134 367.296 495.99 366.592 495.846 365.232C495.718 364.096 495.286 363.344 494.198 363.264C493.942 363.248 493.67 363.248 493.414 363.248H491.334V368H489.958V356.96H493.574C494.134 356.96 494.518 356.96 495.014 357.024C496.614 357.232 497.766 358.112 497.766 359.968C497.766 361.424 496.822 362.256 495.798 362.576C496.694 362.992 497.126 364 497.222 365.104ZM491.334 362.128H493.446C493.942 362.128 494.214 362.128 494.518 362.096C495.542 362 496.294 361.344 496.294 360.096C496.294 358.864 495.702 358.304 494.678 358.144C494.374 358.096 494.07 358.08 493.574 358.08H491.334V362.128ZM506.568 363.52C506.568 363.648 506.568 363.872 506.536 364.176H500.392C500.52 366.416 501.576 367.168 502.824 367.168C503.928 367.168 504.824 366.48 505.016 365.264H506.456C506.12 367.312 504.504 368.224 502.76 368.224C500.552 368.224 498.904 366.784 498.904 363.792C498.904 361.04 500.616 359.296 502.936 359.296C505.272 359.296 506.568 361.04 506.568 363.52ZM502.904 360.352C501.56 360.352 500.568 361.312 500.408 363.12H505.176C505.048 361.36 504.296 360.352 502.904 360.352ZM509.157 356.736C509.653 356.736 510.037 357.12 510.037 357.616C510.037 358.112 509.653 358.496 509.157 358.496C508.661 358.496 508.277 358.112 508.277 357.616C508.277 357.12 508.661 356.736 509.157 356.736ZM509.845 359.52V368.736C509.845 369.056 509.829 369.472 509.797 369.76C509.685 370.784 509.125 371.36 507.813 371.36C507.557 371.36 507.365 371.36 507.157 371.328V370.208C508.037 370.288 508.373 370.016 508.437 369.504C508.469 369.28 508.469 369.04 508.469 368.8V359.52H509.845ZM515.948 359.296C518.828 359.296 520.156 361.36 520.156 363.76C520.156 366.144 518.828 368.224 515.948 368.224C513.068 368.224 511.74 366.144 511.74 363.76C511.74 361.36 513.068 359.296 515.948 359.296ZM515.948 367.168C517.66 367.168 518.652 365.744 518.652 363.76C518.652 361.76 517.66 360.352 515.948 360.352C514.236 360.352 513.244 361.76 513.244 363.76C513.244 365.744 514.236 367.168 515.948 367.168ZM522.667 356.736C523.163 356.736 523.547 357.12 523.547 357.616C523.547 358.112 523.163 358.496 522.667 358.496C522.171 358.496 521.787 358.112 521.787 357.616C521.787 357.12 522.171 356.736 522.667 356.736ZM523.355 368H521.979V359.52H523.355V368ZM533.359 359.52V365.92C533.359 366.448 533.359 367.104 533.343 367.568C533.263 370.048 531.759 371.36 529.311 371.36C526.895 371.36 525.695 370.352 525.519 368.56L525.503 368.4H526.895L526.911 368.544C527.023 369.584 527.855 370.304 529.311 370.304C530.991 370.304 531.903 369.344 531.967 367.712C531.983 367.312 531.983 367.04 531.983 366.784V366.64L531.343 367.552C530.863 367.952 529.967 368.224 529.103 368.224C526.623 368.224 525.247 366.368 525.247 363.888C525.247 360.752 527.199 359.296 529.391 359.296C530.095 359.296 530.991 359.504 531.423 359.856L531.983 360.688V359.52H533.359ZM529.311 367.168C530.719 367.168 531.983 366.272 531.983 363.84V363.376C531.983 361.184 530.607 360.352 529.391 360.352C527.903 360.352 526.751 361.504 526.751 363.728C526.751 365.648 527.615 367.168 529.311 367.168ZM543.091 361.776C543.123 362.208 543.123 362.544 543.123 363.232V368H541.747V363.328C541.747 362.896 541.747 362.544 541.715 362.112C541.635 361.12 541.091 360.384 539.779 360.384C538.451 360.384 537.331 361.376 537.331 364.272V368H535.955V359.52H537.331V360.976L537.859 360C538.579 359.44 539.203 359.296 540.067 359.296C541.923 359.296 542.963 360.288 543.091 361.776ZM552.559 363.52C552.559 363.648 552.559 363.872 552.527 364.176H546.383C546.511 366.416 547.567 367.168 548.815 367.168C549.919 367.168 550.815 366.48 551.007 365.264H552.447C552.111 367.312 550.495 368.224 548.751 368.224C546.543 368.224 544.895 366.784 544.895 363.792C544.895 361.04 546.607 359.296 548.927 359.296C551.263 359.296 552.559 361.04 552.559 363.52ZM548.895 360.352C547.551 360.352 546.559 361.312 546.399 363.12H551.167C551.039 361.36 550.287 360.352 548.895 360.352ZM560.285 366.912V368H553.677V366.944L558.605 360.672H554.029V359.584H560.205V360.688L555.309 366.912H560.285ZM572.84 361.776C572.872 362.208 572.872 362.544 572.872 363.232V368H571.496V363.328C571.496 362.896 571.496 362.544 571.464 362.112C571.384 361.12 570.84 360.384 569.528 360.384C568.2 360.384 567.08 361.376 567.08 364.272V368H565.704V359.52H567.08V360.976L567.608 360C568.328 359.44 568.952 359.296 569.816 359.296C571.672 359.296 572.712 360.288 572.84 361.776ZM578.853 359.296C581.733 359.296 583.061 361.36 583.061 363.76C583.061 366.144 581.733 368.224 578.853 368.224C575.973 368.224 574.645 366.144 574.645 363.76C574.645 361.36 575.973 359.296 578.853 359.296ZM578.853 367.168C580.565 367.168 581.557 365.744 581.557 363.76C581.557 361.76 580.565 360.352 578.853 360.352C577.141 360.352 576.149 361.76 576.149 363.76C576.149 365.744 577.141 367.168 578.853 367.168ZM586.532 360.64V365.52C586.532 365.808 586.532 365.952 586.548 366.176C586.612 366.992 586.948 367.168 588.02 367.04V368.048C587.62 368.112 587.236 368.128 586.852 368.128C585.796 368.128 585.252 367.696 585.172 366.64C585.156 366.416 585.156 366.064 585.156 365.584V360.64H584.02V359.584H585.156V357.616H586.532V359.584H588.116V360.64H586.532ZM593.387 359.328C593.611 359.328 593.803 359.36 593.963 359.44V360.48C592.523 360.384 591.435 361.232 591.435 363.168V368H590.059V359.52H591.435V360.848L592.203 359.712C592.555 359.472 592.987 359.328 593.387 359.328ZM602.273 363.52C602.273 363.648 602.273 363.872 602.241 364.176H596.097C596.225 366.416 597.281 367.168 598.529 367.168C599.633 367.168 600.529 366.48 600.721 365.264H602.161C601.825 367.312 600.209 368.224 598.465 368.224C596.257 368.224 594.609 366.784 594.609 363.792C594.609 361.04 596.321 359.296 598.641 359.296C600.977 359.296 602.273 361.04 602.273 363.52ZM598.609 360.352C597.265 360.352 596.273 361.312 596.113 363.12H600.881C600.753 361.36 600.001 360.352 598.609 360.352ZM611.148 359.296C613.18 359.296 614.476 360.512 614.732 362.368H613.292C612.988 361.008 612.252 360.352 611.116 360.352C609.788 360.352 608.668 361.392 608.668 363.68C608.668 366.144 609.756 367.168 611.02 367.168C612.14 367.168 612.924 366.528 613.212 365.296H614.652C614.236 367.264 612.828 368.224 610.94 368.224C608.796 368.224 607.164 366.88 607.164 363.776C607.164 360.912 609.02 359.296 611.148 359.296ZM620 359.296C622.88 359.296 624.208 361.36 624.208 363.76C624.208 366.144 622.88 368.224 620 368.224C617.12 368.224 615.792 366.144 615.792 363.76C615.792 361.36 617.12 359.296 620 359.296ZM620 367.168C621.712 367.168 622.704 365.744 622.704 363.76C622.704 361.76 621.712 360.352 620 360.352C618.288 360.352 617.296 361.76 617.296 363.76C617.296 365.744 618.288 367.168 620 367.168ZM637.311 361.36C637.375 361.792 637.391 362.128 637.391 362.816V368H636.015V363.456C636.015 362.704 635.999 362.24 635.951 361.808C635.823 360.848 635.215 360.384 634.255 360.384C633.183 360.384 632.399 361.232 632.399 363.808V368H631.023V363.456C631.023 362.704 631.007 362.24 630.959 361.808C630.831 360.848 630.223 360.384 629.263 360.384C628.191 360.384 627.407 361.232 627.407 363.808V368H626.031V359.52H627.407V360.752L627.951 359.792C628.383 359.44 628.991 359.296 629.743 359.296C631.039 359.296 631.871 359.952 632.191 360.88L632.943 359.792C633.375 359.44 633.983 359.296 634.735 359.296C636.255 359.296 637.119 360.192 637.311 361.36ZM651.159 361.36C651.223 361.792 651.239 362.128 651.239 362.816V368H649.863V363.456C649.863 362.704 649.847 362.24 649.799 361.808C649.671 360.848 649.063 360.384 648.103 360.384C647.031 360.384 646.247 361.232 646.247 363.808V368H644.871V363.456C644.871 362.704 644.855 362.24 644.807 361.808C644.679 360.848 644.071 360.384 643.111 360.384C642.039 360.384 641.255 361.232 641.255 363.808V368H639.879V359.52H641.255V360.752L641.799 359.792C642.231 359.44 642.839 359.296 643.591 359.296C644.887 359.296 645.719 359.952 646.039 360.88L646.791 359.792C647.223 359.44 647.831 359.296 648.583 359.296C650.103 359.296 650.967 360.192 651.159 361.36ZM660.766 359.52V368H659.39V366.56L658.862 367.552C658.142 368.08 657.518 368.224 656.654 368.224C654.894 368.224 653.87 367.232 653.678 366.064C653.614 365.632 653.598 365.296 653.598 364.608V359.52H654.974V364.352C654.974 364.624 654.99 365.088 655.038 365.52C655.166 366.48 655.854 367.136 657.006 367.136C658.334 367.136 659.39 366.144 659.39 363.248V359.52H660.766ZM670.491 361.776C670.523 362.208 670.523 362.544 670.523 363.232V368H669.147V363.328C669.147 362.896 669.147 362.544 669.115 362.112C669.035 361.12 668.491 360.384 667.179 360.384C665.851 360.384 664.731 361.376 664.731 364.272V368H663.355V359.52H664.731V360.976L665.259 360C665.979 359.44 666.603 359.296 667.467 359.296C669.323 359.296 670.363 360.288 670.491 361.776ZM677.863 368L677.719 366.784L677.255 367.696C676.679 368.096 675.943 368.224 675.127 368.224C673.591 368.224 672.391 367.376 672.391 365.808C672.391 363.888 673.831 362.896 677.159 362.896H677.703V362.672C677.703 362.304 677.703 361.968 677.671 361.648C677.607 360.864 677.159 360.352 676.023 360.352C674.871 360.352 674.295 360.976 674.199 362.144H672.759C672.887 360.336 674.151 359.296 676.023 359.296C678.039 359.296 678.887 360.144 679.031 361.536C679.063 361.872 679.079 362.288 679.079 362.656V365.84C679.079 366.48 679.111 367.056 679.239 368H677.863ZM675.591 367.168C676.871 367.168 677.703 366.32 677.703 364.784V363.92C675.367 363.744 673.895 364.24 673.895 365.696C673.895 366.72 674.551 367.168 675.591 367.168ZM688.699 359.52V368H687.323V366.56L686.795 367.552C686.075 368.08 685.451 368.224 684.587 368.224C682.827 368.224 681.803 367.232 681.611 366.064C681.547 365.632 681.531 365.296 681.531 364.608V359.52H682.907V364.352C682.907 364.624 682.923 365.088 682.971 365.52C683.099 366.48 683.787 367.136 684.939 367.136C686.267 367.136 687.323 366.144 687.323 363.248V359.52H688.699ZM692.936 360.64V365.52C692.936 365.808 692.936 365.952 692.952 366.176C693.016 366.992 693.352 367.168 694.424 367.04V368.048C694.024 368.112 693.64 368.128 693.256 368.128C692.2 368.128 691.656 367.696 691.576 366.64C691.56 366.416 691.56 366.064 691.56 365.584V360.64H690.424V359.584H691.56V357.616H692.936V359.584H694.52V360.64H692.936ZM699.861 358.72H698.965L699.941 356.96H701.221L699.861 358.72ZM703.221 363.52C703.221 363.648 703.221 363.872 703.189 364.176H697.045C697.173 366.416 698.229 367.168 699.477 367.168C700.581 367.168 701.477 366.48 701.669 365.264H703.109C702.773 367.312 701.157 368.224 699.413 368.224C697.205 368.224 695.557 366.784 695.557 363.792C695.557 361.04 697.269 359.296 699.589 359.296C701.925 359.296 703.221 361.04 703.221 363.52ZM699.557 360.352C698.213 360.352 697.221 361.312 697.061 363.12H701.829C701.701 361.36 700.949 360.352 699.557 360.352ZM716.223 356.24V368H714.847V366.64L714.207 367.552C713.727 367.952 712.831 368.224 711.967 368.224C709.487 368.224 708.111 366.368 708.111 363.888C708.111 360.752 710.063 359.296 712.255 359.296C712.959 359.296 713.855 359.504 714.287 359.856L714.847 360.688V356.24H716.223ZM712.175 367.168C713.583 367.168 714.847 366.272 714.847 363.84V363.376C714.847 361.184 713.471 360.352 712.255 360.352C710.767 360.352 709.615 361.504 709.615 363.728C709.615 365.648 710.479 367.168 712.175 367.168ZM725.779 363.52C725.779 363.648 725.779 363.872 725.747 364.176H719.603C719.731 366.416 720.787 367.168 722.035 367.168C723.139 367.168 724.035 366.48 724.227 365.264H725.667C725.331 367.312 723.715 368.224 721.971 368.224C719.763 368.224 718.115 366.784 718.115 363.792C718.115 361.04 719.827 359.296 722.147 359.296C724.483 359.296 725.779 361.04 725.779 363.52ZM722.115 360.352C720.771 360.352 719.779 361.312 719.619 363.12H724.387C724.259 361.36 723.507 360.352 722.115 360.352ZM735.629 359.296C738.109 359.296 739.485 361.152 739.485 363.632C739.485 366.768 737.533 368.224 735.341 368.224C734.637 368.224 733.741 368.016 733.309 367.664L732.749 366.832V371.136H731.373V359.52H732.749V360.88L733.389 359.968C733.869 359.568 734.765 359.296 735.629 359.296ZM735.341 367.168C736.829 367.168 737.981 366.016 737.981 363.792C737.981 361.872 737.117 360.352 735.421 360.352C734.013 360.352 732.749 361.248 732.749 363.68V364.144C732.749 366.336 734.125 367.168 735.341 367.168ZM744.642 359.328C744.866 359.328 745.058 359.36 745.218 359.44V360.48C743.778 360.384 742.69 361.232 742.69 363.168V368H741.314V359.52H742.69V360.848L743.458 359.712C743.81 359.472 744.242 359.328 744.642 359.328ZM750.072 359.296C752.952 359.296 754.28 361.36 754.28 363.76C754.28 366.144 752.952 368.224 750.072 368.224C747.192 368.224 745.864 366.144 745.864 363.76C745.864 361.36 747.192 359.296 750.072 359.296ZM750.072 367.168C751.784 367.168 752.776 365.744 752.776 363.76C752.776 361.76 751.784 360.352 750.072 360.352C748.36 360.352 747.368 361.76 747.368 363.76C747.368 365.744 748.36 367.168 750.072 367.168ZM757.591 357.888C757.559 358.112 757.543 358.512 757.543 358.752V359.584H759.287V360.64H757.543V368H756.167V360.64H755.255V359.584H756.167V358.88C756.167 358.56 756.183 358.144 756.215 357.856C756.359 356.624 757.191 355.936 758.455 355.936C758.807 355.936 759.143 355.968 759.431 356.016V357.152C758.391 356.96 757.703 357.2 757.591 357.888ZM767.864 363.52C767.864 363.648 767.864 363.872 767.832 364.176H761.688C761.816 366.416 762.872 367.168 764.12 367.168C765.224 367.168 766.12 366.48 766.312 365.264H767.752C767.416 367.312 765.8 368.224 764.056 368.224C761.848 368.224 760.2 366.784 760.2 363.792C760.2 361.04 761.912 359.296 764.232 359.296C766.568 359.296 767.864 361.04 767.864 363.52ZM764.2 360.352C762.856 360.352 761.864 361.312 761.704 363.12H766.472C766.344 361.36 765.592 360.352 764.2 360.352ZM772.309 359.296C774.213 359.296 775.253 360.384 775.429 361.936H773.989C773.797 360.944 773.189 360.352 772.197 360.352C771.237 360.352 770.789 360.88 770.789 361.616C770.789 362.464 771.493 362.8 772.645 363.104C774.597 363.616 775.525 364.384 775.525 365.824C775.525 367.424 774.165 368.224 772.373 368.224C770.629 368.224 769.301 367.424 769.045 365.504H770.485C770.709 366.736 771.493 367.168 772.469 367.168C773.381 367.168 774.117 366.752 774.117 365.936C774.117 365.12 773.541 364.688 772.117 364.304C770.597 363.888 769.381 363.264 769.381 361.776C769.381 360.224 770.565 359.296 772.309 359.296ZM779.813 359.296C781.717 359.296 782.757 360.384 782.933 361.936H781.493C781.301 360.944 780.693 360.352 779.701 360.352C778.741 360.352 778.293 360.88 778.293 361.616C778.293 362.464 778.997 362.8 780.149 363.104C782.101 363.616 783.029 364.384 783.029 365.824C783.029 367.424 781.669 368.224 779.877 368.224C778.133 368.224 776.805 367.424 776.549 365.504H777.989C778.213 366.736 778.997 367.168 779.973 367.168C780.885 367.168 781.621 366.752 781.621 365.936C781.621 365.12 781.045 364.688 779.621 364.304C778.101 363.888 776.885 363.264 776.885 361.776C776.885 360.224 778.069 359.296 779.813 359.296ZM785.541 356.736C786.037 356.736 786.421 357.12 786.421 357.616C786.421 358.112 786.037 358.496 785.541 358.496C785.045 358.496 784.661 358.112 784.661 357.616C784.661 357.12 785.045 356.736 785.541 356.736ZM786.229 368H784.853V359.52H786.229V368ZM792.329 359.296C795.209 359.296 796.537 361.36 796.537 363.76C796.537 366.144 795.209 368.224 792.329 368.224C789.449 368.224 788.121 366.144 788.121 363.76C788.121 361.36 789.449 359.296 792.329 359.296ZM792.329 367.168C794.041 367.168 795.033 365.744 795.033 363.76C795.033 361.76 794.041 360.352 792.329 360.352C790.617 360.352 789.625 361.76 789.625 363.76C789.625 365.744 790.617 367.168 792.329 367.168ZM805.496 361.776C805.528 362.208 805.528 362.544 805.528 363.232V368H804.152V363.328C804.152 362.896 804.152 362.544 804.12 362.112C804.04 361.12 803.496 360.384 802.184 360.384C800.856 360.384 799.736 361.376 799.736 364.272V368H798.36V359.52H799.736V360.976L800.264 360C800.984 359.44 801.608 359.296 802.472 359.296C804.328 359.296 805.368 360.288 805.496 361.776ZM815.14 361.776C815.172 362.208 815.172 362.544 815.172 363.232V368H813.796V363.328C813.796 362.896 813.796 362.544 813.764 362.112C813.684 361.12 813.14 360.384 811.828 360.384C810.5 360.384 809.38 361.376 809.38 364.272V368H808.004V359.52H809.38V360.976L809.908 360C810.628 359.44 811.252 359.296 812.116 359.296C813.972 359.296 815.012 360.288 815.14 361.776ZM824.609 363.52C824.609 363.648 824.609 363.872 824.577 364.176H818.433C818.561 366.416 819.617 367.168 820.865 367.168C821.969 367.168 822.865 366.48 823.057 365.264H824.497C824.161 367.312 822.545 368.224 820.801 368.224C818.593 368.224 816.945 366.784 816.945 363.792C816.945 361.04 818.657 359.296 820.977 359.296C823.313 359.296 824.609 361.04 824.609 363.52ZM820.945 360.352C819.601 360.352 818.609 361.312 818.449 363.12H823.217C823.089 361.36 822.337 360.352 820.945 360.352ZM827.902 356.24V365.568C827.902 365.824 827.902 366.096 827.918 366.368C827.95 366.912 828.206 367.088 828.958 367.008V368C828.654 368.048 828.302 368.064 827.982 368.064C827.182 368.064 826.59 367.808 826.542 366.736C826.526 366.448 826.526 366.08 826.526 365.616V356.24H827.902ZM833.167 359.296C835.071 359.296 836.111 360.384 836.287 361.936H834.847C834.655 360.944 834.047 360.352 833.055 360.352C832.095 360.352 831.647 360.88 831.647 361.616C831.647 362.464 832.351 362.8 833.503 363.104C835.455 363.616 836.383 364.384 836.383 365.824C836.383 367.424 835.023 368.224 833.231 368.224C831.487 368.224 830.159 367.424 829.903 365.504H831.343C831.567 366.736 832.351 367.168 833.327 367.168C834.239 367.168 834.975 366.752 834.975 365.936C834.975 365.12 834.399 364.688 832.975 364.304C831.455 363.888 830.239 363.264 830.239 361.776C830.239 360.224 831.423 359.296 833.167 359.296ZM849.228 356.24V368H847.852V366.64L847.212 367.552C846.732 367.952 845.836 368.224 844.972 368.224C842.492 368.224 841.116 366.368 841.116 363.888C841.116 360.752 843.068 359.296 845.26 359.296C845.964 359.296 846.86 359.504 847.292 359.856L847.852 360.688V356.24H849.228ZM845.18 367.168C846.588 367.168 847.852 366.272 847.852 363.84V363.376C847.852 361.184 846.476 360.352 845.26 360.352C843.772 360.352 842.62 361.504 842.62 363.728C842.62 365.648 843.484 367.168 845.18 367.168ZM858.784 363.52C858.784 363.648 858.784 363.872 858.752 364.176H852.608C852.736 366.416 853.792 367.168 855.04 367.168C856.144 367.168 857.04 366.48 857.232 365.264H858.672C858.336 367.312 856.72 368.224 854.976 368.224C852.768 368.224 851.12 366.784 851.12 363.792C851.12 361.04 852.832 359.296 855.152 359.296C857.488 359.296 858.784 361.04 858.784 363.52ZM855.12 360.352C853.776 360.352 852.784 361.312 852.624 363.12H857.392C857.264 361.36 856.512 360.352 855.12 360.352ZM866.842 359.296C868.746 359.296 869.786 360.384 869.962 361.936H868.522C868.33 360.944 867.722 360.352 866.73 360.352C865.77 360.352 865.322 360.88 865.322 361.616C865.322 362.464 866.026 362.8 867.178 363.104C869.13 363.616 870.058 364.384 870.058 365.824C870.058 367.424 868.698 368.224 866.906 368.224C865.162 368.224 863.834 367.424 863.578 365.504H865.018C865.242 366.736 866.026 367.168 867.002 367.168C867.914 367.168 868.65 366.752 868.65 365.936C868.65 365.12 868.074 364.688 866.65 364.304C865.13 363.888 863.914 363.264 863.914 361.776C863.914 360.224 865.098 359.296 866.842 359.296ZM876.746 368L876.602 366.784L876.138 367.696C875.562 368.096 874.826 368.224 874.01 368.224C872.474 368.224 871.274 367.376 871.274 365.808C871.274 363.888 872.714 362.896 876.042 362.896H876.586V362.672C876.586 362.304 876.586 361.968 876.554 361.648C876.49 360.864 876.042 360.352 874.906 360.352C873.754 360.352 873.178 360.976 873.082 362.144H871.642C871.77 360.336 873.034 359.296 874.906 359.296C876.922 359.296 877.77 360.144 877.914 361.536C877.946 361.872 877.962 362.288 877.962 362.656V365.84C877.962 366.48 877.994 367.056 878.122 368H876.746ZM874.474 367.168C875.754 367.168 876.586 366.32 876.586 364.784V363.92C874.25 363.744 872.778 364.24 872.778 365.696C872.778 366.72 873.434 367.168 874.474 367.168ZM887.678 361.776C887.71 362.208 887.71 362.544 887.71 363.232V368H886.334V363.328C886.334 362.896 886.334 362.544 886.302 362.112C886.222 361.12 885.678 360.384 884.366 360.384C883.038 360.384 881.918 361.376 881.918 364.272V368H880.542V359.52H881.918V360.976L882.446 360C883.166 359.44 883.79 359.296 884.654 359.296C886.51 359.296 887.55 360.288 887.678 361.776ZM891.834 360.64V365.52C891.834 365.808 891.834 365.952 891.85 366.176C891.914 366.992 892.25 367.168 893.322 367.04V368.048C892.922 368.112 892.538 368.128 892.154 368.128C891.098 368.128 890.554 367.696 890.474 366.64C890.458 366.416 890.458 366.064 890.458 365.584V360.64H889.322V359.584H890.458V357.616H891.834V359.584H893.418V360.64H891.834ZM898.759 358.72H897.863L898.839 356.96H900.119L898.759 358.72ZM902.119 363.52C902.119 363.648 902.119 363.872 902.087 364.176H895.943C896.071 366.416 897.127 367.168 898.375 367.168C899.479 367.168 900.375 366.48 900.567 365.264H902.007C901.671 367.312 900.055 368.224 898.311 368.224C896.103 368.224 894.455 366.784 894.455 363.792C894.455 361.04 896.167 359.296 898.487 359.296C900.823 359.296 902.119 361.04 902.119 363.52ZM898.455 360.352C897.111 360.352 896.119 361.312 895.959 363.12H900.727C900.599 361.36 899.847 360.352 898.455 360.352ZM910.993 359.296C913.025 359.296 914.321 360.512 914.577 362.368H913.137C912.833 361.008 912.097 360.352 910.961 360.352C909.633 360.352 908.513 361.392 908.513 363.68C908.513 366.144 909.601 367.168 910.865 367.168C911.985 367.168 912.769 366.528 913.057 365.296H914.497C914.081 367.264 912.673 368.224 910.785 368.224C908.641 368.224 907.009 366.88 907.009 363.776C907.009 360.912 908.865 359.296 910.993 359.296ZM919.846 359.296C922.726 359.296 924.054 361.36 924.054 363.76C924.054 366.144 922.726 368.224 919.846 368.224C916.966 368.224 915.638 366.144 915.638 363.76C915.638 361.36 916.966 359.296 919.846 359.296ZM919.846 367.168C921.558 367.168 922.55 365.744 922.55 363.76C922.55 361.76 921.558 360.352 919.846 360.352C918.134 360.352 917.142 361.76 917.142 363.76C917.142 365.744 918.134 367.168 919.846 367.168ZM933.013 361.776C933.045 362.208 933.045 362.544 933.045 363.232V368H931.669V363.328C931.669 362.896 931.669 362.544 931.637 362.112C931.557 361.12 931.013 360.384 929.701 360.384C928.373 360.384 927.253 361.376 927.253 364.272V368H925.877V359.52H927.253V360.976L927.781 360C928.501 359.44 929.125 359.296 929.989 359.296C931.845 359.296 932.885 360.288 933.013 361.776ZM942.929 359.52V371.136H941.553V366.64L940.913 367.552C940.433 367.952 939.537 368.224 938.673 368.224C936.193 368.224 934.817 366.368 934.817 363.888C934.817 360.752 936.769 359.296 938.961 359.296C939.665 359.296 940.561 359.504 940.993 359.856L941.553 360.688V359.52H942.929ZM938.881 367.168C940.289 367.168 941.553 366.272 941.553 363.84V363.376C941.553 361.184 940.177 360.352 938.961 360.352C937.473 360.352 936.321 361.504 936.321 363.728C936.321 365.648 937.185 367.168 938.881 367.168ZM952.565 359.52V368H951.189V366.56L950.661 367.552C949.941 368.08 949.317 368.224 948.453 368.224C946.693 368.224 945.669 367.232 945.477 366.064C945.413 365.632 945.397 365.296 945.397 364.608V359.52H946.773V364.352C946.773 364.624 946.789 365.088 946.837 365.52C946.965 366.48 947.653 367.136 948.805 367.136C950.133 367.136 951.189 366.144 951.189 363.248V359.52H952.565ZM955.842 356.736C956.338 356.736 956.722 357.12 956.722 357.616C956.722 358.112 956.338 358.496 955.842 358.496C955.346 358.496 954.962 358.112 954.962 357.616C954.962 357.12 955.346 356.736 955.842 356.736ZM956.53 368H955.154V359.52H956.53V368ZM961.59 359.296C963.494 359.296 964.534 360.384 964.71 361.936H963.27C963.078 360.944 962.47 360.352 961.478 360.352C960.518 360.352 960.07 360.88 960.07 361.616C960.07 362.464 960.774 362.8 961.926 363.104C963.878 363.616 964.806 364.384 964.806 365.824C964.806 367.424 963.446 368.224 961.654 368.224C959.91 368.224 958.582 367.424 958.326 365.504H959.766C959.99 366.736 960.774 367.168 961.75 367.168C962.662 367.168 963.398 366.752 963.398 365.936C963.398 365.12 962.822 364.688 961.398 364.304C959.878 363.888 958.662 363.264 958.662 361.776C958.662 360.224 959.846 359.296 961.59 359.296ZM974.499 359.296C976.979 359.296 978.355 361.152 978.355 363.632C978.355 366.768 976.403 368.224 974.211 368.224C973.507 368.224 972.611 368.016 972.179 367.664L971.619 366.832V371.136H970.243V359.52H971.619V360.88L972.259 359.968C972.739 359.568 973.635 359.296 974.499 359.296ZM974.211 367.168C975.699 367.168 976.851 366.016 976.851 363.792C976.851 361.872 975.987 360.352 974.291 360.352C972.883 360.352 971.619 361.248 971.619 363.68V364.144C971.619 366.336 972.995 367.168 974.211 367.168ZM985.048 368L984.904 366.784L984.44 367.696C983.864 368.096 983.128 368.224 982.312 368.224C980.776 368.224 979.576 367.376 979.576 365.808C979.576 363.888 981.016 362.896 984.344 362.896H984.888V362.672C984.888 362.304 984.888 361.968 984.856 361.648C984.792 360.864 984.344 360.352 983.208 360.352C982.056 360.352 981.48 360.976 981.384 362.144H979.944C980.072 360.336 981.336 359.296 983.208 359.296C985.224 359.296 986.072 360.144 986.216 361.536C986.248 361.872 986.264 362.288 986.264 362.656V365.84C986.264 366.48 986.296 367.056 986.424 368H985.048ZM982.776 367.168C984.056 367.168 984.888 366.32 984.888 364.784V363.92C982.552 363.744 981.08 364.24 981.08 365.696C981.08 366.72 981.736 367.168 982.776 367.168ZM992.172 359.328C992.396 359.328 992.588 359.36 992.748 359.44V360.48C991.308 360.384 990.22 361.232 990.22 363.168V368H988.844V359.52H990.22V360.848L990.988 359.712C991.34 359.472 991.772 359.328 992.172 359.328ZM1005.03 361.776C1005.07 362.208 1005.07 362.544 1005.07 363.232V368H1003.69V363.328C1003.69 362.896 1003.69 362.544 1003.66 362.112C1003.58 361.12 1003.03 360.384 1001.72 360.384C1000.39 360.384 999.275 361.376 999.275 364.272V368H997.899V359.52H999.275V360.976L999.803 360C1000.52 359.44 1001.15 359.296 1002.01 359.296C1003.87 359.296 1004.91 360.288 1005.03 361.776ZM1011.05 359.296C1013.93 359.296 1015.26 361.36 1015.26 363.76C1015.26 366.144 1013.93 368.224 1011.05 368.224C1008.17 368.224 1006.84 366.144 1006.84 363.76C1006.84 361.36 1008.17 359.296 1011.05 359.296ZM1011.05 367.168C1012.76 367.168 1013.75 365.744 1013.75 363.76C1013.75 361.76 1012.76 360.352 1011.05 360.352C1009.34 360.352 1008.34 361.76 1008.34 363.76C1008.34 365.744 1009.34 367.168 1011.05 367.168ZM1019.54 359.296C1021.45 359.296 1022.49 360.384 1022.66 361.936H1021.22C1021.03 360.944 1020.42 360.352 1019.43 360.352C1018.47 360.352 1018.02 360.88 1018.02 361.616C1018.02 362.464 1018.73 362.8 1019.88 363.104C1021.83 363.616 1022.76 364.384 1022.76 365.824C1022.76 367.424 1021.4 368.224 1019.61 368.224C1017.86 368.224 1016.53 367.424 1016.28 365.504H1017.72C1017.94 366.736 1018.73 367.168 1019.7 367.168C1020.61 367.168 1021.35 366.752 1021.35 365.936C1021.35 365.12 1020.77 364.688 1019.35 364.304C1017.83 363.888 1016.61 363.264 1016.61 361.776C1016.61 360.224 1017.8 359.296 1019.54 359.296ZM1029.68 357.888C1029.65 358.112 1029.64 358.512 1029.64 358.752V359.584H1031.38V360.64H1029.64V368H1028.26V360.64H1027.35V359.584H1028.26V358.88C1028.26 358.56 1028.28 358.144 1028.31 357.856C1028.45 356.624 1029.28 355.936 1030.55 355.936C1030.9 355.936 1031.24 355.968 1031.52 356.016V357.152C1030.48 356.96 1029.8 357.2 1029.68 357.888ZM1036.5 359.296C1039.38 359.296 1040.71 361.36 1040.71 363.76C1040.71 366.144 1039.38 368.224 1036.5 368.224C1033.62 368.224 1032.29 366.144 1032.29 363.76C1032.29 361.36 1033.62 359.296 1036.5 359.296ZM1036.5 367.168C1038.21 367.168 1039.2 365.744 1039.2 363.76C1039.2 361.76 1038.21 360.352 1036.5 360.352C1034.79 360.352 1033.8 361.76 1033.8 363.76C1033.8 365.744 1034.79 367.168 1036.5 367.168ZM1045.86 359.328C1046.08 359.328 1046.27 359.36 1046.43 359.44V360.48C1044.99 360.384 1043.91 361.232 1043.91 363.168V368H1042.53V359.52H1043.91V360.848L1044.67 359.712C1045.03 359.472 1045.46 359.328 1045.86 359.328ZM1059.25 361.36C1059.32 361.792 1059.33 362.128 1059.33 362.816V368H1057.96V363.456C1057.96 362.704 1057.94 362.24 1057.89 361.808C1057.76 360.848 1057.16 360.384 1056.2 360.384C1055.12 360.384 1054.34 361.232 1054.34 363.808V368H1052.96V363.456C1052.96 362.704 1052.95 362.24 1052.9 361.808C1052.77 360.848 1052.16 360.384 1051.2 360.384C1050.13 360.384 1049.35 361.232 1049.35 363.808V368H1047.97V359.52H1049.35V360.752L1049.89 359.792C1050.32 359.44 1050.93 359.296 1051.68 359.296C1052.98 359.296 1053.81 359.952 1054.13 360.88L1054.88 359.792C1055.32 359.44 1055.92 359.296 1056.68 359.296C1058.2 359.296 1059.06 360.192 1059.25 361.36ZM1066.68 368L1066.54 366.784L1066.08 367.696C1065.5 368.096 1064.76 368.224 1063.95 368.224C1062.41 368.224 1061.21 367.376 1061.21 365.808C1061.21 363.888 1062.65 362.896 1065.98 362.896H1066.52V362.672C1066.52 362.304 1066.52 361.968 1066.49 361.648C1066.43 360.864 1065.98 360.352 1064.84 360.352C1063.69 360.352 1063.12 360.976 1063.02 362.144H1061.58C1061.71 360.336 1062.97 359.296 1064.84 359.296C1066.86 359.296 1067.71 360.144 1067.85 361.536C1067.88 361.872 1067.9 362.288 1067.9 362.656V365.84C1067.9 366.48 1067.93 367.056 1068.06 368H1066.68ZM1064.41 367.168C1065.69 367.168 1066.52 366.32 1066.52 364.784V363.92C1064.19 363.744 1062.72 364.24 1062.72 365.696C1062.72 366.72 1063.37 367.168 1064.41 367.168ZM1072.13 360.64V365.52C1072.13 365.808 1072.13 365.952 1072.14 366.176C1072.21 366.992 1072.54 367.168 1073.62 367.04V368.048C1073.22 368.112 1072.83 368.128 1072.45 368.128C1071.39 368.128 1070.85 367.696 1070.77 366.64C1070.75 366.416 1070.75 366.064 1070.75 365.584V360.64H1069.62V359.584H1070.75V357.616H1072.13V359.584H1073.71V360.64H1072.13ZM1076.34 356.736C1076.84 356.736 1077.22 357.12 1077.22 357.616C1077.22 358.112 1076.84 358.496 1076.34 358.496C1075.85 358.496 1075.46 358.112 1075.46 357.616C1075.46 357.12 1075.85 356.736 1076.34 356.736ZM1077.03 368H1075.66V359.52H1077.03V368ZM1083.13 359.296C1086.01 359.296 1087.34 361.36 1087.34 363.76C1087.34 366.144 1086.01 368.224 1083.13 368.224C1080.25 368.224 1078.92 366.144 1078.92 363.76C1078.92 361.36 1080.25 359.296 1083.13 359.296ZM1083.13 367.168C1084.84 367.168 1085.84 365.744 1085.84 363.76C1085.84 361.76 1084.84 360.352 1083.13 360.352C1081.42 360.352 1080.43 361.76 1080.43 363.76C1080.43 365.744 1081.42 367.168 1083.13 367.168ZM1096.3 361.776C1096.33 362.208 1096.33 362.544 1096.33 363.232V368H1094.95V363.328C1094.95 362.896 1094.95 362.544 1094.92 362.112C1094.84 361.12 1094.3 360.384 1092.99 360.384C1091.66 360.384 1090.54 361.376 1090.54 364.272V368H1089.16V359.52H1090.54V360.976L1091.07 360C1091.79 359.44 1092.41 359.296 1093.27 359.296C1095.13 359.296 1096.17 360.288 1096.3 361.776ZM1101.27 359.296C1103.17 359.296 1104.21 360.384 1104.39 361.936H1102.95C1102.76 360.944 1102.15 360.352 1101.16 360.352C1100.2 360.352 1099.75 360.88 1099.75 361.616C1099.75 362.464 1100.45 362.8 1101.61 363.104C1103.56 363.616 1104.49 364.384 1104.49 365.824C1104.49 367.424 1103.13 368.224 1101.33 368.224C1099.59 368.224 1098.26 367.424 1098.01 365.504H1099.45C1099.67 366.736 1100.45 367.168 1101.43 367.168C1102.34 367.168 1103.08 366.752 1103.08 365.936C1103.08 365.12 1102.5 364.688 1101.08 364.304C1099.56 363.888 1098.34 363.264 1098.34 361.776C1098.34 360.224 1099.53 359.296 1101.27 359.296ZM1106.74 366.176C1107.33 366.176 1107.77 366.608 1107.77 367.2C1107.77 367.792 1107.33 368.224 1106.74 368.224C1106.15 368.224 1105.72 367.792 1105.72 367.2C1105.72 366.608 1106.15 366.176 1106.74 366.176Z"
       fill="#302D2D"
       id="path21" />
    <g
       filter="url(#filter0_diii_3565_40219)"
       id="g22">
      <rect
         x="575.621"
         y="418"
         width="288"
         height="56"
         rx="28"
         fill="#302D2D"
         shape-rendering="crispEdges"
         id="rect21" />
      <path
         d="M606.576 441.024C609.136 441.328 611.024 443.008 611.024 446.352C611.024 449.648 609.072 451.616 606.512 451.936C605.952 452 605.696 452 605.104 452H601.6V440.96H605.168C605.76 440.96 606.016 440.96 606.576 441.024ZM606.208 450.528C607.984 450.272 609.136 448.8 609.136 446.352C609.136 444.032 608.032 442.688 606.272 442.432C605.92 442.368 605.536 442.352 605.008 442.352H603.36V450.592H604.944C605.488 450.592 605.856 450.592 606.208 450.528ZM616.7 442.752H615.644L616.748 440.928H618.348L616.7 442.752ZM620.156 447.536C620.156 447.696 620.156 447.936 620.124 448.24H614.028C614.172 450.272 615.1 450.944 616.252 450.944C617.276 450.944 618.076 450.32 618.252 449.248H620.028C619.66 451.264 618.044 452.224 616.188 452.224C613.916 452.224 612.204 450.784 612.204 447.776C612.204 445.088 613.916 443.28 616.364 443.28C618.828 443.28 620.156 445.136 620.156 447.536ZM616.3 444.56C615.1 444.56 614.236 445.376 614.044 447.008H618.348C618.22 445.44 617.532 444.56 616.3 444.56ZM625.461 443.28C627.605 443.28 628.965 444.576 629.173 446.448H627.397C627.141 445.152 626.453 444.56 625.413 444.56C624.181 444.56 623.205 445.536 623.205 447.664C623.205 449.968 624.165 450.944 625.349 450.944C626.357 450.944 627.077 450.336 627.333 449.184H629.125C628.725 451.216 627.253 452.224 625.253 452.224C623.029 452.224 621.349 450.816 621.349 447.792C621.349 444.896 623.237 443.28 625.461 443.28ZM634.516 443.28C637.364 443.28 638.82 445.264 638.82 447.744C638.82 450.224 637.364 452.224 634.516 452.224C631.652 452.224 630.212 450.224 630.212 447.744C630.212 445.264 631.652 443.28 634.516 443.28ZM634.516 450.944C636.052 450.944 636.948 449.664 636.948 447.744C636.948 445.824 636.052 444.56 634.516 444.56C632.964 444.56 632.068 445.824 632.068 447.744C632.068 449.664 632.964 450.944 634.516 450.944ZM647.936 443.504V452H646.192V450.544L645.6 451.6C644.928 452.08 644.304 452.224 643.456 452.224C641.696 452.224 640.672 451.232 640.48 450.064C640.416 449.632 640.4 449.248 640.4 448.56V443.504H642.144V448.208C642.144 448.48 642.16 448.944 642.208 449.376C642.336 450.304 642.944 450.912 644.032 450.912C645.264 450.912 646.192 449.968 646.192 447.504V443.504H647.936ZM657.8 443.504L654.552 452H652.504L649.256 443.504H651.192L653.576 450.704L655.928 443.504H657.8ZM662.905 443.296C663.145 443.296 663.321 443.328 663.497 443.392V444.768C661.881 444.656 660.873 445.488 660.873 447.584V452H659.113V443.504H660.873V444.944L661.593 443.776C661.977 443.472 662.473 443.296 662.905 443.296ZM665.794 440.544C666.386 440.544 666.834 440.976 666.834 441.552C666.834 442.144 666.386 442.576 665.794 442.576C665.202 442.576 664.77 442.144 664.77 441.552C664.77 440.976 665.202 440.544 665.794 440.544ZM666.674 452H664.914V443.504H666.674V452ZM672.881 443.296C673.121 443.296 673.297 443.328 673.473 443.392V444.768C671.857 444.656 670.849 445.488 670.849 447.584V452H669.089V443.504H670.849V444.944L671.569 443.776C671.953 443.472 672.449 443.296 672.881 443.296ZM680.443 444.8V449.248C680.443 449.536 680.443 449.728 680.459 449.952C680.523 450.784 680.843 450.96 681.995 450.848V452.064C681.547 452.128 681.131 452.16 680.699 452.16C679.371 452.16 678.795 451.664 678.715 450.544C678.699 450.256 678.699 449.888 678.699 449.408V444.8H677.499V443.568H678.699V441.536H680.443V443.568H682.107V444.8H680.443ZM687.343 443.28C690.191 443.28 691.647 445.264 691.647 447.744C691.647 450.224 690.191 452.224 687.343 452.224C684.479 452.224 683.039 450.224 683.039 447.744C683.039 445.264 684.479 443.28 687.343 443.28ZM687.343 450.944C688.879 450.944 689.775 449.664 689.775 447.744C689.775 445.824 688.879 444.56 687.343 444.56C685.791 444.56 684.895 445.824 684.895 447.744C684.895 449.664 685.791 450.944 687.343 450.944ZM700.762 443.504V452H699.018V450.544L698.426 451.6C697.754 452.08 697.13 452.224 696.282 452.224C694.522 452.224 693.498 451.232 693.306 450.064C693.242 449.632 693.226 449.248 693.226 448.56V443.504H694.97V448.208C694.97 448.48 694.986 448.944 695.034 449.376C695.162 450.304 695.77 450.912 696.858 450.912C698.09 450.912 699.018 449.968 699.018 447.504V443.504H700.762ZM705.267 444.8V449.248C705.267 449.536 705.267 449.728 705.283 449.952C705.347 450.784 705.667 450.96 706.819 450.848V452.064C706.371 452.128 705.955 452.16 705.523 452.16C704.195 452.16 703.619 451.664 703.539 450.544C703.523 450.256 703.523 449.888 703.523 449.408V444.8H702.323V443.568H703.523V441.536H705.267V443.568H706.931V444.8H705.267ZM715.815 447.536C715.815 447.696 715.815 447.936 715.783 448.24H709.687C709.831 450.272 710.759 450.944 711.911 450.944C712.935 450.944 713.735 450.32 713.911 449.248H715.687C715.319 451.264 713.703 452.224 711.847 452.224C709.575 452.224 707.863 450.784 707.863 447.776C707.863 445.088 709.575 443.28 712.023 443.28C714.487 443.28 715.815 445.136 715.815 447.536ZM711.959 444.56C710.759 444.56 709.895 445.376 709.703 447.008H714.007C713.879 445.44 713.191 444.56 711.959 444.56ZM720.383 443.28C722.335 443.28 723.423 444.384 723.615 445.936H721.823C721.647 445.04 721.119 444.512 720.255 444.512C719.423 444.512 719.023 444.976 719.023 445.616C719.023 446.384 719.647 446.704 720.911 447.04C722.767 447.52 723.743 448.256 723.743 449.76C723.743 451.408 722.287 452.224 720.431 452.224C718.543 452.224 717.151 451.376 716.911 449.456H718.687C718.895 450.544 719.615 450.976 720.495 450.976C721.311 450.976 721.967 450.624 721.967 449.888C721.967 449.152 721.391 448.752 719.951 448.368C718.399 447.968 717.247 447.312 717.247 445.824C717.247 444.24 718.495 443.28 720.383 443.28ZM736.377 445.712C736.409 446.144 736.425 446.528 736.425 447.216V452H734.665V447.408C734.665 447.008 734.665 446.64 734.633 446.208C734.553 445.248 734.041 444.576 732.841 444.576C731.625 444.576 730.633 445.536 730.633 448.192V452H728.873V443.504H730.633V444.912L731.209 443.936C731.881 443.424 732.505 443.28 733.353 443.28C735.177 443.28 736.217 444.224 736.377 445.712ZM742.4 443.28C745.248 443.28 746.704 445.264 746.704 447.744C746.704 450.224 745.248 452.224 742.4 452.224C739.536 452.224 738.096 450.224 738.096 447.744C738.096 445.264 739.536 443.28 742.4 443.28ZM742.4 450.944C743.936 450.944 744.832 449.664 744.832 447.744C744.832 445.824 743.936 444.56 742.4 444.56C740.848 444.56 739.952 445.824 739.952 447.744C739.952 449.664 740.848 450.944 742.4 450.944ZM751.148 443.28C753.1 443.28 754.188 444.384 754.38 445.936H752.588C752.412 445.04 751.884 444.512 751.02 444.512C750.188 444.512 749.788 444.976 749.788 445.616C749.788 446.384 750.412 446.704 751.676 447.04C753.532 447.52 754.508 448.256 754.508 449.76C754.508 451.408 753.052 452.224 751.196 452.224C749.308 452.224 747.916 451.376 747.676 449.456H749.452C749.66 450.544 750.38 450.976 751.26 450.976C752.076 450.976 752.732 450.624 752.732 449.888C752.732 449.152 752.156 448.752 750.716 448.368C749.164 447.968 748.012 447.312 748.012 445.824C748.012 444.24 749.26 443.28 751.148 443.28ZM761.574 442.112C761.542 442.336 761.526 442.688 761.526 442.928V443.568H763.27V444.8H761.526V452H759.782V444.8H758.87V443.568H759.782V443.024C759.782 442.72 759.782 442.304 759.814 442.016C759.958 440.704 760.838 439.936 762.438 439.936C762.79 439.936 763.126 439.968 763.414 440.032V441.344C762.374 441.152 761.67 441.408 761.574 442.112ZM768.447 443.28C771.295 443.28 772.751 445.264 772.751 447.744C772.751 450.224 771.295 452.224 768.447 452.224C765.583 452.224 764.143 450.224 764.143 447.744C764.143 445.264 765.583 443.28 768.447 443.28ZM768.447 450.944C769.983 450.944 770.879 449.664 770.879 447.744C770.879 445.824 769.983 444.56 768.447 444.56C766.895 444.56 765.999 445.824 765.999 447.744C765.999 449.664 766.895 450.944 768.447 450.944ZM778.25 443.296C778.49 443.296 778.666 443.328 778.842 443.392V444.768C777.226 444.656 776.218 445.488 776.218 447.584V452H774.458V443.504H776.218V444.944L776.938 443.776C777.322 443.472 777.818 443.296 778.25 443.296ZM792.163 445.36C792.227 445.792 792.243 446.176 792.243 446.864V452H790.483V447.504C790.483 446.864 790.467 446.4 790.419 445.968C790.307 445.056 789.747 444.576 788.835 444.576C787.811 444.576 787.123 445.424 787.123 447.728V452H785.379V447.504C785.379 446.864 785.363 446.4 785.315 445.968C785.187 445.056 784.643 444.576 783.731 444.576C782.691 444.576 782.019 445.424 782.019 447.728V452H780.259V443.504H782.019V444.768L782.595 443.776C783.043 443.424 783.635 443.28 784.403 443.28C785.747 443.28 786.595 443.952 786.915 444.896L787.699 443.776C788.163 443.424 788.755 443.28 789.507 443.28C791.075 443.28 791.971 444.192 792.163 445.36ZM799.44 452L799.28 450.768L798.848 451.68C798.272 452.08 797.536 452.224 796.736 452.224C795.232 452.224 794 451.36 794 449.776C794 447.888 795.504 446.864 798.72 446.864H799.264V446.656C799.264 446.336 799.264 446.048 799.232 445.728C799.184 445.04 798.752 444.56 797.744 444.56C796.72 444.56 796.192 445.136 796.096 446.192H794.336C794.448 444.336 795.84 443.28 797.776 443.28C799.968 443.28 800.832 444.208 800.976 445.648C801.008 446 801.024 446.448 801.024 446.848V449.84C801.024 450.48 801.056 451.056 801.184 452H799.44ZM797.376 450.944C798.48 450.944 799.264 450.192 799.264 448.816V448.032C797.2 447.872 795.856 448.336 795.856 449.632C795.856 450.528 796.448 450.944 797.376 450.944ZM805.519 444.8V449.248C805.519 449.536 805.519 449.728 805.535 449.952C805.599 450.784 805.919 450.96 807.071 450.848V452.064C806.623 452.128 806.207 452.16 805.775 452.16C804.447 452.16 803.871 451.664 803.791 450.544C803.775 450.256 803.775 449.888 803.775 449.408V444.8H802.575V443.568H803.775V441.536H805.519V443.568H807.183V444.8H805.519ZM809.822 440.544C810.414 440.544 810.862 440.976 810.862 441.552C810.862 442.144 810.414 442.576 809.822 442.576C809.23 442.576 808.798 442.144 808.798 441.552C808.798 440.976 809.23 440.544 809.822 440.544ZM810.702 452H808.942V443.504H810.702V452ZM816.782 443.28C819.63 443.28 821.086 445.264 821.086 447.744C821.086 450.224 819.63 452.224 816.782 452.224C813.918 452.224 812.478 450.224 812.478 447.744C812.478 445.264 813.918 443.28 816.782 443.28ZM816.782 450.944C818.318 450.944 819.214 449.664 819.214 447.744C819.214 445.824 818.318 444.56 816.782 444.56C815.23 444.56 814.334 445.824 814.334 447.744C814.334 449.664 815.23 450.944 816.782 450.944ZM830.297 445.712C830.329 446.144 830.345 446.528 830.345 447.216V452H828.585V447.408C828.585 447.008 828.585 446.64 828.553 446.208C828.473 445.248 827.961 444.576 826.761 444.576C825.545 444.576 824.553 445.536 824.553 448.192V452H822.793V443.504H824.553V444.912L825.129 443.936C825.801 443.424 826.425 443.28 827.273 443.28C829.097 443.28 830.137 444.224 830.297 445.712ZM835.392 443.28C837.344 443.28 838.432 444.384 838.624 445.936H836.832C836.656 445.04 836.128 444.512 835.264 444.512C834.432 444.512 834.032 444.976 834.032 445.616C834.032 446.384 834.656 446.704 835.92 447.04C837.776 447.52 838.752 448.256 838.752 449.76C838.752 451.408 837.296 452.224 835.44 452.224C833.552 452.224 832.16 451.376 831.92 449.456H833.696C833.904 450.544 834.624 450.976 835.504 450.976C836.32 450.976 836.976 450.624 836.976 449.888C836.976 449.152 836.4 448.752 834.96 448.368C833.408 447.968 832.256 447.312 832.256 445.824C832.256 444.24 833.504 443.28 835.392 443.28Z"
         fill="white"
         id="path22" />
    </g>
  </g>
  <defs
     id="defs30">
    <filter
       id="filter0_diii_3565_40219"
       x="573.621"
       y="414"
       width="292"
       height="63"
       filterUnits="userSpaceOnUse"
       color-interpolation-filters="sRGB">
      <feFlood
         flood-opacity="0"
         result="BackgroundImageFix"
         id="feFlood23" />
      <feColorMatrix
         in="SourceAlpha"
         type="matrix"
         values="0 0 0 0 0 0 0 0 0 0 0 0 0 0 0 0 0 0 127 0"
         result="hardAlpha"
         id="feColorMatrix23" />
      <feOffset
         dy="1"
         id="feOffset23" />
      <feGaussianBlur
         stdDeviation="1"
         id="feGaussianBlur23" />
      <feComposite
         in2="hardAlpha"
         operator="out"
         id="feComposite23" />
      <feColorMatrix
         type="matrix"
         values="0 0 0 0 0 0 0 0 0 0 0 0 0 0 0 0 0 0 0.24 0"
         id="feColorMatrix24" />
      <feBlend
         mode="normal"
         in2="BackgroundImageFix"
         result="effect1_dropShadow_3565_40219"
         id="feBlend24" />
      <feBlend
         mode="normal"
         in="SourceGraphic"
         in2="effect1_dropShadow_3565_40219"
         result="shape"
         id="feBlend25" />
      <feColorMatrix
         in="SourceAlpha"
         type="matrix"
         values="0 0 0 0 0 0 0 0 0 0 0 0 0 0 0 0 0 0 127 0"
         result="hardAlpha"
         id="feColorMatrix25" />
      <feOffset
         dy="4"
         id="feOffset25" />
      <feComposite
         in2="hardAlpha"
         operator="arithmetic"
         k2="-1"
         k3="1"
         id="feComposite25" />
      <feColorMatrix
         type="matrix"
         values="0 0 0 0 1 0 0 0 0 1 0 0 0 0 1 0 0 0 0.24 0"
         id="feColorMatrix26" />
      <feBlend
         mode="normal"
         in2="shape"
         result="effect2_innerShadow_3565_40219"
         id="feBlend26" />
      <feColorMatrix
         in="SourceAlpha"
         type="matrix"
         values="0 0 0 0 0 0 0 0 0 0 0 0 0 0 0 0 0 0 127 0"
         result="hardAlpha"
         id="feColorMatrix27" />
      <feOffset
         dy="1"
         id="feOffset27" />
      <feGaussianBlur
         stdDeviation="1.5"
         id="feGaussianBlur27" />
      <feComposite
         in2="hardAlpha"
         operator="arithmetic"
         k2="-1"
         k3="1"
         id="feComposite27" />
      <feColorMatrix
         type="matrix"
         values="0 0 0 0 1 0 0 0 0 1 0 0 0 0 1 0 0 0 0.56 0"
         id="feColorMatrix28" />
      <feBlend
         mode="normal"
         in2="effect2_innerShadow_3565_40219"
         result="effect3_innerShadow_3565_40219"
         id="feBlend28" />
      <feColorMatrix
         in="SourceAlpha"
         type="matrix"
         values="0 0 0 0 0 0 0 0 0 0 0 0 0 0 0 0 0 0 127 0"
         result="hardAlpha"
         id="feColorMatrix29" />
      <feOffset
         dy="-4"
         id="feOffset29" />
      <feGaussianBlur
         stdDeviation="2"
         id="feGaussianBlur29" />
      <feComposite
         in2="hardAlpha"
         operator="arithmetic"
         k2="-1"
         k3="1"
         id="feComposite29" />
      <feColorMatrix
         type="matrix"
         values="0 0 0 0 0.0292154 0 0 0 0 0.0556704 0 0 0 0 0.0556704 0 0 0 1 0"
         id="feColorMatrix30" />
      <feBlend
         mode="normal"
         in2="effect3_innerShadow_3565_40219"
         result="effect4_innerShadow_3565_40219"
         id="feBlend30" />
    </filter>
    <clipPath
       id="clip0_3565_40219">
      <rect
         width="1440"
         height="682"
         fill="white"
         id="rect30" />
    </clipPath>
  </defs>
</svg>
