<?xml version="1.0" encoding="UTF-8" standalone="no"?>
<svg
   width="1175"
   height="323"
   viewBox="0 0 1175 323"
   fill="none"
   version="1.1"
   id="svg5"
   sodipodi:docname="bloc-urgence-rapport.svg"
   inkscape:version="1.4.3 (0d15f75, 2025-12-25)"
   xmlns:inkscape="http://www.inkscape.org/namespaces/inkscape"
   xmlns:sodipodi="http://sodipodi.sourceforge.net/DTD/sodipodi-0.dtd"
   xmlns="http://www.w3.org/2000/svg"
   xmlns:svg="http://www.w3.org/2000/svg">
  <defs
     id="defs5" />
  <sodipodi:namedview
     id="namedview5"
     pagecolor="#505050"
     bordercolor="#eeeeee"
     borderopacity="1"
     inkscape:showpageshadow="0"
     inkscape:pageopacity="0"
     inkscape:pagecheckerboard="0"
     inkscape:deskcolor="#505050"
     inkscape:zoom="0.85862965"
     inkscape:cx="458.87071"
     inkscape:cy="260.29849"
     inkscape:window-width="1920"
     inkscape:window-height="1046"
     inkscape:window-x="2869"
     inkscape:window-y="-11"
     inkscape:window-maximized="1"
     inkscape:current-layer="svg5" />
  <mask
     id="path-1-inside-1_3565_40021"
     fill="#ffffff">
    <path
       d="M 0,12 C 0,5.37258 5.37258,0 12,0 h 704 c 6.627,0 12,5.37258 12,12 v 88 c 0,6.627 -5.373,12 -12,12 H 12 C 5.3726,112 0,106.627 0,100 Z"
       id="path1" />
  </mask>
  <path
     d="M -4.1685259e-6,36.81273 C -4.1685259e-6,17.520654 8.6816515,1.8813515 19.391029,1.8813515 H 1156.9979 c 10.7087,0 19.391,15.6393025 19.391,34.9313785 v 256.16343 c 0,19.29085 -8.6823,34.93139 -19.391,34.93139 H 19.391029 C 8.6816841,327.90755 -4.1685259e-6,312.26701 -4.1685259e-6,292.97616 Z"
     fill="#F9F5F2"
     id="path2"
     style="fill:#ffffff;stroke-width:2.16884" />
  <path
     d="M 0,0 H 728 Z M 728,112 H 0 Z M 12,112 C 3.71573,112 -3,105.284 -3,97 V 15 C -3,6.71573 3.71573,0 12,0 7.02944,0 3,5.37258 3,12 v 88 c 0,6.627 4.02944,12 9,12 z M 728,0 v 112 z"
     fill="#006e90"
     mask="url(#path-1-inside-1_3565_40021)"
     id="path3"
     style="display:inline"
     transform="matrix(1.9854701,0,0,2.9109481,-4.1685259e-6,1.8813515)" />
  <rect
     x="47.651272"
     y="33.648872"
     width="220.38718"
     height="47.651283"
     rx="7.9418802"
     fill="white"
     id="rect3"
     style="fill:#f9f5f2;fill-opacity:1;stroke-width:1.98547" />
  <path
     d="m 78.107526,57.022451 c 2.50169,0.611525 3.83593,2.02915 3.83593,4.586436 0,3.502369 -2.55729,5.170164 -5.08677,5.53152 -0.94509,0.138983 -1.58441,0.138983 -2.55729,0.138983 h -6.5322 V 48.099748 h 6.19864 c 0.94509,0 1.55661,0 2.50169,0.111187 3.05763,0.416948 4.78102,2.056947 4.78102,4.725419 0,2.168133 -1.16746,3.418979 -3.14102,4.086097 z m -7.2827,-6.5044 v 5.670503 h 3.33559 c 0.47254,0 0.94508,-0.0278 1.44542,-0.111187 1.69559,-0.277966 2.4183,-1.250846 2.4183,-2.807454 0,-1.695592 -1.08406,-2.501693 -2.61288,-2.668472 -0.44474,-0.05559 -1.00067,-0.08339 -1.44542,-0.08339 z m 5.08677,14.287443 c 1.58441,-0.138983 2.80746,-1.195253 2.80746,-3.057624 0,-2.084744 -1.19526,-2.918641 -2.83525,-3.113217 -0.55594,-0.08339 -1.00068,-0.08339 -1.44543,-0.08339 h -3.61355 v 6.282027 h 3.78033 c 0.44475,0 0.94509,0 1.30644,-0.0278 z m 18.19644,-17.094898 c 5.86508,0 9.228464,4.030505 9.228464,9.978973 0,5.920672 -3.363384,9.978973 -9.228464,9.978973 -5.89308,0 -9.25646,-4.058301 -9.25646,-9.978973 0,-5.948468 3.36338,-9.978973 9.25646,-9.978973 z m 0,17.623033 c 3.72474,0 5.948274,-2.890845 5.948274,-7.64406 0,-4.781012 -2.223534,-7.64406 -5.948274,-7.64406 -3.75274,0 -5.97646,2.863048 -5.97646,7.64406 0,4.753215 2.22372,7.64406 5.97646,7.64406 z m 29.269604,1.945761 h -4.39186 l -8.50575,-15.816255 c 0.0834,2.19593 0.11118,4.669825 0.11118,6.643383 v 9.172872 h -3.05762 V 48.099748 h 4.30847 l 8.58914,15.927442 c -0.0554,-2.168134 -0.0832,-4.725419 -0.0832,-6.698977 v -9.228465 h 3.00183 z M 140.983,46.821106 138.28673,43.985855 h 2.77966 l 1.75119,2.835251 z m 4.03051,14.120663 h -6.81017 l -2.08474,6.337621 h -3.2522 l 6.89355,-19.179642 h 3.94712 l 6.69897,19.179642 h -3.30779 z m -6.00407,-2.418303 h 5.19797 l -2.52949,-7.894229 z m 27.08221,-10.81287 c 4.25288,0 6.33762,2.501693 6.72678,5.837282 h -3.16881 c -0.22238,-2.19593 -1.50102,-3.502369 -3.72475,-3.502369 -1.80677,0 -3.2244,0.833898 -3.2244,2.640675 0,1.862371 1.13966,2.724065 4.1139,3.41898 4.22508,0.97288 6.22643,2.779658 6.22643,5.976265 0,3.474573 -3.08542,5.587113 -6.81016,5.587113 -4.39186,0 -7.19932,-2.084744 -7.58847,-5.948469 h 3.16881 c 0.50034,2.36271 2.16813,3.613556 4.41966,3.613556 2.00135,0 3.58576,-1.084067 3.58576,-2.835251 0,-2.001354 -1.16746,-3.029828 -4.28068,-3.752539 -3.64135,-0.861694 -6.05965,-2.223726 -6.05965,-5.559316 0,-3.391183 3.02983,-5.475927 6.61558,-5.475927 z m 21.00866,13.231173 h -6.81016 l -2.08475,6.337621 h -3.2522 l 6.89356,-19.179642 h 3.94711 l 6.69898,19.179642 h -3.3078 z m -6.00406,-2.418303 h 5.19796 l -2.52949,-7.894229 z M 202.801,67.27939 h -3.94711 l -6.69897,-19.179642 h 3.30779 l 5.42033,16.844729 5.55931,-16.844729 h 3.25221 z m 17.90696,-19.568794 c 5.86508,0 9.22846,4.030505 9.22846,9.978973 0,5.920672 -3.36338,9.978973 -9.22846,9.978973 -5.89288,0 -9.25626,-4.058301 -9.25626,-9.978973 0,-5.948468 3.36338,-9.978973 9.25626,-9.978973 z m 0,17.623033 c 3.72474,0 5.94847,-2.890845 5.94847,-7.64406 0,-4.781012 -2.22373,-7.64406 -5.94847,-7.64406 -3.75254,0 -5.97627,2.863048 -5.97627,7.64406 0,4.753215 2.22373,7.64406 5.97627,7.64406 z m 16.48337,1.945761 h -3.05762 V 48.099748 h 3.05762 z m 18.41126,-4.947792 c 0.22238,2.418303 0.55594,3.891521 1.33424,4.947792 h -3.36339 c -0.50033,-1.250847 -0.7505,-2.4461 -0.97288,-4.55864 -0.25017,-2.02915 -1.00067,-3.307793 -2.75186,-3.418979 -0.47254,-0.0278 -0.94508,-0.0278 -1.41762,-0.0278 h -2.97424 v 8.005416 h -3.05762 V 48.099748 h 6.61558 c 1.02848,0 1.72339,0 2.64068,0.111187 2.77966,0.361355 4.8644,1.834574 4.8644,5.114571 0,2.501692 -1.52881,3.974911 -3.55796,4.586436 1.72339,0.750507 2.4461,2.418302 2.64067,4.419656 z m -10.14575,-5.420333 h 3.19661 c 0.7783,0 1.25085,0 1.72339,-0.05559 1.66779,-0.166779 2.91864,-1.111863 2.91864,-3.141013 0,-2.029151 -1.02848,-2.863048 -2.66847,-3.085421 -0.50034,-0.08339 -1.00068,-0.111186 -1.77898,-0.111186 h -3.39119 z"
     fill="#302d2d"
     id="path4"
     sodipodi:nodetypes="cscsccscscccscscsccscsccscsssssssssscccscccccscccccccccccccccccccccsccsscssccsscsscccccccccccccccccccccssssssssssccccccccccsccccscscccscscscc"
     style="stroke-width:1.98547" />
</svg>
