<?xml version="1.0" encoding="UTF-8" standalone="no"?>
<svg
   width="1175"
   height="323"
   viewBox="0 0 1175 323"
   fill="none"
   version="1.1"
   id="svg12"
   sodipodi:docname="bloc-resume-rapport.svg"
   inkscape:version="1.4.3 (0d15f75, 2025-12-25)"
   xmlns:inkscape="http://www.inkscape.org/namespaces/inkscape"
   xmlns:sodipodi="http://sodipodi.sourceforge.net/DTD/sodipodi-0.dtd"
   xmlns="http://www.w3.org/2000/svg"
   xmlns:svg="http://www.w3.org/2000/svg">
  <sodipodi:namedview
     id="namedview12"
     pagecolor="#505050"
     bordercolor="#eeeeee"
     borderopacity="1"
     inkscape:showpageshadow="0"
     inkscape:pageopacity="0"
     inkscape:pagecheckerboard="0"
     inkscape:deskcolor="#505050"
     inkscape:zoom="0.60714285"
     inkscape:cx="75.764707"
     inkscape:cy="55.176471"
     inkscape:window-width="1920"
     inkscape:window-height="1046"
     inkscape:window-x="2869"
     inkscape:window-y="-11"
     inkscape:window-maximized="1"
     inkscape:current-layer="svg12"
     inkscape:document-units="px" />
  <g
     clip-path="url(#clip0_3565_40024)"
     id="g12"
     transform="matrix(1.6085973,0,0,1.6085973,2.0827135,0.86653426)">
    <rect
       width="728"
       height="200"
       rx="16"
       fill="#006e90"
       id="rect1"
       x="0"
       y="0" />
    <rect
       x="28.344082"
       y="22.028219"
       width="154.81715"
       height="39.527782"
       rx="6.5879641"
       fill="#ffffff"
       id="rect2"
       style="stroke-width:1.64699" />
    <path
       d="m 721.141,172.99 c -6.327,-8.317 -18.299,-9.968 -25.856,-2.751 -58.966,56.319 -71.035,146.579 -28.821,216.427 5.387,8.913 17.321,10.479 25.61,4.173 l 108.38,-82.455 c 8.289,-6.305 9.896,-18.137 3.59,-26.425 z"
       fill="#f19953"
       id="path9" />
    <path
       d="m 772.697,-143.63 c 14.148,15.668 -12.232,62.5473 -58.922,104.7074 C 667.085,3.23741 617.766,24.7132 603.617,9.04484 589.469,-6.6235 615.85,-53.5027 662.54,-95.6627 709.23,-137.823 758.549,-159.299 772.697,-143.63 Z"
       fill="#feca45"
       id="path10" />
    <path
       d="m 809.514,-102.857 c 14.148,15.6682 -12.232,62.5473 -58.922,104.70738 -46.69,42.16002 -96.009,63.63582 -110.157,47.96752 -14.149,-15.6684 12.232,-62.5475 58.922,-104.7076 46.69,-42.16 96.009,-63.6353 110.157,-47.9673 z"
       fill="#feca45"
       id="path11" />
    <path
       d="m 846.331,-62.0841 c 14.149,15.6683 -12.232,62.547456 -58.922,104.7075 -46.69,42.16 -96.009,63.6356 -110.157,47.9675 -14.149,-15.6684 12.232,-62.5475 58.922,-104.7076 46.69,-42.16 96.009,-63.6358 110.157,-47.9674 z"
       fill="#feca45"
       id="path12" />
  </g>
  <path
     d="m 85.530242,79.793643 v 3.244943 H 67.941176 V 57.595283 h 17.220323 v 3.208068 H 71.997354 v 7.891112 h 12.131663 v 3.208069 H 71.997354 v 7.891111 z m 26.276928,3.244943 h -5.82615 L 94.69747,62.05708 c 0.110623,2.913073 0.147497,6.194891 0.147497,8.81297 V 83.038586 H 90.788788 V 57.595283 h 5.715525 l 11.394177,21.129004 c -0.0737,-2.8762 -0.11062,-6.26864 -0.11062,-8.886719 V 57.595283 h 3.98243 z m 32.75787,-6.563635 c 0.29499,3.20807 0.73748,5.16241 1.76996,6.563635 h -4.4618 c -0.66373,-1.659346 -0.9956,-3.244943 -1.2906,-6.047393 -0.33187,-2.691828 -1.32747,-4.388049 -3.65056,-4.535546 -0.62686,-0.03687 -1.25373,-0.03687 -1.88059,-0.03687 h -3.94556 v 10.619809 h -4.05618 V 57.595283 h 8.7761 c 1.36436,0 2.28621,0 3.50306,0.147498 3.68744,0.479365 6.45301,2.433706 6.45301,6.78488 0,3.318692 -2.02808,5.273033 -4.71992,6.084268 2.28622,0.995608 3.24495,3.208069 3.50308,5.863022 z m -13.45915,-7.190499 h 4.24056 c 1.03248,0 1.65934,0 2.2862,-0.07375 2.21247,-0.221247 3.87181,-1.474974 3.87181,-4.166802 0,-2.691828 -1.36435,-3.798059 -3.53994,-4.093053 -0.66373,-0.110623 -1.32748,-0.147498 -2.35996,-0.147498 h -4.49867 z M 161.1498,55.899063 h -2.43371 l 2.32309,-3.761185 h 3.68743 z m 7.63299,23.89458 v 3.244943 H 151.19373 V 57.595283 h 17.22032 v 3.208068 H 155.2499 v 7.891112 h 12.13167 v 3.208069 H 155.2499 v 7.891111 z m 13.40778,-22.714601 c 5.64177,0 8.40735,3.318692 8.92359,7.743614 h -4.20368 c -0.29499,-2.913074 -1.99121,-4.646169 -4.94116,-4.646169 -2.39683,0 -4.27743,1.106231 -4.27743,3.503064 0,2.470581 1.51186,3.613687 5.45742,4.535546 5.60489,1.290602 8.25984,3.687435 8.25984,7.927985 0,4.609295 -4.09305,7.411746 -9.03421,7.411746 -5.82615,0 -9.55045,-2.765577 -10.0667,-7.891112 h 4.20368 c 0.66373,3.13432 2.8762,4.793666 5.86302,4.793666 2.65495,0 4.75679,-1.4381 4.75679,-3.761184 0,-2.654953 -1.54872,-4.019304 -5.67865,-4.978038 -4.83054,-1.143105 -8.0386,-2.949948 -8.0386,-7.374871 0,-4.49867 4.0193,-7.264247 8.77609,-7.264247 z m 34.20939,0.516241 v 15.597851 c 0,0.921859 0,1.659346 -0.0738,2.61808 -0.36875,4.24055 -3.28181,7.743614 -9.9192,7.743614 -6.63739,0 -9.55046,-3.503064 -9.88232,-7.743614 -0.0738,-0.958734 -0.0738,-1.696221 -0.0738,-2.61808 V 57.595283 h 4.0193 v 15.6716 c 0,0.774362 0,1.474974 0.0737,2.064964 0.25812,3.060571 2.21246,5.125535 5.86302,5.125535 3.68744,0 5.64177,-2.064964 5.8999,-5.125535 0.0737,-0.58999 0.0737,-1.290602 0.0737,-2.064964 v -15.6716 z m 32.83397,0 v 25.443303 h -4.02009 V 70.538181 c 0,-2.913075 0,-6.416138 0.0737,-9.107965 -0.73748,2.691827 -1.80685,6.19489 -2.76558,9.07109 l -4.09305,12.53728 h -4.68304 l -4.12993,-12.574154 c -0.92186,-2.839326 -1.99121,-6.305514 -2.69182,-8.997342 0.0737,2.728702 0.0737,6.158016 0.0737,9.071091 v 12.500405 h -4.05618 V 57.595283 h 6.52677 l 6.71113,21.829617 6.71113,-21.829617 z m 16.84632,-1.69622 h -2.43371 l 2.32308,-3.761185 h 3.68744 z m 7.63299,23.89458 v 3.244943 H 256.12417 V 57.595283 h 17.22032 v 3.208068 h -13.16414 v 7.891112 h 12.13166 v 3.208069 h -12.13166 v 7.891111 z"
     fill="#302d2d"
     id="path2"
     style="stroke-width:2.63388" />
  <defs
     id="defs12">
    <clipPath
       id="clip0_3565_40024">
      <rect
         width="728"
         height="200"
         rx="16"
         fill="#ffffff"
         id="rect12"
         x="0"
         y="0" />
    </clipPath>
  </defs>
</svg>
