<?xml version="1.0" encoding="UTF-8" standalone="no"?>
<svg
   width="595"
   height="842"
   viewBox="0 0 595 842"
   fill="none"
   version="1.1"
   id="svg49"
   sodipodi:docname="page-garde-rapport.svg"
   inkscape:version="1.4.3 (0d15f75, 2025-12-25)"
   xmlns:inkscape="http://www.inkscape.org/namespaces/inkscape"
   xmlns:sodipodi="http://sodipodi.sourceforge.net/DTD/sodipodi-0.dtd"
   xmlns="http://www.w3.org/2000/svg"
   xmlns:svg="http://www.w3.org/2000/svg">
  <sodipodi:namedview
     id="namedview49"
     pagecolor="#505050"
     bordercolor="#eeeeee"
     borderopacity="1"
     inkscape:showpageshadow="0"
     inkscape:pageopacity="0"
     inkscape:pagecheckerboard="0"
     inkscape:deskcolor="#505050"
     inkscape:zoom="0.9584323"
     inkscape:cx="297.3606"
     inkscape:cy="504.46964"
     inkscape:window-width="1920"
     inkscape:window-height="1046"
     inkscape:window-x="2869"
     inkscape:window-y="-11"
     inkscape:window-maximized="1"
     inkscape:current-layer="g44" />
  <g
     clip-path="url(#clip0_3316_14)"
     id="g44">
    <rect
       width="595"
       height="842"
       fill="#F9F5F2"
       id="rect1" />
    <rect
       x="547.72"
       y="29.2026"
       width="174.482"
       height="174.482"
       rx="87.241"
       transform="rotate(37.7081 547.72 29.2026)"
       fill="#9F84BD"
       id="rect2" />
    <path
       d="M530.884 -56.4078C520.677 -58.6454 510.486 -52.1488 509.404 -41.7555C500.959 39.3462 550.229 115.93 627.634 141.8C637.511 145.102 647.618 138.565 649.848 128.392L679.01 -4.62988C681.24 -14.8028 674.801 -24.8575 664.628 -27.0877L530.884 -56.4078Z"
       fill="#F19953"
       id="path2" />
    <path
       d="M-8.3719 -79.5207C-24.5693 -61.5829 5.6322 -7.91346 59.0851 40.3533C112.538 88.62 169.001 113.206 185.198 95.2686C201.396 77.3308 171.194 23.6614 117.741 -24.6054C64.2883 -72.8721 7.82554 -97.4585 -8.3719 -79.5207Z"
       fill="#17BEBB"
       id="path5" />
    <path
       d="M-50.5218 -32.8419C-66.7192 -14.9041 -36.5177 38.7654 16.9353 87.0321C70.3882 135.299 126.851 159.885 143.048 141.947C159.246 124.01 129.044 70.3402 75.5914 22.0735C22.1384 -26.1933 -34.3243 -50.7797 -50.5218 -32.8419Z"
       fill="#17BEBB"
       id="path6" />
    <path
       d="M-92.6717 13.8369C-108.869 31.7748 -78.6676 85.4442 -25.2146 133.711C28.2383 181.978 84.7011 206.564 100.899 188.626C117.096 170.688 86.8944 117.019 33.4415 68.7523C-20.0114 20.4855 -76.4742 -4.10089 -92.6717 13.8369Z"
       fill="#17BEBB"
       id="path7" />
    <path
       d="M611.924 624.19C621.018 652.679 605.295 683.145 576.807 692.239C548.318 701.332 517.852 685.61 508.758 657.121C499.665 628.633 515.388 598.166 543.876 589.073C572.365 579.979 602.831 595.702 611.924 624.19Z"
       fill="#D87DA9"
       id="path8" />
    <path
       d="M646.997 734.066C656.091 762.555 640.368 793.021 611.88 802.115C583.391 811.208 552.925 795.486 543.831 766.997C534.738 738.509 550.46 708.042 578.949 698.949C607.437 689.855 637.904 705.578 646.997 734.066Z"
       fill="#D87DA9"
       id="path9" />
    <path
       d="M570.365 695.219C579.458 723.708 563.736 754.174 535.247 763.268C506.759 772.361 476.292 756.639 467.199 728.15C458.105 699.662 473.828 669.195 502.316 660.102C530.805 651.008 561.271 666.731 570.365 695.219Z"
       fill="#D87DA9"
       id="path10" />
    <path
       d="M686.951 658.005C696.044 686.493 680.322 716.96 651.833 726.053C623.345 735.147 592.878 719.424 583.785 690.936C574.691 662.447 590.414 631.981 618.902 622.887C647.391 613.794 677.857 629.516 686.951 658.005Z"
       fill="#D87DA9"
       id="path11" />
    <path
       d="M543.033 687.77L623.972 661.934L638.698 708.065L557.758 733.901L543.033 687.77Z"
       fill="#D87DA9"
       id="path12" />
  </g>
  <defs
     id="defs49">
    <filter
       id="filter0_d_3316_14"
       x="24"
       y="312"
       width="547"
       height="228"
       filterUnits="userSpaceOnUse"
       color-interpolation-filters="sRGB">
      <feFlood
         flood-opacity="0"
         result="BackgroundImageFix"
         id="feFlood44" />
      <feColorMatrix
         in="SourceAlpha"
         type="matrix"
         values="0 0 0 0 0 0 0 0 0 0 0 0 0 0 0 0 0 0 127 0"
         result="hardAlpha"
         id="feColorMatrix44" />
      <feOffset
         dy="2"
         id="feOffset44" />
      <feGaussianBlur
         stdDeviation="16"
         id="feGaussianBlur44" />
      <feComposite
         in2="hardAlpha"
         operator="out"
         id="feComposite44" />
      <feColorMatrix
         type="matrix"
         values="0 0 0 0 0.188235 0 0 0 0 0.176471 0 0 0 0 0.176471 0 0 0 0.06 0"
         id="feColorMatrix45" />
      <feBlend
         mode="normal"
         in2="BackgroundImageFix"
         result="effect1_dropShadow_3316_14"
         id="feBlend45" />
      <feBlend
         mode="normal"
         in="SourceGraphic"
         in2="effect1_dropShadow_3316_14"
         result="shape"
         id="feBlend46" />
    </filter>
    <filter
       id="filter1_d_3316_14"
       x="53"
       y="490"
       width="489"
       height="122"
       filterUnits="userSpaceOnUse"
       color-interpolation-filters="sRGB">
      <feFlood
         flood-opacity="0"
         result="BackgroundImageFix"
         id="feFlood46" />
      <feColorMatrix
         in="SourceAlpha"
         type="matrix"
         values="0 0 0 0 0 0 0 0 0 0 0 0 0 0 0 0 0 0 127 0"
         result="hardAlpha"
         id="feColorMatrix46" />
      <feOffset
         dy="2"
         id="feOffset46" />
      <feGaussianBlur
         stdDeviation="16"
         id="feGaussianBlur46" />
      <feComposite
         in2="hardAlpha"
         operator="out"
         id="feComposite46" />
      <feColorMatrix
         type="matrix"
         values="0 0 0 0 0.188235 0 0 0 0 0.176471 0 0 0 0 0.176471 0 0 0 0.06 0"
         id="feColorMatrix47" />
      <feBlend
         mode="normal"
         in2="BackgroundImageFix"
         result="effect1_dropShadow_3316_14"
         id="feBlend47" />
      <feBlend
         mode="normal"
         in="SourceGraphic"
         in2="effect1_dropShadow_3316_14"
         result="shape"
         id="feBlend48" />
    </filter>
    <clipPath
       id="clip0_3316_14">
      <rect
         width="595"
         height="842"
         fill="white"
         id="rect48" />
    </clipPath>
    <clipPath
       id="clip1_3316_14">
      <rect
         width="215"
         height="96"
         fill="white"
         transform="translate(190 232)"
         id="rect49" />
    </clipPath>
  </defs>
</svg>
